%TF.GenerationSoftware,KiCad,Pcbnew,8.0.1*%
%TF.CreationDate,2026-02-07T08:36:37-06:00*%
%TF.ProjectId,SC-B001-V5,53432d42-3030-4312-9d56-352e6b696361,rev?*%
%TF.SameCoordinates,Original*%
%TF.FileFunction,Copper,L1,Top*%
%TF.FilePolarity,Positive*%
%FSLAX46Y46*%
G04 Gerber Fmt 4.6, Leading zero omitted, Abs format (unit mm)*
G04 Created by KiCad (PCBNEW 8.0.1) date 2026-02-07 08:36:37*
%MOMM*%
%LPD*%
G01*
G04 APERTURE LIST*
G04 Aperture macros list*
%AMRoundRect*
0 Rectangle with rounded corners*
0 $1 Rounding radius*
0 $2 $3 $4 $5 $6 $7 $8 $9 X,Y pos of 4 corners*
0 Add a 4 corners polygon primitive as box body*
4,1,4,$2,$3,$4,$5,$6,$7,$8,$9,$2,$3,0*
0 Add four circle primitives for the rounded corners*
1,1,$1+$1,$2,$3*
1,1,$1+$1,$4,$5*
1,1,$1+$1,$6,$7*
1,1,$1+$1,$8,$9*
0 Add four rect primitives between the rounded corners*
20,1,$1+$1,$2,$3,$4,$5,0*
20,1,$1+$1,$4,$5,$6,$7,0*
20,1,$1+$1,$6,$7,$8,$9,0*
20,1,$1+$1,$8,$9,$2,$3,0*%
G04 Aperture macros list end*
%TA.AperFunction,SMDPad,CuDef*%
%ADD10RoundRect,0.100000X0.637500X0.100000X-0.637500X0.100000X-0.637500X-0.100000X0.637500X-0.100000X0*%
%TD*%
%TA.AperFunction,ComponentPad*%
%ADD11RoundRect,0.250000X-0.725000X0.600000X-0.725000X-0.600000X0.725000X-0.600000X0.725000X0.600000X0*%
%TD*%
%TA.AperFunction,ComponentPad*%
%ADD12O,1.950000X1.700000*%
%TD*%
%TA.AperFunction,SMDPad,CuDef*%
%ADD13RoundRect,0.250000X0.450000X-0.262500X0.450000X0.262500X-0.450000X0.262500X-0.450000X-0.262500X0*%
%TD*%
%TA.AperFunction,ComponentPad*%
%ADD14C,2.100000*%
%TD*%
%TA.AperFunction,SMDPad,CuDef*%
%ADD15RoundRect,0.250000X-0.450000X0.262500X-0.450000X-0.262500X0.450000X-0.262500X0.450000X0.262500X0*%
%TD*%
%TA.AperFunction,ComponentPad*%
%ADD16C,3.000000*%
%TD*%
%TA.AperFunction,ComponentPad*%
%ADD17C,4.500000*%
%TD*%
%TA.AperFunction,ComponentPad*%
%ADD18R,7.600000X4.500000*%
%TD*%
%TA.AperFunction,ComponentPad*%
%ADD19R,4.500000X7.600000*%
%TD*%
%TA.AperFunction,SMDPad,CuDef*%
%ADD20RoundRect,0.250000X-1.000000X-0.650000X1.000000X-0.650000X1.000000X0.650000X-1.000000X0.650000X0*%
%TD*%
%TA.AperFunction,ComponentPad*%
%ADD21R,1.308000X1.308000*%
%TD*%
%TA.AperFunction,ComponentPad*%
%ADD22C,1.308000*%
%TD*%
%TA.AperFunction,ComponentPad*%
%ADD23C,1.750000*%
%TD*%
%TA.AperFunction,SMDPad,CuDef*%
%ADD24RoundRect,0.250000X-0.262500X-0.450000X0.262500X-0.450000X0.262500X0.450000X-0.262500X0.450000X0*%
%TD*%
%TA.AperFunction,SMDPad,CuDef*%
%ADD25RoundRect,0.225000X-0.225000X-0.250000X0.225000X-0.250000X0.225000X0.250000X-0.225000X0.250000X0*%
%TD*%
%TA.AperFunction,SMDPad,CuDef*%
%ADD26RoundRect,0.250000X1.000000X0.650000X-1.000000X0.650000X-1.000000X-0.650000X1.000000X-0.650000X0*%
%TD*%
%TA.AperFunction,SMDPad,CuDef*%
%ADD27RoundRect,0.225000X0.250000X-0.225000X0.250000X0.225000X-0.250000X0.225000X-0.250000X-0.225000X0*%
%TD*%
%TA.AperFunction,ComponentPad*%
%ADD28RoundRect,0.250000X0.600000X0.725000X-0.600000X0.725000X-0.600000X-0.725000X0.600000X-0.725000X0*%
%TD*%
%TA.AperFunction,ComponentPad*%
%ADD29O,1.700000X1.950000*%
%TD*%
%TA.AperFunction,SMDPad,CuDef*%
%ADD30R,1.980000X1.150000*%
%TD*%
%TA.AperFunction,SMDPad,CuDef*%
%ADD31R,0.500000X1.100000*%
%TD*%
%TA.AperFunction,SMDPad,CuDef*%
%ADD32R,1.150000X0.430000*%
%TD*%
%TA.AperFunction,SMDPad,CuDef*%
%ADD33R,0.400000X0.420000*%
%TD*%
%TA.AperFunction,SMDPad,CuDef*%
%ADD34R,0.420000X0.400000*%
%TD*%
%TA.AperFunction,SMDPad,CuDef*%
%ADD35RoundRect,0.150000X0.150000X-0.587500X0.150000X0.587500X-0.150000X0.587500X-0.150000X-0.587500X0*%
%TD*%
%TA.AperFunction,SMDPad,CuDef*%
%ADD36R,2.160000X1.070000*%
%TD*%
%TA.AperFunction,SMDPad,CuDef*%
%ADD37R,5.080000X8.330000*%
%TD*%
%TA.AperFunction,SMDPad,CuDef*%
%ADD38R,1.910000X10.800000*%
%TD*%
%TA.AperFunction,SMDPad,CuDef*%
%ADD39RoundRect,0.250000X-1.000000X1.950000X-1.000000X-1.950000X1.000000X-1.950000X1.000000X1.950000X0*%
%TD*%
%TA.AperFunction,SMDPad,CuDef*%
%ADD40RoundRect,0.250000X-0.250000X-0.475000X0.250000X-0.475000X0.250000X0.475000X-0.250000X0.475000X0*%
%TD*%
%TA.AperFunction,ComponentPad*%
%ADD41C,1.258000*%
%TD*%
%TA.AperFunction,ComponentPad*%
%ADD42C,2.250000*%
%TD*%
%TA.AperFunction,ComponentPad*%
%ADD43C,11.000000*%
%TD*%
%TA.AperFunction,SMDPad,CuDef*%
%ADD44R,0.475000X0.300000*%
%TD*%
%TA.AperFunction,SMDPad,CuDef*%
%ADD45RoundRect,0.250000X-1.500000X-1.000000X1.500000X-1.000000X1.500000X1.000000X-1.500000X1.000000X0*%
%TD*%
%TA.AperFunction,SMDPad,CuDef*%
%ADD46R,1.750000X0.700000*%
%TD*%
%TA.AperFunction,SMDPad,CuDef*%
%ADD47R,1.000000X1.450000*%
%TD*%
%TA.AperFunction,SMDPad,CuDef*%
%ADD48R,1.550000X1.000000*%
%TD*%
%TA.AperFunction,SMDPad,CuDef*%
%ADD49R,1.500000X0.800000*%
%TD*%
%TA.AperFunction,SMDPad,CuDef*%
%ADD50R,1.500000X1.300000*%
%TD*%
%TA.AperFunction,SMDPad,CuDef*%
%ADD51R,1.500000X1.500000*%
%TD*%
%TA.AperFunction,SMDPad,CuDef*%
%ADD52R,1.400000X0.800000*%
%TD*%
%TA.AperFunction,SMDPad,CuDef*%
%ADD53RoundRect,0.250000X0.262500X0.450000X-0.262500X0.450000X-0.262500X-0.450000X0.262500X-0.450000X0*%
%TD*%
%TA.AperFunction,SMDPad,CuDef*%
%ADD54R,2.000000X1.780000*%
%TD*%
%TA.AperFunction,ComponentPad*%
%ADD55R,1.700000X1.700000*%
%TD*%
%TA.AperFunction,ComponentPad*%
%ADD56O,1.700000X1.700000*%
%TD*%
%TA.AperFunction,SMDPad,CuDef*%
%ADD57RoundRect,0.250000X-0.650000X1.000000X-0.650000X-1.000000X0.650000X-1.000000X0.650000X1.000000X0*%
%TD*%
%TA.AperFunction,SMDPad,CuDef*%
%ADD58RoundRect,0.225000X-0.250000X0.225000X-0.250000X-0.225000X0.250000X-0.225000X0.250000X0.225000X0*%
%TD*%
%TA.AperFunction,SMDPad,CuDef*%
%ADD59RoundRect,0.150000X-0.150000X0.587500X-0.150000X-0.587500X0.150000X-0.587500X0.150000X0.587500X0*%
%TD*%
%TA.AperFunction,SMDPad,CuDef*%
%ADD60R,0.650000X1.528000*%
%TD*%
%TA.AperFunction,SMDPad,CuDef*%
%ADD61R,3.022600X5.003800*%
%TD*%
%TA.AperFunction,SMDPad,CuDef*%
%ADD62RoundRect,0.250000X0.475000X-0.250000X0.475000X0.250000X-0.475000X0.250000X-0.475000X-0.250000X0*%
%TD*%
%TA.AperFunction,ComponentPad*%
%ADD63R,1.524000X1.524000*%
%TD*%
%TA.AperFunction,ComponentPad*%
%ADD64C,1.524000*%
%TD*%
%TA.AperFunction,SMDPad,CuDef*%
%ADD65R,1.900000X1.100000*%
%TD*%
%TA.AperFunction,SMDPad,CuDef*%
%ADD66RoundRect,0.225000X0.225000X0.250000X-0.225000X0.250000X-0.225000X-0.250000X0.225000X-0.250000X0*%
%TD*%
%TA.AperFunction,SMDPad,CuDef*%
%ADD67R,1.500000X0.900000*%
%TD*%
%TA.AperFunction,SMDPad,CuDef*%
%ADD68R,0.900000X1.500000*%
%TD*%
%TA.AperFunction,HeatsinkPad*%
%ADD69C,0.762000*%
%TD*%
%TA.AperFunction,SMDPad,CuDef*%
%ADD70R,1.050000X1.050000*%
%TD*%
%TA.AperFunction,SMDPad,CuDef*%
%ADD71R,4.200000X4.200000*%
%TD*%
%TA.AperFunction,SMDPad,CuDef*%
%ADD72RoundRect,0.075000X-0.225000X0.910000X-0.225000X-0.910000X0.225000X-0.910000X0.225000X0.910000X0*%
%TD*%
%TA.AperFunction,SMDPad,CuDef*%
%ADD73R,1.803400X1.066800*%
%TD*%
%TA.AperFunction,ViaPad*%
%ADD74C,0.762000*%
%TD*%
%TA.AperFunction,Conductor*%
%ADD75C,0.508000*%
%TD*%
%TA.AperFunction,Conductor*%
%ADD76C,0.254000*%
%TD*%
%TA.AperFunction,Conductor*%
%ADD77C,0.381000*%
%TD*%
%TA.AperFunction,Conductor*%
%ADD78C,0.762000*%
%TD*%
%TA.AperFunction,Conductor*%
%ADD79C,0.152400*%
%TD*%
%TA.AperFunction,Conductor*%
%ADD80C,0.300000*%
%TD*%
%TA.AperFunction,Conductor*%
%ADD81C,1.016000*%
%TD*%
%TA.AperFunction,Conductor*%
%ADD82C,1.270000*%
%TD*%
%TA.AperFunction,Conductor*%
%ADD83C,0.203200*%
%TD*%
G04 APERTURE END LIST*
D10*
%TO.P,U11,1,~{INT}*%
%TO.N,/I2C_INT*%
X176667000Y-103864000D03*
%TO.P,U11,2,A1*%
%TO.N,GND*%
X176667000Y-103214000D03*
%TO.P,U11,3,A2*%
X176667000Y-102564000D03*
%TO.P,U11,4,P00*%
%TO.N,Net-(U11-P00)*%
X176667000Y-101914000D03*
%TO.P,U11,5,P01*%
%TO.N,Net-(U11-P01)*%
X176667000Y-101264000D03*
%TO.P,U11,6,P02*%
%TO.N,unconnected-(U11-P02-Pad6)*%
X176667000Y-100614000D03*
%TO.P,U11,7,P03*%
%TO.N,unconnected-(U11-P03-Pad7)*%
X176667000Y-99964000D03*
%TO.P,U11,8,P04*%
%TO.N,unconnected-(U11-P04-Pad8)*%
X176667000Y-99314000D03*
%TO.P,U11,9,P05*%
%TO.N,Net-(U11-P05)*%
X176667000Y-98664000D03*
%TO.P,U11,10,P06*%
%TO.N,Net-(U11-P06)*%
X176667000Y-98014000D03*
%TO.P,U11,11,P07*%
%TO.N,Net-(U11-P07)*%
X176667000Y-97364000D03*
%TO.P,U11,12,GND*%
%TO.N,GND*%
X176667000Y-96714000D03*
%TO.P,U11,13,P10*%
%TO.N,SENSORS_EN*%
X170942000Y-96714000D03*
%TO.P,U11,14,P11*%
%TO.N,RELAY_SIG_C3*%
X170942000Y-97364000D03*
%TO.P,U11,15,P12*%
%TO.N,RELAY_SIG_B3*%
X170942000Y-98014000D03*
%TO.P,U11,16,P13*%
%TO.N,RELAY_SIG_A3*%
X170942000Y-98664000D03*
%TO.P,U11,17,P14*%
%TO.N,RELAY_SIG_B2*%
X170942000Y-99314000D03*
%TO.P,U11,18,P15*%
%TO.N,RELAY_SIG_A2*%
X170942000Y-99964000D03*
%TO.P,U11,19,P16*%
%TO.N,RELAY_SIG_A1*%
X170942000Y-100614000D03*
%TO.P,U11,20,P17*%
%TO.N,RELAY_SIG_B1*%
X170942000Y-101264000D03*
%TO.P,U11,21,A0*%
%TO.N,+3.3V*%
X170942000Y-101914000D03*
%TO.P,U11,22,SCL*%
%TO.N,/I2C_SCL*%
X170942000Y-102564000D03*
%TO.P,U11,23,SDA*%
%TO.N,/I2C_SDA*%
X170942000Y-103214000D03*
%TO.P,U11,24,VCC*%
%TO.N,+3.3V*%
X170942000Y-103864000D03*
%TD*%
D11*
%TO.P,J2,1,Pin_1*%
%TO.N,GND_SENSORS*%
X172847000Y-120690000D03*
D12*
%TO.P,J2,2,Pin_2*%
%TO.N,Net-(J2-Pin_2)*%
X172847000Y-123190000D03*
%TO.P,J2,3,Pin_3*%
%TO.N,+12V*%
X172847000Y-125690000D03*
%TD*%
D13*
%TO.P,R13,1*%
%TO.N,Net-(J3-Pin_2)*%
X137922000Y-81684500D03*
%TO.P,R13,2*%
%TO.N,Net-(R13-Pad2)*%
X137922000Y-79859500D03*
%TD*%
D14*
%TO.P,JA3,1,Pin_1*%
%TO.N,Net-(JA3-Pin_1)*%
X128828800Y-138480798D03*
X128828800Y-133400798D03*
%TD*%
D15*
%TO.P,R14,1*%
%TO.N,Net-(R14-Pad1)*%
X137922000Y-75033500D03*
%TO.P,R14,2*%
%TO.N,Net-(J4-Pin_2)*%
X137922000Y-76858500D03*
%TD*%
D14*
%TO.P,JA1,1,Pin_1*%
%TO.N,Net-(JA1-Pin_1)*%
X50038000Y-95250000D03*
X50038000Y-100330000D03*
%TD*%
D13*
%TO.P,R22,1*%
%TO.N,+3.3V*%
X136906000Y-62380500D03*
%TO.P,R22,2*%
%TO.N,SD_CS*%
X136906000Y-60555500D03*
%TD*%
D16*
%TO.P,KB1,A1*%
%TO.N,+12V_RELAYS*%
X73558799Y-135450797D03*
%TO.P,KB1,A2*%
%TO.N,/Relays/RELAY_DRV_B1*%
X73558799Y-118650797D03*
D17*
%TO.P,KB1,COM*%
%TO.N,Net-(JB1-Pin_1)*%
X60258799Y-127050797D03*
D18*
X64058800Y-127050797D03*
D17*
X67858798Y-127050797D03*
%TO.P,KB1,NC*%
%TO.N,GND*%
X73958799Y-123250797D03*
D19*
X73958799Y-127050797D03*
D17*
X73958799Y-130850797D03*
%TO.P,KB1,NO*%
%TO.N,+VBAT*%
X81958799Y-123250797D03*
D19*
X81958799Y-127050797D03*
D17*
X81958799Y-130850797D03*
%TD*%
D11*
%TO.P,J3,1,Pin_1*%
%TO.N,GND_SENSORS*%
X177927000Y-120690000D03*
D12*
%TO.P,J3,2,Pin_2*%
%TO.N,Net-(J3-Pin_2)*%
X177927000Y-123190000D03*
%TO.P,J3,3,Pin_3*%
%TO.N,+12V*%
X177927000Y-125690000D03*
%TD*%
D20*
%TO.P,D3,1,K*%
%TO.N,+VBAT*%
X99066620Y-84316390D03*
%TO.P,D3,2,A*%
%TO.N,GND*%
X103066622Y-84316390D03*
%TD*%
D13*
%TO.P,R23,1*%
%TO.N,+3.3V*%
X134874000Y-62404000D03*
%TO.P,R23,2*%
%TO.N,SD_MOSI*%
X134874000Y-60579000D03*
%TD*%
%TO.P,R24,1*%
%TO.N,+3.3V*%
X132842000Y-62380500D03*
%TO.P,R24,2*%
%TO.N,SD_CLK*%
X132842000Y-60555500D03*
%TD*%
D15*
%TO.P,R17,1*%
%TO.N,Net-(LED1-Pad2)*%
X184404000Y-76926440D03*
%TO.P,R17,2*%
%TO.N,Net-(U11-P07)*%
X184404000Y-78751440D03*
%TD*%
D21*
%TO.P,J5,1,Pin_1*%
%TO.N,+3.3V*%
X171228000Y-56134000D03*
D22*
%TO.P,J5,2,Pin_2*%
%TO.N,GND*%
X173228000Y-56134000D03*
%TO.P,J5,3,Pin_3*%
%TO.N,/I2C_SCL*%
X175228000Y-56134000D03*
%TO.P,J5,4,Pin_4*%
%TO.N,/I2C_SDA*%
X177228000Y-56134000D03*
%TO.P,J5,5,Pin_5*%
%TO.N,/I2C_INT*%
X179228000Y-56134000D03*
%TD*%
D15*
%TO.P,R16,1*%
%TO.N,Net-(LED1-Pad4)*%
X186973000Y-76902940D03*
%TO.P,R16,2*%
%TO.N,Net-(U11-P06)*%
X186973000Y-78727940D03*
%TD*%
D14*
%TO.P,SW1,*%
%TO.N,*%
X189076801Y-95102360D03*
X189076800Y-102112360D03*
D23*
%TO.P,SW1,1,1*%
%TO.N,Net-(U11-P00)*%
X191566800Y-96352360D03*
%TO.P,SW1,2,2*%
%TO.N,GND*%
X191566800Y-100852361D03*
%TD*%
D24*
%TO.P,R19,1*%
%TO.N,/U0~BOOT*%
X164545000Y-74549000D03*
%TO.P,R19,2*%
%TO.N,+3.3V*%
X166370000Y-74549000D03*
%TD*%
D11*
%TO.P,J1,1,Pin_1*%
%TO.N,GND_SENSORS*%
X167767000Y-120690000D03*
D12*
%TO.P,J1,2,Pin_2*%
%TO.N,Net-(J1-Pin_2)*%
X167767000Y-123190000D03*
%TO.P,J1,3,Pin_3*%
%TO.N,+12V*%
X167767000Y-125690000D03*
%TD*%
D25*
%TO.P,C6,1*%
%TO.N,+3.3V*%
X170929000Y-105410000D03*
%TO.P,C6,2*%
%TO.N,GND*%
X172479000Y-105410000D03*
%TD*%
D26*
%TO.P,D4,1,K*%
%TO.N,+12V*%
X136398000Y-100584000D03*
%TO.P,D4,2,A*%
%TO.N,+VBAT_2*%
X132397998Y-100584000D03*
%TD*%
D27*
%TO.P,C4,1*%
%TO.N,+VBAT*%
X105924620Y-87898389D03*
%TO.P,C4,2*%
%TO.N,Net-(U1-FB)*%
X105924620Y-86348389D03*
%TD*%
D28*
%TO.P,J6,1,Pin_1*%
%TO.N,GND*%
X174712000Y-85136000D03*
D29*
%TO.P,J6,2,Pin_2*%
%TO.N,Net-(J6-Pin_2)*%
X172212000Y-85136000D03*
%TO.P,J6,3,Pin_3*%
%TO.N,Net-(J6-Pin_3)*%
X169712000Y-85136000D03*
%TD*%
D30*
%TO.P,U9,1,IP+_1*%
%TO.N,+VBAT*%
X97248000Y-118563000D03*
%TO.P,U9,2,IP-_1*%
%TO.N,+VBAT_IN*%
X97248000Y-120333000D03*
D31*
%TO.P,U9,3,VOC*%
%TO.N,V_ISENS_VOC*%
X99458000Y-121248000D03*
D32*
%TO.P,U9,4,FAULT*%
%TO.N,V_ISENS_FAULT*%
X99988000Y-120208000D03*
%TO.P,U9,5,GND*%
%TO.N,GND*%
X99988000Y-119448000D03*
%TO.P,U9,6,VOUT*%
%TO.N,V_ISENS1*%
X99988000Y-118688000D03*
D31*
%TO.P,U9,7,VDD*%
%TO.N,+3.3V*%
X99458000Y-117648000D03*
D33*
%TO.P,U9,8,IP+_2*%
%TO.N,+VBAT*%
X97558000Y-117348000D03*
D32*
%TO.P,U9,9,IP+_3*%
X97183000Y-117773000D03*
D33*
%TO.P,U9,10,IP+_4*%
X96808000Y-117348000D03*
D34*
%TO.P,U9,11,IP+_5*%
X96048000Y-118188000D03*
%TO.P,U9,12,IP+_6*%
X96048000Y-118938000D03*
%TO.P,U9,13,IP-_2*%
%TO.N,+VBAT_IN*%
X96048000Y-119958000D03*
%TO.P,U9,14,IP-_3*%
X96048000Y-120708000D03*
D33*
%TO.P,U9,15,IP-_4*%
X96808000Y-121548000D03*
D32*
%TO.P,U9,16,IP-_5*%
X97183000Y-121123000D03*
D33*
%TO.P,U9,17,IP-_6*%
X97558000Y-121548000D03*
%TD*%
D15*
%TO.P,R15,1*%
%TO.N,Net-(LED1-Pad6)*%
X189484000Y-76926440D03*
%TO.P,R15,2*%
%TO.N,Net-(U11-P05)*%
X189484000Y-78751440D03*
%TD*%
D35*
%TO.P,Q1,1,G*%
%TO.N,BULK_CHARGE_EN*%
X109286001Y-93654611D03*
%TO.P,Q1,2,S*%
%TO.N,GND*%
X111186001Y-93654611D03*
%TO.P,Q1,3,D*%
%TO.N,Net-(Q1-D)*%
X110236001Y-91779610D03*
%TD*%
D36*
%TO.P,U1,1,VIN*%
%TO.N,Net-(D1-K)*%
X114994000Y-80124610D03*
%TO.P,U1,2,OUT*%
%TO.N,Net-(U1-OUT)*%
X114994001Y-81824610D03*
%TO.P,U1,3,GND*%
%TO.N,GND*%
X114994000Y-83524610D03*
%TO.P,U1,4,FB*%
%TO.N,Net-(U1-FB)*%
X114994001Y-85224610D03*
%TO.P,U1,5,~{ON}/OFF*%
%TO.N,unconnected-(U1-~{ON}{slash}OFF-Pad5)*%
X114994000Y-86924610D03*
D37*
%TO.P,U1,6,EXP*%
%TO.N,GND*%
X124714000Y-83524610D03*
D38*
%TO.P,U1,7,EXP*%
X128209000Y-83524610D03*
%TD*%
D13*
%TO.P,R25,1*%
%TO.N,+3.3V*%
X130810000Y-62380500D03*
%TO.P,R25,2*%
%TO.N,SD_MISO*%
X130810000Y-60555500D03*
%TD*%
D16*
%TO.P,KA1,A1*%
%TO.N,+12V_RELAYS*%
X73558799Y-106240797D03*
%TO.P,KA1,A2*%
%TO.N,/Relays/RELAY_DRV_A1*%
X73558799Y-89440797D03*
D17*
%TO.P,KA1,COM*%
%TO.N,Net-(JA1-Pin_1)*%
X60258799Y-97840797D03*
D18*
X64058800Y-97840797D03*
D17*
X67858798Y-97840797D03*
%TO.P,KA1,NC*%
%TO.N,GND*%
X73958799Y-94040797D03*
D19*
X73958799Y-97840797D03*
D17*
X73958799Y-101640797D03*
%TO.P,KA1,NO*%
%TO.N,+VBAT*%
X81958799Y-94040797D03*
D19*
X81958799Y-97840797D03*
D17*
X81958799Y-101640797D03*
%TD*%
D39*
%TO.P,C1,1*%
%TO.N,Net-(D1-K)*%
X122604003Y-66624610D03*
%TO.P,C1,2*%
%TO.N,GND*%
X122604003Y-75024608D03*
%TD*%
D14*
%TO.P,JB3,1,Pin_1*%
%TO.N,Net-(JB3-Pin_1)*%
X137718800Y-138480798D03*
X137718800Y-133400798D03*
%TD*%
D40*
%TO.P,C2,1*%
%TO.N,+12V*%
X145362801Y-104096797D03*
%TO.P,C2,2*%
%TO.N,GND*%
X147262799Y-104096797D03*
%TD*%
D24*
%TO.P,R9,1*%
%TO.N,+3.3V*%
X178308001Y-63373000D03*
%TO.P,R9,2*%
%TO.N,/I2C_SCL*%
X180133001Y-63373000D03*
%TD*%
D41*
%TO.P,KA3,A1*%
%TO.N,+12V_RELAYS*%
X126453799Y-119990799D03*
%TO.P,KA3,A2*%
%TO.N,/Relays/RELAY_DRV_A3*%
X131203801Y-119990799D03*
D42*
%TO.P,KA3,COM*%
%TO.N,Net-(JA3-Pin_1)*%
X128828800Y-128320798D03*
%TO.P,KA3,NC*%
%TO.N,GND*%
X126453800Y-116060799D03*
%TO.P,KA3,NO*%
%TO.N,+VBAT*%
X131203800Y-116060799D03*
%TD*%
D43*
%TO.P,REF\u002A\u002A,1*%
%TO.N,N/C*%
X50800000Y-50800000D03*
%TD*%
D44*
%TO.P,U2,1,FB/VSET*%
%TO.N,unconnected-(U2-FB{slash}VSET-Pad1)*%
X147345001Y-101880802D03*
%TO.P,U2,2,PG*%
%TO.N,unconnected-(U2-PG-Pad2)*%
X147345001Y-101380801D03*
%TO.P,U2,3,VOS*%
%TO.N,+3.3V*%
X147345001Y-100880801D03*
%TO.P,U2,4,SW*%
%TO.N,Net-(U2-SW)*%
X147345001Y-100380800D03*
%TO.P,U2,5,GND*%
%TO.N,GND*%
X145669001Y-100380800D03*
%TO.P,U2,6,VIN*%
%TO.N,+12V*%
X145669001Y-100880801D03*
%TO.P,U2,7,EN*%
X145669001Y-101380801D03*
%TO.P,U2,8,MODE/S-CONF*%
%TO.N,Net-(U2-MODE{slash}S-CONF)*%
X145669001Y-101880802D03*
%TD*%
D14*
%TO.P,J_GND2,1,Pin_1*%
%TO.N,GND*%
X182880000Y-133858000D03*
X182880000Y-138938000D03*
%TD*%
%TO.P,JB2,1,Pin_1*%
%TO.N,Net-(JB2-Pin_1)*%
X119938800Y-138480798D03*
X119938800Y-133400798D03*
%TD*%
D45*
%TO.P,C5,1*%
%TO.N,+VBAT*%
X96664002Y-90754198D03*
%TO.P,C5,2*%
%TO.N,GND*%
X103164002Y-90754198D03*
%TD*%
D13*
%TO.P,R5,1*%
%TO.N,V_SENS_BAT*%
X130810000Y-95043000D03*
%TO.P,R5,2*%
%TO.N,GND*%
X130810000Y-93218000D03*
%TD*%
D11*
%TO.P,J4,1,Pin_1*%
%TO.N,GND_SENSORS*%
X183007000Y-120690000D03*
D12*
%TO.P,J4,2,Pin_2*%
%TO.N,Net-(J4-Pin_2)*%
X183007000Y-123190000D03*
%TO.P,J4,3,Pin_3*%
%TO.N,+12V*%
X183007000Y-125690000D03*
%TD*%
D41*
%TO.P,KC3,A1*%
%TO.N,+12V_RELAYS*%
X144233799Y-119990797D03*
%TO.P,KC3,A2*%
%TO.N,/Relays/RELAY_DRV_C3*%
X148983801Y-119990797D03*
D42*
%TO.P,KC3,COM*%
%TO.N,Net-(JC3-Pin_1)*%
X146608800Y-128320796D03*
%TO.P,KC3,NC*%
%TO.N,GND*%
X144233800Y-116060797D03*
%TO.P,KC3,NO*%
%TO.N,+VBAT*%
X148983800Y-116060797D03*
%TD*%
D14*
%TO.P,J_PV-1,1,Pin_1*%
%TO.N,GND*%
X157276800Y-133527799D03*
X157276800Y-138607799D03*
%TD*%
D46*
%TO.P,J8,1,DAT2*%
%TO.N,unconnected-(J8-DAT2-Pad1)*%
X128387000Y-52304000D03*
%TO.P,J8,2,DAT3/CD*%
%TO.N,SD_CS*%
X128387000Y-53404000D03*
%TO.P,J8,3,CMD*%
%TO.N,SD_MOSI*%
X128387000Y-54504000D03*
%TO.P,J8,4,VDD*%
%TO.N,+3.3V*%
X128387000Y-55604000D03*
%TO.P,J8,5,CLK*%
%TO.N,SD_CLK*%
X128387000Y-56704000D03*
%TO.P,J8,6,VSS*%
%TO.N,GND*%
X128387000Y-57804000D03*
%TO.P,J8,7,DAT0*%
%TO.N,SD_MISO*%
X128387000Y-58904000D03*
%TO.P,J8,8,DAT1*%
%TO.N,unconnected-(J8-DAT1-Pad8)*%
X128387000Y-60004000D03*
D47*
%TO.P,J8,9,SHIELD*%
%TO.N,GND*%
X119162000Y-61129000D03*
D48*
%TO.P,J8,10*%
%TO.N,N/C*%
X117587000Y-49904000D03*
D49*
%TO.P,J8,11*%
X120661999Y-61454000D03*
D50*
X128262000Y-61204000D03*
D51*
X128262000Y-49853999D03*
D52*
X120012000Y-49504000D03*
%TD*%
D53*
%TO.P,R27,1*%
%TO.N,V_ISENS_FAULT*%
X141120500Y-53086000D03*
%TO.P,R27,2*%
%TO.N,+3.3V*%
X139295500Y-53086000D03*
%TD*%
D14*
%TO.P,J_GND3,1,Pin_1*%
%TO.N,GND*%
X50038000Y-60960000D03*
X50038000Y-66040000D03*
%TD*%
D54*
%TO.P,U5,1*%
%TO.N,+12V*%
X140583971Y-73152000D03*
%TO.P,U5,2*%
%TO.N,Net-(R14-Pad1)*%
X140583971Y-75692000D03*
%TO.P,U5,3*%
%TO.N,+12V*%
X140583971Y-78232000D03*
%TO.P,U5,4*%
%TO.N,Net-(R13-Pad2)*%
X140583971Y-80772000D03*
%TO.P,U5,5*%
%TO.N,GND*%
X150113971Y-80772000D03*
%TO.P,U5,6*%
%TO.N,EXT_SENS_3*%
X150113971Y-78232000D03*
%TO.P,U5,7*%
%TO.N,GND*%
X150113971Y-75692000D03*
%TO.P,U5,8*%
%TO.N,EXT_SENS_4*%
X150113971Y-73152000D03*
%TD*%
D14*
%TO.P,SW2,*%
%TO.N,*%
X189076801Y-82402360D03*
X189076800Y-89412360D03*
D23*
%TO.P,SW2,1,1*%
%TO.N,Net-(U11-P01)*%
X191566800Y-83652360D03*
%TO.P,SW2,2,2*%
%TO.N,GND*%
X191566800Y-88152361D03*
%TD*%
D13*
%TO.P,R1,1*%
%TO.N,+VBAT*%
X107956620Y-88035889D03*
%TO.P,R1,2*%
%TO.N,Net-(U1-FB)*%
X107956620Y-86210889D03*
%TD*%
D14*
%TO.P,J_GND4,1,Pin_1*%
%TO.N,GND*%
X50038000Y-76200000D03*
X50038000Y-81280000D03*
%TD*%
D55*
%TO.P,J_RF1,1,Pin_1*%
%TO.N,GND*%
X107950000Y-46990000D03*
D56*
%TO.P,J_RF1,2,Pin_2*%
%TO.N,/S_433_MHZ*%
X105410000Y-46990000D03*
%TO.P,J_RF1,3,Pin_3*%
X102870001Y-46990000D03*
%TO.P,J_RF1,4,Pin_4*%
%TO.N,+3.3V*%
X100330000Y-46990000D03*
%TD*%
D26*
%TO.P,D5,1,K*%
%TO.N,+12V_RELAYS*%
X136398000Y-104394000D03*
%TO.P,D5,2,A*%
%TO.N,+VBAT*%
X132397998Y-104394000D03*
%TD*%
D55*
%TO.P,J7,1,Pin_1*%
%TO.N,GND*%
X161163000Y-87249000D03*
D56*
%TO.P,J7,2,Pin_2*%
%TO.N,unconnected-(J7-Pin_2-Pad2)*%
X161163000Y-84709000D03*
%TO.P,J7,3,Pin_3*%
%TO.N,/U0TXD*%
X161163000Y-82169001D03*
%TO.P,J7,4,Pin_4*%
%TO.N,+3.3V*%
X161163000Y-79629000D03*
%TO.P,J7,5,Pin_5*%
%TO.N,/U0EN*%
X161163000Y-77089000D03*
%TO.P,J7,6,Pin_6*%
%TO.N,/U0~BOOT*%
X161163000Y-74549000D03*
%TO.P,J7,7,Pin_7*%
%TO.N,/U0RXD*%
X161163000Y-72009000D03*
%TD*%
D57*
%TO.P,D1,1,K*%
%TO.N,Net-(D1-K)*%
X133188002Y-68974196D03*
%TO.P,D1,2,A*%
%TO.N,Net-(D1-A)*%
X133188002Y-72974198D03*
%TD*%
D15*
%TO.P,R3,1*%
%TO.N,Net-(U1-FB)*%
X110276002Y-87913198D03*
%TO.P,R3,2*%
%TO.N,Net-(Q1-D)*%
X110276002Y-89738198D03*
%TD*%
D24*
%TO.P,R8,1*%
%TO.N,+3.3V*%
X178308000Y-65532000D03*
%TO.P,R8,2*%
%TO.N,/I2C_SDA*%
X180133000Y-65532000D03*
%TD*%
D54*
%TO.P,U6,1*%
%TO.N,+12V*%
X140523000Y-85090000D03*
%TO.P,U6,2*%
%TO.N,Net-(R12-Pad1)*%
X140523000Y-87630000D03*
%TO.P,U6,3*%
%TO.N,+12V*%
X140523000Y-90170000D03*
%TO.P,U6,4*%
%TO.N,Net-(R11-Pad1)*%
X140523000Y-92710000D03*
%TO.P,U6,5*%
%TO.N,GND*%
X150053000Y-92710000D03*
%TO.P,U6,6*%
%TO.N,EXT_SENS_1*%
X150053000Y-90170000D03*
%TO.P,U6,7*%
%TO.N,GND*%
X150053000Y-87630000D03*
%TO.P,U6,8*%
%TO.N,EXT_SENS_2*%
X150053000Y-85090000D03*
%TD*%
D43*
%TO.P,REF\u002A\u002A,1*%
%TO.N,N/C*%
X186791600Y-111302799D03*
%TD*%
D58*
%TO.P,C14,1*%
%TO.N,/U0EN*%
X164592000Y-82791000D03*
%TO.P,C14,2*%
%TO.N,GND*%
X164592000Y-84341000D03*
%TD*%
D14*
%TO.P,J_BAT+1,1,Pin_1*%
%TO.N,+VBAT_IN*%
X100583998Y-128524000D03*
X95503998Y-128524000D03*
%TD*%
D59*
%TO.P,Q2,1,G*%
%TO.N,SENSORS_EN*%
X167259000Y-110363000D03*
%TO.P,Q2,2,S*%
%TO.N,GND*%
X165359000Y-110363000D03*
%TO.P,Q2,3,D*%
%TO.N,GND_SENSORS*%
X166309000Y-112238001D03*
%TD*%
D60*
%TO.P,U10,1,D*%
%TO.N,/CAN_TX*%
X173990000Y-72727000D03*
%TO.P,U10,2,GND*%
%TO.N,GND*%
X172720000Y-72727000D03*
%TO.P,U10,3,VCC*%
%TO.N,+3.3V*%
X171450000Y-72727000D03*
%TO.P,U10,4,R*%
%TO.N,/CAN_RX*%
X170180000Y-72727000D03*
%TO.P,U10,5,VREF*%
%TO.N,unconnected-(U10-VREF-Pad5)*%
X170180000Y-78149000D03*
%TO.P,U10,6,CANL*%
%TO.N,Net-(J6-Pin_3)*%
X171450000Y-78149000D03*
%TO.P,U10,7,CANH*%
%TO.N,Net-(J6-Pin_2)*%
X172720000Y-78149000D03*
%TO.P,U10,8,RS*%
%TO.N,+3.3V*%
X173990000Y-78149000D03*
%TD*%
D24*
%TO.P,R18,1*%
%TO.N,/U0EN*%
X164545000Y-77089000D03*
%TO.P,R18,2*%
%TO.N,+3.3V*%
X166370000Y-77089000D03*
%TD*%
D53*
%TO.P,R4,1*%
%TO.N,+12V*%
X135128000Y-97282000D03*
%TO.P,R4,2*%
%TO.N,V_SENS_BAT*%
X133303000Y-97282000D03*
%TD*%
D14*
%TO.P,J_BAT-1,1,Pin_1*%
%TO.N,GND*%
X98044000Y-138430000D03*
X98044000Y-133350000D03*
%TD*%
D15*
%TO.P,R11,1*%
%TO.N,Net-(R11-Pad1)*%
X137922000Y-91797500D03*
%TO.P,R11,2*%
%TO.N,Net-(J1-Pin_2)*%
X137922000Y-93622500D03*
%TD*%
D61*
%TO.P,L1,1,1*%
%TO.N,+VBAT*%
X100624001Y-75438000D03*
%TO.P,L1,2,2*%
%TO.N,Net-(U1-OUT)*%
X110199803Y-75438000D03*
%TD*%
D62*
%TO.P,C12,1*%
%TO.N,+3.3V*%
X141351000Y-48381998D03*
%TO.P,C12,2*%
%TO.N,GND*%
X141351000Y-46482000D03*
%TD*%
D41*
%TO.P,KA2,A1*%
%TO.N,+12V_RELAYS*%
X108673799Y-119990800D03*
%TO.P,KA2,A2*%
%TO.N,/Relays/RELAY_DRV_A2*%
X113423801Y-119990800D03*
D42*
%TO.P,KA2,COM*%
%TO.N,Net-(JA2-Pin_1)*%
X111048800Y-128320799D03*
%TO.P,KA2,NC*%
%TO.N,GND*%
X108673800Y-116060800D03*
%TO.P,KA2,NO*%
%TO.N,+VBAT*%
X113423800Y-116060800D03*
%TD*%
D14*
%TO.P,JB1,1,Pin_1*%
%TO.N,Net-(JB1-Pin_1)*%
X50038000Y-124460000D03*
X50038000Y-129540000D03*
%TD*%
D63*
%TO.P,LED1,1,1*%
%TO.N,GND*%
X184454800Y-71932800D03*
D64*
%TO.P,LED1,2,2*%
%TO.N,Net-(LED1-Pad2)*%
X184454800Y-74472800D03*
%TO.P,LED1,3,3*%
%TO.N,GND*%
X186994800Y-71932800D03*
%TO.P,LED1,4,4*%
%TO.N,Net-(LED1-Pad4)*%
X186994800Y-74472800D03*
%TO.P,LED1,5,5*%
%TO.N,GND*%
X189534799Y-71932800D03*
%TO.P,LED1,6,6*%
%TO.N,Net-(LED1-Pad6)*%
X189534800Y-74472800D03*
%TD*%
D27*
%TO.P,C9,1*%
%TO.N,GND*%
X102362000Y-119380000D03*
%TO.P,C9,2*%
%TO.N,+3.3V*%
X102362000Y-117830000D03*
%TD*%
D13*
%TO.P,R2,1*%
%TO.N,Net-(U1-FB)*%
X110242620Y-86244889D03*
%TO.P,R2,2*%
%TO.N,GND*%
X110242620Y-84419889D03*
%TD*%
D24*
%TO.P,R6,1*%
%TO.N,Net-(U2-MODE{slash}S-CONF)*%
X148974801Y-101904795D03*
%TO.P,R6,2*%
%TO.N,GND*%
X150799801Y-101904795D03*
%TD*%
D65*
%TO.P,Y1,1*%
%TO.N,/CRYSTAL_1*%
X143002000Y-57541897D03*
%TO.P,Y1,2*%
%TO.N,/CRYSTAL_2*%
X143002000Y-55041899D03*
%TD*%
D14*
%TO.P,JA2,1,Pin_1*%
%TO.N,Net-(JA2-Pin_1)*%
X111048800Y-138480797D03*
X111048800Y-133400797D03*
%TD*%
D66*
%TO.P,C11,1*%
%TO.N,/CRYSTAL_2*%
X140843000Y-55041900D03*
%TO.P,C11,2*%
%TO.N,GND*%
X139293000Y-55041900D03*
%TD*%
D67*
%TO.P,U3,1,GND*%
%TO.N,GND*%
X146769400Y-46405900D03*
%TO.P,U3,2,VDD*%
%TO.N,+3.3V*%
X146769400Y-47675900D03*
%TO.P,U3,3,EN*%
%TO.N,/U0EN*%
X146769400Y-48945900D03*
%TO.P,U3,4,SENSOR_VP*%
%TO.N,V_ISENS_VOC*%
X146769400Y-50215900D03*
%TO.P,U3,5,SENSOR_VN*%
%TO.N,V_ISENS_FAULT*%
X146769400Y-51485900D03*
%TO.P,U3,6,IO34*%
%TO.N,V_ISENS1*%
X146769400Y-52755900D03*
%TO.P,U3,7,IO35*%
%TO.N,V_SENS_BAT*%
X146769400Y-54025900D03*
%TO.P,U3,8,IO32*%
%TO.N,/CRYSTAL_2*%
X146769400Y-55295900D03*
%TO.P,U3,9,IO33*%
%TO.N,/CRYSTAL_1*%
X146769400Y-56565900D03*
%TO.P,U3,10,IO25*%
%TO.N,/S_433_MHZ*%
X146769400Y-57835900D03*
%TO.P,U3,11,IO26*%
%TO.N,BULK_CHARGE_EN*%
X146769400Y-59105900D03*
%TO.P,U3,12,IO27*%
%TO.N,EXT_SENS_1*%
X146769400Y-60375900D03*
%TO.P,U3,13,IO14*%
%TO.N,EXT_SENS_2*%
X146769400Y-61645900D03*
%TO.P,U3,14,IO12*%
%TO.N,unconnected-(U3-IO12-Pad14)*%
X146769400Y-62915900D03*
D68*
%TO.P,U3,15,GND*%
%TO.N,GND*%
X149809400Y-64165900D03*
%TO.P,U3,16,IO13*%
%TO.N,/I2C_INT*%
X151079399Y-64165900D03*
%TO.P,U3,17,SHD/SD2*%
%TO.N,unconnected-(U3-SHD{slash}SD2-Pad17)*%
X152349400Y-64165900D03*
%TO.P,U3,18,SWP/SD3*%
%TO.N,unconnected-(U3-SWP{slash}SD3-Pad18)*%
X153619401Y-64165900D03*
%TO.P,U3,19,SCS/CMD*%
%TO.N,unconnected-(U3-SCS{slash}CMD-Pad19)*%
X154889400Y-64165900D03*
%TO.P,U3,20,SCK/CLK*%
%TO.N,unconnected-(U3-SCK{slash}CLK-Pad20)*%
X156159400Y-64165900D03*
%TO.P,U3,21,SDO/SD0*%
%TO.N,unconnected-(U3-SDO{slash}SD0-Pad21)*%
X157429399Y-64165900D03*
%TO.P,U3,22,SDI/SD1*%
%TO.N,unconnected-(U3-SDI{slash}SD1-Pad22)*%
X158699400Y-64165900D03*
%TO.P,U3,23,IO15*%
%TO.N,SD_MISO*%
X159969400Y-64165900D03*
%TO.P,U3,24,IO2*%
%TO.N,unconnected-(U3-IO2-Pad24)*%
X161239400Y-64165900D03*
D67*
%TO.P,U3,25,IO0*%
%TO.N,/U0~BOOT*%
X164269400Y-62915900D03*
%TO.P,U3,26,IO4*%
%TO.N,SD_CLK*%
X164269400Y-61645900D03*
%TO.P,U3,27,IO16*%
%TO.N,EXT_SENS_3*%
X164269400Y-60375900D03*
%TO.P,U3,28,IO17*%
%TO.N,/CAN_RX*%
X164269400Y-59105900D03*
%TO.P,U3,29,IO5*%
%TO.N,SD_MOSI*%
X164269400Y-57835900D03*
%TO.P,U3,30,IO18*%
%TO.N,/CAN_TX*%
X164269400Y-56565900D03*
%TO.P,U3,31,IO19*%
%TO.N,EXT_SENS_4*%
X164269400Y-55295900D03*
%TO.P,U3,32,NC*%
%TO.N,unconnected-(U3-NC-Pad32)*%
X164269400Y-54025900D03*
%TO.P,U3,33,IO21*%
%TO.N,/I2C_SCL*%
X164269400Y-52755900D03*
%TO.P,U3,34,RXD0/IO3*%
%TO.N,/U0RXD*%
X164269400Y-51485900D03*
%TO.P,U3,35,TXD0/IO1*%
%TO.N,/U0TXD*%
X164269400Y-50215900D03*
%TO.P,U3,36,IO22*%
%TO.N,/I2C_SDA*%
X164269400Y-48945900D03*
%TO.P,U3,37,IO23*%
%TO.N,SD_CS*%
X164269400Y-47675900D03*
%TO.P,U3,38,GND*%
%TO.N,GND*%
X164269400Y-46405900D03*
D69*
%TO.P,U3,39,GND*%
X153314400Y-52983399D03*
D70*
X153314400Y-53745900D03*
D69*
X153314400Y-54508400D03*
D70*
X153314400Y-55270900D03*
X153314401Y-52220900D03*
D69*
X154076899Y-52220900D03*
X154076900Y-53745900D03*
X154076900Y-55270900D03*
D70*
X154839399Y-52220900D03*
D69*
X154839399Y-52983400D03*
D70*
X154839400Y-53745900D03*
D71*
X154839400Y-53745900D03*
D69*
X154839400Y-54508400D03*
D70*
X154839400Y-55270900D03*
D69*
X155601900Y-52220900D03*
X155601900Y-53745900D03*
X155601900Y-55270900D03*
D70*
X156364400Y-52220900D03*
D69*
X156364400Y-52983400D03*
D70*
X156364400Y-53745900D03*
D69*
X156364400Y-54508400D03*
D70*
X156364400Y-55270900D03*
%TD*%
D24*
%TO.P,R7,1*%
%TO.N,+3.3V*%
X178308001Y-67691000D03*
%TO.P,R7,2*%
%TO.N,/I2C_INT*%
X180133001Y-67691000D03*
%TD*%
D43*
%TO.P,REF\u002A\u002A,1*%
%TO.N,N/C*%
X186791600Y-50799999D03*
%TD*%
D26*
%TO.P,D2,1,K*%
%TO.N,Net-(D1-K)*%
X108432621Y-65786001D03*
%TO.P,D2,2,A*%
%TO.N,+VBAT*%
X104432619Y-65786001D03*
%TD*%
D53*
%TO.P,R26,1*%
%TO.N,V_ISENS_VOC*%
X141120500Y-51181000D03*
%TO.P,R26,2*%
%TO.N,+3.3V*%
X139295500Y-51181000D03*
%TD*%
D15*
%TO.P,R21,1*%
%TO.N,Net-(U11-P01)*%
X180594000Y-100941500D03*
%TO.P,R21,2*%
%TO.N,+3.3V*%
X180594000Y-102766500D03*
%TD*%
D41*
%TO.P,KB2,A1*%
%TO.N,+12V_RELAYS*%
X117563799Y-119990799D03*
%TO.P,KB2,A2*%
%TO.N,/Relays/RELAY_DRV_B2*%
X122313801Y-119990799D03*
D42*
%TO.P,KB2,COM*%
%TO.N,Net-(JB2-Pin_1)*%
X119938800Y-128320798D03*
%TO.P,KB2,NC*%
%TO.N,GND*%
X117563800Y-116060799D03*
%TO.P,KB2,NO*%
%TO.N,+VBAT*%
X122313800Y-116060799D03*
%TD*%
D14*
%TO.P,J_PV+1,1,Pin_1*%
%TO.N,Net-(D1-A)*%
X159816799Y-128701798D03*
X154736799Y-128701798D03*
%TD*%
D53*
%TO.P,R10,1*%
%TO.N,Net-(J6-Pin_2)*%
X172997500Y-81026000D03*
%TO.P,R10,2*%
%TO.N,Net-(J6-Pin_3)*%
X171172500Y-81026000D03*
%TD*%
D66*
%TO.P,C10,1*%
%TO.N,/CRYSTAL_1*%
X140843000Y-57581900D03*
%TO.P,C10,2*%
%TO.N,GND*%
X139293000Y-57581900D03*
%TD*%
D41*
%TO.P,KB3,A1*%
%TO.N,+12V_RELAYS*%
X135343799Y-119990799D03*
%TO.P,KB3,A2*%
%TO.N,/Relays/RELAY_DRV_B3*%
X140093801Y-119990799D03*
D42*
%TO.P,KB3,COM*%
%TO.N,Net-(JB3-Pin_1)*%
X137718800Y-128320798D03*
%TO.P,KB3,NC*%
%TO.N,GND*%
X135343800Y-116060799D03*
%TO.P,KB3,NO*%
%TO.N,+VBAT*%
X140093800Y-116060799D03*
%TD*%
D15*
%TO.P,R12,1*%
%TO.N,Net-(R12-Pad1)*%
X137922000Y-86717500D03*
%TO.P,R12,2*%
%TO.N,Net-(J2-Pin_2)*%
X137922000Y-88542500D03*
%TD*%
D72*
%TO.P,U4,1,1B*%
%TO.N,RELAY_SIG_B1*%
X161467800Y-108954799D03*
%TO.P,U4,2,2B*%
%TO.N,RELAY_SIG_A1*%
X160197800Y-108954799D03*
%TO.P,U4,3,3B*%
%TO.N,RELAY_SIG_A2*%
X158927800Y-108954799D03*
%TO.P,U4,4,4B*%
%TO.N,RELAY_SIG_B2*%
X157657800Y-108954799D03*
%TO.P,U4,5,5B*%
%TO.N,RELAY_SIG_A3*%
X156387800Y-108954799D03*
%TO.P,U4,6,6B*%
%TO.N,RELAY_SIG_B3*%
X155117800Y-108954799D03*
%TO.P,U4,7,7B*%
%TO.N,RELAY_SIG_C3*%
X153847800Y-108954799D03*
%TO.P,U4,8,E*%
%TO.N,GND*%
X152577800Y-108954799D03*
%TO.P,U4,9,COM*%
%TO.N,+12V_RELAYS*%
X152577800Y-113904799D03*
%TO.P,U4,10,7C*%
%TO.N,/Relays/RELAY_DRV_C3*%
X153847800Y-113904799D03*
%TO.P,U4,11,6C*%
%TO.N,/Relays/RELAY_DRV_B3*%
X155117800Y-113904799D03*
%TO.P,U4,12,5C*%
%TO.N,/Relays/RELAY_DRV_A3*%
X156387800Y-113904799D03*
%TO.P,U4,13,4C*%
%TO.N,/Relays/RELAY_DRV_B2*%
X157657800Y-113904799D03*
%TO.P,U4,14,3C*%
%TO.N,/Relays/RELAY_DRV_A2*%
X158927800Y-113904799D03*
%TO.P,U4,15,2C*%
%TO.N,/Relays/RELAY_DRV_A1*%
X160197800Y-113904799D03*
%TO.P,U4,16,1C*%
%TO.N,/Relays/RELAY_DRV_B1*%
X161467800Y-113904799D03*
%TD*%
D66*
%TO.P,C13,1*%
%TO.N,GND*%
X172860000Y-70866000D03*
%TO.P,C13,2*%
%TO.N,+3.3V*%
X171310000Y-70866000D03*
%TD*%
D14*
%TO.P,J_GND1,1,Pin_1*%
%TO.N,GND*%
X172720000Y-138938000D03*
X172720000Y-133858000D03*
%TD*%
D43*
%TO.P,REF\u002A\u002A,1*%
%TO.N,N/C*%
X50800000Y-111302800D03*
%TD*%
D73*
%TO.P,L2,1*%
%TO.N,Net-(U2-SW)*%
X149402801Y-99821998D03*
%TO.P,L2,2*%
%TO.N,+3.3V*%
X149402801Y-97967798D03*
%TD*%
D14*
%TO.P,J_BAT+2,1,Pin_1*%
%TO.N,+VBAT_2*%
X120523000Y-100203000D03*
X125603000Y-100203000D03*
%TD*%
D15*
%TO.P,R20,1*%
%TO.N,Net-(U11-P00)*%
X184150000Y-100941500D03*
%TO.P,R20,2*%
%TO.N,+3.3V*%
X184150000Y-102766500D03*
%TD*%
D14*
%TO.P,JC3,1,Pin_1*%
%TO.N,Net-(JC3-Pin_1)*%
X146608800Y-138480797D03*
X146608800Y-133400797D03*
%TD*%
D62*
%TO.P,C3,1*%
%TO.N,GND*%
X152146000Y-99755999D03*
%TO.P,C3,2*%
%TO.N,+3.3V*%
X152146000Y-97856001D03*
%TD*%
D74*
%TO.N,GND*%
X129834002Y-81864197D03*
X144272000Y-46482000D03*
X172847000Y-68453000D03*
X129834002Y-79578198D03*
X152146000Y-80264000D03*
X129834002Y-86436199D03*
X129834002Y-84912197D03*
X165354000Y-107823000D03*
X167386001Y-46355001D03*
X175133000Y-105410000D03*
X139293000Y-56261000D03*
X130048000Y-58039000D03*
X152273000Y-88265000D03*
X129834002Y-78816199D03*
X172847000Y-69469000D03*
X129834002Y-87198199D03*
X166624002Y-46355001D03*
X144830800Y-100380799D03*
X152273000Y-87249000D03*
X129834002Y-80340198D03*
X129834002Y-85674198D03*
X129834002Y-81102199D03*
X173990000Y-105410000D03*
X165354000Y-106934000D03*
X152577800Y-107061000D03*
X103632000Y-119380000D03*
X129834002Y-88722198D03*
X142748000Y-46482000D03*
X129834002Y-84150197D03*
X152146000Y-81407000D03*
X143510001Y-46482000D03*
X129834002Y-78054197D03*
X152273000Y-92329000D03*
X146989800Y-102920800D03*
X129834002Y-87960197D03*
X152146000Y-75184000D03*
X152577800Y-106045000D03*
X165354000Y-108712000D03*
X149809400Y-66802000D03*
X149809400Y-65913000D03*
X145033999Y-46481999D03*
X152196801Y-100888797D03*
X129834002Y-83388198D03*
X147751800Y-102920800D03*
X152273000Y-93345000D03*
X152196800Y-101904799D03*
X129834002Y-82626198D03*
X168148000Y-46355000D03*
X117856000Y-61341000D03*
X152146000Y-76327000D03*
X165862001Y-46355001D03*
%TO.N,+3.3V*%
X103632000Y-117856000D03*
%TO.N,/I2C_INT*%
X161798000Y-52705000D03*
%TO.N,Net-(J2-Pin_2)*%
X137922000Y-89916000D03*
%TO.N,Net-(J3-Pin_2)*%
X137922000Y-83312000D03*
%TO.N,Net-(D1-A)*%
X133096000Y-92837000D03*
X133096000Y-93472000D03*
X133096000Y-92202000D03*
%TO.N,V_ISENS1*%
X143764000Y-51562000D03*
X101219000Y-118618000D03*
%TO.N,V_SENS_BAT*%
X106172000Y-97028000D03*
X144399000Y-52374800D03*
%TO.N,/S_433_MHZ*%
X145161000Y-57912000D03*
%TO.N,/U0TXD*%
X166751000Y-50292000D03*
%TO.N,/U0RXD*%
X165735000Y-51435000D03*
%TO.N,BULK_CHARGE_EN*%
X145034000Y-59055000D03*
X107915002Y-93802198D03*
%TO.N,SD_CLK*%
X132334000Y-59055000D03*
X164929800Y-63899302D03*
%TO.N,SD_MOSI*%
X133731000Y-59055000D03*
X165862000Y-57912000D03*
%TO.N,Net-(J4-Pin_2)*%
X137922000Y-78232000D03*
%TO.N,Net-(J1-Pin_2)*%
X137928925Y-95086651D03*
%TO.N,SENSORS_EN*%
X167386000Y-96748600D03*
X167386000Y-101981000D03*
%TO.N,SD_CS*%
X152679403Y-60807597D03*
X135509000Y-59055000D03*
%TO.N,SD_MISO*%
X159893000Y-65913000D03*
X130810000Y-59088001D03*
%TO.N,V_ISENS_VOC*%
X142367000Y-50038000D03*
X101219000Y-121285000D03*
%TO.N,V_ISENS_FAULT*%
X143002000Y-50800000D03*
X101219000Y-120142000D03*
%TD*%
D75*
%TO.N,+12V*%
X140583971Y-73152000D02*
X142240000Y-74808029D01*
D76*
X145288000Y-101092000D02*
X145034000Y-101346000D01*
D75*
X162560000Y-110871000D02*
X152137004Y-110871000D01*
X142240000Y-76703629D02*
X142112342Y-76703629D01*
X164338000Y-122261000D02*
X164338000Y-112649000D01*
X152137004Y-110871000D02*
X145362801Y-104096797D01*
X136398000Y-100584000D02*
X141850004Y-100584000D01*
D76*
X145669001Y-101092000D02*
X145669001Y-101380801D01*
X145034000Y-103767996D02*
X145362801Y-104096797D01*
X145034000Y-101346000D02*
X145034000Y-103767996D01*
D75*
X142112342Y-76703629D02*
X140583971Y-78232000D01*
D77*
X142240000Y-88519000D02*
X142240000Y-88011000D01*
D75*
X167767000Y-125690000D02*
X183007000Y-125690000D01*
X136398000Y-100584000D02*
X136398000Y-98552000D01*
X164338000Y-112649000D02*
X162560000Y-110871000D01*
X136398000Y-98552000D02*
X135128000Y-97282000D01*
X142240000Y-76703629D02*
X142240000Y-83373000D01*
X142240000Y-83373000D02*
X141990371Y-83622629D01*
X142240000Y-83058000D02*
X142240000Y-88011000D01*
X141990371Y-83622629D02*
X140523000Y-85090000D01*
X142240000Y-88011000D02*
X142240000Y-94742000D01*
X167767000Y-125690000D02*
X164338000Y-122261000D01*
D76*
X145669001Y-101092000D02*
X145288000Y-101092000D01*
X145669001Y-100880801D02*
X145669001Y-101092000D01*
D78*
X145624226Y-103995197D02*
X145624226Y-104476226D01*
D77*
X140589000Y-90170000D02*
X142240000Y-88519000D01*
D75*
X141850004Y-100584000D02*
X145362801Y-104096797D01*
D77*
X140523000Y-90170000D02*
X140589000Y-90170000D01*
D75*
X142240000Y-94742000D02*
X136398000Y-100584000D01*
X142240000Y-74808029D02*
X142240000Y-76703629D01*
D79*
%TO.N,GND*%
X175929501Y-96714000D02*
X175455500Y-97188001D01*
D76*
X149809400Y-66802000D02*
X149809400Y-64165900D01*
D75*
X168121999Y-46381001D02*
X168148000Y-46355000D01*
D76*
X152273000Y-92837000D02*
X152273000Y-93345000D01*
D75*
X152577800Y-106045000D02*
X152577800Y-108954800D01*
D77*
X177800000Y-103632000D02*
X177800000Y-103609501D01*
D76*
X119142001Y-61341000D02*
X119170000Y-61313001D01*
X152146000Y-75755500D02*
X152146000Y-76327000D01*
X152146000Y-75184000D02*
X152146000Y-75755500D01*
D75*
X140970000Y-46482000D02*
X146693300Y-46482000D01*
D76*
X152273000Y-87249000D02*
X152273000Y-87757000D01*
D80*
X150799801Y-101904797D02*
X150799801Y-102257299D01*
D75*
X147262803Y-104096800D02*
X147262799Y-104096796D01*
D76*
X145669001Y-100380800D02*
X144830800Y-100380799D01*
X99988000Y-119448000D02*
X102294000Y-119448000D01*
D75*
X148960300Y-104096800D02*
X147262803Y-104096800D01*
D79*
X175967500Y-103214000D02*
X176667000Y-103214000D01*
D75*
X147262799Y-103409800D02*
X147751800Y-102920800D01*
D77*
X164071000Y-84341000D02*
X164592000Y-84341000D01*
D79*
X175929501Y-102564000D02*
X176667000Y-102564000D01*
D77*
X177404499Y-102564000D02*
X176667000Y-102564000D01*
D80*
X150799801Y-102257299D02*
X148960300Y-104096800D01*
D81*
X103066622Y-90656818D02*
X103164002Y-90754198D01*
D76*
X165354000Y-106934000D02*
X165359000Y-106939000D01*
D77*
X152196801Y-100888797D02*
X152196800Y-101904799D01*
D76*
X152146000Y-80835500D02*
X152146000Y-81407000D01*
X152577800Y-107061000D02*
X152577800Y-106045000D01*
X117856000Y-61341000D02*
X119142001Y-61341000D01*
D75*
X164253001Y-46381001D02*
X168121999Y-46381001D01*
D77*
X177404499Y-103214000D02*
X176667000Y-103214000D01*
D76*
X152146000Y-80264000D02*
X152146000Y-80835500D01*
X102294000Y-119448000D02*
X102362000Y-119380000D01*
D77*
X121316001Y-83524610D02*
X124714000Y-83524610D01*
X172720000Y-72727000D02*
X172847000Y-72600000D01*
D82*
X103704001Y-84328001D02*
X102402001Y-84327999D01*
D76*
X152273000Y-92837000D02*
X150180000Y-92837000D01*
D75*
X146693300Y-46482000D02*
X146769400Y-46405900D01*
D79*
X175455500Y-97188001D02*
X175455500Y-101813000D01*
D76*
X152146000Y-75755500D02*
X150053000Y-75755500D01*
D79*
X175455500Y-102089999D02*
X175929501Y-102564000D01*
D76*
X152196800Y-101904799D02*
X150799801Y-101904797D01*
D77*
X172847000Y-72600000D02*
X172847000Y-68453000D01*
D76*
X129997001Y-57988001D02*
X130048000Y-58039000D01*
D75*
X147262799Y-103193798D02*
X146989800Y-102920800D01*
D76*
X165359000Y-106939000D02*
X165359000Y-110363000D01*
X152273000Y-92329000D02*
X152273000Y-92837000D01*
D77*
X176487626Y-105410000D02*
X177800000Y-104097626D01*
D76*
X130810000Y-89698196D02*
X129834002Y-88722198D01*
X130810000Y-93218000D02*
X130810000Y-89698196D01*
D77*
X177800000Y-104097626D02*
X177800000Y-103632000D01*
D79*
X175455500Y-101813000D02*
X175455500Y-102089999D01*
D76*
X152273000Y-87757000D02*
X152273000Y-88265000D01*
D77*
X177800000Y-103609501D02*
X177404499Y-103214000D01*
X177800000Y-102959501D02*
X177404499Y-102564000D01*
X111186000Y-93654612D02*
X121160708Y-83679904D01*
D75*
X147262799Y-104096796D02*
X147262799Y-103193798D01*
D79*
X176667000Y-96714000D02*
X175929501Y-96714000D01*
D75*
X147262799Y-104096796D02*
X147262799Y-103409800D01*
D77*
X177800000Y-103632000D02*
X177800000Y-102959501D01*
X172479000Y-105410000D02*
X176487626Y-105410000D01*
D79*
X175455500Y-102702000D02*
X175967500Y-103214000D01*
D76*
X152273000Y-87757000D02*
X150180000Y-87757000D01*
D77*
X121160708Y-83679904D02*
X121316001Y-83524610D01*
X161163000Y-87249000D02*
X164071000Y-84341000D01*
D76*
X128395000Y-57988001D02*
X129997001Y-57988001D01*
D81*
X103066622Y-84316389D02*
X103066622Y-90656818D01*
D76*
X103632000Y-119380000D02*
X102362000Y-119380000D01*
D80*
X147210799Y-103588799D02*
X147116800Y-103682798D01*
D76*
X139293000Y-57581900D02*
X139293000Y-55041900D01*
D79*
X175455500Y-101813000D02*
X175455500Y-102702000D01*
D76*
X152146000Y-80835500D02*
X150053000Y-80835500D01*
X152196800Y-101904799D02*
X152196800Y-99872799D01*
D75*
%TO.N,/CRYSTAL_2*%
X140843000Y-55041899D02*
X141108499Y-55307399D01*
X141108499Y-55307399D02*
X146757901Y-55307399D01*
X146757901Y-55307399D02*
X146769400Y-55295900D01*
D81*
%TO.N,+VBAT*%
X96664002Y-90754198D02*
X99066620Y-88351580D01*
D82*
X98642802Y-77419198D02*
X100624000Y-75438000D01*
X98680904Y-77381099D02*
X98680903Y-68983006D01*
D77*
X107956620Y-88035890D02*
X106062119Y-88035887D01*
X107956620Y-88035890D02*
X107956621Y-90121991D01*
D81*
X94234000Y-93184200D02*
X94234000Y-108839000D01*
D82*
X100624002Y-75437998D02*
X98680904Y-77381099D01*
D81*
X96664002Y-90754198D02*
X94234000Y-93184200D01*
D82*
X98680904Y-77381099D02*
X98680903Y-83930672D01*
X98680903Y-83930672D02*
X99066619Y-84316390D01*
D77*
X105414012Y-92664599D02*
X98574405Y-92664599D01*
X107956621Y-90121991D02*
X105414012Y-92664599D01*
X98574405Y-92664599D02*
X96664002Y-90754198D01*
D82*
X101877908Y-65786001D02*
X104432619Y-65786001D01*
X98680903Y-68983006D02*
X101877908Y-65786001D01*
X98795199Y-73609199D02*
X100624000Y-75438000D01*
D81*
X94234000Y-108839000D02*
X95885000Y-110490000D01*
X99066620Y-88351580D02*
X99066620Y-84316389D01*
D77*
X106062119Y-88035887D02*
X105924621Y-87898389D01*
D83*
%TO.N,+3.3V*%
X147296800Y-100913799D02*
X146982500Y-100913799D01*
X146576803Y-100508101D02*
X146576803Y-98787197D01*
X147396202Y-97967798D02*
X149402801Y-97967798D01*
D76*
X176934500Y-106426000D02*
X180594000Y-102766500D01*
X99458000Y-117648000D02*
X102180000Y-117648000D01*
X170942000Y-101914000D02*
X171568824Y-101914000D01*
X180594000Y-102766500D02*
X184150000Y-102766500D01*
X170204501Y-101914000D02*
X169867500Y-102251001D01*
X170942000Y-103864000D02*
X170942000Y-105410000D01*
X171958000Y-106426000D02*
X176934500Y-106426000D01*
X171628824Y-101854000D02*
X172720000Y-101854000D01*
X170942000Y-105410000D02*
X171958000Y-106426000D01*
X170267500Y-103864000D02*
X170942000Y-103864000D01*
D83*
X146982500Y-100913799D02*
X146576803Y-100508101D01*
D76*
X169867500Y-103464000D02*
X170267500Y-103864000D01*
X171568824Y-101914000D02*
X171628824Y-101854000D01*
X170942000Y-101914000D02*
X170204501Y-101914000D01*
X103632000Y-117856000D02*
X103606000Y-117830000D01*
X102180000Y-117648000D02*
X102362000Y-117830000D01*
X169867500Y-102251001D02*
X169867500Y-103464000D01*
X103606000Y-117830000D02*
X102362000Y-117830000D01*
D83*
X146576803Y-98787197D02*
X147396202Y-97967798D01*
D75*
%TO.N,Net-(U1-FB)*%
X111627731Y-86244891D02*
X106028121Y-86244887D01*
D77*
X110242620Y-87879816D02*
X110276002Y-87913199D01*
D75*
X106028121Y-86244887D02*
X105924620Y-86348391D01*
D77*
X110242620Y-86244889D02*
X110242620Y-87879816D01*
D75*
X114994003Y-85224609D02*
X112648009Y-85224613D01*
X112648009Y-85224613D02*
X111627731Y-86244891D01*
D83*
%TO.N,Net-(U2-MODE{slash}S-CONF)*%
X146073001Y-102284802D02*
X145669001Y-101880803D01*
X148378796Y-102284802D02*
X146073001Y-102284802D01*
X148852801Y-101810797D02*
X148378796Y-102284802D01*
D76*
%TO.N,/I2C_INT*%
X161798000Y-52832000D02*
X151079399Y-63550601D01*
D79*
X180133001Y-67691000D02*
X180133001Y-92043017D01*
X175929501Y-103864000D02*
X176667000Y-103864000D01*
X175150700Y-103085199D02*
X175929501Y-103864000D01*
D76*
X180133001Y-67864400D02*
X182401900Y-65595501D01*
X182401900Y-65595501D02*
X182401900Y-59307900D01*
X161798000Y-52705000D02*
X161798000Y-52832000D01*
X151079399Y-63550601D02*
X151079399Y-64165900D01*
D79*
X175150700Y-97025318D02*
X175150700Y-103085199D01*
X180133001Y-92043017D02*
X175150700Y-97025318D01*
D76*
X182401900Y-59307900D02*
X179228000Y-56134000D01*
D77*
%TO.N,Net-(Q1-D)*%
X110236001Y-91779609D02*
X110236000Y-89778201D01*
X110236000Y-89778201D02*
X110276002Y-89738198D01*
X110288503Y-89750697D02*
X110276002Y-89738198D01*
D75*
%TO.N,/CRYSTAL_1*%
X145033999Y-56565900D02*
X146769400Y-56565900D01*
X144018000Y-57581899D02*
X145033999Y-56565900D01*
D77*
X142961998Y-57581900D02*
X143002000Y-57541897D01*
X140843000Y-57581900D02*
X142961998Y-57581900D01*
D76*
%TO.N,/CAN_RX*%
X165785900Y-59105900D02*
X170180000Y-63500000D01*
X164269400Y-59105900D02*
X165785900Y-59105900D01*
X170180000Y-63500000D02*
X170180000Y-72727000D01*
%TO.N,/CAN_TX*%
X173990000Y-64516000D02*
X173990000Y-72727000D01*
X164269400Y-56565900D02*
X166039900Y-56565900D01*
X166039900Y-56565900D02*
X173990000Y-64516000D01*
D77*
%TO.N,Net-(J2-Pin_2)*%
X137922000Y-88542500D02*
X137922000Y-89916000D01*
%TO.N,Net-(J3-Pin_2)*%
X137922000Y-81684500D02*
X137922000Y-83312000D01*
D79*
%TO.N,/I2C_SDA*%
X174642700Y-96806352D02*
X179353900Y-92095152D01*
X170942000Y-103214000D02*
X172784500Y-103214000D01*
D76*
X177228000Y-56070000D02*
X170103900Y-48945900D01*
X177228000Y-56134000D02*
X181356000Y-60262000D01*
X177228000Y-56134000D02*
X177228000Y-56070000D01*
D79*
X172784500Y-103214000D02*
X174642700Y-101355800D01*
D76*
X170103900Y-48945900D02*
X164269400Y-48945900D01*
D79*
X179353900Y-92095152D02*
X179353900Y-66311100D01*
D76*
X181356000Y-60262000D02*
X181356000Y-64309000D01*
X181356000Y-64309000D02*
X180133000Y-65532000D01*
D79*
X174642700Y-101355800D02*
X174642700Y-96806352D01*
X179353900Y-66311100D02*
X180133000Y-65532000D01*
%TO.N,/I2C_SCL*%
X180133001Y-63863900D02*
X179049100Y-64947801D01*
X179049100Y-91968900D02*
X174337900Y-96680100D01*
X180133001Y-62787101D02*
X180133001Y-63863900D01*
D76*
X175228000Y-55848000D02*
X172135900Y-52755900D01*
X180133001Y-61007001D02*
X180133001Y-63373000D01*
D79*
X174337900Y-96680100D02*
X174337900Y-101229548D01*
D76*
X175228000Y-56134000D02*
X175228000Y-55848000D01*
X175260000Y-56134000D02*
X180133001Y-61007001D01*
X175228000Y-56134000D02*
X175260000Y-56134000D01*
D79*
X179049100Y-64947801D02*
X179049100Y-91968900D01*
X174337900Y-101229548D02*
X173003448Y-102564000D01*
X173003448Y-102564000D02*
X170942000Y-102564000D01*
D76*
X172135900Y-52755900D02*
X164269400Y-52755900D01*
D77*
%TO.N,/Relays/RELAY_DRV_B2*%
X152213830Y-122656600D02*
X157657800Y-117212630D01*
X124979601Y-122656600D02*
X152213830Y-122656600D01*
X122313801Y-119990799D02*
X124979601Y-122656600D01*
X157657800Y-117212630D02*
X157657800Y-113904800D01*
%TO.N,/Relays/RELAY_DRV_B1*%
X77012800Y-136067800D02*
X77012800Y-122104798D01*
X161467800Y-113904799D02*
X161467800Y-115665655D01*
X151714201Y-141040254D02*
X150184257Y-142570199D01*
X161467800Y-115665655D02*
X151714201Y-125419254D01*
X83515199Y-142570199D02*
X77012800Y-136067800D01*
X77012800Y-122104798D02*
X73558799Y-118650797D01*
X150184257Y-142570199D02*
X83515199Y-142570199D01*
X151714201Y-125419254D02*
X151714201Y-141040254D01*
%TO.N,/Relays/RELAY_DRV_A2*%
X116623000Y-123189999D02*
X152434772Y-123189999D01*
X158927800Y-116696971D02*
X158927800Y-113904799D01*
X152434772Y-123189999D02*
X158927800Y-116696971D01*
X113423801Y-119990800D02*
X116623000Y-123189999D01*
%TO.N,/Relays/RELAY_DRV_A1*%
X160197800Y-116181313D02*
X151180801Y-125198312D01*
X77546200Y-135846858D02*
X77546200Y-93428198D01*
X149963316Y-142036797D02*
X83736139Y-142036797D01*
X83736139Y-142036797D02*
X77546200Y-135846858D01*
X151180801Y-125198312D02*
X151180800Y-140819313D01*
X160197801Y-113904799D02*
X160197800Y-116181313D01*
X77546200Y-93428198D02*
X73558799Y-89440797D01*
X151180800Y-140819313D02*
X149963316Y-142036797D01*
D82*
%TO.N,Net-(D1-K)*%
X133188002Y-68974196D02*
X131220000Y-68974196D01*
X131220000Y-68974196D02*
X128870414Y-66624611D01*
X128870414Y-66624611D02*
X122604003Y-66624610D01*
%TO.N,Net-(D1-A)*%
X133061002Y-93437002D02*
X133061002Y-73101198D01*
X133061002Y-73101198D02*
X133188002Y-72974198D01*
X133096000Y-93472000D02*
X133061002Y-93437002D01*
D80*
%TO.N,Net-(U2-SW)*%
X147296802Y-100413798D02*
X148833902Y-100413798D01*
X148833902Y-100413798D02*
X149430802Y-99816897D01*
D76*
%TO.N,/U0~BOOT*%
X161163000Y-74549000D02*
X164545000Y-74549000D01*
X161163000Y-74549000D02*
X164269400Y-71442600D01*
X164269400Y-71442600D02*
X164269400Y-62915900D01*
%TO.N,/U0EN*%
X164592000Y-77343000D02*
X164592000Y-82791000D01*
X148082000Y-82042000D02*
X148082000Y-49254500D01*
X161163000Y-77089000D02*
X154940000Y-83312000D01*
X147773400Y-48945900D02*
X146769400Y-48945900D01*
X148082000Y-49254500D02*
X147773400Y-48945900D01*
X149352000Y-83312000D02*
X148082000Y-82042000D01*
X164545000Y-77089000D02*
X164545000Y-77296000D01*
X164545000Y-77296000D02*
X164592000Y-77343000D01*
X161163000Y-77089000D02*
X164545000Y-77089000D01*
X154940000Y-83312000D02*
X149352000Y-83312000D01*
%TO.N,V_ISENS1*%
X145765400Y-52755900D02*
X146769400Y-52755900D01*
X144571500Y-51562000D02*
X145765400Y-52755900D01*
X143764000Y-51562000D02*
X144571500Y-51562000D01*
X101219000Y-118618000D02*
X100058000Y-118618000D01*
X100058000Y-118618000D02*
X99988000Y-118688000D01*
%TO.N,V_SENS_BAT*%
X115316000Y-97028000D02*
X117348000Y-94996000D01*
X130763000Y-94996000D02*
X130810000Y-95043000D01*
X130810000Y-95043000D02*
X131064000Y-95043000D01*
X131064000Y-95043000D02*
X133303000Y-97282000D01*
X144399000Y-52374800D02*
X146050100Y-54025900D01*
X146050100Y-54025900D02*
X146769400Y-54025900D01*
X117348000Y-94996000D02*
X130763000Y-94996000D01*
X106172000Y-97028000D02*
X115316000Y-97028000D01*
%TO.N,RELAY_SIG_A2*%
X163957000Y-100009000D02*
X162627000Y-100009000D01*
X162627000Y-100009000D02*
X158927800Y-103708200D01*
X170333000Y-100009000D02*
X163363000Y-100009000D01*
X158927800Y-103708200D02*
X158927800Y-108954799D01*
%TO.N,RELAY_SIG_B1*%
X164125000Y-101279000D02*
X163389000Y-101279000D01*
X163389000Y-101279000D02*
X161467800Y-103200200D01*
X170303000Y-101279000D02*
X164125000Y-101279000D01*
X161467800Y-103200200D02*
X161467800Y-108954799D01*
%TO.N,RELAY_SIG_A1*%
X170318000Y-100644000D02*
X163744000Y-100644000D01*
X164211000Y-100644000D02*
X163008000Y-100644000D01*
X160197800Y-103454200D02*
X160197800Y-108954799D01*
X163008000Y-100644000D02*
X160197800Y-103454200D01*
%TO.N,RELAY_SIG_B2*%
X170348000Y-99374000D02*
X162982000Y-99374000D01*
X162246000Y-99374000D02*
X157657800Y-103962200D01*
X162982000Y-99374000D02*
X162246000Y-99374000D01*
X157657800Y-103962200D02*
X157657800Y-108954799D01*
%TO.N,/S_433_MHZ*%
X146693300Y-57912000D02*
X146769400Y-57835900D01*
X145161000Y-57912000D02*
X146693300Y-57912000D01*
D77*
%TO.N,/Relays/RELAY_DRV_A3*%
X133336201Y-122123199D02*
X151992888Y-122123199D01*
X151992888Y-122123199D02*
X156387800Y-117728287D01*
X131203801Y-119990799D02*
X133336201Y-122123199D01*
X156387800Y-117728287D02*
X156387800Y-113904799D01*
%TO.N,/Relays/RELAY_DRV_B3*%
X151771946Y-121589800D02*
X155117800Y-118243945D01*
X140093802Y-119990799D02*
X141692801Y-121589799D01*
X141692801Y-121589799D02*
X151771946Y-121589800D01*
X155117800Y-118243945D02*
X155117800Y-113904799D01*
D76*
%TO.N,RELAY_SIG_A3*%
X162601000Y-98739000D02*
X161865000Y-98739000D01*
X170363000Y-98739000D02*
X162601000Y-98739000D01*
X161865000Y-98739000D02*
X156387800Y-104216200D01*
X156387800Y-104216200D02*
X156387800Y-108954799D01*
%TO.N,RELAY_SIG_B3*%
X155117800Y-104536936D02*
X155117800Y-108954799D01*
X170351495Y-98077495D02*
X162313241Y-98077495D01*
X162313241Y-98077495D02*
X161577241Y-98077495D01*
X161577241Y-98077495D02*
X155117800Y-104536936D01*
%TO.N,/U0TXD*%
X164269400Y-50215900D02*
X166674900Y-50215900D01*
X166674900Y-50215900D02*
X166751000Y-50292000D01*
%TO.N,/U0RXD*%
X164269400Y-51485900D02*
X165684100Y-51485900D01*
X165684100Y-51485900D02*
X165735000Y-51435000D01*
D82*
%TO.N,Net-(U1-OUT)*%
X110199804Y-75438000D02*
X111512620Y-75438000D01*
X112816001Y-76741381D02*
X112816002Y-78054201D01*
X111512620Y-75438000D02*
X112816001Y-76741381D01*
X113504201Y-81824611D02*
X114994002Y-81824611D01*
X112816003Y-77557808D02*
X112816002Y-81136412D01*
X112816002Y-81136412D02*
X113504201Y-81824611D01*
D77*
%TO.N,Net-(R12-Pad1)*%
X137922000Y-86717500D02*
X139610500Y-86717500D01*
X139610500Y-86717500D02*
X140523000Y-87630000D01*
D79*
%TO.N,unconnected-(U1-~{ON}{slash}OFF-Pad5)*%
X114994003Y-86924611D02*
X114543203Y-87375411D01*
D77*
%TO.N,/Relays/RELAY_DRV_C3*%
X153847801Y-113904799D02*
X153847801Y-118759603D01*
X153847801Y-118759603D02*
X152616606Y-119990798D01*
X152616606Y-119990798D02*
X148983800Y-119990797D01*
D79*
%TO.N,BULK_CHARGE_EN*%
X145034000Y-59055000D02*
X146718500Y-59055000D01*
D76*
X107915002Y-93802198D02*
X109138415Y-93802198D01*
D79*
X109138415Y-93802198D02*
X109286001Y-93654612D01*
X146718500Y-59055000D02*
X146769400Y-59105900D01*
D76*
%TO.N,RELAY_SIG_C3*%
X153847800Y-104724200D02*
X153847800Y-108954799D01*
X161163000Y-97409000D02*
X153847800Y-104724200D01*
X170333000Y-97409000D02*
X161899000Y-97409000D01*
X161899000Y-97409000D02*
X161163000Y-97409000D01*
%TO.N,SD_CLK*%
X165298800Y-63645300D02*
X165298800Y-62186500D01*
X164929800Y-63899302D02*
X164929800Y-63645300D01*
X165298800Y-62186500D02*
X164758200Y-61645900D01*
X164758200Y-61645900D02*
X164269400Y-61645900D01*
X132334000Y-59055000D02*
X130167001Y-56888001D01*
X130167001Y-56888001D02*
X128395000Y-56888001D01*
X132334000Y-60047500D02*
X132842000Y-60555500D01*
X164929800Y-63645300D02*
X165298800Y-63645300D01*
X132334000Y-59055000D02*
X132334000Y-60047500D01*
%TO.N,SD_MOSI*%
X129364001Y-54688001D02*
X128395000Y-54688001D01*
X133731000Y-59055000D02*
X134874000Y-60198000D01*
X134874000Y-60198000D02*
X134874000Y-60579000D01*
X165785900Y-57835900D02*
X164269400Y-57835900D01*
X133731000Y-59055000D02*
X129364001Y-54688001D01*
X165862000Y-57912000D02*
X165785900Y-57835900D01*
%TO.N,Net-(LED1-Pad2)*%
X184404000Y-76926440D02*
X184404000Y-74663940D01*
%TO.N,Net-(LED1-Pad4)*%
X186973000Y-76902940D02*
X186973000Y-74692940D01*
%TO.N,Net-(LED1-Pad6)*%
X189484000Y-76926440D02*
X189484000Y-74663940D01*
D75*
%TO.N,+12V_RELAYS*%
X77266798Y-141274798D02*
X73558799Y-137566799D01*
D78*
X162052000Y-112014000D02*
X152577800Y-112014000D01*
X142748000Y-104394000D02*
X136398000Y-104394000D01*
D75*
X162356800Y-112318800D02*
X162356800Y-115620799D01*
X152311101Y-141287499D02*
X150431501Y-143167099D01*
X162052000Y-112014000D02*
X162356800Y-112318800D01*
X152311101Y-125666499D02*
X152311101Y-141287499D01*
X73558799Y-137566799D02*
X73558799Y-135450797D01*
D78*
X150368000Y-112014000D02*
X142748000Y-104394000D01*
D75*
X79159099Y-143167099D02*
X77266798Y-141274798D01*
X71297800Y-108501796D02*
X71297800Y-135305800D01*
X73558799Y-106240797D02*
X71297800Y-108501796D01*
D78*
X152577800Y-112014000D02*
X150368000Y-112014000D01*
D75*
X71297800Y-135305800D02*
X77266798Y-141274798D01*
X150431501Y-143167099D02*
X79159099Y-143167099D01*
D78*
X152577800Y-112014000D02*
X152577800Y-113904799D01*
D75*
X162356800Y-115620799D02*
X152311101Y-125666499D01*
D76*
%TO.N,EXT_SENS_2*%
X147574000Y-65479300D02*
X145740000Y-63645300D01*
X145765400Y-61645900D02*
X146769400Y-61645900D01*
X147574000Y-82611000D02*
X147574000Y-65479300D01*
X150053000Y-85090000D02*
X147574000Y-82611000D01*
X145740000Y-61671300D02*
X145765400Y-61645900D01*
X145740000Y-63645300D02*
X145740000Y-61671300D01*
%TO.N,EXT_SENS_1*%
X145765400Y-60375900D02*
X146769400Y-60375900D01*
X145333600Y-64053600D02*
X145333600Y-60807700D01*
X147066000Y-87183000D02*
X147066000Y-65786000D01*
X145333600Y-60807700D02*
X145765400Y-60375900D01*
X150053000Y-90170000D02*
X147066000Y-87183000D01*
X147066000Y-65786000D02*
X145333600Y-64053600D01*
%TO.N,EXT_SENS_3*%
X163068000Y-60960000D02*
X163652100Y-60375900D01*
X163652100Y-60375900D02*
X164269400Y-60375900D01*
X163068000Y-67310000D02*
X163068000Y-60960000D01*
X150113971Y-78232000D02*
X152146000Y-78232000D01*
X152146000Y-78232000D02*
X163068000Y-67310000D01*
D77*
%TO.N,Net-(J4-Pin_2)*%
X137922000Y-76858500D02*
X137922000Y-78232000D01*
D76*
%TO.N,Net-(J6-Pin_2)*%
X172720000Y-84628000D02*
X172720000Y-78149000D01*
X172212000Y-85136000D02*
X172720000Y-84628000D01*
%TO.N,Net-(J6-Pin_3)*%
X171450000Y-78149000D02*
X171450000Y-83398000D01*
X171450000Y-83398000D02*
X169712000Y-85136000D01*
%TO.N,EXT_SENS_4*%
X163780600Y-55295900D02*
X164269400Y-55295900D01*
X150113971Y-73152000D02*
X156464000Y-73152000D01*
X156464000Y-73152000D02*
X162560000Y-67056000D01*
X162560000Y-56515000D02*
X162832100Y-56242900D01*
X162832100Y-56242900D02*
X162833600Y-56242900D01*
X162833600Y-56242900D02*
X163780600Y-55295900D01*
X162560000Y-67056000D02*
X162560000Y-56515000D01*
D82*
%TO.N,+VBAT_2*%
X120904000Y-100584000D02*
X132397998Y-100584000D01*
X120523000Y-100203000D02*
X120904000Y-100584000D01*
D77*
%TO.N,Net-(J1-Pin_2)*%
X137922000Y-93622500D02*
X137922000Y-94996000D01*
D75*
%TO.N,GND_SENSORS*%
X166309000Y-119232000D02*
X166309000Y-112238001D01*
X183007000Y-120690000D02*
X167767000Y-120690000D01*
X167767000Y-120690000D02*
X166309000Y-119232000D01*
D76*
%TO.N,SENSORS_EN*%
X167386000Y-110236000D02*
X167259000Y-110363000D01*
X167420600Y-96714000D02*
X167386000Y-96748600D01*
X167386000Y-101981000D02*
X167386000Y-110236000D01*
X170942000Y-96714000D02*
X167420600Y-96714000D01*
%TO.N,SD_CS*%
X152679403Y-60807597D02*
X162560000Y-50927000D01*
X130042001Y-53588001D02*
X128395000Y-53588001D01*
X136906000Y-60440250D02*
X136906000Y-60555500D01*
X135520750Y-59055000D02*
X136906000Y-60440250D01*
X163652100Y-47675900D02*
X164269400Y-47675900D01*
X135509000Y-59055000D02*
X130042001Y-53588001D01*
X135509000Y-59055000D02*
X135520750Y-59055000D01*
X162560000Y-50927000D02*
X162560000Y-48768000D01*
X162560000Y-48768000D02*
X163652100Y-47675900D01*
D77*
%TO.N,Net-(R11-Pad1)*%
X137922000Y-91797500D02*
X139610500Y-91797500D01*
X139610500Y-91797500D02*
X140523000Y-92710000D01*
%TO.N,Net-(R13-Pad2)*%
X137922000Y-79859500D02*
X139671471Y-79859500D01*
X139671471Y-79859500D02*
X140583971Y-80772000D01*
%TO.N,Net-(R14-Pad1)*%
X137922000Y-75033500D02*
X139925471Y-75033500D01*
X139925471Y-75033500D02*
X140583971Y-75692000D01*
D76*
%TO.N,Net-(U11-P05)*%
X183642000Y-93980000D02*
X183642000Y-84593440D01*
X178958000Y-98664000D02*
X183642000Y-93980000D01*
X183642000Y-84593440D02*
X189484000Y-78751440D01*
X176667000Y-98664000D02*
X178958000Y-98664000D01*
%TO.N,Net-(U11-P06)*%
X176667000Y-98014000D02*
X178338000Y-98014000D01*
X182626000Y-93726000D02*
X182626000Y-83074940D01*
X182626000Y-83074940D02*
X186973000Y-78727940D01*
X178338000Y-98014000D02*
X182626000Y-93726000D01*
%TO.N,Net-(U11-P07)*%
X177718000Y-97364000D02*
X181610000Y-93472000D01*
X176667000Y-97364000D02*
X177718000Y-97364000D01*
X181610000Y-93472000D02*
X181610000Y-81545440D01*
X181610000Y-81545440D02*
X184404000Y-78751440D01*
%TO.N,Net-(U11-P00)*%
X186979560Y-100939600D02*
X191566800Y-96352360D01*
X181702400Y-101914000D02*
X182676800Y-100939600D01*
X182676800Y-100939600D02*
X186979560Y-100939600D01*
X176667000Y-101914000D02*
X181702400Y-101914000D01*
%TO.N,Net-(U11-P01)*%
X176667000Y-101264000D02*
X180930000Y-101264000D01*
X185674000Y-89545160D02*
X191566800Y-83652360D01*
X185674000Y-96520000D02*
X185674000Y-89545160D01*
X180930000Y-101264000D02*
X185674000Y-96520000D01*
%TO.N,SD_MISO*%
X159893000Y-65913000D02*
X159893000Y-64242300D01*
X159893000Y-64242300D02*
X159969400Y-64165900D01*
X130810000Y-59088001D02*
X128395000Y-59088001D01*
X130810000Y-59088001D02*
X130810000Y-60555500D01*
%TO.N,V_ISENS_VOC*%
X146769400Y-50215900D02*
X146591500Y-50038000D01*
X141224000Y-51181000D02*
X142367000Y-50038000D01*
X99495000Y-121285000D02*
X99458000Y-121248000D01*
X146591500Y-50038000D02*
X142367000Y-50038000D01*
X141120500Y-51181000D02*
X141224000Y-51181000D01*
X101219000Y-121285000D02*
X99495000Y-121285000D01*
%TO.N,V_ISENS_FAULT*%
X144780000Y-50800000D02*
X143002000Y-50800000D01*
X101153000Y-120208000D02*
X101219000Y-120142000D01*
X145465900Y-51485900D02*
X144780000Y-50800000D01*
X141120500Y-53213000D02*
X141120500Y-52681500D01*
X141120500Y-52681500D02*
X143002000Y-50800000D01*
X99988000Y-120208000D02*
X101153000Y-120208000D01*
X146769400Y-51485900D02*
X145465900Y-51485900D01*
%TD*%
%TA.AperFunction,Conductor*%
%TO.N,+12V_RELAYS*%
G36*
X152774839Y-111779685D02*
G01*
X152820594Y-111832489D01*
X152831800Y-111884000D01*
X152831800Y-118747018D01*
X152812115Y-118814057D01*
X152795481Y-118834699D01*
X152366703Y-119263478D01*
X152305380Y-119296963D01*
X152279022Y-119299797D01*
X149939109Y-119299797D01*
X149872070Y-119280112D01*
X149840155Y-119250523D01*
X149822090Y-119226601D01*
X149822088Y-119226598D01*
X149822084Y-119226594D01*
X149822082Y-119226592D01*
X149667394Y-119085576D01*
X149667393Y-119085575D01*
X149489419Y-118975378D01*
X149489417Y-118975377D01*
X149489416Y-118975376D01*
X149294238Y-118899765D01*
X149294228Y-118899761D01*
X149088465Y-118861297D01*
X148879137Y-118861297D01*
X148673374Y-118899761D01*
X148673371Y-118899761D01*
X148673371Y-118899762D01*
X148478185Y-118975376D01*
X148478184Y-118975377D01*
X148300207Y-119085576D01*
X148145515Y-119226595D01*
X148019368Y-119393641D01*
X148019363Y-119393649D01*
X147926060Y-119581027D01*
X147868775Y-119782367D01*
X147849462Y-119990796D01*
X147849462Y-119990797D01*
X147868775Y-120199226D01*
X147926060Y-120400566D01*
X148019363Y-120587944D01*
X148019372Y-120587958D01*
X148104037Y-120700073D01*
X148128729Y-120765434D01*
X148114164Y-120833769D01*
X148064966Y-120883381D01*
X148005083Y-120898799D01*
X142030384Y-120898799D01*
X141963345Y-120879114D01*
X141942703Y-120862480D01*
X141255976Y-120175752D01*
X141222491Y-120114429D01*
X141220186Y-120076629D01*
X141227200Y-120000947D01*
X141228140Y-119990799D01*
X141208826Y-119782365D01*
X141151541Y-119581028D01*
X141058238Y-119393652D01*
X141058238Y-119393651D01*
X141058233Y-119393643D01*
X140932086Y-119226597D01*
X140777394Y-119085578D01*
X140777393Y-119085577D01*
X140599419Y-118975380D01*
X140599417Y-118975379D01*
X140599416Y-118975378D01*
X140404233Y-118899765D01*
X140404228Y-118899763D01*
X140198465Y-118861299D01*
X139989137Y-118861299D01*
X139783374Y-118899763D01*
X139783371Y-118899763D01*
X139783371Y-118899764D01*
X139588185Y-118975378D01*
X139588184Y-118975379D01*
X139410207Y-119085578D01*
X139255515Y-119226597D01*
X139129368Y-119393643D01*
X139129363Y-119393651D01*
X139036060Y-119581029D01*
X138978775Y-119782369D01*
X138959462Y-119990798D01*
X138959462Y-119990799D01*
X138978775Y-120199228D01*
X138978775Y-120199230D01*
X138978776Y-120199233D01*
X139007137Y-120298914D01*
X139036060Y-120400568D01*
X139129363Y-120587946D01*
X139129368Y-120587954D01*
X139256324Y-120756071D01*
X139281016Y-120821433D01*
X139266451Y-120889767D01*
X139217253Y-120939380D01*
X139157370Y-120954798D01*
X133196384Y-120954798D01*
X133129345Y-120935113D01*
X133108703Y-120918479D01*
X132365976Y-120175752D01*
X132332491Y-120114429D01*
X132330186Y-120076629D01*
X132337200Y-120000947D01*
X132338140Y-119990799D01*
X132318826Y-119782365D01*
X132261541Y-119581028D01*
X132168238Y-119393652D01*
X132168238Y-119393651D01*
X132168233Y-119393643D01*
X132042086Y-119226597D01*
X131887394Y-119085578D01*
X131887393Y-119085577D01*
X131709419Y-118975380D01*
X131709417Y-118975379D01*
X131709416Y-118975378D01*
X131514233Y-118899765D01*
X131514228Y-118899763D01*
X131308465Y-118861299D01*
X131099137Y-118861299D01*
X130893374Y-118899763D01*
X130893371Y-118899763D01*
X130893371Y-118899764D01*
X130698185Y-118975378D01*
X130698184Y-118975379D01*
X130520207Y-119085578D01*
X130365515Y-119226597D01*
X130239368Y-119393643D01*
X130239363Y-119393651D01*
X130146060Y-119581029D01*
X130088775Y-119782369D01*
X130069462Y-119990798D01*
X130069462Y-119990799D01*
X130088775Y-120199228D01*
X130088775Y-120199230D01*
X130088776Y-120199233D01*
X130117137Y-120298914D01*
X130146060Y-120400568D01*
X130239363Y-120587946D01*
X130239368Y-120587954D01*
X130305796Y-120675918D01*
X130365512Y-120754996D01*
X130366324Y-120756070D01*
X130391016Y-120821431D01*
X130376451Y-120889766D01*
X130327254Y-120939379D01*
X130267370Y-120954797D01*
X124306382Y-120954797D01*
X124239343Y-120935112D01*
X124218701Y-120918478D01*
X123475976Y-120175753D01*
X123442491Y-120114430D01*
X123440186Y-120076630D01*
X123447200Y-120000947D01*
X123448140Y-119990799D01*
X123428826Y-119782365D01*
X123371541Y-119581028D01*
X123278238Y-119393652D01*
X123278238Y-119393651D01*
X123278233Y-119393643D01*
X123152086Y-119226597D01*
X122997394Y-119085578D01*
X122997393Y-119085577D01*
X122819419Y-118975380D01*
X122819417Y-118975379D01*
X122819416Y-118975378D01*
X122624233Y-118899765D01*
X122624228Y-118899763D01*
X122418465Y-118861299D01*
X122209137Y-118861299D01*
X122003374Y-118899763D01*
X122003371Y-118899763D01*
X122003371Y-118899764D01*
X121808185Y-118975378D01*
X121808184Y-118975379D01*
X121630207Y-119085578D01*
X121475515Y-119226597D01*
X121349368Y-119393643D01*
X121349363Y-119393651D01*
X121256060Y-119581029D01*
X121198775Y-119782369D01*
X121179462Y-119990798D01*
X121179462Y-119990799D01*
X121198775Y-120199228D01*
X121198775Y-120199230D01*
X121198776Y-120199233D01*
X121227137Y-120298914D01*
X121256060Y-120400568D01*
X121349363Y-120587946D01*
X121349368Y-120587954D01*
X121415796Y-120675918D01*
X121475512Y-120754996D01*
X121476324Y-120756070D01*
X121501016Y-120821431D01*
X121486451Y-120889766D01*
X121437254Y-120939379D01*
X121377370Y-120954797D01*
X115416382Y-120954797D01*
X115349343Y-120935112D01*
X115328701Y-120918478D01*
X114585976Y-120175753D01*
X114552491Y-120114430D01*
X114550186Y-120076630D01*
X114558027Y-119992024D01*
X114558140Y-119990800D01*
X114554879Y-119955613D01*
X114545769Y-119857296D01*
X114538826Y-119782366D01*
X114481541Y-119581029D01*
X114435459Y-119488486D01*
X114388238Y-119393652D01*
X114388233Y-119393644D01*
X114262086Y-119226598D01*
X114107394Y-119085579D01*
X114107393Y-119085578D01*
X113929419Y-118975381D01*
X113929417Y-118975380D01*
X113929416Y-118975379D01*
X113775580Y-118915784D01*
X113734228Y-118899764D01*
X113528465Y-118861300D01*
X113319137Y-118861300D01*
X113113374Y-118899764D01*
X113113371Y-118899764D01*
X113113371Y-118899765D01*
X112918185Y-118975379D01*
X112918184Y-118975380D01*
X112740207Y-119085579D01*
X112585515Y-119226598D01*
X112459368Y-119393644D01*
X112459363Y-119393652D01*
X112366060Y-119581030D01*
X112308775Y-119782370D01*
X112289462Y-119990799D01*
X112289462Y-119990800D01*
X112308775Y-120199229D01*
X112366060Y-120400569D01*
X112459363Y-120587947D01*
X112459368Y-120587955D01*
X112586323Y-120756070D01*
X112611015Y-120821432D01*
X112596450Y-120889766D01*
X112547252Y-120939379D01*
X112487369Y-120954797D01*
X107362800Y-120954797D01*
X107295761Y-120935112D01*
X107250006Y-120882308D01*
X107238800Y-120830797D01*
X107238801Y-118231500D01*
X107258486Y-118164460D01*
X107311290Y-118118706D01*
X107362801Y-118107500D01*
X107639417Y-118107500D01*
X107639430Y-118107500D01*
X107697041Y-118104206D01*
X107725119Y-118100985D01*
X107781968Y-118091150D01*
X107916003Y-118038976D01*
X107916044Y-118038960D01*
X107916044Y-118038959D01*
X107916049Y-118038958D01*
X107976890Y-118004605D01*
X107976891Y-118004604D01*
X107977030Y-118004496D01*
X107982619Y-118000250D01*
X107983203Y-117999736D01*
X108064464Y-117937085D01*
X108070288Y-117932595D01*
X108135399Y-117907251D01*
X108146000Y-117906797D01*
X109205291Y-117906797D01*
X109272330Y-117926482D01*
X109286494Y-117937085D01*
X109367830Y-118007564D01*
X109367831Y-118007565D01*
X109367834Y-118007567D01*
X109367836Y-118007568D01*
X109367838Y-118007569D01*
X109436601Y-118038973D01*
X109498711Y-118067338D01*
X109565750Y-118087023D01*
X109565754Y-118087024D01*
X109708170Y-118107500D01*
X109708173Y-118107500D01*
X116529429Y-118107500D01*
X116529432Y-118107500D01*
X116529438Y-118107499D01*
X116529455Y-118107499D01*
X116587119Y-118104197D01*
X116587122Y-118104196D01*
X116587135Y-118104196D01*
X116587143Y-118104194D01*
X116587156Y-118104194D01*
X116605206Y-118102119D01*
X116615255Y-118100965D01*
X116671843Y-118091159D01*
X116672178Y-118091101D01*
X116672178Y-118091100D01*
X116672183Y-118091100D01*
X116806245Y-118038862D01*
X116864347Y-118006028D01*
X116866137Y-118005076D01*
X116867076Y-118004487D01*
X116867078Y-118004486D01*
X116960216Y-117932622D01*
X117025318Y-117907255D01*
X117035965Y-117906797D01*
X118095289Y-117906797D01*
X118162328Y-117926482D01*
X118176492Y-117937085D01*
X118257828Y-118007564D01*
X118257829Y-118007565D01*
X118257832Y-118007567D01*
X118257834Y-118007568D01*
X118257836Y-118007569D01*
X118326599Y-118038973D01*
X118388709Y-118067338D01*
X118455748Y-118087023D01*
X118455752Y-118087024D01*
X118598168Y-118107500D01*
X118598171Y-118107500D01*
X125419429Y-118107500D01*
X125419432Y-118107500D01*
X125419438Y-118107499D01*
X125419455Y-118107499D01*
X125477119Y-118104197D01*
X125477122Y-118104196D01*
X125477135Y-118104196D01*
X125477143Y-118104194D01*
X125477156Y-118104194D01*
X125495206Y-118102119D01*
X125505255Y-118100965D01*
X125561843Y-118091159D01*
X125562178Y-118091101D01*
X125562178Y-118091100D01*
X125562183Y-118091100D01*
X125696245Y-118038862D01*
X125754347Y-118006028D01*
X125756137Y-118005076D01*
X125757076Y-118004487D01*
X125757078Y-118004486D01*
X125850216Y-117932622D01*
X125915318Y-117907255D01*
X125925965Y-117906797D01*
X126985289Y-117906797D01*
X127052328Y-117926482D01*
X127066492Y-117937085D01*
X127147828Y-118007564D01*
X127147829Y-118007565D01*
X127147832Y-118007567D01*
X127147834Y-118007568D01*
X127147836Y-118007569D01*
X127216599Y-118038973D01*
X127278709Y-118067338D01*
X127345748Y-118087023D01*
X127345752Y-118087024D01*
X127488168Y-118107500D01*
X127488171Y-118107500D01*
X134309429Y-118107500D01*
X134309432Y-118107500D01*
X134309438Y-118107499D01*
X134309455Y-118107499D01*
X134367119Y-118104197D01*
X134367122Y-118104196D01*
X134367135Y-118104196D01*
X134367143Y-118104194D01*
X134367156Y-118104194D01*
X134385206Y-118102119D01*
X134395255Y-118100965D01*
X134451843Y-118091159D01*
X134452178Y-118091101D01*
X134452178Y-118091100D01*
X134452183Y-118091100D01*
X134586245Y-118038862D01*
X134644347Y-118006028D01*
X134646137Y-118005076D01*
X134647076Y-118004487D01*
X134647078Y-118004486D01*
X134740216Y-117932622D01*
X134805318Y-117907255D01*
X134815965Y-117906797D01*
X135875289Y-117906797D01*
X135942328Y-117926482D01*
X135956492Y-117937085D01*
X136037828Y-118007564D01*
X136037829Y-118007565D01*
X136037832Y-118007567D01*
X136037834Y-118007568D01*
X136037836Y-118007569D01*
X136106599Y-118038973D01*
X136168709Y-118067338D01*
X136235748Y-118087023D01*
X136235752Y-118087024D01*
X136378168Y-118107500D01*
X136378171Y-118107500D01*
X143199434Y-118107500D01*
X143257026Y-118104209D01*
X143285096Y-118100990D01*
X143341933Y-118091159D01*
X143476017Y-118038976D01*
X143536860Y-118004627D01*
X143536861Y-118004626D01*
X143536886Y-118004607D01*
X143542590Y-118000274D01*
X143543176Y-117999757D01*
X143630303Y-117932591D01*
X143695416Y-117907250D01*
X143706010Y-117906797D01*
X144765287Y-117906797D01*
X144832326Y-117926482D01*
X144846490Y-117937085D01*
X144927826Y-118007564D01*
X144927827Y-118007565D01*
X144927830Y-118007567D01*
X144927832Y-118007568D01*
X144927834Y-118007569D01*
X144996597Y-118038973D01*
X145058707Y-118067338D01*
X145125746Y-118087023D01*
X145125750Y-118087024D01*
X145268166Y-118107500D01*
X145268169Y-118107500D01*
X148457608Y-118107500D01*
X148479622Y-118107019D01*
X148479642Y-118107018D01*
X148479647Y-118107018D01*
X148490453Y-118106546D01*
X148512452Y-118105104D01*
X148716783Y-118087227D01*
X148760497Y-118081473D01*
X148781783Y-118077720D01*
X148824844Y-118068173D01*
X149017720Y-118016492D01*
X149059786Y-118003229D01*
X149080097Y-117995836D01*
X149120833Y-117978962D01*
X149250675Y-117918414D01*
X149303080Y-117906797D01*
X149656800Y-117906797D01*
X150926800Y-116636799D01*
X150926800Y-111884000D01*
X150946485Y-111816961D01*
X150999289Y-111771206D01*
X151050800Y-111760000D01*
X152707800Y-111760000D01*
X152774839Y-111779685D01*
G37*
%TD.AperFunction*%
%TD*%
%TA.AperFunction,Conductor*%
%TO.N,+VBAT*%
G36*
X91431432Y-89789590D02*
G01*
X91659641Y-89811932D01*
X91683346Y-89816619D01*
X91861010Y-89870175D01*
X91897057Y-89881041D01*
X91919404Y-89890236D01*
X92116568Y-89994887D01*
X92136707Y-90008242D01*
X92314558Y-90152993D01*
X92323539Y-90161062D01*
X97135253Y-94928223D01*
X105292743Y-103010182D01*
X105292751Y-103010189D01*
X105292755Y-103010193D01*
X105292758Y-103010195D01*
X105664000Y-103378000D01*
X117856000Y-103378000D01*
X124460000Y-103378000D01*
X131097461Y-103378000D01*
X131108223Y-103378467D01*
X131311718Y-103396197D01*
X131332914Y-103399918D01*
X131525053Y-103451178D01*
X131545286Y-103458509D01*
X131725662Y-103542223D01*
X131744322Y-103552942D01*
X131907507Y-103666590D01*
X131924032Y-103680374D01*
X132065105Y-103820530D01*
X132078997Y-103836966D01*
X132193705Y-103999406D01*
X132204548Y-104018000D01*
X132289430Y-104197817D01*
X132296895Y-104218006D01*
X132349407Y-104409807D01*
X132353267Y-104430983D01*
X132372322Y-104634355D01*
X132372860Y-104645115D01*
X132376631Y-105223681D01*
X132376631Y-105223687D01*
X132384800Y-106476799D01*
X133637908Y-106485381D01*
X133637912Y-106485382D01*
X133637911Y-106485382D01*
X138925469Y-106521598D01*
X142983020Y-106549390D01*
X142995038Y-106550058D01*
X143222477Y-106573835D01*
X143246080Y-106578657D01*
X143458802Y-106644181D01*
X143481032Y-106653478D01*
X143677070Y-106758911D01*
X143697083Y-106772333D01*
X143873715Y-106917544D01*
X143882649Y-106925649D01*
X149356716Y-112399716D01*
X149364888Y-112408732D01*
X149511218Y-112587036D01*
X149524723Y-112607248D01*
X149630568Y-112805269D01*
X149639871Y-112827727D01*
X149705052Y-113042601D01*
X149709794Y-113066442D01*
X149732403Y-113295989D01*
X149733000Y-113308143D01*
X149733000Y-116326588D01*
X149732528Y-116337396D01*
X149714651Y-116541725D01*
X149710898Y-116563011D01*
X149659217Y-116755887D01*
X149651824Y-116776198D01*
X149567437Y-116957165D01*
X149556630Y-116975883D01*
X149442095Y-117139456D01*
X149428201Y-117156014D01*
X149287014Y-117297201D01*
X149270456Y-117311095D01*
X149106883Y-117425630D01*
X149088165Y-117436437D01*
X148907198Y-117520824D01*
X148886887Y-117528217D01*
X148694011Y-117579898D01*
X148672725Y-117583651D01*
X148495008Y-117599199D01*
X148468394Y-117601528D01*
X148457588Y-117602000D01*
X145268166Y-117602000D01*
X145201127Y-117582315D01*
X145155372Y-117529511D01*
X145145428Y-117460353D01*
X145174453Y-117396797D01*
X145188888Y-117383546D01*
X145188494Y-117383085D01*
X145244780Y-117335012D01*
X145386756Y-117213753D01*
X145552923Y-117019196D01*
X145686609Y-116801040D01*
X145711706Y-116740452D01*
X145768263Y-116603909D01*
X145784522Y-116564657D01*
X145844252Y-116315867D01*
X145864326Y-116060797D01*
X145844252Y-115805727D01*
X145784522Y-115556937D01*
X145784520Y-115556932D01*
X145686611Y-115320557D01*
X145686609Y-115320554D01*
X145552924Y-115102400D01*
X145552921Y-115102395D01*
X145493119Y-115032376D01*
X145386756Y-114907841D01*
X145280391Y-114816997D01*
X145192201Y-114741675D01*
X145192196Y-114741672D01*
X144974042Y-114607987D01*
X144974039Y-114607985D01*
X144737664Y-114510076D01*
X144737660Y-114510075D01*
X144488870Y-114450345D01*
X144488867Y-114450344D01*
X144488864Y-114450344D01*
X144233800Y-114430271D01*
X143978735Y-114450344D01*
X143978731Y-114450344D01*
X143978730Y-114450345D01*
X143978718Y-114450348D01*
X143729935Y-114510076D01*
X143493560Y-114607985D01*
X143493557Y-114607987D01*
X143275403Y-114741672D01*
X143275398Y-114741675D01*
X143080844Y-114907841D01*
X142914678Y-115102395D01*
X142914675Y-115102400D01*
X142780990Y-115320554D01*
X142780988Y-115320557D01*
X142683079Y-115556932D01*
X142623347Y-115805732D01*
X142603274Y-116060797D01*
X142623347Y-116315861D01*
X142623347Y-116315864D01*
X142623348Y-116315867D01*
X142682683Y-116563011D01*
X142683079Y-116564661D01*
X142780988Y-116801036D01*
X142780990Y-116801039D01*
X142914675Y-117019193D01*
X142914678Y-117019198D01*
X142973776Y-117088392D01*
X143080844Y-117213753D01*
X143194817Y-117311095D01*
X143279106Y-117383085D01*
X143277731Y-117384694D01*
X143314991Y-117433027D01*
X143320961Y-117502641D01*
X143288347Y-117564432D01*
X143227504Y-117598781D01*
X143199434Y-117602000D01*
X136378168Y-117602000D01*
X136311129Y-117582315D01*
X136265374Y-117529511D01*
X136255430Y-117460353D01*
X136284455Y-117396797D01*
X136298890Y-117383551D01*
X136298494Y-117383087D01*
X136382785Y-117311095D01*
X136496756Y-117213755D01*
X136662923Y-117019198D01*
X136796609Y-116801042D01*
X136796612Y-116801036D01*
X136857432Y-116654202D01*
X136894522Y-116564659D01*
X136954252Y-116315869D01*
X136974326Y-116060799D01*
X136954252Y-115805729D01*
X136894522Y-115556939D01*
X136796611Y-115320560D01*
X136796611Y-115320559D01*
X136796609Y-115320556D01*
X136662924Y-115102402D01*
X136662923Y-115102401D01*
X136662923Y-115102400D01*
X136662922Y-115102399D01*
X136662921Y-115102397D01*
X136603119Y-115032378D01*
X136496756Y-114907843D01*
X136390391Y-114816999D01*
X136302201Y-114741677D01*
X136302196Y-114741674D01*
X136084042Y-114607989D01*
X136084039Y-114607987D01*
X135847664Y-114510078D01*
X135847652Y-114510075D01*
X135598870Y-114450347D01*
X135598867Y-114450346D01*
X135598864Y-114450346D01*
X135343800Y-114430273D01*
X135088735Y-114450346D01*
X135088731Y-114450346D01*
X135088730Y-114450347D01*
X134964335Y-114480212D01*
X134839935Y-114510078D01*
X134603560Y-114607987D01*
X134603557Y-114607989D01*
X134385403Y-114741674D01*
X134385398Y-114741677D01*
X134190844Y-114907843D01*
X134024678Y-115102397D01*
X134024675Y-115102402D01*
X133890990Y-115320556D01*
X133890988Y-115320559D01*
X133793079Y-115556934D01*
X133793078Y-115556939D01*
X133733349Y-115805727D01*
X133733347Y-115805734D01*
X133713274Y-116060799D01*
X133733347Y-116315863D01*
X133733347Y-116315866D01*
X133733348Y-116315869D01*
X133787572Y-116541725D01*
X133793079Y-116564663D01*
X133890988Y-116801038D01*
X133890990Y-116801041D01*
X134024675Y-117019195D01*
X134024678Y-117019200D01*
X134079837Y-117083782D01*
X134190844Y-117213755D01*
X134288547Y-117297201D01*
X134389106Y-117383087D01*
X134387723Y-117384705D01*
X134424970Y-117432979D01*
X134430969Y-117502591D01*
X134398381Y-117564395D01*
X134337552Y-117598769D01*
X134309432Y-117602000D01*
X127488168Y-117602000D01*
X127421129Y-117582315D01*
X127375374Y-117529511D01*
X127365430Y-117460353D01*
X127394455Y-117396797D01*
X127408890Y-117383551D01*
X127408494Y-117383087D01*
X127492785Y-117311095D01*
X127606756Y-117213755D01*
X127772923Y-117019198D01*
X127906609Y-116801042D01*
X127906612Y-116801036D01*
X127967432Y-116654202D01*
X128004522Y-116564659D01*
X128064252Y-116315869D01*
X128084326Y-116060799D01*
X128064252Y-115805729D01*
X128004522Y-115556939D01*
X127906611Y-115320560D01*
X127906611Y-115320559D01*
X127906609Y-115320556D01*
X127772924Y-115102402D01*
X127772923Y-115102401D01*
X127772923Y-115102400D01*
X127772922Y-115102399D01*
X127772921Y-115102397D01*
X127713119Y-115032378D01*
X127606756Y-114907843D01*
X127500391Y-114816999D01*
X127412201Y-114741677D01*
X127412196Y-114741674D01*
X127194042Y-114607989D01*
X127194039Y-114607987D01*
X126957664Y-114510078D01*
X126957652Y-114510075D01*
X126708870Y-114450347D01*
X126708867Y-114450346D01*
X126708864Y-114450346D01*
X126453800Y-114430273D01*
X126198735Y-114450346D01*
X126198731Y-114450346D01*
X126198730Y-114450347D01*
X126074335Y-114480212D01*
X125949935Y-114510078D01*
X125713560Y-114607987D01*
X125713557Y-114607989D01*
X125495403Y-114741674D01*
X125495398Y-114741677D01*
X125300844Y-114907843D01*
X125134678Y-115102397D01*
X125134675Y-115102402D01*
X125000990Y-115320556D01*
X125000988Y-115320559D01*
X124903079Y-115556934D01*
X124903078Y-115556939D01*
X124843349Y-115805727D01*
X124843347Y-115805734D01*
X124823274Y-116060799D01*
X124843347Y-116315863D01*
X124843347Y-116315866D01*
X124843348Y-116315869D01*
X124897572Y-116541725D01*
X124903079Y-116564663D01*
X125000988Y-116801038D01*
X125000990Y-116801041D01*
X125134675Y-117019195D01*
X125134678Y-117019200D01*
X125189837Y-117083782D01*
X125300844Y-117213755D01*
X125398547Y-117297201D01*
X125499106Y-117383087D01*
X125497723Y-117384705D01*
X125534970Y-117432979D01*
X125540969Y-117502591D01*
X125508381Y-117564395D01*
X125447552Y-117598769D01*
X125419432Y-117602000D01*
X118598168Y-117602000D01*
X118531129Y-117582315D01*
X118485374Y-117529511D01*
X118475430Y-117460353D01*
X118504455Y-117396797D01*
X118518890Y-117383551D01*
X118518494Y-117383087D01*
X118602785Y-117311095D01*
X118716756Y-117213755D01*
X118882923Y-117019198D01*
X119016609Y-116801042D01*
X119016612Y-116801036D01*
X119077432Y-116654202D01*
X119114522Y-116564659D01*
X119174252Y-116315869D01*
X119194326Y-116060799D01*
X119174252Y-115805729D01*
X119114522Y-115556939D01*
X119016611Y-115320560D01*
X119016611Y-115320559D01*
X119016609Y-115320556D01*
X118882924Y-115102402D01*
X118882923Y-115102401D01*
X118882923Y-115102400D01*
X118882922Y-115102399D01*
X118882921Y-115102397D01*
X118823119Y-115032378D01*
X118716756Y-114907843D01*
X118610391Y-114816999D01*
X118522201Y-114741677D01*
X118522196Y-114741674D01*
X118304042Y-114607989D01*
X118304039Y-114607987D01*
X118067664Y-114510078D01*
X118067652Y-114510075D01*
X117818870Y-114450347D01*
X117818867Y-114450346D01*
X117818864Y-114450346D01*
X117563800Y-114430273D01*
X117308735Y-114450346D01*
X117308731Y-114450346D01*
X117308730Y-114450347D01*
X117184335Y-114480212D01*
X117059935Y-114510078D01*
X116823560Y-114607987D01*
X116823557Y-114607989D01*
X116605403Y-114741674D01*
X116605398Y-114741677D01*
X116410844Y-114907843D01*
X116244678Y-115102397D01*
X116244675Y-115102402D01*
X116110990Y-115320556D01*
X116110988Y-115320559D01*
X116013079Y-115556934D01*
X116013078Y-115556939D01*
X115953349Y-115805727D01*
X115953347Y-115805734D01*
X115933274Y-116060799D01*
X115953347Y-116315863D01*
X115953347Y-116315866D01*
X115953348Y-116315869D01*
X116007572Y-116541725D01*
X116013079Y-116564663D01*
X116110988Y-116801038D01*
X116110990Y-116801041D01*
X116244675Y-117019195D01*
X116244678Y-117019200D01*
X116299837Y-117083782D01*
X116410844Y-117213755D01*
X116508547Y-117297201D01*
X116609106Y-117383087D01*
X116607723Y-117384705D01*
X116644970Y-117432979D01*
X116650969Y-117502591D01*
X116618381Y-117564395D01*
X116557552Y-117598769D01*
X116529432Y-117602000D01*
X109708170Y-117602000D01*
X109641131Y-117582315D01*
X109595376Y-117529511D01*
X109585432Y-117460353D01*
X109614457Y-117396797D01*
X109628889Y-117383550D01*
X109628494Y-117383088D01*
X109729054Y-117297201D01*
X109826756Y-117213756D01*
X109992923Y-117019199D01*
X110126609Y-116801043D01*
X110151706Y-116740455D01*
X110187432Y-116654204D01*
X110224522Y-116564660D01*
X110284252Y-116315870D01*
X110304326Y-116060800D01*
X110284252Y-115805730D01*
X110224522Y-115556940D01*
X110224519Y-115556932D01*
X110126611Y-115320560D01*
X110126609Y-115320557D01*
X109992924Y-115102403D01*
X109992923Y-115102402D01*
X109992923Y-115102401D01*
X109992922Y-115102400D01*
X109992921Y-115102398D01*
X109933119Y-115032379D01*
X109826756Y-114907844D01*
X109720391Y-114817000D01*
X109632201Y-114741678D01*
X109632196Y-114741675D01*
X109414042Y-114607990D01*
X109414039Y-114607988D01*
X109177664Y-114510079D01*
X109177652Y-114510076D01*
X108928870Y-114450348D01*
X108928867Y-114450347D01*
X108928864Y-114450347D01*
X108673800Y-114430274D01*
X108418735Y-114450347D01*
X108418731Y-114450347D01*
X108418730Y-114450348D01*
X108294335Y-114480213D01*
X108169935Y-114510079D01*
X107933560Y-114607988D01*
X107933557Y-114607990D01*
X107715403Y-114741675D01*
X107715398Y-114741678D01*
X107520844Y-114907844D01*
X107354678Y-115102398D01*
X107354675Y-115102403D01*
X107220990Y-115320557D01*
X107220988Y-115320560D01*
X107123079Y-115556935D01*
X107063347Y-115805735D01*
X107043274Y-116060800D01*
X107063347Y-116315864D01*
X107063347Y-116315867D01*
X107063348Y-116315870D01*
X107068516Y-116337396D01*
X107123079Y-116564664D01*
X107220988Y-116801039D01*
X107220990Y-116801042D01*
X107354675Y-117019196D01*
X107354678Y-117019201D01*
X107409836Y-117083782D01*
X107520844Y-117213756D01*
X107618546Y-117297201D01*
X107719106Y-117383088D01*
X107717729Y-117384700D01*
X107754984Y-117433019D01*
X107760959Y-117502633D01*
X107728349Y-117564426D01*
X107667508Y-117598779D01*
X107639430Y-117602000D01*
X104566426Y-117602000D01*
X104499387Y-117582315D01*
X104453632Y-117529511D01*
X104448495Y-117516319D01*
X104441727Y-117495490D01*
X104441726Y-117495489D01*
X104441726Y-117495487D01*
X104349077Y-117335013D01*
X104315031Y-117297201D01*
X104225093Y-117197313D01*
X104225090Y-117197311D01*
X104225089Y-117197310D01*
X104225088Y-117197309D01*
X104075178Y-117088393D01*
X104075177Y-117088392D01*
X103905904Y-117013026D01*
X103905896Y-117013024D01*
X103724649Y-116974500D01*
X103539351Y-116974500D01*
X103358103Y-117013024D01*
X103358095Y-117013026D01*
X103220026Y-117074498D01*
X103150776Y-117083782D01*
X103087500Y-117054153D01*
X103081911Y-117048899D01*
X103065044Y-117032032D01*
X103065040Y-117032029D01*
X102920705Y-116943001D01*
X102920699Y-116942998D01*
X102920697Y-116942997D01*
X102911146Y-116939832D01*
X102759709Y-116889651D01*
X102660346Y-116879500D01*
X102063662Y-116879500D01*
X102063644Y-116879501D01*
X101964292Y-116889650D01*
X101964289Y-116889651D01*
X101803305Y-116942996D01*
X101803294Y-116943001D01*
X101707583Y-117002038D01*
X101642486Y-117020500D01*
X100299369Y-117020500D01*
X100232330Y-117000815D01*
X100186575Y-116948011D01*
X100183187Y-116939832D01*
X100151798Y-116855673D01*
X100151793Y-116855664D01*
X100065547Y-116740455D01*
X100065544Y-116740452D01*
X99950335Y-116654206D01*
X99950328Y-116654202D01*
X99815486Y-116603910D01*
X99815485Y-116603909D01*
X99815483Y-116603909D01*
X99755873Y-116597500D01*
X99755863Y-116597500D01*
X99160129Y-116597500D01*
X99160123Y-116597501D01*
X99100516Y-116603908D01*
X98965671Y-116654202D01*
X98965664Y-116654206D01*
X98850455Y-116740452D01*
X98850452Y-116740455D01*
X98764206Y-116855664D01*
X98764202Y-116855671D01*
X98713908Y-116990517D01*
X98707501Y-117050116D01*
X98707500Y-117050135D01*
X98707500Y-118245870D01*
X98707501Y-118245876D01*
X98713908Y-118305483D01*
X98764202Y-118440328D01*
X98764203Y-118440329D01*
X98764204Y-118440331D01*
X98850454Y-118555546D01*
X98862812Y-118564797D01*
X98904681Y-118620726D01*
X98912500Y-118664062D01*
X98912500Y-118950869D01*
X98912501Y-118950876D01*
X98918908Y-119010482D01*
X98924199Y-119024666D01*
X98929183Y-119094358D01*
X98924200Y-119111330D01*
X98918909Y-119125517D01*
X98912500Y-119185127D01*
X98912500Y-119383001D01*
X98892817Y-119450039D01*
X98840013Y-119495794D01*
X98788501Y-119507000D01*
X98737376Y-119507000D01*
X98670337Y-119487315D01*
X98638110Y-119457312D01*
X98632518Y-119449843D01*
X98595546Y-119400454D01*
X98595544Y-119400453D01*
X98595544Y-119400452D01*
X98480335Y-119314206D01*
X98480328Y-119314202D01*
X98345482Y-119263908D01*
X98345483Y-119263908D01*
X98285883Y-119257501D01*
X98285881Y-119257500D01*
X98285873Y-119257500D01*
X96305881Y-119257500D01*
X96305873Y-119257500D01*
X95790129Y-119257500D01*
X95790123Y-119257501D01*
X95730516Y-119263908D01*
X95595671Y-119314202D01*
X95595664Y-119314206D01*
X95480455Y-119400452D01*
X95437890Y-119457312D01*
X95381956Y-119499182D01*
X95338624Y-119507000D01*
X93980000Y-119507000D01*
X93603923Y-119906580D01*
X93603916Y-119906588D01*
X93603906Y-119906598D01*
X92293190Y-121299234D01*
X92293182Y-121299243D01*
X91948000Y-121666000D01*
X91948000Y-122169651D01*
X91948000Y-139821588D01*
X91947528Y-139832396D01*
X91929651Y-140036725D01*
X91925898Y-140058011D01*
X91874217Y-140250887D01*
X91866824Y-140271198D01*
X91782437Y-140452165D01*
X91771630Y-140470883D01*
X91657095Y-140634456D01*
X91643201Y-140651014D01*
X91502014Y-140792201D01*
X91485456Y-140806095D01*
X91321883Y-140920630D01*
X91303165Y-140931437D01*
X91122198Y-141015824D01*
X91101887Y-141023217D01*
X90909011Y-141074898D01*
X90887725Y-141078651D01*
X90710008Y-141094199D01*
X90683394Y-141096528D01*
X90672588Y-141097000D01*
X84716515Y-141097000D01*
X84704703Y-141096436D01*
X84481568Y-141075084D01*
X84458375Y-141070604D01*
X84249032Y-141009001D01*
X84227108Y-141000204D01*
X84033258Y-140900025D01*
X84013400Y-140887230D01*
X83837396Y-140748423D01*
X83828471Y-140740667D01*
X78754761Y-135887554D01*
X78747812Y-135880347D01*
X78621650Y-135738475D01*
X78609604Y-135722500D01*
X78510583Y-135566415D01*
X78501263Y-135548712D01*
X78428632Y-135378730D01*
X78422287Y-135359774D01*
X78377938Y-135180326D01*
X78374721Y-135160584D01*
X78359404Y-134971332D01*
X78359000Y-134961329D01*
X78359000Y-91064411D01*
X78359472Y-91053604D01*
X78377348Y-90849275D01*
X78381099Y-90827996D01*
X78432783Y-90635107D01*
X78440175Y-90614801D01*
X78524562Y-90433834D01*
X78535369Y-90415116D01*
X78649904Y-90251543D01*
X78663792Y-90234991D01*
X78804991Y-90093792D01*
X78821543Y-90079904D01*
X78985116Y-89965369D01*
X79003831Y-89954563D01*
X79184803Y-89870174D01*
X79205107Y-89862783D01*
X79397996Y-89811099D01*
X79419270Y-89807348D01*
X79623605Y-89789472D01*
X79634412Y-89789000D01*
X91419350Y-89789000D01*
X91431432Y-89789590D01*
G37*
%TD.AperFunction*%
%TD*%
%TA.AperFunction,Conductor*%
%TO.N,+VBAT_IN*%
G36*
X97669060Y-120396597D02*
G01*
X97702319Y-120399872D01*
X97849061Y-120414325D01*
X97872891Y-120419064D01*
X98040124Y-120469794D01*
X98062572Y-120479093D01*
X98216687Y-120561469D01*
X98236898Y-120574974D01*
X98371979Y-120685832D01*
X98389167Y-120703020D01*
X98500025Y-120838101D01*
X98513530Y-120858312D01*
X98595903Y-121012419D01*
X98605206Y-121034878D01*
X98655933Y-121202102D01*
X98660675Y-121225943D01*
X98679000Y-121412000D01*
X98679000Y-122428000D01*
X101975588Y-122428000D01*
X101986395Y-122428472D01*
X102190727Y-122446348D01*
X102212004Y-122450099D01*
X102404888Y-122501782D01*
X102425198Y-122509175D01*
X102606165Y-122593562D01*
X102624883Y-122604369D01*
X102788456Y-122718904D01*
X102805014Y-122732798D01*
X102946201Y-122873985D01*
X102960095Y-122890543D01*
X103074630Y-123054116D01*
X103085437Y-123072834D01*
X103169824Y-123253801D01*
X103177217Y-123274112D01*
X103228898Y-123466988D01*
X103232651Y-123488274D01*
X103250528Y-123692603D01*
X103251000Y-123703411D01*
X103251000Y-129915588D01*
X103250528Y-129926396D01*
X103232651Y-130130725D01*
X103228898Y-130152011D01*
X103177217Y-130344887D01*
X103169824Y-130365198D01*
X103085437Y-130546165D01*
X103074630Y-130564883D01*
X102960095Y-130728456D01*
X102946201Y-130745014D01*
X102805014Y-130886201D01*
X102788456Y-130900095D01*
X102624883Y-131014630D01*
X102606165Y-131025437D01*
X102425198Y-131109824D01*
X102404887Y-131117217D01*
X102212011Y-131168898D01*
X102190725Y-131172651D01*
X102013008Y-131188199D01*
X101986394Y-131190528D01*
X101975588Y-131191000D01*
X93985412Y-131191000D01*
X93974605Y-131190528D01*
X93943897Y-131187841D01*
X93770274Y-131172651D01*
X93748988Y-131168898D01*
X93556112Y-131117217D01*
X93535801Y-131109824D01*
X93354834Y-131025437D01*
X93336116Y-131014630D01*
X93172543Y-130900095D01*
X93155985Y-130886201D01*
X93014798Y-130745014D01*
X93000904Y-130728456D01*
X92886369Y-130564883D01*
X92875562Y-130546165D01*
X92791175Y-130365198D01*
X92783782Y-130344887D01*
X92732099Y-130152004D01*
X92728348Y-130130724D01*
X92710472Y-129926395D01*
X92710000Y-129915588D01*
X92710000Y-122579143D01*
X92710597Y-122566989D01*
X92717019Y-122501782D01*
X92733206Y-122337433D01*
X92737945Y-122313609D01*
X92803130Y-122098720D01*
X92812428Y-122076276D01*
X92918279Y-121878242D01*
X92931776Y-121858042D01*
X93078120Y-121679721D01*
X93086273Y-121670726D01*
X93984726Y-120772273D01*
X93993721Y-120764120D01*
X94172042Y-120617776D01*
X94192242Y-120604279D01*
X94390276Y-120498428D01*
X94412720Y-120489130D01*
X94627609Y-120423945D01*
X94651433Y-120419206D01*
X94880990Y-120396597D01*
X94893144Y-120396000D01*
X97656907Y-120396000D01*
X97669060Y-120396597D01*
G37*
%TD.AperFunction*%
%TD*%
%TA.AperFunction,Conductor*%
%TO.N,GND*%
G36*
X125000882Y-72720785D02*
G01*
X125229015Y-72743109D01*
X125252702Y-72747791D01*
X125406011Y-72793982D01*
X125466327Y-72812155D01*
X125488664Y-72821342D01*
X125685752Y-72925893D01*
X125705885Y-72939236D01*
X125883687Y-73083850D01*
X125892684Y-73091926D01*
X126158615Y-73355198D01*
X130216355Y-77372360D01*
X130224616Y-77381391D01*
X130372663Y-77560178D01*
X130386329Y-77580465D01*
X130491665Y-77776054D01*
X130493474Y-77779412D01*
X130502893Y-77801989D01*
X130568897Y-78018110D01*
X130573699Y-78042097D01*
X130596597Y-78273089D01*
X130597202Y-78285321D01*
X130597202Y-88586472D01*
X130596141Y-88602658D01*
X130577674Y-88742921D01*
X130569296Y-88774187D01*
X130518296Y-88897314D01*
X130502111Y-88925349D01*
X130420975Y-89031087D01*
X130398085Y-89053976D01*
X130292353Y-89135106D01*
X130264320Y-89151291D01*
X130141188Y-89202294D01*
X130109921Y-89210672D01*
X129969661Y-89229138D01*
X129953475Y-89230199D01*
X129853406Y-89230199D01*
X129781981Y-89230199D01*
X129771422Y-89229749D01*
X129571753Y-89212685D01*
X129550943Y-89209102D01*
X129362201Y-89159749D01*
X129342300Y-89152686D01*
X129164680Y-89072028D01*
X129146266Y-89061692D01*
X128980505Y-88949075D01*
X128972025Y-88942769D01*
X123657438Y-84627326D01*
X122976001Y-84073999D01*
X122525317Y-84073999D01*
X110257250Y-84073999D01*
X109734619Y-84073999D01*
X109363360Y-84441863D01*
X109363350Y-84441873D01*
X108840168Y-84960271D01*
X108831170Y-84968356D01*
X108653333Y-85113112D01*
X108633193Y-85126470D01*
X108525138Y-85183828D01*
X108459828Y-85197229D01*
X108459787Y-85198050D01*
X108456633Y-85197889D01*
X108456629Y-85197889D01*
X108456624Y-85197889D01*
X107456618Y-85197889D01*
X107456600Y-85197890D01*
X107353823Y-85208389D01*
X107353820Y-85208390D01*
X107187288Y-85263574D01*
X107187279Y-85263578D01*
X107105648Y-85313929D01*
X107040552Y-85332390D01*
X104534579Y-85332390D01*
X104520695Y-85331610D01*
X104343679Y-85311665D01*
X104316608Y-85305486D01*
X104155084Y-85248966D01*
X104130067Y-85236919D01*
X103985164Y-85145870D01*
X103963455Y-85128557D01*
X103842450Y-85007552D01*
X103825137Y-84985843D01*
X103814149Y-84968356D01*
X103734086Y-84840937D01*
X103722043Y-84815927D01*
X103665519Y-84654393D01*
X103659343Y-84627331D01*
X103639399Y-84450312D01*
X103638619Y-84436430D01*
X103638619Y-84086533D01*
X103639216Y-84074379D01*
X103639253Y-84073999D01*
X103661825Y-83844822D01*
X103666564Y-83820998D01*
X103731749Y-83606110D01*
X103741047Y-83583665D01*
X103846898Y-83385631D01*
X103860394Y-83365432D01*
X104006739Y-83187111D01*
X104014892Y-83178116D01*
X104786345Y-82406663D01*
X104795340Y-82398510D01*
X104973662Y-82252165D01*
X104993862Y-82238668D01*
X105191896Y-82132817D01*
X105214340Y-82123519D01*
X105429229Y-82058334D01*
X105453053Y-82053595D01*
X105651230Y-82034076D01*
X105682609Y-82030986D01*
X105694763Y-82030389D01*
X109209029Y-82030389D01*
X110976223Y-82030390D01*
X110988425Y-82030995D01*
X111219626Y-82053932D01*
X111243630Y-82058741D01*
X111459915Y-82124854D01*
X111482502Y-82134286D01*
X111681580Y-82241605D01*
X111701869Y-82255287D01*
X111879277Y-82402364D01*
X111880721Y-82403561D01*
X111889756Y-82411837D01*
X112528619Y-83057999D01*
X113036619Y-83058000D01*
X113544618Y-83058001D01*
X113544619Y-83058001D01*
X113544620Y-83058001D01*
X119998548Y-83057999D01*
X122214002Y-83057999D01*
X122214002Y-79324198D01*
X121842027Y-78952223D01*
X121842023Y-78952218D01*
X121574285Y-78684481D01*
X121566113Y-78675465D01*
X121419783Y-78497161D01*
X121406278Y-78476949D01*
X121300433Y-78278928D01*
X121291130Y-78256470D01*
X121225947Y-78041590D01*
X121221208Y-78017762D01*
X121198599Y-77788208D01*
X121198002Y-77776054D01*
X121198002Y-73995609D01*
X121198474Y-73984802D01*
X121216350Y-73780475D01*
X121220103Y-73759189D01*
X121271786Y-73566302D01*
X121279172Y-73546009D01*
X121363565Y-73365029D01*
X121374371Y-73346314D01*
X121488906Y-73182741D01*
X121502794Y-73166189D01*
X121643993Y-73024990D01*
X121660544Y-73011103D01*
X121774112Y-72931581D01*
X121824123Y-72896562D01*
X121842816Y-72885769D01*
X122023816Y-72801368D01*
X122044106Y-72793983D01*
X122236995Y-72742298D01*
X122258276Y-72738546D01*
X122356547Y-72729948D01*
X122462606Y-72720670D01*
X122473413Y-72720198D01*
X124258500Y-72720198D01*
X124988848Y-72720198D01*
X125000882Y-72720785D01*
G37*
%TD.AperFunction*%
%TD*%
%TA.AperFunction,Conductor*%
%TO.N,Net-(D1-K)*%
G36*
X121474063Y-64846795D02*
G01*
X121650944Y-64864216D01*
X121674772Y-64868955D01*
X121839004Y-64918774D01*
X121861452Y-64928073D01*
X122012806Y-65008973D01*
X122033012Y-65022475D01*
X122165668Y-65131343D01*
X122182856Y-65148531D01*
X122291724Y-65281187D01*
X122305227Y-65301395D01*
X122318617Y-65326446D01*
X122386123Y-65452739D01*
X122395426Y-65475197D01*
X122445243Y-65639420D01*
X122449985Y-65663262D01*
X122467405Y-65840136D01*
X122468002Y-65852290D01*
X122468002Y-67727891D01*
X122467405Y-67740045D01*
X122449985Y-67916919D01*
X122445242Y-67940761D01*
X122395426Y-68104980D01*
X122386124Y-68127437D01*
X122305227Y-68278786D01*
X122291722Y-68298998D01*
X122178972Y-68436384D01*
X122170800Y-68445400D01*
X117934899Y-72681300D01*
X117934889Y-72681311D01*
X117642002Y-72974199D01*
X117642002Y-73388413D01*
X117642002Y-73388416D01*
X117642002Y-77932777D01*
X117641516Y-77943747D01*
X117627325Y-78103534D01*
X117623459Y-78125129D01*
X117582778Y-78274596D01*
X117575166Y-78295172D01*
X117508784Y-78435124D01*
X117497665Y-78454036D01*
X117404449Y-78584594D01*
X117397680Y-78593239D01*
X116528306Y-79607511D01*
X116118003Y-80086199D01*
X116118002Y-80338989D01*
X116117057Y-80344948D01*
X116103479Y-80413209D01*
X116084964Y-80457908D01*
X116057308Y-80499297D01*
X116023097Y-80533508D01*
X115981711Y-80561161D01*
X115937014Y-80579675D01*
X115917219Y-80583612D01*
X115875972Y-80591817D01*
X115851800Y-80594198D01*
X115216895Y-80594198D01*
X115203037Y-80593419D01*
X115056314Y-80576887D01*
X115021773Y-80572996D01*
X114994702Y-80566817D01*
X114829152Y-80508888D01*
X114804135Y-80496841D01*
X114655619Y-80403522D01*
X114633910Y-80386209D01*
X114509889Y-80262188D01*
X114492576Y-80240479D01*
X114399259Y-80091966D01*
X114387211Y-80066948D01*
X114329281Y-79901392D01*
X114323103Y-79874322D01*
X114302679Y-79693052D01*
X114301900Y-79679202D01*
X114301900Y-76360214D01*
X114301900Y-75946001D01*
X114009006Y-75653107D01*
X114009002Y-75653102D01*
X113075103Y-74719204D01*
X113066931Y-74710188D01*
X112954181Y-74572802D01*
X112940676Y-74552590D01*
X112859779Y-74401241D01*
X112850477Y-74378784D01*
X112800661Y-74214565D01*
X112795919Y-74190730D01*
X112778498Y-74013849D01*
X112777901Y-74001695D01*
X112777901Y-72681300D01*
X112777902Y-70518214D01*
X112777901Y-70518213D01*
X112777902Y-70104000D01*
X112485007Y-69811105D01*
X112485004Y-69811101D01*
X110401794Y-67727891D01*
X109528531Y-66854627D01*
X109520160Y-66845366D01*
X109404590Y-66703736D01*
X109390823Y-66682879D01*
X109308941Y-66526546D01*
X109299634Y-66503346D01*
X109250771Y-66333763D01*
X109246309Y-66309179D01*
X109231959Y-66126965D01*
X109231608Y-66114457D01*
X109240798Y-65703950D01*
X109241862Y-65690292D01*
X109247104Y-65651107D01*
X109264603Y-65520298D01*
X109271200Y-65493750D01*
X109328291Y-65339359D01*
X109340556Y-65314898D01*
X109430130Y-65176794D01*
X109447462Y-65155622D01*
X109565154Y-65040534D01*
X109586708Y-65023682D01*
X109726777Y-64937225D01*
X109751510Y-64925510D01*
X109907135Y-64871890D01*
X109933835Y-64865885D01*
X110104289Y-64846955D01*
X110117975Y-64846198D01*
X121461909Y-64846198D01*
X121474063Y-64846795D01*
G37*
%TD.AperFunction*%
%TD*%
%TA.AperFunction,Conductor*%
%TO.N,+3.3V*%
G36*
X102002984Y-45739685D02*
G01*
X102048739Y-45792489D01*
X102058683Y-45861647D01*
X102029658Y-45925203D01*
X102007070Y-45945574D01*
X101998596Y-45951507D01*
X101831506Y-46118597D01*
X101695966Y-46312169D01*
X101695965Y-46312171D01*
X101596099Y-46526335D01*
X101596095Y-46526344D01*
X101534939Y-46754586D01*
X101534937Y-46754596D01*
X101514342Y-46989999D01*
X101514342Y-46990000D01*
X101534937Y-47225403D01*
X101534939Y-47225413D01*
X101596095Y-47453655D01*
X101596097Y-47453659D01*
X101596098Y-47453663D01*
X101609545Y-47482500D01*
X101695966Y-47667830D01*
X101695968Y-47667834D01*
X101804282Y-47822521D01*
X101831506Y-47861401D01*
X101998600Y-48028495D01*
X102095385Y-48096265D01*
X102192166Y-48164032D01*
X102192168Y-48164033D01*
X102192171Y-48164035D01*
X102406338Y-48263903D01*
X102634593Y-48325063D01*
X102811035Y-48340500D01*
X102870000Y-48345659D01*
X102870001Y-48345659D01*
X102870002Y-48345659D01*
X102928967Y-48340500D01*
X103105409Y-48325063D01*
X103333664Y-48263903D01*
X103547831Y-48164035D01*
X103741402Y-48028495D01*
X103908496Y-47861401D01*
X104038425Y-47675842D01*
X104093002Y-47632218D01*
X104162500Y-47625024D01*
X104224855Y-47656547D01*
X104241575Y-47675842D01*
X104371505Y-47861401D01*
X104538599Y-48028495D01*
X104635384Y-48096265D01*
X104732165Y-48164032D01*
X104732167Y-48164033D01*
X104732170Y-48164035D01*
X104946337Y-48263903D01*
X105174592Y-48325063D01*
X105351034Y-48340500D01*
X105409999Y-48345659D01*
X105410000Y-48345659D01*
X105410001Y-48345659D01*
X105468966Y-48340500D01*
X105645408Y-48325063D01*
X105873663Y-48263903D01*
X106087830Y-48164035D01*
X106281401Y-48028495D01*
X106403329Y-47906566D01*
X106464648Y-47873084D01*
X106534340Y-47878068D01*
X106590274Y-47919939D01*
X106607189Y-47950917D01*
X106656202Y-48082328D01*
X106656206Y-48082335D01*
X106742452Y-48197544D01*
X106742455Y-48197547D01*
X106857664Y-48283793D01*
X106857671Y-48283797D01*
X106992517Y-48334091D01*
X106992516Y-48334091D01*
X106999444Y-48334835D01*
X107052127Y-48340500D01*
X108847872Y-48340499D01*
X108907483Y-48334091D01*
X109042331Y-48283796D01*
X109157546Y-48197546D01*
X109243796Y-48082331D01*
X109294091Y-47947483D01*
X109300500Y-47887873D01*
X109300499Y-46092128D01*
X109294091Y-46032517D01*
X109279906Y-45994485D01*
X109240697Y-45889359D01*
X109243639Y-45888261D01*
X109232090Y-45835141D01*
X109256514Y-45769679D01*
X109312452Y-45727814D01*
X109355773Y-45720000D01*
X140087849Y-45720000D01*
X140154888Y-45739685D01*
X140200643Y-45792489D01*
X140210587Y-45861647D01*
X140193387Y-45909098D01*
X140191188Y-45912661D01*
X140191185Y-45912668D01*
X140178315Y-45951507D01*
X140136001Y-46079203D01*
X140136001Y-46079204D01*
X140136000Y-46079204D01*
X140125500Y-46181983D01*
X140125500Y-46782001D01*
X140125501Y-46782019D01*
X140136000Y-46884796D01*
X140136001Y-46884799D01*
X140191185Y-47051331D01*
X140191186Y-47051334D01*
X140283288Y-47200656D01*
X140407344Y-47324712D01*
X140556666Y-47416814D01*
X140723203Y-47471999D01*
X140825991Y-47482500D01*
X141876008Y-47482499D01*
X141876016Y-47482498D01*
X141876019Y-47482498D01*
X141932302Y-47476748D01*
X141978797Y-47471999D01*
X142145334Y-47416814D01*
X142294656Y-47324712D01*
X142294659Y-47324709D01*
X142300252Y-47320287D01*
X142365046Y-47294145D01*
X142427601Y-47304272D01*
X142474095Y-47324973D01*
X142474098Y-47324973D01*
X142474101Y-47324975D01*
X142655351Y-47363500D01*
X142840649Y-47363500D01*
X143021899Y-47324975D01*
X143078564Y-47299745D01*
X143147812Y-47290460D01*
X143179434Y-47299745D01*
X143189602Y-47304272D01*
X143236102Y-47324975D01*
X143417352Y-47363500D01*
X143602650Y-47363500D01*
X143783900Y-47324975D01*
X143840564Y-47299745D01*
X143909813Y-47290460D01*
X143941435Y-47299745D01*
X143998101Y-47324975D01*
X144179351Y-47363500D01*
X144364649Y-47363500D01*
X144545899Y-47324975D01*
X144602563Y-47299745D01*
X144671813Y-47290461D01*
X144703434Y-47299744D01*
X144760100Y-47324974D01*
X144941350Y-47363499D01*
X145126648Y-47363499D01*
X145307898Y-47324974D01*
X145307901Y-47324972D01*
X145307903Y-47324972D01*
X145482534Y-47247221D01*
X145532970Y-47236500D01*
X145651378Y-47236500D01*
X145718417Y-47256185D01*
X145725689Y-47261233D01*
X145764731Y-47290460D01*
X145777068Y-47299695D01*
X145777071Y-47299697D01*
X145911917Y-47349991D01*
X145911916Y-47349991D01*
X145918844Y-47350735D01*
X145971527Y-47356400D01*
X147450000Y-47356399D01*
X147517039Y-47376084D01*
X147562794Y-47428887D01*
X147574000Y-47480399D01*
X147574000Y-47871400D01*
X147554315Y-47938439D01*
X147501511Y-47984194D01*
X147450000Y-47995400D01*
X145971529Y-47995400D01*
X145971523Y-47995401D01*
X145911916Y-48001808D01*
X145777071Y-48052102D01*
X145777064Y-48052106D01*
X145661855Y-48138352D01*
X145661852Y-48138355D01*
X145575606Y-48253564D01*
X145575602Y-48253571D01*
X145525308Y-48388417D01*
X145519108Y-48446088D01*
X145518900Y-48448027D01*
X145518900Y-48909909D01*
X145518901Y-49286500D01*
X145499217Y-49353539D01*
X145446413Y-49399294D01*
X145394901Y-49410500D01*
X143042328Y-49410500D01*
X142975289Y-49390815D01*
X142962816Y-49381291D01*
X142810177Y-49270392D01*
X142640904Y-49195026D01*
X142640896Y-49195024D01*
X142459649Y-49156500D01*
X142274351Y-49156500D01*
X142093103Y-49195024D01*
X142093095Y-49195026D01*
X141923822Y-49270392D01*
X141773909Y-49379311D01*
X141773906Y-49379313D01*
X141649922Y-49517014D01*
X141557274Y-49677485D01*
X141500014Y-49853711D01*
X141500012Y-49853721D01*
X141498357Y-49869466D01*
X141471771Y-49934079D01*
X141414472Y-49974062D01*
X141375037Y-49980500D01*
X140807998Y-49980500D01*
X140807980Y-49980501D01*
X140705203Y-49991000D01*
X140705200Y-49991001D01*
X140538668Y-50046185D01*
X140538663Y-50046187D01*
X140389342Y-50138289D01*
X140265289Y-50262342D01*
X140173187Y-50411663D01*
X140173185Y-50411668D01*
X140159865Y-50451865D01*
X140118001Y-50578203D01*
X140118001Y-50578204D01*
X140118000Y-50578204D01*
X140107500Y-50680983D01*
X140107500Y-51681001D01*
X140107501Y-51681019D01*
X140118000Y-51783796D01*
X140118001Y-51783799D01*
X140173185Y-51950331D01*
X140173189Y-51950340D01*
X140246011Y-52068404D01*
X140264451Y-52135796D01*
X140246011Y-52198596D01*
X140173189Y-52316659D01*
X140173185Y-52316668D01*
X140163967Y-52344487D01*
X140118001Y-52483203D01*
X140118001Y-52483204D01*
X140118000Y-52483204D01*
X140107500Y-52585983D01*
X140107500Y-53586001D01*
X140107501Y-53586019D01*
X140118000Y-53688796D01*
X140118001Y-53688799D01*
X140173185Y-53855331D01*
X140173189Y-53855340D01*
X140268281Y-54009509D01*
X140286721Y-54076901D01*
X140265798Y-54143565D01*
X140227841Y-54180142D01*
X140164959Y-54218929D01*
X140164955Y-54218932D01*
X140155681Y-54228207D01*
X140094358Y-54261692D01*
X140024666Y-54256708D01*
X139980319Y-54228207D01*
X139971044Y-54218932D01*
X139971040Y-54218929D01*
X139826705Y-54129901D01*
X139826699Y-54129898D01*
X139826697Y-54129897D01*
X139765686Y-54109680D01*
X139665709Y-54076551D01*
X139566346Y-54066400D01*
X139019662Y-54066400D01*
X139019644Y-54066401D01*
X138920292Y-54076550D01*
X138920289Y-54076551D01*
X138759305Y-54129896D01*
X138759294Y-54129901D01*
X138614959Y-54218929D01*
X138614955Y-54218932D01*
X138495032Y-54338855D01*
X138495029Y-54338859D01*
X138406001Y-54483194D01*
X138405996Y-54483205D01*
X138352651Y-54644190D01*
X138342500Y-54743547D01*
X138342500Y-55340237D01*
X138342501Y-55340255D01*
X138352650Y-55439607D01*
X138352651Y-55439610D01*
X138405996Y-55600594D01*
X138406001Y-55600605D01*
X138496486Y-55747302D01*
X138514927Y-55814694D01*
X138498336Y-55874398D01*
X138483273Y-55900487D01*
X138426014Y-56076711D01*
X138426013Y-56076713D01*
X138406644Y-56261000D01*
X138426013Y-56445286D01*
X138426014Y-56445288D01*
X138483273Y-56621512D01*
X138534197Y-56709716D01*
X138550669Y-56777616D01*
X138527816Y-56843643D01*
X138514494Y-56859393D01*
X138495030Y-56878858D01*
X138495029Y-56878859D01*
X138406001Y-57023194D01*
X138405996Y-57023205D01*
X138352651Y-57184190D01*
X138342500Y-57283547D01*
X138342500Y-57880237D01*
X138342501Y-57880255D01*
X138352650Y-57979607D01*
X138352651Y-57979610D01*
X138405996Y-58140594D01*
X138406001Y-58140605D01*
X138495029Y-58284940D01*
X138495032Y-58284944D01*
X138614955Y-58404867D01*
X138614959Y-58404870D01*
X138759294Y-58493898D01*
X138759297Y-58493899D01*
X138759303Y-58493903D01*
X138920292Y-58547249D01*
X139019655Y-58557400D01*
X139566344Y-58557399D01*
X139566352Y-58557398D01*
X139566355Y-58557398D01*
X139620760Y-58551840D01*
X139665708Y-58547249D01*
X139826697Y-58493903D01*
X139971044Y-58404868D01*
X139980319Y-58395593D01*
X140041642Y-58362108D01*
X140111334Y-58367092D01*
X140155681Y-58395593D01*
X140164955Y-58404867D01*
X140164959Y-58404870D01*
X140309294Y-58493898D01*
X140309297Y-58493899D01*
X140309303Y-58493903D01*
X140470292Y-58547249D01*
X140569655Y-58557400D01*
X141116344Y-58557399D01*
X141116352Y-58557398D01*
X141116355Y-58557398D01*
X141170760Y-58551840D01*
X141215708Y-58547249D01*
X141376697Y-58493903D01*
X141520398Y-58405266D01*
X141587789Y-58386826D01*
X141654452Y-58407748D01*
X141684758Y-58436491D01*
X141694454Y-58449443D01*
X141740643Y-58484020D01*
X141809664Y-58535690D01*
X141809671Y-58535694D01*
X141944517Y-58585988D01*
X141944516Y-58585988D01*
X141951444Y-58586732D01*
X142004127Y-58592397D01*
X143999872Y-58592396D01*
X144059483Y-58585988D01*
X144059486Y-58585986D01*
X144061575Y-58585494D01*
X144063246Y-58585583D01*
X144067196Y-58585159D01*
X144067264Y-58585798D01*
X144131345Y-58589231D01*
X144188018Y-58630095D01*
X144213602Y-58695112D01*
X144208027Y-58744487D01*
X144167014Y-58870711D01*
X144167013Y-58870713D01*
X144147644Y-59055000D01*
X144167013Y-59239286D01*
X144167014Y-59239288D01*
X144224274Y-59415514D01*
X144246494Y-59454000D01*
X144316923Y-59575987D01*
X144345914Y-59608185D01*
X144440906Y-59713686D01*
X144440909Y-59713688D01*
X144440912Y-59713691D01*
X144569938Y-59807434D01*
X144590822Y-59822607D01*
X144760095Y-59897973D01*
X144760098Y-59897973D01*
X144760101Y-59897975D01*
X144941351Y-59936500D01*
X145018019Y-59936500D01*
X145085058Y-59956185D01*
X145130813Y-60008989D01*
X145140757Y-60078147D01*
X145111732Y-60141703D01*
X145105700Y-60148181D01*
X144933592Y-60320289D01*
X144897767Y-60356114D01*
X144846186Y-60407694D01*
X144846185Y-60407696D01*
X144776833Y-60511489D01*
X144775186Y-60516093D01*
X144730214Y-60624664D01*
X144730212Y-60624670D01*
X144713285Y-60709766D01*
X144713286Y-60709767D01*
X144706100Y-60745896D01*
X144706100Y-64115407D01*
X144730212Y-64236628D01*
X144730214Y-64236634D01*
X144758161Y-64304103D01*
X144758160Y-64304103D01*
X144758161Y-64304104D01*
X144777513Y-64350826D01*
X144777521Y-64350841D01*
X144817318Y-64410399D01*
X144817319Y-64410401D01*
X144846190Y-64453610D01*
X144846193Y-64453613D01*
X146402181Y-66009600D01*
X146435666Y-66070923D01*
X146438500Y-66097281D01*
X146438500Y-87244807D01*
X146462612Y-87366028D01*
X146462614Y-87366034D01*
X146486432Y-87423535D01*
X146486432Y-87423536D01*
X146509915Y-87480229D01*
X146509920Y-87480238D01*
X146572547Y-87573965D01*
X146572548Y-87573967D01*
X146578586Y-87583005D01*
X148516181Y-89520600D01*
X148549666Y-89581923D01*
X148552500Y-89608281D01*
X148552500Y-91107870D01*
X148552501Y-91107876D01*
X148558908Y-91167483D01*
X148609202Y-91302328D01*
X148609203Y-91302330D01*
X148656634Y-91365689D01*
X148681051Y-91431153D01*
X148666200Y-91499426D01*
X148656634Y-91514311D01*
X148609203Y-91577669D01*
X148609202Y-91577671D01*
X148558908Y-91712517D01*
X148552501Y-91772116D01*
X148552500Y-91772135D01*
X148552500Y-93647870D01*
X148552501Y-93647876D01*
X148558908Y-93707483D01*
X148609202Y-93842328D01*
X148609206Y-93842335D01*
X148695452Y-93957544D01*
X148695455Y-93957547D01*
X148810664Y-94043793D01*
X148810671Y-94043797D01*
X148945517Y-94094091D01*
X148945516Y-94094091D01*
X148952444Y-94094835D01*
X149005127Y-94100500D01*
X151100872Y-94100499D01*
X151160483Y-94094091D01*
X151295331Y-94043796D01*
X151410546Y-93957546D01*
X151423530Y-93940201D01*
X151479461Y-93898331D01*
X151549152Y-93893345D01*
X151610476Y-93926829D01*
X151614946Y-93931540D01*
X151679906Y-94003686D01*
X151679909Y-94003688D01*
X151679912Y-94003691D01*
X151813157Y-94100499D01*
X151829822Y-94112607D01*
X151999095Y-94187973D01*
X151999098Y-94187973D01*
X151999101Y-94187975D01*
X152180351Y-94226500D01*
X152365649Y-94226500D01*
X152546899Y-94187975D01*
X152546902Y-94187973D01*
X152546904Y-94187973D01*
X152618848Y-94155941D01*
X152716178Y-94112607D01*
X152866088Y-94003691D01*
X152990077Y-93865987D01*
X153082726Y-93705513D01*
X153139987Y-93529284D01*
X153159356Y-93345000D01*
X153139987Y-93160716D01*
X153082726Y-92984487D01*
X153033367Y-92898996D01*
X153016896Y-92831101D01*
X153033367Y-92775004D01*
X153082726Y-92689513D01*
X153139987Y-92513284D01*
X153159356Y-92329000D01*
X153139987Y-92144716D01*
X153082726Y-91968487D01*
X152990077Y-91808013D01*
X152919855Y-91730023D01*
X152866093Y-91670313D01*
X152866090Y-91670311D01*
X152866089Y-91670310D01*
X152866088Y-91670309D01*
X152766148Y-91597698D01*
X152716177Y-91561392D01*
X152546904Y-91486026D01*
X152546896Y-91486024D01*
X152365649Y-91447500D01*
X152180351Y-91447500D01*
X151999103Y-91486024D01*
X151999095Y-91486026D01*
X151829822Y-91561393D01*
X151829817Y-91561395D01*
X151695057Y-91659304D01*
X151629250Y-91682784D01*
X151561197Y-91666958D01*
X151512502Y-91616852D01*
X151505990Y-91602318D01*
X151496798Y-91577673D01*
X151496796Y-91577669D01*
X151449366Y-91514311D01*
X151424949Y-91448847D01*
X151439800Y-91380574D01*
X151449366Y-91365689D01*
X151496796Y-91302331D01*
X151547091Y-91167483D01*
X151553500Y-91107873D01*
X151553499Y-89232128D01*
X151547091Y-89172517D01*
X151514188Y-89084301D01*
X151509205Y-89014612D01*
X151542690Y-88953289D01*
X151604013Y-88919804D01*
X151673704Y-88924788D01*
X151703256Y-88940652D01*
X151829817Y-89032604D01*
X151829818Y-89032604D01*
X151829822Y-89032607D01*
X151931099Y-89077698D01*
X151999095Y-89107973D01*
X151999098Y-89107973D01*
X151999101Y-89107975D01*
X152180351Y-89146500D01*
X152365649Y-89146500D01*
X152546899Y-89107975D01*
X152546902Y-89107973D01*
X152546904Y-89107973D01*
X152603922Y-89082586D01*
X152716178Y-89032607D01*
X152866088Y-88923691D01*
X152887420Y-88900000D01*
X152907637Y-88877546D01*
X152990077Y-88785987D01*
X153082726Y-88625513D01*
X153139987Y-88449284D01*
X153159356Y-88265000D01*
X153139987Y-88080716D01*
X153082726Y-87904487D01*
X153033367Y-87818996D01*
X153016896Y-87751101D01*
X153033367Y-87695004D01*
X153082726Y-87609513D01*
X153139987Y-87433284D01*
X153159356Y-87249000D01*
X153139987Y-87064716D01*
X153082726Y-86888487D01*
X153079030Y-86882086D01*
X153049507Y-86830950D01*
X152990077Y-86728013D01*
X152941514Y-86674078D01*
X152866093Y-86590313D01*
X152866090Y-86590311D01*
X152866089Y-86590310D01*
X152866088Y-86590309D01*
X152759069Y-86512555D01*
X152716177Y-86481392D01*
X152546904Y-86406026D01*
X152546896Y-86406024D01*
X152365649Y-86367500D01*
X152180351Y-86367500D01*
X151999103Y-86406024D01*
X151999095Y-86406026D01*
X151829822Y-86481393D01*
X151829817Y-86481395D01*
X151695057Y-86579304D01*
X151629250Y-86602784D01*
X151561197Y-86586958D01*
X151512502Y-86536852D01*
X151505990Y-86522318D01*
X151496798Y-86497673D01*
X151496796Y-86497669D01*
X151449366Y-86434311D01*
X151424949Y-86368847D01*
X151439800Y-86300574D01*
X151449366Y-86285689D01*
X151496796Y-86222331D01*
X151547091Y-86087483D01*
X151553500Y-86027873D01*
X151553499Y-84152128D01*
X151547091Y-84092517D01*
X151547088Y-84092510D01*
X151546974Y-84092024D01*
X151546995Y-84091625D01*
X151546262Y-84084804D01*
X151547366Y-84084685D01*
X151550710Y-84022254D01*
X151591573Y-83965580D01*
X151656589Y-83939994D01*
X151667649Y-83939500D01*
X155001804Y-83939500D01*
X155001805Y-83939499D01*
X155123035Y-83915386D01*
X155204935Y-83881461D01*
X155237233Y-83868083D01*
X155340008Y-83799411D01*
X155427411Y-83712008D01*
X160709584Y-78429833D01*
X160770905Y-78396350D01*
X160829356Y-78397741D01*
X160865222Y-78407351D01*
X160927592Y-78424063D01*
X161097542Y-78438932D01*
X161162999Y-78444659D01*
X161163000Y-78444659D01*
X161163001Y-78444659D01*
X161228458Y-78438932D01*
X161398408Y-78424063D01*
X161626663Y-78362903D01*
X161840830Y-78263035D01*
X162034401Y-78127495D01*
X162201495Y-77960401D01*
X162335252Y-77769375D01*
X162389829Y-77725752D01*
X162436827Y-77716500D01*
X163461146Y-77716500D01*
X163528185Y-77736185D01*
X163573940Y-77788989D01*
X163578850Y-77801492D01*
X163597686Y-77858334D01*
X163689788Y-78007656D01*
X163813844Y-78131712D01*
X163905597Y-78188305D01*
X163952321Y-78240253D01*
X163964500Y-78293844D01*
X163964500Y-81877228D01*
X163944815Y-81944267D01*
X163905599Y-81982765D01*
X163888958Y-81993029D01*
X163769029Y-82112959D01*
X163680001Y-82257294D01*
X163679996Y-82257305D01*
X163626651Y-82418290D01*
X163616500Y-82517647D01*
X163616500Y-83064337D01*
X163616501Y-83064355D01*
X163626650Y-83163707D01*
X163626651Y-83163710D01*
X163679996Y-83324694D01*
X163680001Y-83324705D01*
X163769029Y-83469040D01*
X163769032Y-83469044D01*
X163778306Y-83478318D01*
X163811791Y-83539641D01*
X163806807Y-83609333D01*
X163778309Y-83653677D01*
X163769033Y-83662952D01*
X163769031Y-83662955D01*
X163732059Y-83722896D01*
X163695412Y-83760900D01*
X163630513Y-83804264D01*
X163630509Y-83804267D01*
X162723354Y-84711422D01*
X162662031Y-84744907D01*
X162592339Y-84739923D01*
X162536406Y-84698051D01*
X162512145Y-84634549D01*
X162510378Y-84614352D01*
X162498063Y-84473592D01*
X162436903Y-84245337D01*
X162337035Y-84031171D01*
X162330792Y-84022254D01*
X162201494Y-83837597D01*
X162034402Y-83670506D01*
X162034401Y-83670505D01*
X161848842Y-83540575D01*
X161805218Y-83485998D01*
X161798025Y-83416499D01*
X161829547Y-83354145D01*
X161848843Y-83337425D01*
X161867009Y-83324705D01*
X162034401Y-83207496D01*
X162201495Y-83040402D01*
X162337035Y-82846831D01*
X162436903Y-82632664D01*
X162498063Y-82404409D01*
X162518659Y-82169001D01*
X162517529Y-82156091D01*
X162502365Y-81982765D01*
X162498063Y-81933593D01*
X162436903Y-81705338D01*
X162337035Y-81491172D01*
X162300425Y-81438886D01*
X162201494Y-81297598D01*
X162034402Y-81130507D01*
X162034395Y-81130502D01*
X161840834Y-80994968D01*
X161840830Y-80994966D01*
X161797174Y-80974609D01*
X161626663Y-80895098D01*
X161626659Y-80895097D01*
X161626655Y-80895095D01*
X161398413Y-80833939D01*
X161398403Y-80833937D01*
X161163001Y-80813342D01*
X161162999Y-80813342D01*
X160927596Y-80833937D01*
X160927586Y-80833939D01*
X160699344Y-80895095D01*
X160699335Y-80895099D01*
X160485171Y-80994965D01*
X160485169Y-80994966D01*
X160291597Y-81130506D01*
X160124505Y-81297598D01*
X159988965Y-81491170D01*
X159988964Y-81491172D01*
X159889098Y-81705336D01*
X159889094Y-81705345D01*
X159827938Y-81933587D01*
X159827936Y-81933597D01*
X159807341Y-82169000D01*
X159807341Y-82169001D01*
X159827936Y-82404404D01*
X159827938Y-82404414D01*
X159889094Y-82632656D01*
X159889096Y-82632660D01*
X159889097Y-82632664D01*
X159962937Y-82791013D01*
X159988965Y-82846831D01*
X159988967Y-82846835D01*
X160084793Y-82983688D01*
X160102595Y-83009112D01*
X160124501Y-83040396D01*
X160124506Y-83040403D01*
X160291597Y-83207494D01*
X160291603Y-83207499D01*
X160477157Y-83337425D01*
X160520782Y-83392002D01*
X160527976Y-83461500D01*
X160496453Y-83523855D01*
X160477158Y-83540575D01*
X160291594Y-83670508D01*
X160124505Y-83837597D01*
X159988965Y-84031169D01*
X159988964Y-84031171D01*
X159889098Y-84245335D01*
X159889094Y-84245344D01*
X159827938Y-84473586D01*
X159827936Y-84473596D01*
X159807341Y-84708999D01*
X159807341Y-84709000D01*
X159827936Y-84944403D01*
X159827938Y-84944413D01*
X159889094Y-85172655D01*
X159889096Y-85172659D01*
X159889097Y-85172663D01*
X159979852Y-85367287D01*
X159988965Y-85386830D01*
X159988967Y-85386834D01*
X160124501Y-85580395D01*
X160124506Y-85580402D01*
X160246430Y-85702326D01*
X160279915Y-85763649D01*
X160274931Y-85833341D01*
X160233059Y-85889274D01*
X160202083Y-85906189D01*
X160070669Y-85955203D01*
X160070664Y-85955206D01*
X159955455Y-86041452D01*
X159955452Y-86041455D01*
X159869206Y-86156664D01*
X159869202Y-86156671D01*
X159818908Y-86291517D01*
X159812501Y-86351116D01*
X159812500Y-86351135D01*
X159812500Y-88146870D01*
X159812501Y-88146876D01*
X159818908Y-88206483D01*
X159869202Y-88341328D01*
X159869206Y-88341335D01*
X159955452Y-88456544D01*
X159955455Y-88456547D01*
X160070664Y-88542793D01*
X160070671Y-88542797D01*
X160205517Y-88593091D01*
X160205516Y-88593091D01*
X160212444Y-88593835D01*
X160265127Y-88599500D01*
X162060872Y-88599499D01*
X162120483Y-88593091D01*
X162255331Y-88542796D01*
X162370546Y-88456546D01*
X162456796Y-88341331D01*
X162507091Y-88206483D01*
X162513500Y-88146873D01*
X162513499Y-86927082D01*
X162533184Y-86860044D01*
X162549813Y-86839407D01*
X164021934Y-85367286D01*
X168361500Y-85367286D01*
X168391880Y-85559102D01*
X168394754Y-85577243D01*
X168457445Y-85770186D01*
X168460444Y-85779414D01*
X168556951Y-85968820D01*
X168681890Y-86140786D01*
X168832213Y-86291109D01*
X169004179Y-86416048D01*
X169004181Y-86416049D01*
X169004184Y-86416051D01*
X169193588Y-86512557D01*
X169395757Y-86578246D01*
X169605713Y-86611500D01*
X169605714Y-86611500D01*
X169818286Y-86611500D01*
X169818287Y-86611500D01*
X170028243Y-86578246D01*
X170230412Y-86512557D01*
X170419816Y-86416051D01*
X170522100Y-86341738D01*
X170591786Y-86291109D01*
X170591788Y-86291106D01*
X170591792Y-86291104D01*
X170742104Y-86140792D01*
X170861683Y-85976204D01*
X170917011Y-85933540D01*
X170986624Y-85927561D01*
X171048420Y-85960166D01*
X171062313Y-85976199D01*
X171143165Y-86087483D01*
X171181896Y-86140792D01*
X171332213Y-86291109D01*
X171504179Y-86416048D01*
X171504181Y-86416049D01*
X171504184Y-86416051D01*
X171693588Y-86512557D01*
X171895757Y-86578246D01*
X172105713Y-86611500D01*
X172105714Y-86611500D01*
X172318286Y-86611500D01*
X172318287Y-86611500D01*
X172528243Y-86578246D01*
X172730412Y-86512557D01*
X172919816Y-86416051D01*
X173038729Y-86329656D01*
X173091784Y-86291110D01*
X173091784Y-86291109D01*
X173091792Y-86291104D01*
X173230604Y-86152291D01*
X173291923Y-86118809D01*
X173361615Y-86123793D01*
X173417549Y-86165664D01*
X173423821Y-86174878D01*
X173427185Y-86180333D01*
X173427186Y-86180334D01*
X173519288Y-86329656D01*
X173643344Y-86453712D01*
X173792666Y-86545814D01*
X173959203Y-86600999D01*
X174061991Y-86611500D01*
X175362008Y-86611499D01*
X175464797Y-86600999D01*
X175631334Y-86545814D01*
X175780656Y-86453712D01*
X175904712Y-86329656D01*
X175996814Y-86180334D01*
X176051999Y-86013797D01*
X176062500Y-85911009D01*
X176062499Y-84360992D01*
X176051999Y-84258203D01*
X175996814Y-84091666D01*
X175904712Y-83942344D01*
X175780656Y-83818288D01*
X175685253Y-83759443D01*
X175631336Y-83726187D01*
X175631331Y-83726185D01*
X175595051Y-83714163D01*
X175464797Y-83671001D01*
X175464795Y-83671000D01*
X175362010Y-83660500D01*
X174061998Y-83660500D01*
X174061981Y-83660501D01*
X173959203Y-83671000D01*
X173959200Y-83671001D01*
X173792668Y-83726185D01*
X173792663Y-83726187D01*
X173643342Y-83818289D01*
X173559181Y-83902451D01*
X173497858Y-83935936D01*
X173428166Y-83930952D01*
X173372233Y-83889080D01*
X173347816Y-83823616D01*
X173347500Y-83814770D01*
X173347500Y-82327177D01*
X173367185Y-82260138D01*
X173419989Y-82214383D01*
X173432489Y-82209473D01*
X173579334Y-82160814D01*
X173728656Y-82068712D01*
X173852712Y-81944656D01*
X173944814Y-81795334D01*
X173999999Y-81628797D01*
X174010500Y-81526009D01*
X174010499Y-80525992D01*
X174002561Y-80448288D01*
X173999999Y-80423203D01*
X173999998Y-80423200D01*
X173972094Y-80338991D01*
X173944814Y-80256666D01*
X173852712Y-80107344D01*
X173728656Y-79983288D01*
X173579334Y-79891186D01*
X173500134Y-79864941D01*
X173432495Y-79842528D01*
X173375051Y-79802755D01*
X173348228Y-79738239D01*
X173347500Y-79724822D01*
X173347500Y-79373822D01*
X173367185Y-79306783D01*
X173397189Y-79274556D01*
X173402546Y-79270546D01*
X173488796Y-79155331D01*
X173539091Y-79020483D01*
X173545500Y-78960873D01*
X173545499Y-77337128D01*
X173539091Y-77277517D01*
X173531585Y-77257393D01*
X173488797Y-77142671D01*
X173488793Y-77142664D01*
X173402547Y-77027455D01*
X173402544Y-77027452D01*
X173287335Y-76941206D01*
X173287328Y-76941202D01*
X173152486Y-76890910D01*
X173152485Y-76890909D01*
X173152483Y-76890909D01*
X173092873Y-76884500D01*
X173092863Y-76884500D01*
X172347129Y-76884500D01*
X172347123Y-76884501D01*
X172287516Y-76890908D01*
X172152671Y-76941202D01*
X172144886Y-76945454D01*
X172143153Y-76942280D01*
X172093698Y-76960659D01*
X172025443Y-76945725D01*
X172024497Y-76945117D01*
X172017328Y-76941202D01*
X171882486Y-76890910D01*
X171882485Y-76890909D01*
X171882483Y-76890909D01*
X171822873Y-76884500D01*
X171822863Y-76884500D01*
X171077129Y-76884500D01*
X171077123Y-76884501D01*
X171017516Y-76890908D01*
X170882671Y-76941202D01*
X170874886Y-76945454D01*
X170873153Y-76942280D01*
X170823698Y-76960659D01*
X170755443Y-76945725D01*
X170754497Y-76945117D01*
X170747328Y-76941202D01*
X170612486Y-76890910D01*
X170612485Y-76890909D01*
X170612483Y-76890909D01*
X170552873Y-76884500D01*
X170552863Y-76884500D01*
X169807129Y-76884500D01*
X169807123Y-76884501D01*
X169747516Y-76890908D01*
X169612671Y-76941202D01*
X169612664Y-76941206D01*
X169497455Y-77027452D01*
X169497452Y-77027455D01*
X169411206Y-77142664D01*
X169411202Y-77142671D01*
X169360908Y-77277517D01*
X169355284Y-77329832D01*
X169354501Y-77337123D01*
X169354500Y-77337135D01*
X169354500Y-78960870D01*
X169354501Y-78960876D01*
X169360908Y-79020483D01*
X169411202Y-79155328D01*
X169411206Y-79155335D01*
X169497452Y-79270544D01*
X169497455Y-79270547D01*
X169612664Y-79356793D01*
X169612671Y-79356797D01*
X169632871Y-79364331D01*
X169747517Y-79407091D01*
X169807127Y-79413500D01*
X170552872Y-79413499D01*
X170612483Y-79407091D01*
X170655167Y-79391171D01*
X170724858Y-79386187D01*
X170786181Y-79419672D01*
X170819666Y-79480995D01*
X170822500Y-79507353D01*
X170822500Y-79724822D01*
X170802815Y-79791861D01*
X170750011Y-79837616D01*
X170737505Y-79842528D01*
X170590666Y-79891186D01*
X170590663Y-79891187D01*
X170441342Y-79983289D01*
X170317289Y-80107342D01*
X170225187Y-80256663D01*
X170225185Y-80256668D01*
X170219708Y-80273197D01*
X170170001Y-80423203D01*
X170170001Y-80423204D01*
X170170000Y-80423204D01*
X170159500Y-80525983D01*
X170159500Y-81526001D01*
X170159501Y-81526019D01*
X170170000Y-81628796D01*
X170170001Y-81628799D01*
X170204048Y-81731544D01*
X170225186Y-81795334D01*
X170317288Y-81944656D01*
X170441344Y-82068712D01*
X170590666Y-82160814D01*
X170737505Y-82209471D01*
X170794949Y-82249244D01*
X170821772Y-82313759D01*
X170822500Y-82327177D01*
X170822500Y-83086718D01*
X170802815Y-83153757D01*
X170786181Y-83174399D01*
X170262048Y-83698531D01*
X170200725Y-83732016D01*
X170136050Y-83728781D01*
X170028245Y-83693754D01*
X170028246Y-83693754D01*
X169870776Y-83668813D01*
X169818287Y-83660500D01*
X169605713Y-83660500D01*
X169557042Y-83668208D01*
X169395760Y-83693753D01*
X169193585Y-83759444D01*
X169004179Y-83855951D01*
X168832213Y-83980890D01*
X168681890Y-84131213D01*
X168556951Y-84303179D01*
X168460444Y-84492585D01*
X168394753Y-84694760D01*
X168361500Y-84904713D01*
X168361500Y-85367286D01*
X164021934Y-85367286D01*
X164075422Y-85313798D01*
X164136743Y-85280315D01*
X164189062Y-85280229D01*
X164194290Y-85281348D01*
X164194292Y-85281349D01*
X164293655Y-85291500D01*
X164890344Y-85291499D01*
X164890352Y-85291498D01*
X164890355Y-85291498D01*
X164946879Y-85285724D01*
X164989708Y-85281349D01*
X165150697Y-85228003D01*
X165295044Y-85138968D01*
X165414968Y-85019044D01*
X165504003Y-84874697D01*
X165557349Y-84713708D01*
X165567500Y-84614345D01*
X165567499Y-84067656D01*
X165566931Y-84062100D01*
X165557349Y-83968292D01*
X165557348Y-83968289D01*
X165540446Y-83917281D01*
X165504003Y-83807303D01*
X165503999Y-83807297D01*
X165503998Y-83807294D01*
X165414970Y-83662959D01*
X165414967Y-83662955D01*
X165405693Y-83653681D01*
X165372208Y-83592358D01*
X165377192Y-83522666D01*
X165405693Y-83478319D01*
X165405694Y-83478318D01*
X165414968Y-83469044D01*
X165504003Y-83324697D01*
X165557349Y-83163708D01*
X165567500Y-83064345D01*
X165567499Y-82517656D01*
X165567170Y-82514439D01*
X165557349Y-82418292D01*
X165557348Y-82418289D01*
X165535040Y-82350968D01*
X165504003Y-82257303D01*
X165503999Y-82257297D01*
X165503998Y-82257294D01*
X165414970Y-82112959D01*
X165414969Y-82112958D01*
X165414968Y-82112956D01*
X165295044Y-81993032D01*
X165295043Y-81993031D01*
X165295041Y-81993029D01*
X165278401Y-81982765D01*
X165231678Y-81930817D01*
X165219500Y-81877228D01*
X165219500Y-78235864D01*
X165239185Y-78168825D01*
X165271335Y-78137268D01*
X165270487Y-78136195D01*
X165276154Y-78131713D01*
X165276153Y-78131713D01*
X165276156Y-78131712D01*
X165400212Y-78007656D01*
X165492314Y-77858334D01*
X165547499Y-77691797D01*
X165558000Y-77589009D01*
X165557999Y-76588992D01*
X165553606Y-76545991D01*
X165547499Y-76486203D01*
X165547498Y-76486200D01*
X165532790Y-76441815D01*
X165492314Y-76319666D01*
X165400212Y-76170344D01*
X165276156Y-76046288D01*
X165183388Y-75989069D01*
X165126836Y-75954187D01*
X165126831Y-75954185D01*
X165126353Y-75954026D01*
X165074079Y-75936704D01*
X165016636Y-75896934D01*
X164989813Y-75832418D01*
X165002128Y-75763642D01*
X165049671Y-75712442D01*
X165074075Y-75701296D01*
X165126834Y-75683814D01*
X165276156Y-75591712D01*
X165400212Y-75467656D01*
X165492314Y-75318334D01*
X165547499Y-75151797D01*
X165558000Y-75049009D01*
X165557999Y-74048992D01*
X165557014Y-74039354D01*
X165547499Y-73946203D01*
X165547498Y-73946200D01*
X165537279Y-73915361D01*
X165492314Y-73779666D01*
X165400212Y-73630344D01*
X165276156Y-73506288D01*
X165126834Y-73414186D01*
X164960297Y-73359001D01*
X164960295Y-73359000D01*
X164857510Y-73348500D01*
X164232498Y-73348500D01*
X164232480Y-73348501D01*
X164129703Y-73359000D01*
X164129700Y-73359001D01*
X163963168Y-73414185D01*
X163963163Y-73414187D01*
X163813842Y-73506289D01*
X163689789Y-73630342D01*
X163597687Y-73779663D01*
X163597685Y-73779668D01*
X163578852Y-73836504D01*
X163539079Y-73893949D01*
X163474563Y-73920772D01*
X163461146Y-73921500D01*
X162977281Y-73921500D01*
X162910242Y-73901815D01*
X162864487Y-73849011D01*
X162854543Y-73779853D01*
X162883568Y-73716297D01*
X162889600Y-73709819D01*
X164756806Y-71842613D01*
X164756811Y-71842608D01*
X164773117Y-71818204D01*
X164825483Y-71739833D01*
X164846552Y-71688968D01*
X164872786Y-71625635D01*
X164896900Y-71504403D01*
X164896900Y-71380797D01*
X164896900Y-64904802D01*
X164916585Y-64837763D01*
X164969389Y-64792008D01*
X165016021Y-64781863D01*
X165015981Y-64781482D01*
X165019451Y-64781117D01*
X165020900Y-64780802D01*
X165022449Y-64780802D01*
X165203699Y-64742277D01*
X165203702Y-64742275D01*
X165203704Y-64742275D01*
X165260722Y-64716888D01*
X165372978Y-64666909D01*
X165522888Y-64557993D01*
X165646877Y-64420289D01*
X165739526Y-64259815D01*
X165796787Y-64083586D01*
X165800333Y-64049838D01*
X165820552Y-63993912D01*
X165854883Y-63942533D01*
X165902185Y-63828335D01*
X165915794Y-63759919D01*
X165926300Y-63707105D01*
X165926300Y-62124696D01*
X165926299Y-62124692D01*
X165923100Y-62108607D01*
X165902186Y-62003466D01*
X165874476Y-61936570D01*
X165854883Y-61889267D01*
X165786214Y-61786496D01*
X165786213Y-61786494D01*
X165786211Y-61786492D01*
X165698808Y-61699089D01*
X165556218Y-61556499D01*
X165522733Y-61495176D01*
X165519899Y-61468818D01*
X165519899Y-61148029D01*
X165519898Y-61148023D01*
X165518749Y-61137336D01*
X165513491Y-61088417D01*
X165500740Y-61054232D01*
X165495757Y-60984542D01*
X165500738Y-60967572D01*
X165513491Y-60933383D01*
X165519900Y-60873773D01*
X165519899Y-60026679D01*
X165539583Y-59959641D01*
X165592387Y-59913886D01*
X165661546Y-59903942D01*
X165725102Y-59932967D01*
X165731580Y-59938999D01*
X169516181Y-63723600D01*
X169549666Y-63784923D01*
X169552500Y-63811281D01*
X169552500Y-71502176D01*
X169532815Y-71569215D01*
X169502815Y-71601440D01*
X169497457Y-71605450D01*
X169497451Y-71605457D01*
X169411206Y-71720664D01*
X169411202Y-71720671D01*
X169360908Y-71855517D01*
X169355647Y-71904455D01*
X169354501Y-71915123D01*
X169354500Y-71915135D01*
X169354500Y-73538870D01*
X169354501Y-73538876D01*
X169360908Y-73598483D01*
X169411202Y-73733328D01*
X169411206Y-73733335D01*
X169497452Y-73848544D01*
X169497455Y-73848547D01*
X169612664Y-73934793D01*
X169612671Y-73934797D01*
X169628619Y-73940745D01*
X169747517Y-73985091D01*
X169807127Y-73991500D01*
X170552872Y-73991499D01*
X170612483Y-73985091D01*
X170747331Y-73934796D01*
X170862546Y-73848546D01*
X170948796Y-73733331D01*
X170999091Y-73598483D01*
X171005500Y-73538873D01*
X171005499Y-71915128D01*
X170999091Y-71855517D01*
X170994276Y-71842608D01*
X170948797Y-71720671D01*
X170948793Y-71720664D01*
X170883334Y-71633223D01*
X170862546Y-71605454D01*
X170862544Y-71605452D01*
X170862542Y-71605450D01*
X170857185Y-71601440D01*
X170815316Y-71545505D01*
X170807500Y-71502176D01*
X170807500Y-63438195D01*
X170802642Y-63413770D01*
X170802642Y-63413769D01*
X170783387Y-63316971D01*
X170783386Y-63316970D01*
X170783386Y-63316966D01*
X170738407Y-63208379D01*
X170736763Y-63203784D01*
X170667414Y-63099996D01*
X170667413Y-63099994D01*
X170625773Y-63058354D01*
X170580008Y-63012589D01*
X166374158Y-58806739D01*
X166340673Y-58745416D01*
X166345657Y-58675724D01*
X166387529Y-58619791D01*
X166388954Y-58618740D01*
X166455088Y-58570691D01*
X166467056Y-58557400D01*
X166513214Y-58506135D01*
X166579077Y-58432987D01*
X166659508Y-58293676D01*
X166710075Y-58245461D01*
X166778682Y-58232237D01*
X166843546Y-58258205D01*
X166854576Y-58267995D01*
X173326181Y-64739600D01*
X173359666Y-64800923D01*
X173362500Y-64827281D01*
X173362500Y-67526649D01*
X173342815Y-67593688D01*
X173290011Y-67639443D01*
X173220853Y-67649387D01*
X173188065Y-67639929D01*
X173120900Y-67610025D01*
X173120896Y-67610024D01*
X172939649Y-67571500D01*
X172754351Y-67571500D01*
X172573103Y-67610024D01*
X172573095Y-67610026D01*
X172403822Y-67685392D01*
X172253909Y-67794311D01*
X172253906Y-67794313D01*
X172129922Y-67932014D01*
X172037274Y-68092485D01*
X171980014Y-68268711D01*
X171980013Y-68268713D01*
X171960644Y-68453000D01*
X171980013Y-68637286D01*
X171980014Y-68637288D01*
X172037274Y-68813514D01*
X172086629Y-68899000D01*
X172103102Y-68966900D01*
X172086629Y-69023000D01*
X172037274Y-69108485D01*
X171980014Y-69284711D01*
X171980013Y-69284713D01*
X171960644Y-69469000D01*
X171980013Y-69653286D01*
X171980014Y-69653288D01*
X172037273Y-69829512D01*
X172120810Y-69974204D01*
X172137282Y-70042104D01*
X172114429Y-70108131D01*
X172101104Y-70123883D01*
X172062032Y-70162955D01*
X172062029Y-70162959D01*
X171973001Y-70307294D01*
X171972996Y-70307305D01*
X171919651Y-70468290D01*
X171909500Y-70567647D01*
X171909500Y-71164337D01*
X171909501Y-71164355D01*
X171919650Y-71263707D01*
X171919651Y-71263710D01*
X171972996Y-71424694D01*
X171972998Y-71424699D01*
X172018931Y-71499167D01*
X172037371Y-71566560D01*
X172016448Y-71633223D01*
X172012659Y-71638575D01*
X171951204Y-71720668D01*
X171951202Y-71720671D01*
X171900908Y-71855517D01*
X171895647Y-71904455D01*
X171894501Y-71915123D01*
X171894500Y-71915135D01*
X171894500Y-73538870D01*
X171894501Y-73538876D01*
X171900908Y-73598483D01*
X171951202Y-73733328D01*
X171951206Y-73733335D01*
X172037452Y-73848544D01*
X172037455Y-73848547D01*
X172152664Y-73934793D01*
X172152671Y-73934797D01*
X172168619Y-73940745D01*
X172287517Y-73985091D01*
X172347127Y-73991500D01*
X173092872Y-73991499D01*
X173152483Y-73985091D01*
X173212396Y-73962745D01*
X173287329Y-73934797D01*
X173295112Y-73930547D01*
X173296865Y-73933757D01*
X173345999Y-73915361D01*
X173414291Y-73930127D01*
X173415263Y-73930752D01*
X173422670Y-73934797D01*
X173497155Y-73962577D01*
X173557517Y-73985091D01*
X173617127Y-73991500D01*
X174362872Y-73991499D01*
X174422483Y-73985091D01*
X174557331Y-73934796D01*
X174672546Y-73848546D01*
X174758796Y-73733331D01*
X174809091Y-73598483D01*
X174815500Y-73538873D01*
X174815499Y-71915128D01*
X174809091Y-71855517D01*
X174804276Y-71842608D01*
X174758797Y-71720671D01*
X174758793Y-71720664D01*
X174693334Y-71633223D01*
X174672546Y-71605454D01*
X174672544Y-71605452D01*
X174672542Y-71605450D01*
X174667185Y-71601440D01*
X174625316Y-71545505D01*
X174617500Y-71502176D01*
X174617500Y-64454194D01*
X174593386Y-64332970D01*
X174593385Y-64332969D01*
X174593385Y-64332965D01*
X174593383Y-64332960D01*
X174546086Y-64218773D01*
X174546079Y-64218760D01*
X174477412Y-64115993D01*
X174443317Y-64081898D01*
X174390008Y-64028589D01*
X170439566Y-60078147D01*
X166439911Y-56078491D01*
X166439907Y-56078488D01*
X166337139Y-56009820D01*
X166337126Y-56009813D01*
X166303685Y-55995962D01*
X166222935Y-55962514D01*
X166222927Y-55962512D01*
X166101707Y-55938400D01*
X166101703Y-55938400D01*
X165642397Y-55938400D01*
X165575358Y-55918715D01*
X165529603Y-55865911D01*
X165519107Y-55801150D01*
X165519830Y-55794422D01*
X165519900Y-55793773D01*
X165519899Y-54798028D01*
X165513491Y-54738417D01*
X165500740Y-54704232D01*
X165495757Y-54634542D01*
X165500738Y-54617572D01*
X165513491Y-54583383D01*
X165519900Y-54523773D01*
X165519899Y-53528028D01*
X165519898Y-53528026D01*
X165519898Y-53528014D01*
X165519107Y-53520657D01*
X165531511Y-53451898D01*
X165579120Y-53400759D01*
X165642396Y-53383400D01*
X171824619Y-53383400D01*
X171891658Y-53403085D01*
X171912300Y-53419719D01*
X173260400Y-54767819D01*
X173293885Y-54829142D01*
X173288901Y-54898834D01*
X173247029Y-54954767D01*
X173181565Y-54979184D01*
X173172719Y-54979500D01*
X173121020Y-54979500D01*
X172910703Y-55018815D01*
X172784533Y-55067693D01*
X172711192Y-55096106D01*
X172711186Y-55096108D01*
X172529286Y-55208736D01*
X172529283Y-55208738D01*
X172529279Y-55208740D01*
X172529278Y-55208742D01*
X172431590Y-55297796D01*
X172371158Y-55352887D01*
X172242219Y-55523629D01*
X172146849Y-55715158D01*
X172146846Y-55715164D01*
X172088296Y-55920949D01*
X172088295Y-55920952D01*
X172068554Y-56133999D01*
X172068554Y-56134000D01*
X172088295Y-56347047D01*
X172088296Y-56347050D01*
X172146846Y-56552835D01*
X172146849Y-56552841D01*
X172212160Y-56684003D01*
X172242219Y-56744370D01*
X172371159Y-56915114D01*
X172529278Y-57059258D01*
X172529283Y-57059261D01*
X172529286Y-57059263D01*
X172711186Y-57171891D01*
X172711187Y-57171891D01*
X172711190Y-57171893D01*
X172910703Y-57249185D01*
X173121020Y-57288500D01*
X173121022Y-57288500D01*
X173334978Y-57288500D01*
X173334980Y-57288500D01*
X173545297Y-57249185D01*
X173744810Y-57171893D01*
X173926722Y-57059258D01*
X174084841Y-56915114D01*
X174129046Y-56856576D01*
X174185155Y-56814941D01*
X174254867Y-56810250D01*
X174316049Y-56843992D01*
X174326952Y-56856575D01*
X174371159Y-56915114D01*
X174529278Y-57059258D01*
X174529283Y-57059261D01*
X174529286Y-57059263D01*
X174711186Y-57171891D01*
X174711187Y-57171891D01*
X174711190Y-57171893D01*
X174910703Y-57249185D01*
X175121020Y-57288500D01*
X175121022Y-57288500D01*
X175334978Y-57288500D01*
X175334980Y-57288500D01*
X175432579Y-57270255D01*
X175502093Y-57277286D01*
X175543044Y-57304463D01*
X179469182Y-61230601D01*
X179502667Y-61291924D01*
X179505501Y-61318282D01*
X179505501Y-62197145D01*
X179485816Y-62264184D01*
X179446599Y-62302683D01*
X179401845Y-62330287D01*
X179277790Y-62454342D01*
X179185688Y-62603663D01*
X179185687Y-62603666D01*
X179130502Y-62770203D01*
X179130502Y-62770204D01*
X179130501Y-62770204D01*
X179120001Y-62872983D01*
X179120001Y-63873001D01*
X179120002Y-63873019D01*
X179131190Y-63982533D01*
X179128780Y-63982779D01*
X179124396Y-64041324D01*
X179096041Y-64085282D01*
X178694998Y-64486326D01*
X178587627Y-64593696D01*
X178587622Y-64593702D01*
X178511702Y-64725199D01*
X178511702Y-64725200D01*
X178511701Y-64725202D01*
X178511701Y-64725203D01*
X178507127Y-64742275D01*
X178472400Y-64871877D01*
X178472400Y-91678661D01*
X178452715Y-91745700D01*
X178436081Y-91766342D01*
X173876427Y-96325995D01*
X173876422Y-96326001D01*
X173800502Y-96457498D01*
X173800502Y-96457499D01*
X173761200Y-96604176D01*
X173761200Y-100939309D01*
X173741515Y-101006348D01*
X173724881Y-101026990D01*
X172800890Y-101950981D01*
X172739567Y-101984466D01*
X172713209Y-101987300D01*
X172109586Y-101987300D01*
X172042547Y-101967615D01*
X171996792Y-101914811D01*
X171986848Y-101845653D01*
X172011208Y-101787816D01*
X172104036Y-101666841D01*
X172164544Y-101520762D01*
X172180000Y-101403361D01*
X172179999Y-101124640D01*
X172164544Y-101007238D01*
X172164175Y-101006348D01*
X172158891Y-100993592D01*
X172155934Y-100986454D01*
X172148465Y-100916986D01*
X172155935Y-100891545D01*
X172157073Y-100888797D01*
X172164544Y-100870762D01*
X172180000Y-100753361D01*
X172179999Y-100474640D01*
X172164544Y-100357238D01*
X172155934Y-100336454D01*
X172148465Y-100266986D01*
X172155935Y-100241545D01*
X172164544Y-100220762D01*
X172180000Y-100103361D01*
X172179999Y-99824640D01*
X172164544Y-99707238D01*
X172155934Y-99686454D01*
X172148465Y-99616986D01*
X172155935Y-99591545D01*
X172164544Y-99570762D01*
X172180000Y-99453361D01*
X172179999Y-99174640D01*
X172164544Y-99057238D01*
X172155934Y-99036454D01*
X172148465Y-98966986D01*
X172155935Y-98941545D01*
X172164544Y-98920762D01*
X172180000Y-98803361D01*
X172179999Y-98524640D01*
X172164544Y-98407238D01*
X172155934Y-98386454D01*
X172148465Y-98316986D01*
X172155935Y-98291545D01*
X172164544Y-98270762D01*
X172180000Y-98153361D01*
X172179999Y-97874640D01*
X172164544Y-97757238D01*
X172155934Y-97736454D01*
X172148465Y-97666986D01*
X172155935Y-97641545D01*
X172160143Y-97631386D01*
X172164544Y-97620762D01*
X172180000Y-97503361D01*
X172179999Y-97224640D01*
X172178372Y-97212284D01*
X172171018Y-97156419D01*
X172164544Y-97107238D01*
X172155934Y-97086454D01*
X172148465Y-97016986D01*
X172155935Y-96991545D01*
X172164544Y-96970762D01*
X172180000Y-96853361D01*
X172179999Y-96574640D01*
X172179999Y-96574636D01*
X172164546Y-96457246D01*
X172164544Y-96457241D01*
X172164544Y-96457238D01*
X172104036Y-96311159D01*
X172007782Y-96185718D01*
X171882341Y-96089464D01*
X171875185Y-96086500D01*
X171736262Y-96028956D01*
X171736260Y-96028955D01*
X171618870Y-96013501D01*
X171618867Y-96013500D01*
X171618861Y-96013500D01*
X171618854Y-96013500D01*
X170265136Y-96013500D01*
X170147746Y-96028953D01*
X170147737Y-96028956D01*
X170031603Y-96077061D01*
X169984150Y-96086500D01*
X168014686Y-96086500D01*
X167947647Y-96066815D01*
X167941801Y-96062818D01*
X167829182Y-95980995D01*
X167829179Y-95980993D01*
X167829178Y-95980993D01*
X167784085Y-95960916D01*
X167659904Y-95905626D01*
X167659896Y-95905624D01*
X167478649Y-95867100D01*
X167293351Y-95867100D01*
X167112103Y-95905624D01*
X167112095Y-95905626D01*
X166942822Y-95980992D01*
X166792909Y-96089911D01*
X166792906Y-96089913D01*
X166668922Y-96227614D01*
X166576274Y-96388085D01*
X166519014Y-96564311D01*
X166519013Y-96564313D01*
X166513935Y-96612622D01*
X166508170Y-96667487D01*
X166507857Y-96670462D01*
X166481272Y-96735076D01*
X166423975Y-96775061D01*
X166384536Y-96781500D01*
X161101195Y-96781500D01*
X160979970Y-96805613D01*
X160979960Y-96805616D01*
X160865769Y-96852915D01*
X160786327Y-96905997D01*
X160786326Y-96905998D01*
X160762989Y-96921590D01*
X160762988Y-96921591D01*
X158914900Y-98769681D01*
X158853577Y-98803166D01*
X158827219Y-98806000D01*
X152914519Y-98806000D01*
X152875515Y-98799706D01*
X152840484Y-98788098D01*
X152773797Y-98766000D01*
X152773795Y-98765999D01*
X152671010Y-98755499D01*
X151620998Y-98755499D01*
X151620980Y-98755500D01*
X151518203Y-98765999D01*
X151518200Y-98766000D01*
X151416485Y-98799706D01*
X151377481Y-98806000D01*
X150465171Y-98806000D01*
X150421836Y-98798181D01*
X150411989Y-98794508D01*
X150411982Y-98794506D01*
X150364444Y-98789395D01*
X150299893Y-98762656D01*
X150260046Y-98705263D01*
X150253701Y-98666106D01*
X150253701Y-98551998D01*
X148551901Y-98551998D01*
X148551901Y-98666106D01*
X148532216Y-98733145D01*
X148479412Y-98778900D01*
X148441156Y-98789395D01*
X148393621Y-98794505D01*
X148393620Y-98794505D01*
X148383767Y-98798181D01*
X148340432Y-98806000D01*
X147090144Y-98806000D01*
X147077990Y-98805403D01*
X146848442Y-98782794D01*
X146824601Y-98778052D01*
X146609727Y-98712871D01*
X146587269Y-98703568D01*
X146389248Y-98597723D01*
X146369036Y-98584218D01*
X146190732Y-98437888D01*
X146181716Y-98429716D01*
X142950451Y-95198451D01*
X142916966Y-95137128D01*
X142921950Y-95067436D01*
X142923571Y-95063318D01*
X142965503Y-94962083D01*
X142965505Y-94962079D01*
X142994501Y-94816312D01*
X142994501Y-94667688D01*
X142994501Y-94662578D01*
X142994500Y-94662552D01*
X142994500Y-83453446D01*
X142994501Y-83453425D01*
X142994501Y-83293578D01*
X142994500Y-83293552D01*
X142994500Y-74888475D01*
X142994501Y-74888454D01*
X142994501Y-74733714D01*
X142965506Y-74587954D01*
X142965505Y-74587952D01*
X142965505Y-74587950D01*
X142958852Y-74571889D01*
X142921166Y-74480905D01*
X142909055Y-74451666D01*
X142908633Y-74450646D01*
X142908631Y-74450642D01*
X142908630Y-74450640D01*
X142871925Y-74395707D01*
X142826059Y-74327063D01*
X142826057Y-74327060D01*
X142716647Y-74217650D01*
X142716624Y-74217629D01*
X142120789Y-73621794D01*
X142087304Y-73560471D01*
X142084470Y-73534113D01*
X142084470Y-72214129D01*
X142084469Y-72214123D01*
X142084468Y-72214116D01*
X142078062Y-72154517D01*
X142068069Y-72127725D01*
X142027768Y-72019671D01*
X142027764Y-72019664D01*
X141941518Y-71904455D01*
X141941515Y-71904452D01*
X141826306Y-71818206D01*
X141826299Y-71818202D01*
X141691453Y-71767908D01*
X141691454Y-71767908D01*
X141631854Y-71761501D01*
X141631852Y-71761500D01*
X141631844Y-71761500D01*
X141631835Y-71761500D01*
X139536100Y-71761500D01*
X139536094Y-71761501D01*
X139476487Y-71767908D01*
X139341642Y-71818202D01*
X139341635Y-71818206D01*
X139226426Y-71904452D01*
X139226423Y-71904455D01*
X139140177Y-72019664D01*
X139140173Y-72019671D01*
X139089879Y-72154517D01*
X139083472Y-72214116D01*
X139083472Y-72214123D01*
X139083471Y-72214135D01*
X139083471Y-74089870D01*
X139083472Y-74089884D01*
X139085799Y-74111529D01*
X139073391Y-74180288D01*
X139025779Y-74231423D01*
X138958079Y-74248700D01*
X138891785Y-74226633D01*
X138874828Y-74212460D01*
X138840657Y-74178289D01*
X138840656Y-74178288D01*
X138732422Y-74111529D01*
X138691336Y-74086187D01*
X138691331Y-74086185D01*
X138622558Y-74063396D01*
X138524797Y-74031001D01*
X138524795Y-74031000D01*
X138422010Y-74020500D01*
X137421998Y-74020500D01*
X137421980Y-74020501D01*
X137319203Y-74031000D01*
X137319200Y-74031001D01*
X137196004Y-74071825D01*
X137126176Y-74074227D01*
X137066134Y-74038495D01*
X137034941Y-73975975D01*
X137033000Y-73954119D01*
X137033000Y-68090054D01*
X137033000Y-68090051D01*
X137033000Y-67564000D01*
X136661025Y-67192025D01*
X136661021Y-67192020D01*
X133594979Y-64125978D01*
X133594973Y-64125973D01*
X133223000Y-63754000D01*
X132696949Y-63754000D01*
X132696946Y-63754000D01*
X100335412Y-63754000D01*
X100324605Y-63753528D01*
X100293897Y-63750841D01*
X100120274Y-63735651D01*
X100098988Y-63731898D01*
X99906112Y-63680217D01*
X99885801Y-63672824D01*
X99704834Y-63588437D01*
X99686116Y-63577630D01*
X99522543Y-63463095D01*
X99505985Y-63449201D01*
X99364798Y-63308014D01*
X99350904Y-63291456D01*
X99236369Y-63127883D01*
X99225562Y-63109165D01*
X99141175Y-62928198D01*
X99133782Y-62907887D01*
X99082099Y-62715004D01*
X99078348Y-62693724D01*
X99070469Y-62603668D01*
X99060472Y-62489395D01*
X99060000Y-62478588D01*
X99060000Y-61341000D01*
X116969644Y-61341000D01*
X116989013Y-61525286D01*
X116989014Y-61525288D01*
X117046274Y-61701514D01*
X117119343Y-61828074D01*
X117138923Y-61861987D01*
X117182112Y-61909954D01*
X117262906Y-61999686D01*
X117262909Y-61999688D01*
X117262912Y-61999691D01*
X117395926Y-62096331D01*
X117412822Y-62108607D01*
X117582095Y-62183973D01*
X117582098Y-62183973D01*
X117582101Y-62183975D01*
X117763351Y-62222500D01*
X117948649Y-62222500D01*
X118129899Y-62183975D01*
X118154937Y-62172826D01*
X118224187Y-62163541D01*
X118287464Y-62193169D01*
X118303905Y-62210997D01*
X118304455Y-62211547D01*
X118419664Y-62297793D01*
X118419671Y-62297797D01*
X118554517Y-62348091D01*
X118554516Y-62348091D01*
X118561444Y-62348835D01*
X118614127Y-62354500D01*
X119709872Y-62354499D01*
X119769483Y-62348091D01*
X119769487Y-62348089D01*
X119773743Y-62347632D01*
X119800253Y-62347632D01*
X119804513Y-62348089D01*
X119804516Y-62348091D01*
X119864126Y-62354500D01*
X121459871Y-62354499D01*
X121519482Y-62348091D01*
X121654330Y-62297796D01*
X121769545Y-62211546D01*
X121855795Y-62096331D01*
X121906090Y-61961483D01*
X121912499Y-61901873D01*
X121912499Y-61901870D01*
X127011500Y-61901870D01*
X127011501Y-61901876D01*
X127017908Y-61961483D01*
X127068202Y-62096328D01*
X127068206Y-62096335D01*
X127154452Y-62211544D01*
X127154455Y-62211547D01*
X127269664Y-62297793D01*
X127269671Y-62297797D01*
X127404517Y-62348091D01*
X127404516Y-62348091D01*
X127411444Y-62348835D01*
X127464127Y-62354500D01*
X129059872Y-62354499D01*
X129119483Y-62348091D01*
X129254331Y-62297796D01*
X129369546Y-62211546D01*
X129455796Y-62096331D01*
X129506091Y-61961483D01*
X129512500Y-61901873D01*
X129512499Y-61310813D01*
X129532183Y-61243776D01*
X129584987Y-61198021D01*
X129654146Y-61188077D01*
X129717702Y-61217102D01*
X129742038Y-61245719D01*
X129767288Y-61286656D01*
X129891344Y-61410712D01*
X130040666Y-61502814D01*
X130207203Y-61557999D01*
X130309991Y-61568500D01*
X131310008Y-61568499D01*
X131310016Y-61568498D01*
X131310019Y-61568498D01*
X131366302Y-61562748D01*
X131412797Y-61557999D01*
X131579334Y-61502814D01*
X131728656Y-61410712D01*
X131738319Y-61401049D01*
X131799642Y-61367564D01*
X131869334Y-61372548D01*
X131913681Y-61401049D01*
X131923344Y-61410712D01*
X132072666Y-61502814D01*
X132239203Y-61557999D01*
X132341991Y-61568500D01*
X133342008Y-61568499D01*
X133342016Y-61568498D01*
X133342019Y-61568498D01*
X133398302Y-61562748D01*
X133444797Y-61557999D01*
X133611334Y-61502814D01*
X133760656Y-61410712D01*
X133760662Y-61410705D01*
X133766319Y-61406234D01*
X133767607Y-61407863D01*
X133819892Y-61379314D01*
X133889584Y-61384298D01*
X133933931Y-61412799D01*
X133955344Y-61434212D01*
X134104666Y-61526314D01*
X134271203Y-61581499D01*
X134373991Y-61592000D01*
X135374008Y-61591999D01*
X135374016Y-61591998D01*
X135374019Y-61591998D01*
X135430302Y-61586248D01*
X135476797Y-61581499D01*
X135643334Y-61526314D01*
X135792656Y-61434212D01*
X135814069Y-61412799D01*
X135875392Y-61379314D01*
X135945084Y-61384298D01*
X135980850Y-61407284D01*
X135981681Y-61406234D01*
X135987341Y-61410709D01*
X135987344Y-61410712D01*
X136136666Y-61502814D01*
X136303203Y-61557999D01*
X136405991Y-61568500D01*
X137406008Y-61568499D01*
X137406016Y-61568498D01*
X137406019Y-61568498D01*
X137462302Y-61562748D01*
X137508797Y-61557999D01*
X137675334Y-61502814D01*
X137824656Y-61410712D01*
X137948712Y-61286656D01*
X138040814Y-61137334D01*
X138095999Y-60970797D01*
X138106500Y-60868009D01*
X138106499Y-60242992D01*
X138095999Y-60140203D01*
X138040814Y-59973666D01*
X137948712Y-59824344D01*
X137824656Y-59700288D01*
X137675334Y-59608186D01*
X137508797Y-59553001D01*
X137508795Y-59553000D01*
X137406016Y-59542500D01*
X137406009Y-59542500D01*
X136947031Y-59542500D01*
X136879992Y-59522815D01*
X136859350Y-59506181D01*
X136424900Y-59071731D01*
X136391415Y-59010408D01*
X136389262Y-58997029D01*
X136375987Y-58870716D01*
X136318726Y-58694487D01*
X136226077Y-58534013D01*
X136149930Y-58449443D01*
X136102093Y-58396313D01*
X136102090Y-58396311D01*
X136102089Y-58396310D01*
X136102088Y-58396309D01*
X135952178Y-58287393D01*
X135952177Y-58287392D01*
X135782904Y-58212026D01*
X135782896Y-58212024D01*
X135601649Y-58173500D01*
X135566281Y-58173500D01*
X135499242Y-58153815D01*
X135478600Y-58137181D01*
X130442014Y-53100594D01*
X130442008Y-53100589D01*
X130413900Y-53081808D01*
X130339240Y-53031921D01*
X130339227Y-53031914D01*
X130298476Y-53015035D01*
X130225036Y-52984615D01*
X130225028Y-52984613D01*
X130103808Y-52960501D01*
X130103804Y-52960501D01*
X129860455Y-52960501D01*
X129793416Y-52940816D01*
X129747661Y-52888012D01*
X129737717Y-52818854D01*
X129744274Y-52793166D01*
X129756089Y-52761488D01*
X129756091Y-52761483D01*
X129762500Y-52701873D01*
X129762499Y-51906128D01*
X129756091Y-51846517D01*
X129731690Y-51781095D01*
X129705797Y-51711671D01*
X129705793Y-51711664D01*
X129619547Y-51596455D01*
X129619544Y-51596452D01*
X129504335Y-51510206D01*
X129504328Y-51510202D01*
X129369482Y-51459908D01*
X129369483Y-51459908D01*
X129309883Y-51453501D01*
X129309881Y-51453500D01*
X129309873Y-51453500D01*
X129309864Y-51453500D01*
X127464129Y-51453500D01*
X127464123Y-51453501D01*
X127404516Y-51459908D01*
X127269671Y-51510202D01*
X127269664Y-51510206D01*
X127154455Y-51596452D01*
X127154452Y-51596455D01*
X127068206Y-51711664D01*
X127068202Y-51711671D01*
X127017908Y-51846517D01*
X127011501Y-51906116D01*
X127011501Y-51906123D01*
X127011500Y-51906135D01*
X127011500Y-52701870D01*
X127011501Y-52701876D01*
X127017908Y-52761482D01*
X127036253Y-52810666D01*
X127041237Y-52880358D01*
X127036253Y-52897331D01*
X127017909Y-52946514D01*
X127017908Y-52946516D01*
X127011501Y-53006116D01*
X127011500Y-53006135D01*
X127011500Y-53801870D01*
X127011501Y-53801876D01*
X127017908Y-53861482D01*
X127036253Y-53910666D01*
X127041237Y-53980358D01*
X127036253Y-53997331D01*
X127017909Y-54046514D01*
X127017908Y-54046516D01*
X127011501Y-54106116D01*
X127011500Y-54106135D01*
X127011500Y-54901870D01*
X127011501Y-54901876D01*
X127017908Y-54961483D01*
X127068202Y-55096328D01*
X127068206Y-55096335D01*
X127154452Y-55211544D01*
X127154455Y-55211547D01*
X127269664Y-55297793D01*
X127269671Y-55297797D01*
X127404517Y-55348091D01*
X127404516Y-55348091D01*
X127411444Y-55348835D01*
X127464127Y-55354500D01*
X129091718Y-55354499D01*
X129158757Y-55374184D01*
X129179399Y-55390818D01*
X129433556Y-55644975D01*
X129467041Y-55706298D01*
X129462057Y-55775990D01*
X129420185Y-55831923D01*
X129354721Y-55856340D01*
X129332623Y-55855946D01*
X129309873Y-55853500D01*
X129309867Y-55853500D01*
X127464129Y-55853500D01*
X127464123Y-55853501D01*
X127404516Y-55859908D01*
X127269671Y-55910202D01*
X127269664Y-55910206D01*
X127154455Y-55996452D01*
X127154452Y-55996455D01*
X127068206Y-56111664D01*
X127068202Y-56111671D01*
X127017908Y-56246517D01*
X127011501Y-56306116D01*
X127011500Y-56306135D01*
X127011500Y-57101870D01*
X127011501Y-57101876D01*
X127017908Y-57161482D01*
X127036253Y-57210666D01*
X127041237Y-57280358D01*
X127036253Y-57297331D01*
X127017909Y-57346514D01*
X127017908Y-57346516D01*
X127011501Y-57406116D01*
X127011500Y-57406135D01*
X127011500Y-58201870D01*
X127011501Y-58201876D01*
X127017908Y-58261482D01*
X127036253Y-58310666D01*
X127041237Y-58380358D01*
X127036253Y-58397331D01*
X127017909Y-58446514D01*
X127017908Y-58446516D01*
X127011501Y-58506116D01*
X127011500Y-58506135D01*
X127011500Y-59301870D01*
X127011501Y-59301876D01*
X127017908Y-59361482D01*
X127036253Y-59410666D01*
X127041237Y-59480358D01*
X127036253Y-59497331D01*
X127017909Y-59546514D01*
X127017908Y-59546516D01*
X127011501Y-59606116D01*
X127011500Y-59606135D01*
X127011500Y-60401869D01*
X127011501Y-60401878D01*
X127015679Y-60440745D01*
X127015679Y-60467251D01*
X127011500Y-60506123D01*
X127011500Y-61901870D01*
X121912499Y-61901870D01*
X121912498Y-61006128D01*
X121906090Y-60946517D01*
X121901191Y-60933383D01*
X121855796Y-60811671D01*
X121855792Y-60811664D01*
X121769546Y-60696455D01*
X121769543Y-60696452D01*
X121677123Y-60627266D01*
X121635252Y-60571332D01*
X121630268Y-60501641D01*
X121663754Y-60440318D01*
X121725077Y-60406834D01*
X121751434Y-60404000D01*
X123512000Y-60404000D01*
X123512000Y-51904000D01*
X121512000Y-51904000D01*
X121512000Y-60429500D01*
X121492315Y-60496539D01*
X121439511Y-60542294D01*
X121388000Y-60553500D01*
X120286499Y-60553500D01*
X120219460Y-60533815D01*
X120173705Y-60481011D01*
X120162499Y-60429500D01*
X120162499Y-60356129D01*
X120162498Y-60356123D01*
X120158646Y-60320290D01*
X120156091Y-60296517D01*
X120136127Y-60242992D01*
X120105797Y-60161671D01*
X120105793Y-60161664D01*
X120019547Y-60046455D01*
X120019544Y-60046452D01*
X119904335Y-59960206D01*
X119904328Y-59960202D01*
X119769482Y-59909908D01*
X119769483Y-59909908D01*
X119709883Y-59903501D01*
X119709881Y-59903500D01*
X119709873Y-59903500D01*
X119709864Y-59903500D01*
X118614129Y-59903500D01*
X118614123Y-59903501D01*
X118554516Y-59909908D01*
X118419671Y-59960202D01*
X118419664Y-59960206D01*
X118304455Y-60046452D01*
X118304452Y-60046455D01*
X118218206Y-60161664D01*
X118218202Y-60161671D01*
X118167908Y-60296517D01*
X118161501Y-60356114D01*
X118161501Y-60356123D01*
X118161385Y-60358279D01*
X118161217Y-60358753D01*
X118161145Y-60359428D01*
X118160985Y-60359410D01*
X118138133Y-60424166D01*
X118082952Y-60467023D01*
X118013360Y-60473244D01*
X118011783Y-60472919D01*
X117948649Y-60459500D01*
X117763351Y-60459500D01*
X117582103Y-60498024D01*
X117582095Y-60498026D01*
X117412822Y-60573392D01*
X117262909Y-60682311D01*
X117262906Y-60682313D01*
X117138922Y-60820014D01*
X117046274Y-60980485D01*
X116989014Y-61156711D01*
X116989013Y-61156713D01*
X116969644Y-61341000D01*
X99060000Y-61341000D01*
X99060000Y-54954000D01*
X117312000Y-54954000D01*
X117312000Y-57454000D01*
X119162000Y-57454000D01*
X119162000Y-54954000D01*
X117312000Y-54954000D01*
X99060000Y-54954000D01*
X99060000Y-50451870D01*
X116311500Y-50451870D01*
X116311501Y-50451876D01*
X116317908Y-50511483D01*
X116368202Y-50646328D01*
X116368206Y-50646335D01*
X116454452Y-50761544D01*
X116454455Y-50761547D01*
X116569664Y-50847793D01*
X116569671Y-50847797D01*
X116704517Y-50898091D01*
X116704516Y-50898091D01*
X116711444Y-50898835D01*
X116764127Y-50904500D01*
X118409872Y-50904499D01*
X118469483Y-50898091D01*
X118604331Y-50847796D01*
X118719546Y-50761546D01*
X118801650Y-50651869D01*
X127011500Y-50651869D01*
X127011501Y-50651875D01*
X127017908Y-50711482D01*
X127068202Y-50846327D01*
X127068206Y-50846334D01*
X127154452Y-50961543D01*
X127154455Y-50961546D01*
X127269664Y-51047792D01*
X127269671Y-51047796D01*
X127404517Y-51098090D01*
X127404516Y-51098090D01*
X127411444Y-51098834D01*
X127464127Y-51104499D01*
X129059872Y-51104498D01*
X129119483Y-51098090D01*
X129254331Y-51047795D01*
X129369546Y-50961545D01*
X129455796Y-50846330D01*
X129506091Y-50711482D01*
X129512500Y-50651872D01*
X129512499Y-49056127D01*
X129506091Y-48996516D01*
X129492548Y-48960206D01*
X129455797Y-48861670D01*
X129455793Y-48861663D01*
X129369547Y-48746454D01*
X129369544Y-48746451D01*
X129254335Y-48660205D01*
X129254328Y-48660201D01*
X129119482Y-48609907D01*
X129119483Y-48609907D01*
X129059883Y-48603500D01*
X129059881Y-48603499D01*
X129059873Y-48603499D01*
X129059864Y-48603499D01*
X127464129Y-48603499D01*
X127464123Y-48603500D01*
X127404516Y-48609907D01*
X127269671Y-48660201D01*
X127269664Y-48660205D01*
X127154455Y-48746451D01*
X127154452Y-48746454D01*
X127068206Y-48861663D01*
X127068202Y-48861670D01*
X127017908Y-48996516D01*
X127011501Y-49056115D01*
X127011501Y-49056123D01*
X127011500Y-49056134D01*
X127011500Y-50651869D01*
X118801650Y-50651869D01*
X118805796Y-50646331D01*
X118856091Y-50511483D01*
X118862500Y-50451873D01*
X118862499Y-50440435D01*
X118882179Y-50373399D01*
X118934980Y-50327640D01*
X119004138Y-50317692D01*
X119060810Y-50341165D01*
X119069664Y-50347793D01*
X119069671Y-50347797D01*
X119204517Y-50398091D01*
X119204516Y-50398091D01*
X119211444Y-50398835D01*
X119264127Y-50404500D01*
X120759872Y-50404499D01*
X120819483Y-50398091D01*
X120954331Y-50347796D01*
X121069546Y-50261546D01*
X121155796Y-50146331D01*
X121206091Y-50011483D01*
X121212500Y-49951873D01*
X121212499Y-49056128D01*
X121206091Y-48996517D01*
X121206090Y-48996515D01*
X121155797Y-48861671D01*
X121155793Y-48861664D01*
X121069547Y-48746455D01*
X121069544Y-48746452D01*
X120954335Y-48660206D01*
X120954328Y-48660202D01*
X120819482Y-48609908D01*
X120819483Y-48609908D01*
X120759883Y-48603501D01*
X120759881Y-48603500D01*
X120759873Y-48603500D01*
X120759864Y-48603500D01*
X119264129Y-48603500D01*
X119264123Y-48603501D01*
X119204516Y-48609908D01*
X119069671Y-48660202D01*
X119069664Y-48660206D01*
X118954455Y-48746452D01*
X118954452Y-48746455D01*
X118868206Y-48861664D01*
X118868202Y-48861671D01*
X118839766Y-48937914D01*
X118797895Y-48993848D01*
X118732431Y-49018265D01*
X118664158Y-49003413D01*
X118649273Y-48993847D01*
X118604335Y-48960206D01*
X118604328Y-48960202D01*
X118469482Y-48909908D01*
X118469483Y-48909908D01*
X118409883Y-48903501D01*
X118409881Y-48903500D01*
X118409873Y-48903500D01*
X118409864Y-48903500D01*
X116764129Y-48903500D01*
X116764123Y-48903501D01*
X116704516Y-48909908D01*
X116569671Y-48960202D01*
X116569664Y-48960206D01*
X116454455Y-49046452D01*
X116454452Y-49046455D01*
X116368206Y-49161664D01*
X116368202Y-49161671D01*
X116317908Y-49296517D01*
X116311501Y-49356116D01*
X116311500Y-49356135D01*
X116311500Y-50451870D01*
X99060000Y-50451870D01*
X99060000Y-46995411D01*
X99060472Y-46984604D01*
X99076469Y-46801752D01*
X99078348Y-46780270D01*
X99082099Y-46758996D01*
X99133783Y-46566107D01*
X99141175Y-46545801D01*
X99177030Y-46468911D01*
X99225563Y-46364831D01*
X99236369Y-46346116D01*
X99350904Y-46182543D01*
X99364792Y-46165991D01*
X99505991Y-46024792D01*
X99522543Y-46010904D01*
X99686116Y-45896369D01*
X99704831Y-45885563D01*
X99885803Y-45801174D01*
X99906107Y-45793783D01*
X100098996Y-45742099D01*
X100120270Y-45738348D01*
X100324605Y-45720472D01*
X100335412Y-45720000D01*
X101935945Y-45720000D01*
X102002984Y-45739685D01*
G37*
%TD.AperFunction*%
%TD*%
%TA.AperFunction,Conductor*%
%TO.N,Net-(JA3-Pin_1)*%
G36*
X131503858Y-126035860D02*
G01*
X131550063Y-126041943D01*
X131611096Y-126049978D01*
X131642361Y-126058355D01*
X131734715Y-126096609D01*
X131762749Y-126112795D01*
X131842058Y-126173652D01*
X131864946Y-126196540D01*
X131925803Y-126275849D01*
X131941989Y-126303884D01*
X131980242Y-126396236D01*
X131988620Y-126427502D01*
X132002739Y-126534740D01*
X132003800Y-126550926D01*
X132003800Y-140758672D01*
X132002739Y-140774858D01*
X131988620Y-140882096D01*
X131980242Y-140913362D01*
X131941989Y-141005714D01*
X131925803Y-141033749D01*
X131864946Y-141113058D01*
X131842058Y-141135946D01*
X131762749Y-141196803D01*
X131734714Y-141212989D01*
X131642362Y-141251242D01*
X131611096Y-141259620D01*
X131503859Y-141273739D01*
X131487673Y-141274800D01*
X126169927Y-141274800D01*
X126153741Y-141273739D01*
X126046503Y-141259620D01*
X126015237Y-141251242D01*
X125922885Y-141212989D01*
X125894850Y-141196803D01*
X125815541Y-141135946D01*
X125792653Y-141113058D01*
X125731796Y-141033749D01*
X125715610Y-141005714D01*
X125677357Y-140913362D01*
X125668979Y-140882095D01*
X125654861Y-140774857D01*
X125653800Y-140758672D01*
X125653800Y-126550926D01*
X125654861Y-126534741D01*
X125668979Y-126427503D01*
X125677356Y-126396239D01*
X125715612Y-126303880D01*
X125731796Y-126275849D01*
X125792653Y-126196540D01*
X125815541Y-126173652D01*
X125894850Y-126112795D01*
X125922881Y-126096611D01*
X126015240Y-126058355D01*
X126046501Y-126049978D01*
X126122041Y-126040033D01*
X126153742Y-126035860D01*
X126169927Y-126034799D01*
X131487673Y-126034799D01*
X131503858Y-126035860D01*
G37*
%TD.AperFunction*%
%TD*%
%TA.AperFunction,Conductor*%
%TO.N,Net-(JB3-Pin_1)*%
G36*
X140393858Y-126035860D02*
G01*
X140440063Y-126041943D01*
X140501096Y-126049978D01*
X140532361Y-126058355D01*
X140624715Y-126096609D01*
X140652749Y-126112795D01*
X140732058Y-126173652D01*
X140754946Y-126196540D01*
X140815803Y-126275849D01*
X140831989Y-126303884D01*
X140870242Y-126396236D01*
X140878620Y-126427502D01*
X140892739Y-126534740D01*
X140893800Y-126550926D01*
X140893800Y-140758671D01*
X140892739Y-140774857D01*
X140878620Y-140882095D01*
X140870242Y-140913361D01*
X140831989Y-141005713D01*
X140815803Y-141033748D01*
X140754946Y-141113057D01*
X140732058Y-141135945D01*
X140652749Y-141196802D01*
X140624714Y-141212988D01*
X140532362Y-141251241D01*
X140501096Y-141259619D01*
X140393859Y-141273738D01*
X140377673Y-141274799D01*
X135059927Y-141274799D01*
X135043741Y-141273738D01*
X134936503Y-141259619D01*
X134905237Y-141251241D01*
X134812885Y-141212988D01*
X134784850Y-141196802D01*
X134705541Y-141135945D01*
X134682653Y-141113057D01*
X134621796Y-141033748D01*
X134605610Y-141005713D01*
X134567357Y-140913361D01*
X134558979Y-140882094D01*
X134544861Y-140774856D01*
X134543800Y-140758671D01*
X134543800Y-126550926D01*
X134544861Y-126534741D01*
X134558979Y-126427503D01*
X134567356Y-126396239D01*
X134605612Y-126303880D01*
X134621796Y-126275849D01*
X134682653Y-126196540D01*
X134705541Y-126173652D01*
X134784850Y-126112795D01*
X134812881Y-126096611D01*
X134905240Y-126058355D01*
X134936501Y-126049978D01*
X135012041Y-126040033D01*
X135043742Y-126035860D01*
X135059927Y-126034799D01*
X140377673Y-126034799D01*
X140393858Y-126035860D01*
G37*
%TD.AperFunction*%
%TD*%
%TA.AperFunction,Conductor*%
%TO.N,Net-(JB1-Pin_1)*%
G36*
X69756444Y-122225859D02*
G01*
X69863698Y-122239979D01*
X69894961Y-122248356D01*
X69987315Y-122286610D01*
X70015349Y-122302796D01*
X70094658Y-122363653D01*
X70117546Y-122386541D01*
X70178403Y-122465850D01*
X70194589Y-122493885D01*
X70232842Y-122586237D01*
X70241220Y-122617503D01*
X70255339Y-122724741D01*
X70256400Y-122740927D01*
X70256400Y-131868671D01*
X70255339Y-131884857D01*
X70241220Y-131992095D01*
X70232842Y-132023361D01*
X70194589Y-132115713D01*
X70178403Y-132143748D01*
X70117546Y-132223057D01*
X70094658Y-132245945D01*
X70015349Y-132306802D01*
X69987314Y-132322988D01*
X69894962Y-132361241D01*
X69863696Y-132369619D01*
X69756459Y-132383738D01*
X69740273Y-132384799D01*
X48191927Y-132384799D01*
X48175741Y-132383738D01*
X48068503Y-132369619D01*
X48037237Y-132361241D01*
X47944885Y-132322988D01*
X47916850Y-132306802D01*
X47837541Y-132245945D01*
X47814653Y-132223057D01*
X47753796Y-132143748D01*
X47737610Y-132115713D01*
X47699357Y-132023361D01*
X47690979Y-131992094D01*
X47676861Y-131884856D01*
X47675800Y-131868671D01*
X47675800Y-122740926D01*
X47676861Y-122724741D01*
X47690979Y-122617503D01*
X47699357Y-122586237D01*
X47737612Y-122493880D01*
X47753796Y-122465849D01*
X47814653Y-122386540D01*
X47837541Y-122363652D01*
X47916850Y-122302795D01*
X47944881Y-122286611D01*
X48037240Y-122248355D01*
X48068501Y-122239978D01*
X48125343Y-122232494D01*
X48175742Y-122225860D01*
X48191927Y-122224799D01*
X58966100Y-122224799D01*
X69740287Y-122224799D01*
X69756444Y-122225859D01*
G37*
%TD.AperFunction*%
%TD*%
%TA.AperFunction,Conductor*%
%TO.N,Net-(JA1-Pin_1)*%
G36*
X69780596Y-92507862D02*
G01*
X69888002Y-92522026D01*
X69919313Y-92530429D01*
X70011796Y-92568804D01*
X70039856Y-92585036D01*
X70119226Y-92646071D01*
X70142121Y-92669023D01*
X70202956Y-92748545D01*
X70219120Y-92776650D01*
X70257263Y-92869225D01*
X70265589Y-92900560D01*
X70279482Y-93007993D01*
X70280506Y-93024206D01*
X70257687Y-102151955D01*
X70256589Y-102168112D01*
X70242248Y-102275146D01*
X70233818Y-102306347D01*
X70195450Y-102398485D01*
X70179244Y-102426447D01*
X70118368Y-102505543D01*
X70095486Y-102528367D01*
X70016244Y-102589041D01*
X69988241Y-102605178D01*
X69896006Y-102643315D01*
X69864786Y-102651666D01*
X69757711Y-102665741D01*
X69741550Y-102666799D01*
X48191927Y-102666799D01*
X48175741Y-102665738D01*
X48068503Y-102651619D01*
X48037237Y-102643241D01*
X47944885Y-102604988D01*
X47916850Y-102588802D01*
X47837541Y-102527945D01*
X47814653Y-102505057D01*
X47753796Y-102425748D01*
X47737610Y-102397713D01*
X47699765Y-102306347D01*
X47699356Y-102305360D01*
X47690979Y-102274094D01*
X47676861Y-102166856D01*
X47675800Y-102150671D01*
X47675800Y-93022926D01*
X47676861Y-93006741D01*
X47690979Y-92899503D01*
X47699356Y-92868239D01*
X47737612Y-92775880D01*
X47753796Y-92747849D01*
X47814653Y-92668540D01*
X47837541Y-92645652D01*
X47916850Y-92584795D01*
X47944881Y-92568611D01*
X48037240Y-92530355D01*
X48068501Y-92521978D01*
X48144041Y-92512033D01*
X48175742Y-92507860D01*
X48191927Y-92506799D01*
X69764386Y-92506799D01*
X69780596Y-92507862D01*
G37*
%TD.AperFunction*%
%TD*%
%TA.AperFunction,Conductor*%
%TO.N,Net-(JC3-Pin_1)*%
G36*
X149283858Y-126035860D02*
G01*
X149330063Y-126041943D01*
X149391096Y-126049978D01*
X149422361Y-126058355D01*
X149514715Y-126096609D01*
X149542749Y-126112795D01*
X149622058Y-126173652D01*
X149644946Y-126196540D01*
X149705803Y-126275849D01*
X149721989Y-126303884D01*
X149760242Y-126396236D01*
X149768620Y-126427502D01*
X149782739Y-126534740D01*
X149783800Y-126550926D01*
X149783800Y-140758671D01*
X149782739Y-140774857D01*
X149768620Y-140882095D01*
X149760242Y-140913361D01*
X149721989Y-141005713D01*
X149705803Y-141033748D01*
X149644946Y-141113057D01*
X149622058Y-141135945D01*
X149542749Y-141196802D01*
X149514714Y-141212988D01*
X149422362Y-141251241D01*
X149391096Y-141259619D01*
X149283859Y-141273738D01*
X149267673Y-141274799D01*
X143949927Y-141274799D01*
X143933741Y-141273738D01*
X143826503Y-141259619D01*
X143795237Y-141251241D01*
X143702885Y-141212988D01*
X143674850Y-141196802D01*
X143595541Y-141135945D01*
X143572653Y-141113057D01*
X143511796Y-141033748D01*
X143495610Y-141005713D01*
X143457357Y-140913361D01*
X143448979Y-140882094D01*
X143434861Y-140774856D01*
X143433800Y-140758671D01*
X143433800Y-126550926D01*
X143434861Y-126534741D01*
X143448979Y-126427503D01*
X143457356Y-126396239D01*
X143495612Y-126303880D01*
X143511796Y-126275849D01*
X143572653Y-126196540D01*
X143595541Y-126173652D01*
X143674850Y-126112795D01*
X143702881Y-126096611D01*
X143795240Y-126058355D01*
X143826501Y-126049978D01*
X143902041Y-126040033D01*
X143933742Y-126035860D01*
X143949927Y-126034799D01*
X149267673Y-126034799D01*
X149283858Y-126035860D01*
G37*
%TD.AperFunction*%
%TD*%
%TA.AperFunction,Conductor*%
%TO.N,Net-(JB2-Pin_1)*%
G36*
X122613858Y-126035860D02*
G01*
X122660063Y-126041943D01*
X122721096Y-126049978D01*
X122752361Y-126058355D01*
X122844715Y-126096609D01*
X122872749Y-126112795D01*
X122952058Y-126173652D01*
X122974946Y-126196540D01*
X123035803Y-126275849D01*
X123051989Y-126303884D01*
X123090242Y-126396236D01*
X123098620Y-126427502D01*
X123112739Y-126534740D01*
X123113800Y-126550926D01*
X123113800Y-140758671D01*
X123112739Y-140774857D01*
X123098620Y-140882095D01*
X123090242Y-140913361D01*
X123051989Y-141005713D01*
X123035803Y-141033748D01*
X122974946Y-141113057D01*
X122952058Y-141135945D01*
X122872749Y-141196802D01*
X122844714Y-141212988D01*
X122752362Y-141251241D01*
X122721096Y-141259619D01*
X122613859Y-141273738D01*
X122597673Y-141274799D01*
X117279927Y-141274799D01*
X117263741Y-141273738D01*
X117156503Y-141259619D01*
X117125237Y-141251241D01*
X117032885Y-141212988D01*
X117004850Y-141196802D01*
X116925541Y-141135945D01*
X116902653Y-141113057D01*
X116841796Y-141033748D01*
X116825610Y-141005713D01*
X116787357Y-140913361D01*
X116778979Y-140882094D01*
X116764861Y-140774856D01*
X116763800Y-140758671D01*
X116763800Y-126550926D01*
X116764861Y-126534741D01*
X116778979Y-126427503D01*
X116787356Y-126396239D01*
X116825612Y-126303880D01*
X116841796Y-126275849D01*
X116902653Y-126196540D01*
X116925541Y-126173652D01*
X117004850Y-126112795D01*
X117032881Y-126096611D01*
X117125240Y-126058355D01*
X117156501Y-126049978D01*
X117232041Y-126040033D01*
X117263742Y-126035860D01*
X117279927Y-126034799D01*
X122597673Y-126034799D01*
X122613858Y-126035860D01*
G37*
%TD.AperFunction*%
%TD*%
%TA.AperFunction,Conductor*%
%TO.N,Net-(JA2-Pin_1)*%
G36*
X113723858Y-126035860D02*
G01*
X113770063Y-126041943D01*
X113831096Y-126049978D01*
X113862361Y-126058355D01*
X113954715Y-126096609D01*
X113982749Y-126112795D01*
X114062058Y-126173652D01*
X114084946Y-126196540D01*
X114145803Y-126275849D01*
X114161989Y-126303884D01*
X114200242Y-126396236D01*
X114208620Y-126427502D01*
X114222739Y-126534740D01*
X114223800Y-126550926D01*
X114223800Y-140758671D01*
X114222739Y-140774857D01*
X114208620Y-140882095D01*
X114200242Y-140913361D01*
X114161989Y-141005713D01*
X114145803Y-141033748D01*
X114084946Y-141113057D01*
X114062058Y-141135945D01*
X113982749Y-141196802D01*
X113954714Y-141212988D01*
X113862362Y-141251241D01*
X113831096Y-141259619D01*
X113723859Y-141273738D01*
X113707673Y-141274799D01*
X108389927Y-141274799D01*
X108373741Y-141273738D01*
X108266503Y-141259619D01*
X108235237Y-141251241D01*
X108142885Y-141212988D01*
X108114850Y-141196802D01*
X108035541Y-141135945D01*
X108012653Y-141113057D01*
X107951796Y-141033748D01*
X107935610Y-141005713D01*
X107897357Y-140913361D01*
X107888979Y-140882094D01*
X107874861Y-140774856D01*
X107873800Y-140758671D01*
X107873800Y-126550926D01*
X107874861Y-126534741D01*
X107888979Y-126427503D01*
X107897356Y-126396239D01*
X107935612Y-126303880D01*
X107951796Y-126275849D01*
X108012653Y-126196540D01*
X108035541Y-126173652D01*
X108114850Y-126112795D01*
X108142881Y-126096611D01*
X108235240Y-126058355D01*
X108266501Y-126049978D01*
X108342041Y-126040033D01*
X108373742Y-126035860D01*
X108389927Y-126034799D01*
X113707673Y-126034799D01*
X113723858Y-126035860D01*
G37*
%TD.AperFunction*%
%TD*%
M02*
