%TF.GenerationSoftware,KiCad,Pcbnew,8.0.1*%
%TF.CreationDate,2026-02-07T08:36:38-06:00*%
%TF.ProjectId,SC-B001-V5,53432d42-3030-4312-9d56-352e6b696361,rev?*%
%TF.SameCoordinates,Original*%
%TF.FileFunction,Soldermask,Top*%
%TF.FilePolarity,Negative*%
%FSLAX46Y46*%
G04 Gerber Fmt 4.6, Leading zero omitted, Abs format (unit mm)*
G04 Created by KiCad (PCBNEW 8.0.1) date 2026-02-07 08:36:38*
%MOMM*%
%LPD*%
G01*
G04 APERTURE LIST*
G04 Aperture macros list*
%AMRoundRect*
0 Rectangle with rounded corners*
0 $1 Rounding radius*
0 $2 $3 $4 $5 $6 $7 $8 $9 X,Y pos of 4 corners*
0 Add a 4 corners polygon primitive as box body*
4,1,4,$2,$3,$4,$5,$6,$7,$8,$9,$2,$3,0*
0 Add four circle primitives for the rounded corners*
1,1,$1+$1,$2,$3*
1,1,$1+$1,$4,$5*
1,1,$1+$1,$6,$7*
1,1,$1+$1,$8,$9*
0 Add four rect primitives between the rounded corners*
20,1,$1+$1,$2,$3,$4,$5,0*
20,1,$1+$1,$4,$5,$6,$7,0*
20,1,$1+$1,$6,$7,$8,$9,0*
20,1,$1+$1,$8,$9,$2,$3,0*%
G04 Aperture macros list end*
%ADD10RoundRect,0.100000X0.637500X0.100000X-0.637500X0.100000X-0.637500X-0.100000X0.637500X-0.100000X0*%
%ADD11RoundRect,0.250000X-0.725000X0.600000X-0.725000X-0.600000X0.725000X-0.600000X0.725000X0.600000X0*%
%ADD12O,1.950000X1.700000*%
%ADD13RoundRect,0.250000X0.450000X-0.262500X0.450000X0.262500X-0.450000X0.262500X-0.450000X-0.262500X0*%
%ADD14C,2.304000*%
%ADD15RoundRect,0.250000X-0.450000X0.262500X-0.450000X-0.262500X0.450000X-0.262500X0.450000X0.262500X0*%
%ADD16C,3.204000*%
%ADD17C,4.704000*%
%ADD18RoundRect,0.102000X-3.800000X-2.250000X3.800000X-2.250000X3.800000X2.250000X-3.800000X2.250000X0*%
%ADD19RoundRect,0.102000X-2.250000X-3.800000X2.250000X-3.800000X2.250000X3.800000X-2.250000X3.800000X0*%
%ADD20RoundRect,0.250000X-1.000000X-0.650000X1.000000X-0.650000X1.000000X0.650000X-1.000000X0.650000X0*%
%ADD21RoundRect,0.102000X0.654000X0.654000X-0.654000X0.654000X-0.654000X-0.654000X0.654000X-0.654000X0*%
%ADD22C,1.512000*%
%ADD23C,2.100000*%
%ADD24C,1.750000*%
%ADD25RoundRect,0.250000X-0.262500X-0.450000X0.262500X-0.450000X0.262500X0.450000X-0.262500X0.450000X0*%
%ADD26RoundRect,0.225000X-0.225000X-0.250000X0.225000X-0.250000X0.225000X0.250000X-0.225000X0.250000X0*%
%ADD27RoundRect,0.250000X1.000000X0.650000X-1.000000X0.650000X-1.000000X-0.650000X1.000000X-0.650000X0*%
%ADD28RoundRect,0.225000X0.250000X-0.225000X0.250000X0.225000X-0.250000X0.225000X-0.250000X-0.225000X0*%
%ADD29RoundRect,0.250000X0.600000X0.725000X-0.600000X0.725000X-0.600000X-0.725000X0.600000X-0.725000X0*%
%ADD30O,1.700000X1.950000*%
%ADD31R,1.980000X1.150000*%
%ADD32R,0.500000X1.100000*%
%ADD33R,1.150000X0.430000*%
%ADD34R,0.400000X0.420000*%
%ADD35R,0.420000X0.400000*%
%ADD36RoundRect,0.150000X0.150000X-0.587500X0.150000X0.587500X-0.150000X0.587500X-0.150000X-0.587500X0*%
%ADD37RoundRect,0.102000X-1.080000X-0.535000X1.080000X-0.535000X1.080000X0.535000X-1.080000X0.535000X0*%
%ADD38RoundRect,0.102000X-2.540000X-4.165000X2.540000X-4.165000X2.540000X4.165000X-2.540000X4.165000X0*%
%ADD39RoundRect,0.102000X-0.955000X-5.400000X0.955000X-5.400000X0.955000X5.400000X-0.955000X5.400000X0*%
%ADD40RoundRect,0.250000X-1.000000X1.950000X-1.000000X-1.950000X1.000000X-1.950000X1.000000X1.950000X0*%
%ADD41RoundRect,0.250000X-0.250000X-0.475000X0.250000X-0.475000X0.250000X0.475000X-0.250000X0.475000X0*%
%ADD42C,1.462000*%
%ADD43C,2.454000*%
%ADD44C,11.000000*%
%ADD45R,0.475000X0.300000*%
%ADD46RoundRect,0.250000X-1.500000X-1.000000X1.500000X-1.000000X1.500000X1.000000X-1.500000X1.000000X0*%
%ADD47R,1.750000X0.700000*%
%ADD48R,1.000000X1.450000*%
%ADD49R,1.550000X1.000000*%
%ADD50R,1.500000X0.800000*%
%ADD51R,1.500000X1.300000*%
%ADD52R,1.500000X1.500000*%
%ADD53R,1.400000X0.800000*%
%ADD54RoundRect,0.250000X0.262500X0.450000X-0.262500X0.450000X-0.262500X-0.450000X0.262500X-0.450000X0*%
%ADD55R,2.000000X1.780000*%
%ADD56R,1.700000X1.700000*%
%ADD57O,1.700000X1.700000*%
%ADD58RoundRect,0.250000X-0.650000X1.000000X-0.650000X-1.000000X0.650000X-1.000000X0.650000X1.000000X0*%
%ADD59RoundRect,0.225000X-0.250000X0.225000X-0.250000X-0.225000X0.250000X-0.225000X0.250000X0.225000X0*%
%ADD60RoundRect,0.150000X-0.150000X0.587500X-0.150000X-0.587500X0.150000X-0.587500X0.150000X0.587500X0*%
%ADD61R,0.650000X1.528000*%
%ADD62R,3.022600X5.003800*%
%ADD63RoundRect,0.250000X0.475000X-0.250000X0.475000X0.250000X-0.475000X0.250000X-0.475000X-0.250000X0*%
%ADD64R,1.524000X1.524000*%
%ADD65C,1.524000*%
%ADD66RoundRect,0.102000X0.950000X-0.550000X0.950000X0.550000X-0.950000X0.550000X-0.950000X-0.550000X0*%
%ADD67RoundRect,0.225000X0.225000X0.250000X-0.225000X0.250000X-0.225000X-0.250000X0.225000X-0.250000X0*%
%ADD68R,1.500000X0.900000*%
%ADD69R,0.900000X1.500000*%
%ADD70C,0.762000*%
%ADD71R,4.200000X4.200000*%
%ADD72RoundRect,0.100500X-0.301500X0.986500X-0.301500X-0.986500X0.301500X-0.986500X0.301500X0.986500X0*%
%ADD73R,1.803400X1.066800*%
G04 APERTURE END LIST*
D10*
%TO.C,U11*%
X176667000Y-103864000D03*
X176667000Y-103214000D03*
X176667000Y-102564000D03*
X176667000Y-101914000D03*
X176667000Y-101264000D03*
X176667000Y-100614000D03*
X176667000Y-99964000D03*
X176667000Y-99314000D03*
X176667000Y-98664000D03*
X176667000Y-98014000D03*
X176667000Y-97364000D03*
X176667000Y-96714000D03*
X170942000Y-96714000D03*
X170942000Y-97364000D03*
X170942000Y-98014000D03*
X170942000Y-98664000D03*
X170942000Y-99314000D03*
X170942000Y-99964000D03*
X170942000Y-100614000D03*
X170942000Y-101264000D03*
X170942000Y-101914000D03*
X170942000Y-102564000D03*
X170942000Y-103214000D03*
X170942000Y-103864000D03*
%TD*%
D11*
%TO.C,J2*%
X172847000Y-120690000D03*
D12*
X172847000Y-123190000D03*
X172847000Y-125690000D03*
%TD*%
D13*
%TO.C,R13*%
X137922000Y-81684500D03*
X137922000Y-79859500D03*
%TD*%
D14*
%TO.C,JA3*%
X128828800Y-138480798D03*
X128828800Y-133400798D03*
%TD*%
D15*
%TO.C,R14*%
X137922000Y-75033500D03*
X137922000Y-76858500D03*
%TD*%
D14*
%TO.C,JA1*%
X50038000Y-95250000D03*
X50038000Y-100330000D03*
%TD*%
D13*
%TO.C,R22*%
X136906000Y-62380500D03*
X136906000Y-60555500D03*
%TD*%
D16*
%TO.C,KB1*%
X73558799Y-135450797D03*
X73558799Y-118650797D03*
D17*
X60258799Y-127050797D03*
D18*
X64058800Y-127050797D03*
D17*
X67858798Y-127050797D03*
X73958799Y-123250797D03*
D19*
X73958799Y-127050797D03*
D17*
X73958799Y-130850797D03*
X81958799Y-123250797D03*
D19*
X81958799Y-127050797D03*
D17*
X81958799Y-130850797D03*
%TD*%
D11*
%TO.C,J3*%
X177927000Y-120690000D03*
D12*
X177927000Y-123190000D03*
X177927000Y-125690000D03*
%TD*%
D20*
%TO.C,D3*%
X99066620Y-84316390D03*
X103066622Y-84316390D03*
%TD*%
D13*
%TO.C,R23*%
X134874000Y-62404000D03*
X134874000Y-60579000D03*
%TD*%
%TO.C,R24*%
X132842000Y-62380500D03*
X132842000Y-60555500D03*
%TD*%
D15*
%TO.C,R17*%
X184404000Y-76926440D03*
X184404000Y-78751440D03*
%TD*%
D21*
%TO.C,J5*%
X171228000Y-56134000D03*
D22*
X173228000Y-56134000D03*
X175228000Y-56134000D03*
X177228000Y-56134000D03*
X179228000Y-56134000D03*
%TD*%
D15*
%TO.C,R16*%
X186973000Y-76902940D03*
X186973000Y-78727940D03*
%TD*%
D23*
%TO.C,SW1*%
X189076801Y-95102360D03*
X189076800Y-102112360D03*
D24*
X191566800Y-96352360D03*
X191566800Y-100852361D03*
%TD*%
D25*
%TO.C,R19*%
X164545000Y-74549000D03*
X166370000Y-74549000D03*
%TD*%
D11*
%TO.C,J1*%
X167767000Y-120690000D03*
D12*
X167767000Y-123190000D03*
X167767000Y-125690000D03*
%TD*%
D26*
%TO.C,C6*%
X170929000Y-105410000D03*
X172479000Y-105410000D03*
%TD*%
D27*
%TO.C,D4*%
X136398000Y-100584000D03*
X132397998Y-100584000D03*
%TD*%
D28*
%TO.C,C4*%
X105924620Y-87898389D03*
X105924620Y-86348389D03*
%TD*%
D29*
%TO.C,J6*%
X174712000Y-85136000D03*
D30*
X172212000Y-85136000D03*
X169712000Y-85136000D03*
%TD*%
D31*
%TO.C,U9*%
X97248000Y-118563000D03*
X97248000Y-120333000D03*
D32*
X99458000Y-121248000D03*
D33*
X99988000Y-120208000D03*
X99988000Y-119448000D03*
X99988000Y-118688000D03*
D32*
X99458000Y-117648000D03*
D34*
X97558000Y-117348000D03*
D33*
X97183000Y-117773000D03*
D34*
X96808000Y-117348000D03*
D35*
X96048000Y-118188000D03*
X96048000Y-118938000D03*
X96048000Y-119958000D03*
X96048000Y-120708000D03*
D34*
X96808000Y-121548000D03*
D33*
X97183000Y-121123000D03*
D34*
X97558000Y-121548000D03*
%TD*%
D15*
%TO.C,R15*%
X189484000Y-76926440D03*
X189484000Y-78751440D03*
%TD*%
D36*
%TO.C,Q1*%
X109286001Y-93654611D03*
X111186001Y-93654611D03*
X110236001Y-91779610D03*
%TD*%
D37*
%TO.C,U1*%
X114994000Y-80124610D03*
X114994001Y-81824610D03*
X114994000Y-83524610D03*
X114994001Y-85224610D03*
X114994000Y-86924610D03*
D38*
X124714000Y-83524610D03*
D39*
X128209000Y-83524610D03*
%TD*%
D13*
%TO.C,R25*%
X130810000Y-62380500D03*
X130810000Y-60555500D03*
%TD*%
D16*
%TO.C,KA1*%
X73558799Y-106240797D03*
X73558799Y-89440797D03*
D17*
X60258799Y-97840797D03*
D18*
X64058800Y-97840797D03*
D17*
X67858798Y-97840797D03*
X73958799Y-94040797D03*
D19*
X73958799Y-97840797D03*
D17*
X73958799Y-101640797D03*
X81958799Y-94040797D03*
D19*
X81958799Y-97840797D03*
D17*
X81958799Y-101640797D03*
%TD*%
D40*
%TO.C,C1*%
X122604003Y-66624610D03*
X122604003Y-75024608D03*
%TD*%
D14*
%TO.C,JB3*%
X137718800Y-138480798D03*
X137718800Y-133400798D03*
%TD*%
D41*
%TO.C,C2*%
X145362801Y-104096797D03*
X147262799Y-104096797D03*
%TD*%
D25*
%TO.C,R9*%
X178308001Y-63373000D03*
X180133001Y-63373000D03*
%TD*%
D42*
%TO.C,KA3*%
X126453799Y-119990799D03*
X131203801Y-119990799D03*
D43*
X128828800Y-128320798D03*
X126453800Y-116060799D03*
X131203800Y-116060799D03*
%TD*%
D44*
%TO.C,REF\u002A\u002A*%
X50800000Y-50800000D03*
%TD*%
D45*
%TO.C,U2*%
X147345001Y-101880802D03*
X147345001Y-101380801D03*
X147345001Y-100880801D03*
X147345001Y-100380800D03*
X145669001Y-100380800D03*
X145669001Y-100880801D03*
X145669001Y-101380801D03*
X145669001Y-101880802D03*
%TD*%
D14*
%TO.C,J_GND2*%
X182880000Y-133858000D03*
X182880000Y-138938000D03*
%TD*%
%TO.C,JB2*%
X119938800Y-138480798D03*
X119938800Y-133400798D03*
%TD*%
D46*
%TO.C,C5*%
X96664002Y-90754198D03*
X103164002Y-90754198D03*
%TD*%
D13*
%TO.C,R5*%
X130810000Y-95043000D03*
X130810000Y-93218000D03*
%TD*%
D11*
%TO.C,J4*%
X183007000Y-120690000D03*
D12*
X183007000Y-123190000D03*
X183007000Y-125690000D03*
%TD*%
D42*
%TO.C,KC3*%
X144233799Y-119990797D03*
X148983801Y-119990797D03*
D43*
X146608800Y-128320796D03*
X144233800Y-116060797D03*
X148983800Y-116060797D03*
%TD*%
D14*
%TO.C,J_PV-1*%
X157276800Y-133527799D03*
X157276800Y-138607799D03*
%TD*%
D47*
%TO.C,J8*%
X128387000Y-52304000D03*
X128387000Y-53404000D03*
X128387000Y-54504000D03*
X128387000Y-55604000D03*
X128387000Y-56704000D03*
X128387000Y-57804000D03*
X128387000Y-58904000D03*
X128387000Y-60004000D03*
D48*
X119162000Y-61129000D03*
D49*
X117587000Y-49904000D03*
D50*
X120661999Y-61454000D03*
D51*
X128262000Y-61204000D03*
D52*
X128262000Y-49853999D03*
D53*
X120012000Y-49504000D03*
%TD*%
D54*
%TO.C,R27*%
X141120500Y-53086000D03*
X139295500Y-53086000D03*
%TD*%
D14*
%TO.C,J_GND3*%
X50038000Y-60960000D03*
X50038000Y-66040000D03*
%TD*%
D55*
%TO.C,U5*%
X140583971Y-73152000D03*
X140583971Y-75692000D03*
X140583971Y-78232000D03*
X140583971Y-80772000D03*
X150113971Y-80772000D03*
X150113971Y-78232000D03*
X150113971Y-75692000D03*
X150113971Y-73152000D03*
%TD*%
D23*
%TO.C,SW2*%
X189076801Y-82402360D03*
X189076800Y-89412360D03*
D24*
X191566800Y-83652360D03*
X191566800Y-88152361D03*
%TD*%
D13*
%TO.C,R1*%
X107956620Y-88035889D03*
X107956620Y-86210889D03*
%TD*%
D14*
%TO.C,J_GND4*%
X50038000Y-76200000D03*
X50038000Y-81280000D03*
%TD*%
D56*
%TO.C,J_RF1*%
X107950000Y-46990000D03*
D57*
X105410000Y-46990000D03*
X102870001Y-46990000D03*
X100330000Y-46990000D03*
%TD*%
D27*
%TO.C,D5*%
X136398000Y-104394000D03*
X132397998Y-104394000D03*
%TD*%
D56*
%TO.C,J7*%
X161163000Y-87249000D03*
D57*
X161163000Y-84709000D03*
X161163000Y-82169001D03*
X161163000Y-79629000D03*
X161163000Y-77089000D03*
X161163000Y-74549000D03*
X161163000Y-72009000D03*
%TD*%
D58*
%TO.C,D1*%
X133188002Y-68974196D03*
X133188002Y-72974198D03*
%TD*%
D15*
%TO.C,R3*%
X110276002Y-87913198D03*
X110276002Y-89738198D03*
%TD*%
D25*
%TO.C,R8*%
X178308000Y-65532000D03*
X180133000Y-65532000D03*
%TD*%
D55*
%TO.C,U6*%
X140523000Y-85090000D03*
X140523000Y-87630000D03*
X140523000Y-90170000D03*
X140523000Y-92710000D03*
X150053000Y-92710000D03*
X150053000Y-90170000D03*
X150053000Y-87630000D03*
X150053000Y-85090000D03*
%TD*%
D44*
%TO.C,REF\u002A\u002A*%
X186791600Y-111302799D03*
%TD*%
D59*
%TO.C,C14*%
X164592000Y-82791000D03*
X164592000Y-84341000D03*
%TD*%
D14*
%TO.C,J_BAT+1*%
X100583998Y-128524000D03*
X95503998Y-128524000D03*
%TD*%
D60*
%TO.C,Q2*%
X167259000Y-110363000D03*
X165359000Y-110363000D03*
X166309000Y-112238001D03*
%TD*%
D61*
%TO.C,U10*%
X173990000Y-72727000D03*
X172720000Y-72727000D03*
X171450000Y-72727000D03*
X170180000Y-72727000D03*
X170180000Y-78149000D03*
X171450000Y-78149000D03*
X172720000Y-78149000D03*
X173990000Y-78149000D03*
%TD*%
D25*
%TO.C,R18*%
X164545000Y-77089000D03*
X166370000Y-77089000D03*
%TD*%
D54*
%TO.C,R4*%
X135128000Y-97282000D03*
X133303000Y-97282000D03*
%TD*%
D14*
%TO.C,J_BAT-1*%
X98044000Y-138430000D03*
X98044000Y-133350000D03*
%TD*%
D15*
%TO.C,R11*%
X137922000Y-91797500D03*
X137922000Y-93622500D03*
%TD*%
D62*
%TO.C,L1*%
X100624001Y-75438000D03*
X110199803Y-75438000D03*
%TD*%
D63*
%TO.C,C12*%
X141351000Y-48381998D03*
X141351000Y-46482000D03*
%TD*%
D42*
%TO.C,KA2*%
X108673799Y-119990800D03*
X113423801Y-119990800D03*
D43*
X111048800Y-128320799D03*
X108673800Y-116060800D03*
X113423800Y-116060800D03*
%TD*%
D14*
%TO.C,JB1*%
X50038000Y-124460000D03*
X50038000Y-129540000D03*
%TD*%
D64*
%TO.C,LED1*%
X184454800Y-71932800D03*
D65*
X184454800Y-74472800D03*
X186994800Y-71932800D03*
X186994800Y-74472800D03*
X189534799Y-71932800D03*
X189534800Y-74472800D03*
%TD*%
D28*
%TO.C,C9*%
X102362000Y-119380000D03*
X102362000Y-117830000D03*
%TD*%
D13*
%TO.C,R2*%
X110242620Y-86244889D03*
X110242620Y-84419889D03*
%TD*%
D25*
%TO.C,R6*%
X148974801Y-101904795D03*
X150799801Y-101904795D03*
%TD*%
D66*
%TO.C,Y1*%
X143002000Y-57541897D03*
X143002000Y-55041899D03*
%TD*%
D14*
%TO.C,JA2*%
X111048800Y-138480797D03*
X111048800Y-133400797D03*
%TD*%
D67*
%TO.C,C11*%
X140843000Y-55041900D03*
X139293000Y-55041900D03*
%TD*%
D68*
%TO.C,U3*%
X146769400Y-46405900D03*
X146769400Y-47675900D03*
X146769400Y-48945900D03*
X146769400Y-50215900D03*
X146769400Y-51485900D03*
X146769400Y-52755900D03*
X146769400Y-54025900D03*
X146769400Y-55295900D03*
X146769400Y-56565900D03*
X146769400Y-57835900D03*
X146769400Y-59105900D03*
X146769400Y-60375900D03*
X146769400Y-61645900D03*
X146769400Y-62915900D03*
D69*
X149809400Y-64165900D03*
X151079399Y-64165900D03*
X152349400Y-64165900D03*
X153619401Y-64165900D03*
X154889400Y-64165900D03*
X156159400Y-64165900D03*
X157429399Y-64165900D03*
X158699400Y-64165900D03*
X159969400Y-64165900D03*
X161239400Y-64165900D03*
D68*
X164269400Y-62915900D03*
X164269400Y-61645900D03*
X164269400Y-60375900D03*
X164269400Y-59105900D03*
X164269400Y-57835900D03*
X164269400Y-56565900D03*
X164269400Y-55295900D03*
X164269400Y-54025900D03*
X164269400Y-52755900D03*
X164269400Y-51485900D03*
X164269400Y-50215900D03*
X164269400Y-48945900D03*
X164269400Y-47675900D03*
X164269400Y-46405900D03*
D70*
X153314400Y-52983399D03*
X153314400Y-54508400D03*
X154076899Y-52220900D03*
X154076900Y-53745900D03*
X154076900Y-55270900D03*
X154839399Y-52983400D03*
D71*
X154839400Y-53745900D03*
D70*
X154839400Y-54508400D03*
X155601900Y-52220900D03*
X155601900Y-53745900D03*
X155601900Y-55270900D03*
X156364400Y-52983400D03*
X156364400Y-54508400D03*
%TD*%
D25*
%TO.C,R7*%
X178308001Y-67691000D03*
X180133001Y-67691000D03*
%TD*%
D44*
%TO.C,REF\u002A\u002A*%
X186791600Y-50799999D03*
%TD*%
D27*
%TO.C,D2*%
X108432621Y-65786001D03*
X104432619Y-65786001D03*
%TD*%
D54*
%TO.C,R26*%
X141120500Y-51181000D03*
X139295500Y-51181000D03*
%TD*%
D15*
%TO.C,R21*%
X180594000Y-100941500D03*
X180594000Y-102766500D03*
%TD*%
D42*
%TO.C,KB2*%
X117563799Y-119990799D03*
X122313801Y-119990799D03*
D43*
X119938800Y-128320798D03*
X117563800Y-116060799D03*
X122313800Y-116060799D03*
%TD*%
D14*
%TO.C,J_PV+1*%
X159816799Y-128701798D03*
X154736799Y-128701798D03*
%TD*%
D54*
%TO.C,R10*%
X172997500Y-81026000D03*
X171172500Y-81026000D03*
%TD*%
D67*
%TO.C,C10*%
X140843000Y-57581900D03*
X139293000Y-57581900D03*
%TD*%
D42*
%TO.C,KB3*%
X135343799Y-119990799D03*
X140093801Y-119990799D03*
D43*
X137718800Y-128320798D03*
X135343800Y-116060799D03*
X140093800Y-116060799D03*
%TD*%
D15*
%TO.C,R12*%
X137922000Y-86717500D03*
X137922000Y-88542500D03*
%TD*%
D72*
%TO.C,U4*%
X161467800Y-108954799D03*
X160197800Y-108954799D03*
X158927800Y-108954799D03*
X157657800Y-108954799D03*
X156387800Y-108954799D03*
X155117800Y-108954799D03*
X153847800Y-108954799D03*
X152577800Y-108954799D03*
X152577800Y-113904799D03*
X153847800Y-113904799D03*
X155117800Y-113904799D03*
X156387800Y-113904799D03*
X157657800Y-113904799D03*
X158927800Y-113904799D03*
X160197800Y-113904799D03*
X161467800Y-113904799D03*
%TD*%
D67*
%TO.C,C13*%
X172860000Y-70866000D03*
X171310000Y-70866000D03*
%TD*%
D14*
%TO.C,J_GND1*%
X172720000Y-138938000D03*
X172720000Y-133858000D03*
%TD*%
D44*
%TO.C,REF\u002A\u002A*%
X50800000Y-111302800D03*
%TD*%
D73*
%TO.C,L2*%
X149402801Y-99821998D03*
X149402801Y-97967798D03*
%TD*%
D14*
%TO.C,J_BAT+2*%
X120523000Y-100203000D03*
X125603000Y-100203000D03*
%TD*%
D15*
%TO.C,R20*%
X184150000Y-100941500D03*
X184150000Y-102766500D03*
%TD*%
D14*
%TO.C,JC3*%
X146608800Y-138480797D03*
X146608800Y-133400797D03*
%TD*%
D63*
%TO.C,C3*%
X152146000Y-99755999D03*
X152146000Y-97856001D03*
%TD*%
M02*
