%TF.GenerationSoftware,KiCad,Pcbnew,8.0.1*%
%TF.CreationDate,2026-02-07T08:36:37-06:00*%
%TF.ProjectId,SC-B001-V5,53432d42-3030-4312-9d56-352e6b696361,rev?*%
%TF.SameCoordinates,Original*%
%TF.FileFunction,Copper,L2,Bot*%
%TF.FilePolarity,Positive*%
%FSLAX46Y46*%
G04 Gerber Fmt 4.6, Leading zero omitted, Abs format (unit mm)*
G04 Created by KiCad (PCBNEW 8.0.1) date 2026-02-07 08:36:37*
%MOMM*%
%LPD*%
G01*
G04 APERTURE LIST*
G04 Aperture macros list*
%AMRoundRect*
0 Rectangle with rounded corners*
0 $1 Rounding radius*
0 $2 $3 $4 $5 $6 $7 $8 $9 X,Y pos of 4 corners*
0 Add a 4 corners polygon primitive as box body*
4,1,4,$2,$3,$4,$5,$6,$7,$8,$9,$2,$3,0*
0 Add four circle primitives for the rounded corners*
1,1,$1+$1,$2,$3*
1,1,$1+$1,$4,$5*
1,1,$1+$1,$6,$7*
1,1,$1+$1,$8,$9*
0 Add four rect primitives between the rounded corners*
20,1,$1+$1,$2,$3,$4,$5,0*
20,1,$1+$1,$4,$5,$6,$7,0*
20,1,$1+$1,$6,$7,$8,$9,0*
20,1,$1+$1,$8,$9,$2,$3,0*%
G04 Aperture macros list end*
%TA.AperFunction,ComponentPad*%
%ADD10RoundRect,0.250000X-0.725000X0.600000X-0.725000X-0.600000X0.725000X-0.600000X0.725000X0.600000X0*%
%TD*%
%TA.AperFunction,ComponentPad*%
%ADD11O,1.950000X1.700000*%
%TD*%
%TA.AperFunction,ComponentPad*%
%ADD12C,2.100000*%
%TD*%
%TA.AperFunction,ComponentPad*%
%ADD13C,3.000000*%
%TD*%
%TA.AperFunction,ComponentPad*%
%ADD14C,4.500000*%
%TD*%
%TA.AperFunction,ComponentPad*%
%ADD15R,7.600000X4.500000*%
%TD*%
%TA.AperFunction,ComponentPad*%
%ADD16R,4.500000X7.600000*%
%TD*%
%TA.AperFunction,ComponentPad*%
%ADD17R,1.308000X1.308000*%
%TD*%
%TA.AperFunction,ComponentPad*%
%ADD18C,1.308000*%
%TD*%
%TA.AperFunction,ComponentPad*%
%ADD19C,1.750000*%
%TD*%
%TA.AperFunction,ComponentPad*%
%ADD20RoundRect,0.250000X0.600000X0.725000X-0.600000X0.725000X-0.600000X-0.725000X0.600000X-0.725000X0*%
%TD*%
%TA.AperFunction,ComponentPad*%
%ADD21O,1.700000X1.950000*%
%TD*%
%TA.AperFunction,ComponentPad*%
%ADD22C,1.258000*%
%TD*%
%TA.AperFunction,ComponentPad*%
%ADD23C,2.250000*%
%TD*%
%TA.AperFunction,ComponentPad*%
%ADD24C,11.000000*%
%TD*%
%TA.AperFunction,ComponentPad*%
%ADD25R,1.700000X1.700000*%
%TD*%
%TA.AperFunction,ComponentPad*%
%ADD26O,1.700000X1.700000*%
%TD*%
%TA.AperFunction,ComponentPad*%
%ADD27R,1.524000X1.524000*%
%TD*%
%TA.AperFunction,ComponentPad*%
%ADD28C,1.524000*%
%TD*%
%TA.AperFunction,HeatsinkPad*%
%ADD29C,0.762000*%
%TD*%
%TA.AperFunction,ViaPad*%
%ADD30C,0.762000*%
%TD*%
%TA.AperFunction,Conductor*%
%ADD31C,0.254000*%
%TD*%
%TA.AperFunction,Conductor*%
%ADD32C,1.270000*%
%TD*%
G04 APERTURE END LIST*
D10*
%TO.P,J2,1,Pin_1*%
%TO.N,GND_SENSORS*%
X172847000Y-120690000D03*
D11*
%TO.P,J2,2,Pin_2*%
%TO.N,Net-(J2-Pin_2)*%
X172847000Y-123190000D03*
%TO.P,J2,3,Pin_3*%
%TO.N,+12V*%
X172847000Y-125690000D03*
%TD*%
D12*
%TO.P,JA3,1,Pin_1*%
%TO.N,Net-(JA3-Pin_1)*%
X128828800Y-138480798D03*
X128828800Y-133400798D03*
%TD*%
%TO.P,JA1,1,Pin_1*%
%TO.N,Net-(JA1-Pin_1)*%
X50038000Y-95250000D03*
X50038000Y-100330000D03*
%TD*%
D13*
%TO.P,KB1,A1*%
%TO.N,+12V_RELAYS*%
X73558799Y-135450797D03*
%TO.P,KB1,A2*%
%TO.N,/Relays/RELAY_DRV_B1*%
X73558799Y-118650797D03*
D14*
%TO.P,KB1,COM*%
%TO.N,Net-(JB1-Pin_1)*%
X60258799Y-127050797D03*
D15*
X64058800Y-127050797D03*
D14*
X67858798Y-127050797D03*
%TO.P,KB1,NC*%
%TO.N,GND*%
X73958799Y-123250797D03*
D16*
X73958799Y-127050797D03*
D14*
X73958799Y-130850797D03*
%TO.P,KB1,NO*%
%TO.N,+VBAT*%
X81958799Y-123250797D03*
D16*
X81958799Y-127050797D03*
D14*
X81958799Y-130850797D03*
%TD*%
D10*
%TO.P,J3,1,Pin_1*%
%TO.N,GND_SENSORS*%
X177927000Y-120690000D03*
D11*
%TO.P,J3,2,Pin_2*%
%TO.N,Net-(J3-Pin_2)*%
X177927000Y-123190000D03*
%TO.P,J3,3,Pin_3*%
%TO.N,+12V*%
X177927000Y-125690000D03*
%TD*%
D17*
%TO.P,J5,1,Pin_1*%
%TO.N,+3.3V*%
X171228000Y-56134000D03*
D18*
%TO.P,J5,2,Pin_2*%
%TO.N,GND*%
X173228000Y-56134000D03*
%TO.P,J5,3,Pin_3*%
%TO.N,/I2C_SCL*%
X175228000Y-56134000D03*
%TO.P,J5,4,Pin_4*%
%TO.N,/I2C_SDA*%
X177228000Y-56134000D03*
%TO.P,J5,5,Pin_5*%
%TO.N,/I2C_INT*%
X179228000Y-56134000D03*
%TD*%
D12*
%TO.P,SW1,*%
%TO.N,*%
X189076801Y-95102360D03*
X189076800Y-102112360D03*
D19*
%TO.P,SW1,1,1*%
%TO.N,Net-(U11-P00)*%
X191566800Y-96352360D03*
%TO.P,SW1,2,2*%
%TO.N,GND*%
X191566800Y-100852361D03*
%TD*%
D10*
%TO.P,J1,1,Pin_1*%
%TO.N,GND_SENSORS*%
X167767000Y-120690000D03*
D11*
%TO.P,J1,2,Pin_2*%
%TO.N,Net-(J1-Pin_2)*%
X167767000Y-123190000D03*
%TO.P,J1,3,Pin_3*%
%TO.N,+12V*%
X167767000Y-125690000D03*
%TD*%
D20*
%TO.P,J6,1,Pin_1*%
%TO.N,GND*%
X174712000Y-85136000D03*
D21*
%TO.P,J6,2,Pin_2*%
%TO.N,Net-(J6-Pin_2)*%
X172212000Y-85136000D03*
%TO.P,J6,3,Pin_3*%
%TO.N,Net-(J6-Pin_3)*%
X169712000Y-85136000D03*
%TD*%
D13*
%TO.P,KA1,A1*%
%TO.N,+12V_RELAYS*%
X73558799Y-106240797D03*
%TO.P,KA1,A2*%
%TO.N,/Relays/RELAY_DRV_A1*%
X73558799Y-89440797D03*
D14*
%TO.P,KA1,COM*%
%TO.N,Net-(JA1-Pin_1)*%
X60258799Y-97840797D03*
D15*
X64058800Y-97840797D03*
D14*
X67858798Y-97840797D03*
%TO.P,KA1,NC*%
%TO.N,GND*%
X73958799Y-94040797D03*
D16*
X73958799Y-97840797D03*
D14*
X73958799Y-101640797D03*
%TO.P,KA1,NO*%
%TO.N,+VBAT*%
X81958799Y-94040797D03*
D16*
X81958799Y-97840797D03*
D14*
X81958799Y-101640797D03*
%TD*%
D12*
%TO.P,JB3,1,Pin_1*%
%TO.N,Net-(JB3-Pin_1)*%
X137718800Y-138480798D03*
X137718800Y-133400798D03*
%TD*%
D22*
%TO.P,KA3,A1*%
%TO.N,+12V_RELAYS*%
X126453799Y-119990799D03*
%TO.P,KA3,A2*%
%TO.N,/Relays/RELAY_DRV_A3*%
X131203801Y-119990799D03*
D23*
%TO.P,KA3,COM*%
%TO.N,Net-(JA3-Pin_1)*%
X128828800Y-128320798D03*
%TO.P,KA3,NC*%
%TO.N,GND*%
X126453800Y-116060799D03*
%TO.P,KA3,NO*%
%TO.N,+VBAT*%
X131203800Y-116060799D03*
%TD*%
D24*
%TO.P,REF\u002A\u002A,1*%
%TO.N,N/C*%
X50800000Y-50800000D03*
%TD*%
D12*
%TO.P,J_GND2,1,Pin_1*%
%TO.N,GND*%
X182880000Y-133858000D03*
X182880000Y-138938000D03*
%TD*%
%TO.P,JB2,1,Pin_1*%
%TO.N,Net-(JB2-Pin_1)*%
X119938800Y-138480798D03*
X119938800Y-133400798D03*
%TD*%
D10*
%TO.P,J4,1,Pin_1*%
%TO.N,GND_SENSORS*%
X183007000Y-120690000D03*
D11*
%TO.P,J4,2,Pin_2*%
%TO.N,Net-(J4-Pin_2)*%
X183007000Y-123190000D03*
%TO.P,J4,3,Pin_3*%
%TO.N,+12V*%
X183007000Y-125690000D03*
%TD*%
D22*
%TO.P,KC3,A1*%
%TO.N,+12V_RELAYS*%
X144233799Y-119990797D03*
%TO.P,KC3,A2*%
%TO.N,/Relays/RELAY_DRV_C3*%
X148983801Y-119990797D03*
D23*
%TO.P,KC3,COM*%
%TO.N,Net-(JC3-Pin_1)*%
X146608800Y-128320796D03*
%TO.P,KC3,NC*%
%TO.N,GND*%
X144233800Y-116060797D03*
%TO.P,KC3,NO*%
%TO.N,+VBAT*%
X148983800Y-116060797D03*
%TD*%
D12*
%TO.P,J_PV-1,1,Pin_1*%
%TO.N,GND*%
X157276800Y-133527799D03*
X157276800Y-138607799D03*
%TD*%
%TO.P,J_GND3,1,Pin_1*%
%TO.N,GND*%
X50038000Y-60960000D03*
X50038000Y-66040000D03*
%TD*%
%TO.P,SW2,*%
%TO.N,*%
X189076801Y-82402360D03*
X189076800Y-89412360D03*
D19*
%TO.P,SW2,1,1*%
%TO.N,Net-(U11-P01)*%
X191566800Y-83652360D03*
%TO.P,SW2,2,2*%
%TO.N,GND*%
X191566800Y-88152361D03*
%TD*%
D12*
%TO.P,J_GND4,1,Pin_1*%
%TO.N,GND*%
X50038000Y-76200000D03*
X50038000Y-81280000D03*
%TD*%
D25*
%TO.P,J_RF1,1,Pin_1*%
%TO.N,GND*%
X107950000Y-46990000D03*
D26*
%TO.P,J_RF1,2,Pin_2*%
%TO.N,/S_433_MHZ*%
X105410000Y-46990000D03*
%TO.P,J_RF1,3,Pin_3*%
X102870001Y-46990000D03*
%TO.P,J_RF1,4,Pin_4*%
%TO.N,+3.3V*%
X100330000Y-46990000D03*
%TD*%
D25*
%TO.P,J7,1,Pin_1*%
%TO.N,GND*%
X161163000Y-87249000D03*
D26*
%TO.P,J7,2,Pin_2*%
%TO.N,unconnected-(J7-Pin_2-Pad2)*%
X161163000Y-84709000D03*
%TO.P,J7,3,Pin_3*%
%TO.N,/U0TXD*%
X161163000Y-82169001D03*
%TO.P,J7,4,Pin_4*%
%TO.N,+3.3V*%
X161163000Y-79629000D03*
%TO.P,J7,5,Pin_5*%
%TO.N,/U0EN*%
X161163000Y-77089000D03*
%TO.P,J7,6,Pin_6*%
%TO.N,/U0~BOOT*%
X161163000Y-74549000D03*
%TO.P,J7,7,Pin_7*%
%TO.N,/U0RXD*%
X161163000Y-72009000D03*
%TD*%
D24*
%TO.P,REF\u002A\u002A,1*%
%TO.N,N/C*%
X186791600Y-111302799D03*
%TD*%
D12*
%TO.P,J_BAT+1,1,Pin_1*%
%TO.N,+VBAT_IN*%
X100583998Y-128524000D03*
X95503998Y-128524000D03*
%TD*%
%TO.P,J_BAT-1,1,Pin_1*%
%TO.N,GND*%
X98044000Y-138430000D03*
X98044000Y-133350000D03*
%TD*%
D22*
%TO.P,KA2,A1*%
%TO.N,+12V_RELAYS*%
X108673799Y-119990800D03*
%TO.P,KA2,A2*%
%TO.N,/Relays/RELAY_DRV_A2*%
X113423801Y-119990800D03*
D23*
%TO.P,KA2,COM*%
%TO.N,Net-(JA2-Pin_1)*%
X111048800Y-128320799D03*
%TO.P,KA2,NC*%
%TO.N,GND*%
X108673800Y-116060800D03*
%TO.P,KA2,NO*%
%TO.N,+VBAT*%
X113423800Y-116060800D03*
%TD*%
D12*
%TO.P,JB1,1,Pin_1*%
%TO.N,Net-(JB1-Pin_1)*%
X50038000Y-124460000D03*
X50038000Y-129540000D03*
%TD*%
D27*
%TO.P,LED1,1,1*%
%TO.N,GND*%
X184454800Y-71932800D03*
D28*
%TO.P,LED1,2,2*%
%TO.N,Net-(LED1-Pad2)*%
X184454800Y-74472800D03*
%TO.P,LED1,3,3*%
%TO.N,GND*%
X186994800Y-71932800D03*
%TO.P,LED1,4,4*%
%TO.N,Net-(LED1-Pad4)*%
X186994800Y-74472800D03*
%TO.P,LED1,5,5*%
%TO.N,GND*%
X189534799Y-71932800D03*
%TO.P,LED1,6,6*%
%TO.N,Net-(LED1-Pad6)*%
X189534800Y-74472800D03*
%TD*%
D12*
%TO.P,JA2,1,Pin_1*%
%TO.N,Net-(JA2-Pin_1)*%
X111048800Y-138480797D03*
X111048800Y-133400797D03*
%TD*%
D29*
%TO.P,U3,39,GND*%
%TO.N,GND*%
X153314400Y-52983399D03*
X153314400Y-54508400D03*
X154076899Y-52220900D03*
X154076900Y-53745900D03*
X154076900Y-55270900D03*
X154839399Y-52983400D03*
X154839400Y-54508400D03*
X155601900Y-52220900D03*
X155601900Y-53745900D03*
X155601900Y-55270900D03*
X156364400Y-52983400D03*
X156364400Y-54508400D03*
%TD*%
D24*
%TO.P,REF\u002A\u002A,1*%
%TO.N,N/C*%
X186791600Y-50799999D03*
%TD*%
D22*
%TO.P,KB2,A1*%
%TO.N,+12V_RELAYS*%
X117563799Y-119990799D03*
%TO.P,KB2,A2*%
%TO.N,/Relays/RELAY_DRV_B2*%
X122313801Y-119990799D03*
D23*
%TO.P,KB2,COM*%
%TO.N,Net-(JB2-Pin_1)*%
X119938800Y-128320798D03*
%TO.P,KB2,NC*%
%TO.N,GND*%
X117563800Y-116060799D03*
%TO.P,KB2,NO*%
%TO.N,+VBAT*%
X122313800Y-116060799D03*
%TD*%
D12*
%TO.P,J_PV+1,1,Pin_1*%
%TO.N,Net-(D1-A)*%
X159816799Y-128701798D03*
X154736799Y-128701798D03*
%TD*%
D22*
%TO.P,KB3,A1*%
%TO.N,+12V_RELAYS*%
X135343799Y-119990799D03*
%TO.P,KB3,A2*%
%TO.N,/Relays/RELAY_DRV_B3*%
X140093801Y-119990799D03*
D23*
%TO.P,KB3,COM*%
%TO.N,Net-(JB3-Pin_1)*%
X137718800Y-128320798D03*
%TO.P,KB3,NC*%
%TO.N,GND*%
X135343800Y-116060799D03*
%TO.P,KB3,NO*%
%TO.N,+VBAT*%
X140093800Y-116060799D03*
%TD*%
D12*
%TO.P,J_GND1,1,Pin_1*%
%TO.N,GND*%
X172720000Y-138938000D03*
X172720000Y-133858000D03*
%TD*%
D24*
%TO.P,REF\u002A\u002A,1*%
%TO.N,N/C*%
X50800000Y-111302800D03*
%TD*%
D12*
%TO.P,J_BAT+2,1,Pin_1*%
%TO.N,+VBAT_2*%
X120523000Y-100203000D03*
X125603000Y-100203000D03*
%TD*%
%TO.P,JC3,1,Pin_1*%
%TO.N,Net-(JC3-Pin_1)*%
X146608800Y-138480797D03*
X146608800Y-133400797D03*
%TD*%
D30*
%TO.N,GND*%
X129834002Y-81864197D03*
X144272000Y-46482000D03*
X172847000Y-68453000D03*
X129834002Y-79578198D03*
X152146000Y-80264000D03*
X129834002Y-86436199D03*
X129834002Y-84912197D03*
X165354000Y-107823000D03*
X167386001Y-46355001D03*
X175133000Y-105410000D03*
X139293000Y-56261000D03*
X130048000Y-58039000D03*
X152273000Y-88265000D03*
X129834002Y-78816199D03*
X172847000Y-69469000D03*
X129834002Y-87198199D03*
X166624002Y-46355001D03*
X144830800Y-100380799D03*
X152273000Y-87249000D03*
X129834002Y-80340198D03*
X129834002Y-85674198D03*
X129834002Y-81102199D03*
X173990000Y-105410000D03*
X165354000Y-106934000D03*
X152577800Y-107061000D03*
X103632000Y-119380000D03*
X129834002Y-88722198D03*
X142748000Y-46482000D03*
X129834002Y-84150197D03*
X152146000Y-81407000D03*
X143510001Y-46482000D03*
X129834002Y-78054197D03*
X152273000Y-92329000D03*
X146989800Y-102920800D03*
X129834002Y-87960197D03*
X152146000Y-75184000D03*
X152577800Y-106045000D03*
X165354000Y-108712000D03*
X149809400Y-66802000D03*
X149809400Y-65913000D03*
X145033999Y-46481999D03*
X152196801Y-100888797D03*
X129834002Y-83388198D03*
X147751800Y-102920800D03*
X152273000Y-93345000D03*
X152196800Y-101904799D03*
X129834002Y-82626198D03*
X168148000Y-46355000D03*
X117856000Y-61341000D03*
X152146000Y-76327000D03*
X165862001Y-46355001D03*
%TO.N,+3.3V*%
X103632000Y-117856000D03*
%TO.N,/I2C_INT*%
X161798000Y-52705000D03*
%TO.N,Net-(J2-Pin_2)*%
X137922000Y-89916000D03*
%TO.N,Net-(J3-Pin_2)*%
X137922000Y-83312000D03*
%TO.N,Net-(D1-A)*%
X133096000Y-92837000D03*
X133096000Y-93472000D03*
X133096000Y-92202000D03*
%TO.N,V_ISENS1*%
X143764000Y-51562000D03*
X101219000Y-118618000D03*
%TO.N,V_SENS_BAT*%
X106172000Y-97028000D03*
X144399000Y-52374800D03*
%TO.N,/S_433_MHZ*%
X145161000Y-57912000D03*
%TO.N,/U0TXD*%
X166751000Y-50292000D03*
%TO.N,/U0RXD*%
X165735000Y-51435000D03*
%TO.N,BULK_CHARGE_EN*%
X145034000Y-59055000D03*
X107915002Y-93802198D03*
%TO.N,SD_CLK*%
X132334000Y-59055000D03*
X164929800Y-63899302D03*
%TO.N,SD_MOSI*%
X133731000Y-59055000D03*
X165862000Y-57912000D03*
%TO.N,Net-(J4-Pin_2)*%
X137922000Y-78232000D03*
%TO.N,Net-(J1-Pin_2)*%
X137928925Y-95086651D03*
%TO.N,SENSORS_EN*%
X167386000Y-96748600D03*
X167386000Y-101981000D03*
%TO.N,SD_CS*%
X152679403Y-60807597D03*
X135509000Y-59055000D03*
%TO.N,SD_MISO*%
X159893000Y-65913000D03*
X130810000Y-59088001D03*
%TO.N,V_ISENS_VOC*%
X142367000Y-50038000D03*
X101219000Y-121285000D03*
%TO.N,V_ISENS_FAULT*%
X143002000Y-50800000D03*
X101219000Y-120142000D03*
%TD*%
D31*
%TO.N,+3.3V*%
X91567000Y-56515000D02*
X100330000Y-47752000D01*
X91567000Y-112776000D02*
X91567000Y-56515000D01*
X103632000Y-117856000D02*
X103632000Y-118237000D01*
X102362000Y-121285000D02*
X101600000Y-122047000D01*
X101600000Y-122047000D02*
X100838000Y-122047000D01*
X100838000Y-122047000D02*
X91567000Y-112776000D01*
X100330000Y-47752000D02*
X100330000Y-46990000D01*
X103632000Y-118237000D02*
X102362000Y-119507000D01*
X102362000Y-119507000D02*
X102362000Y-121285000D01*
%TO.N,/I2C_INT*%
X165227000Y-49276000D02*
X172370000Y-49276000D01*
X172370000Y-49276000D02*
X179228000Y-56134000D01*
X161798000Y-52705000D02*
X165227000Y-49276000D01*
%TO.N,Net-(J2-Pin_2)*%
X139700000Y-91694000D02*
X137922000Y-89916000D01*
X172847000Y-123190000D02*
X168275000Y-118618000D01*
X168275000Y-118618000D02*
X160086736Y-118618000D01*
X160086736Y-118618000D02*
X139700000Y-98231264D01*
X139700000Y-98231264D02*
X139700000Y-91694000D01*
%TO.N,Net-(J3-Pin_2)*%
X177927000Y-123190000D02*
X172948600Y-118211600D01*
X160255072Y-118211600D02*
X140208000Y-98164528D01*
X140208000Y-98164528D02*
X140208000Y-85598000D01*
X140208000Y-85598000D02*
X137922000Y-83312000D01*
X172948600Y-118211600D02*
X160255072Y-118211600D01*
D32*
%TO.N,Net-(D1-A)*%
X154736799Y-123621798D02*
X159816799Y-128701798D01*
X154736799Y-115366799D02*
X133061002Y-93691002D01*
X133061002Y-93691002D02*
X133061002Y-92236998D01*
X154736799Y-119938799D02*
X154736799Y-123621798D01*
X154736799Y-128701798D02*
X154736799Y-115366799D01*
X133061002Y-92236998D02*
X133096000Y-92202000D01*
D31*
%TO.N,V_ISENS1*%
X101219000Y-118618000D02*
X100965000Y-118618000D01*
X100330000Y-51562000D02*
X143764000Y-51562000D01*
X100965000Y-118618000D02*
X94234000Y-111887000D01*
X94234000Y-57658000D02*
X100330000Y-51562000D01*
X94234000Y-111887000D02*
X94234000Y-57658000D01*
%TO.N,V_SENS_BAT*%
X95123000Y-96139000D02*
X95123000Y-58166000D01*
X95123000Y-58166000D02*
X100914200Y-52374800D01*
X96012000Y-97028000D02*
X95123000Y-96139000D01*
X106172000Y-97028000D02*
X96012000Y-97028000D01*
X100914200Y-52374800D02*
X144399000Y-52374800D01*
%TO.N,/S_433_MHZ*%
X145161000Y-51877727D02*
X142559273Y-49276000D01*
X107696000Y-49276000D02*
X105410000Y-46990000D01*
X105410000Y-46990000D02*
X102870001Y-46990000D01*
X145161000Y-57912000D02*
X145161000Y-51877727D01*
X142559273Y-49276000D02*
X107696000Y-49276000D01*
%TO.N,/U0TXD*%
X169926000Y-73406001D02*
X161163000Y-82169001D01*
X169926000Y-53467000D02*
X169926000Y-73406001D01*
X166751000Y-50292000D02*
X169926000Y-53467000D01*
%TO.N,/U0RXD*%
X161163000Y-72009000D02*
X163703000Y-72009000D01*
X168910000Y-54610000D02*
X165735000Y-51435000D01*
X168910000Y-66802000D02*
X168910000Y-54610000D01*
X163703000Y-72009000D02*
X168910000Y-66802000D01*
%TO.N,BULK_CHARGE_EN*%
X96012000Y-58547000D02*
X101346000Y-53213000D01*
X96012000Y-93726000D02*
X96012000Y-58547000D01*
X107915002Y-93802198D02*
X96088198Y-93802198D01*
X139192000Y-53213000D02*
X145034000Y-59055000D01*
X96088198Y-93802198D02*
X96012000Y-93726000D01*
X101346000Y-53213000D02*
X139192000Y-53213000D01*
%TO.N,SD_CLK*%
X163728403Y-62636403D02*
X164929800Y-63837800D01*
X132334000Y-59055000D02*
X135915403Y-62636403D01*
X135915403Y-62636403D02*
X163728403Y-62636403D01*
X164929800Y-63837800D02*
X164929800Y-63899302D01*
%TO.N,SD_MOSI*%
X165862000Y-57912000D02*
X165862000Y-58240394D01*
X136398000Y-61722000D02*
X133731000Y-59055000D01*
X162380394Y-61722000D02*
X136398000Y-61722000D01*
X165862000Y-58240394D02*
X162380394Y-61722000D01*
%TO.N,Net-(J4-Pin_2)*%
X140716000Y-98097792D02*
X140716000Y-81026000D01*
X177622200Y-117805200D02*
X160423408Y-117805200D01*
X160423408Y-117805200D02*
X140716000Y-98097792D01*
X183007000Y-123190000D02*
X177622200Y-117805200D01*
X140716000Y-81026000D02*
X137922000Y-78232000D01*
%TO.N,Net-(J1-Pin_2)*%
X138049000Y-95123000D02*
X138049000Y-97155000D01*
X164084000Y-123190000D02*
X167767000Y-123190000D01*
X138049000Y-97155000D02*
X164084000Y-123190000D01*
%TO.N,SENSORS_EN*%
X167386000Y-96748600D02*
X167386000Y-101981000D01*
%TO.N,SD_CS*%
X135509000Y-59055000D02*
X137261597Y-60807597D01*
X137261597Y-60807597D02*
X152679403Y-60807597D01*
%TO.N,SD_MISO*%
X135305806Y-63550806D02*
X157530806Y-63550806D01*
X157530806Y-63550806D02*
X159893000Y-65913000D01*
X130843001Y-59088001D02*
X135305806Y-63550806D01*
X130810000Y-59088001D02*
X130843001Y-59088001D01*
%TO.N,V_ISENS_VOC*%
X92456000Y-56896000D02*
X92456000Y-112522000D01*
X99314000Y-50038000D02*
X92456000Y-56896000D01*
X142367000Y-50038000D02*
X99314000Y-50038000D01*
X92456000Y-112522000D02*
X101219000Y-121285000D01*
%TO.N,V_ISENS_FAULT*%
X93345000Y-57277000D02*
X99822000Y-50800000D01*
X101219000Y-120142000D02*
X93345000Y-112268000D01*
X93345000Y-112268000D02*
X93345000Y-57277000D01*
X99822000Y-50800000D02*
X143002000Y-50800000D01*
%TD*%
%TA.AperFunction,Conductor*%
%TO.N,Net-(JA3-Pin_1)*%
G36*
X131503858Y-126035860D02*
G01*
X131550063Y-126041943D01*
X131611096Y-126049978D01*
X131642361Y-126058355D01*
X131734715Y-126096609D01*
X131762749Y-126112795D01*
X131842058Y-126173652D01*
X131864946Y-126196540D01*
X131925803Y-126275849D01*
X131941989Y-126303884D01*
X131980242Y-126396236D01*
X131988620Y-126427502D01*
X132002739Y-126534740D01*
X132003800Y-126550926D01*
X132003800Y-140758672D01*
X132002739Y-140774858D01*
X131988620Y-140882096D01*
X131980242Y-140913362D01*
X131941989Y-141005714D01*
X131925803Y-141033749D01*
X131864946Y-141113058D01*
X131842058Y-141135946D01*
X131762749Y-141196803D01*
X131734714Y-141212989D01*
X131642362Y-141251242D01*
X131611096Y-141259620D01*
X131503859Y-141273739D01*
X131487673Y-141274800D01*
X126169927Y-141274800D01*
X126153741Y-141273739D01*
X126046503Y-141259620D01*
X126015237Y-141251242D01*
X125922885Y-141212989D01*
X125894850Y-141196803D01*
X125815541Y-141135946D01*
X125792653Y-141113058D01*
X125731796Y-141033749D01*
X125715610Y-141005714D01*
X125677357Y-140913362D01*
X125668979Y-140882095D01*
X125654861Y-140774857D01*
X125653800Y-140758672D01*
X125653800Y-126550926D01*
X125654861Y-126534741D01*
X125668979Y-126427503D01*
X125677356Y-126396239D01*
X125715612Y-126303880D01*
X125731796Y-126275849D01*
X125792653Y-126196540D01*
X125815541Y-126173652D01*
X125894850Y-126112795D01*
X125922881Y-126096611D01*
X126015240Y-126058355D01*
X126046501Y-126049978D01*
X126122041Y-126040033D01*
X126153742Y-126035860D01*
X126169927Y-126034799D01*
X131487673Y-126034799D01*
X131503858Y-126035860D01*
G37*
%TD.AperFunction*%
%TD*%
%TA.AperFunction,Conductor*%
%TO.N,Net-(JB3-Pin_1)*%
G36*
X140393858Y-126035860D02*
G01*
X140440063Y-126041943D01*
X140501096Y-126049978D01*
X140532361Y-126058355D01*
X140624715Y-126096609D01*
X140652749Y-126112795D01*
X140732058Y-126173652D01*
X140754946Y-126196540D01*
X140815803Y-126275849D01*
X140831989Y-126303884D01*
X140870242Y-126396236D01*
X140878620Y-126427502D01*
X140892739Y-126534740D01*
X140893800Y-126550926D01*
X140893800Y-140758671D01*
X140892739Y-140774857D01*
X140878620Y-140882095D01*
X140870242Y-140913361D01*
X140831989Y-141005713D01*
X140815803Y-141033748D01*
X140754946Y-141113057D01*
X140732058Y-141135945D01*
X140652749Y-141196802D01*
X140624714Y-141212988D01*
X140532362Y-141251241D01*
X140501096Y-141259619D01*
X140393859Y-141273738D01*
X140377673Y-141274799D01*
X135059927Y-141274799D01*
X135043741Y-141273738D01*
X134936503Y-141259619D01*
X134905237Y-141251241D01*
X134812885Y-141212988D01*
X134784850Y-141196802D01*
X134705541Y-141135945D01*
X134682653Y-141113057D01*
X134621796Y-141033748D01*
X134605610Y-141005713D01*
X134567357Y-140913361D01*
X134558979Y-140882094D01*
X134544861Y-140774856D01*
X134543800Y-140758671D01*
X134543800Y-126550926D01*
X134544861Y-126534741D01*
X134558979Y-126427503D01*
X134567356Y-126396239D01*
X134605612Y-126303880D01*
X134621796Y-126275849D01*
X134682653Y-126196540D01*
X134705541Y-126173652D01*
X134784850Y-126112795D01*
X134812881Y-126096611D01*
X134905240Y-126058355D01*
X134936501Y-126049978D01*
X135012041Y-126040033D01*
X135043742Y-126035860D01*
X135059927Y-126034799D01*
X140377673Y-126034799D01*
X140393858Y-126035860D01*
G37*
%TD.AperFunction*%
%TD*%
%TA.AperFunction,Conductor*%
%TO.N,Net-(JB1-Pin_1)*%
G36*
X69756444Y-122225859D02*
G01*
X69863698Y-122239979D01*
X69894961Y-122248356D01*
X69987315Y-122286610D01*
X70015349Y-122302796D01*
X70094658Y-122363653D01*
X70117546Y-122386541D01*
X70178403Y-122465850D01*
X70194589Y-122493885D01*
X70232842Y-122586237D01*
X70241220Y-122617503D01*
X70255339Y-122724741D01*
X70256400Y-122740927D01*
X70256400Y-131868671D01*
X70255339Y-131884857D01*
X70241220Y-131992095D01*
X70232842Y-132023361D01*
X70194589Y-132115713D01*
X70178403Y-132143748D01*
X70117546Y-132223057D01*
X70094658Y-132245945D01*
X70015349Y-132306802D01*
X69987314Y-132322988D01*
X69894962Y-132361241D01*
X69863696Y-132369619D01*
X69756459Y-132383738D01*
X69740273Y-132384799D01*
X48191927Y-132384799D01*
X48175741Y-132383738D01*
X48068503Y-132369619D01*
X48037237Y-132361241D01*
X47944885Y-132322988D01*
X47916850Y-132306802D01*
X47837541Y-132245945D01*
X47814653Y-132223057D01*
X47753796Y-132143748D01*
X47737610Y-132115713D01*
X47699357Y-132023361D01*
X47690979Y-131992094D01*
X47676861Y-131884856D01*
X47675800Y-131868671D01*
X47675800Y-122740926D01*
X47676861Y-122724741D01*
X47690979Y-122617503D01*
X47699357Y-122586237D01*
X47737612Y-122493880D01*
X47753796Y-122465849D01*
X47814653Y-122386540D01*
X47837541Y-122363652D01*
X47916850Y-122302795D01*
X47944881Y-122286611D01*
X48037240Y-122248355D01*
X48068501Y-122239978D01*
X48125343Y-122232494D01*
X48175742Y-122225860D01*
X48191927Y-122224799D01*
X58966100Y-122224799D01*
X69740287Y-122224799D01*
X69756444Y-122225859D01*
G37*
%TD.AperFunction*%
%TD*%
%TA.AperFunction,Conductor*%
%TO.N,Net-(JA1-Pin_1)*%
G36*
X69780596Y-92507862D02*
G01*
X69888002Y-92522026D01*
X69919313Y-92530429D01*
X70011796Y-92568804D01*
X70039856Y-92585036D01*
X70119226Y-92646071D01*
X70142121Y-92669023D01*
X70202956Y-92748545D01*
X70219120Y-92776650D01*
X70257263Y-92869225D01*
X70265589Y-92900560D01*
X70279482Y-93007993D01*
X70280506Y-93024206D01*
X70257687Y-102151955D01*
X70256589Y-102168112D01*
X70242248Y-102275146D01*
X70233818Y-102306347D01*
X70195450Y-102398485D01*
X70179244Y-102426447D01*
X70118368Y-102505543D01*
X70095486Y-102528367D01*
X70016244Y-102589041D01*
X69988241Y-102605178D01*
X69896006Y-102643315D01*
X69864786Y-102651666D01*
X69757711Y-102665741D01*
X69741550Y-102666799D01*
X48191927Y-102666799D01*
X48175741Y-102665738D01*
X48068503Y-102651619D01*
X48037237Y-102643241D01*
X47944885Y-102604988D01*
X47916850Y-102588802D01*
X47837541Y-102527945D01*
X47814653Y-102505057D01*
X47753796Y-102425748D01*
X47737610Y-102397713D01*
X47699765Y-102306347D01*
X47699356Y-102305360D01*
X47690979Y-102274094D01*
X47676861Y-102166856D01*
X47675800Y-102150671D01*
X47675800Y-93022926D01*
X47676861Y-93006741D01*
X47690979Y-92899503D01*
X47699356Y-92868239D01*
X47737612Y-92775880D01*
X47753796Y-92747849D01*
X47814653Y-92668540D01*
X47837541Y-92645652D01*
X47916850Y-92584795D01*
X47944881Y-92568611D01*
X48037240Y-92530355D01*
X48068501Y-92521978D01*
X48144041Y-92512033D01*
X48175742Y-92507860D01*
X48191927Y-92506799D01*
X69764386Y-92506799D01*
X69780596Y-92507862D01*
G37*
%TD.AperFunction*%
%TD*%
%TA.AperFunction,Conductor*%
%TO.N,Net-(JC3-Pin_1)*%
G36*
X149283858Y-126035860D02*
G01*
X149330063Y-126041943D01*
X149391096Y-126049978D01*
X149422361Y-126058355D01*
X149514715Y-126096609D01*
X149542749Y-126112795D01*
X149622058Y-126173652D01*
X149644946Y-126196540D01*
X149705803Y-126275849D01*
X149721989Y-126303884D01*
X149760242Y-126396236D01*
X149768620Y-126427502D01*
X149782739Y-126534740D01*
X149783800Y-126550926D01*
X149783800Y-140758671D01*
X149782739Y-140774857D01*
X149768620Y-140882095D01*
X149760242Y-140913361D01*
X149721989Y-141005713D01*
X149705803Y-141033748D01*
X149644946Y-141113057D01*
X149622058Y-141135945D01*
X149542749Y-141196802D01*
X149514714Y-141212988D01*
X149422362Y-141251241D01*
X149391096Y-141259619D01*
X149283859Y-141273738D01*
X149267673Y-141274799D01*
X143949927Y-141274799D01*
X143933741Y-141273738D01*
X143826503Y-141259619D01*
X143795237Y-141251241D01*
X143702885Y-141212988D01*
X143674850Y-141196802D01*
X143595541Y-141135945D01*
X143572653Y-141113057D01*
X143511796Y-141033748D01*
X143495610Y-141005713D01*
X143457357Y-140913361D01*
X143448979Y-140882094D01*
X143434861Y-140774856D01*
X143433800Y-140758671D01*
X143433800Y-126550926D01*
X143434861Y-126534741D01*
X143448979Y-126427503D01*
X143457356Y-126396239D01*
X143495612Y-126303880D01*
X143511796Y-126275849D01*
X143572653Y-126196540D01*
X143595541Y-126173652D01*
X143674850Y-126112795D01*
X143702881Y-126096611D01*
X143795240Y-126058355D01*
X143826501Y-126049978D01*
X143902041Y-126040033D01*
X143933742Y-126035860D01*
X143949927Y-126034799D01*
X149267673Y-126034799D01*
X149283858Y-126035860D01*
G37*
%TD.AperFunction*%
%TD*%
%TA.AperFunction,Conductor*%
%TO.N,Net-(JB2-Pin_1)*%
G36*
X122613858Y-126035860D02*
G01*
X122660063Y-126041943D01*
X122721096Y-126049978D01*
X122752361Y-126058355D01*
X122844715Y-126096609D01*
X122872749Y-126112795D01*
X122952058Y-126173652D01*
X122974946Y-126196540D01*
X123035803Y-126275849D01*
X123051989Y-126303884D01*
X123090242Y-126396236D01*
X123098620Y-126427502D01*
X123112739Y-126534740D01*
X123113800Y-126550926D01*
X123113800Y-140758671D01*
X123112739Y-140774857D01*
X123098620Y-140882095D01*
X123090242Y-140913361D01*
X123051989Y-141005713D01*
X123035803Y-141033748D01*
X122974946Y-141113057D01*
X122952058Y-141135945D01*
X122872749Y-141196802D01*
X122844714Y-141212988D01*
X122752362Y-141251241D01*
X122721096Y-141259619D01*
X122613859Y-141273738D01*
X122597673Y-141274799D01*
X117279927Y-141274799D01*
X117263741Y-141273738D01*
X117156503Y-141259619D01*
X117125237Y-141251241D01*
X117032885Y-141212988D01*
X117004850Y-141196802D01*
X116925541Y-141135945D01*
X116902653Y-141113057D01*
X116841796Y-141033748D01*
X116825610Y-141005713D01*
X116787357Y-140913361D01*
X116778979Y-140882094D01*
X116764861Y-140774856D01*
X116763800Y-140758671D01*
X116763800Y-126550926D01*
X116764861Y-126534741D01*
X116778979Y-126427503D01*
X116787356Y-126396239D01*
X116825612Y-126303880D01*
X116841796Y-126275849D01*
X116902653Y-126196540D01*
X116925541Y-126173652D01*
X117004850Y-126112795D01*
X117032881Y-126096611D01*
X117125240Y-126058355D01*
X117156501Y-126049978D01*
X117232041Y-126040033D01*
X117263742Y-126035860D01*
X117279927Y-126034799D01*
X122597673Y-126034799D01*
X122613858Y-126035860D01*
G37*
%TD.AperFunction*%
%TD*%
%TA.AperFunction,Conductor*%
%TO.N,Net-(JA2-Pin_1)*%
G36*
X113723858Y-126035860D02*
G01*
X113770063Y-126041943D01*
X113831096Y-126049978D01*
X113862361Y-126058355D01*
X113954715Y-126096609D01*
X113982749Y-126112795D01*
X114062058Y-126173652D01*
X114084946Y-126196540D01*
X114145803Y-126275849D01*
X114161989Y-126303884D01*
X114200242Y-126396236D01*
X114208620Y-126427502D01*
X114222739Y-126534740D01*
X114223800Y-126550926D01*
X114223800Y-140758671D01*
X114222739Y-140774857D01*
X114208620Y-140882095D01*
X114200242Y-140913361D01*
X114161989Y-141005713D01*
X114145803Y-141033748D01*
X114084946Y-141113057D01*
X114062058Y-141135945D01*
X113982749Y-141196802D01*
X113954714Y-141212988D01*
X113862362Y-141251241D01*
X113831096Y-141259619D01*
X113723859Y-141273738D01*
X113707673Y-141274799D01*
X108389927Y-141274799D01*
X108373741Y-141273738D01*
X108266503Y-141259619D01*
X108235237Y-141251241D01*
X108142885Y-141212988D01*
X108114850Y-141196802D01*
X108035541Y-141135945D01*
X108012653Y-141113057D01*
X107951796Y-141033748D01*
X107935610Y-141005713D01*
X107897357Y-140913361D01*
X107888979Y-140882094D01*
X107874861Y-140774856D01*
X107873800Y-140758671D01*
X107873800Y-126550926D01*
X107874861Y-126534741D01*
X107888979Y-126427503D01*
X107897356Y-126396239D01*
X107935612Y-126303880D01*
X107951796Y-126275849D01*
X108012653Y-126196540D01*
X108035541Y-126173652D01*
X108114850Y-126112795D01*
X108142881Y-126096611D01*
X108235240Y-126058355D01*
X108266501Y-126049978D01*
X108342041Y-126040033D01*
X108373742Y-126035860D01*
X108389927Y-126034799D01*
X113707673Y-126034799D01*
X113723858Y-126035860D01*
G37*
%TD.AperFunction*%
%TD*%
%TA.AperFunction,Conductor*%
%TO.N,GND*%
G36*
X183258989Y-45739685D02*
G01*
X183304744Y-45792489D01*
X183314688Y-45861647D01*
X183285663Y-45925203D01*
X183266442Y-45943131D01*
X182993520Y-46148219D01*
X182631533Y-46468911D01*
X182296520Y-46817697D01*
X182296514Y-46817703D01*
X181990658Y-47192307D01*
X181715927Y-47590324D01*
X181715922Y-47590330D01*
X181474112Y-48009157D01*
X181266785Y-48446088D01*
X181095289Y-48898284D01*
X180960736Y-49362813D01*
X180863998Y-49836666D01*
X180805704Y-50316761D01*
X180805702Y-50316787D01*
X180786230Y-50799987D01*
X180786230Y-50800010D01*
X180805702Y-51283210D01*
X180805704Y-51283236D01*
X180863998Y-51763331D01*
X180960736Y-52237184D01*
X181095289Y-52701713D01*
X181233261Y-53065513D01*
X181266310Y-53152658D01*
X181266785Y-53153909D01*
X181324711Y-53275985D01*
X181472052Y-53586500D01*
X181474112Y-53590840D01*
X181715922Y-54009667D01*
X181715927Y-54009673D01*
X181990658Y-54407690D01*
X182296514Y-54782294D01*
X182296516Y-54782296D01*
X182465758Y-54958496D01*
X182631533Y-55131086D01*
X182993520Y-55451778D01*
X182993524Y-55451781D01*
X182993532Y-55451788D01*
X183380161Y-55742322D01*
X183788915Y-56000802D01*
X184217143Y-56225553D01*
X184662066Y-56415117D01*
X185120801Y-56568266D01*
X185433848Y-56645424D01*
X185590367Y-56684003D01*
X185590383Y-56684006D01*
X186017619Y-56753438D01*
X186067733Y-56761583D01*
X186549788Y-56800499D01*
X186549797Y-56800499D01*
X187033403Y-56800499D01*
X187033412Y-56800499D01*
X187515467Y-56761583D01*
X187992828Y-56684004D01*
X188462399Y-56568266D01*
X188921134Y-56415117D01*
X189366057Y-56225553D01*
X189794285Y-56000802D01*
X190203039Y-55742322D01*
X190589668Y-55451788D01*
X190951666Y-55131087D01*
X191286684Y-54782296D01*
X191286694Y-54782282D01*
X191286701Y-54782276D01*
X191309386Y-54754491D01*
X191367031Y-54715009D01*
X191436871Y-54712961D01*
X191496731Y-54748996D01*
X191527607Y-54811673D01*
X191529438Y-54832552D01*
X191608536Y-82152501D01*
X191589046Y-82219597D01*
X191536375Y-82265505D01*
X191484537Y-82276860D01*
X191452823Y-82276860D01*
X191407853Y-82284364D01*
X191227973Y-82314380D01*
X191012381Y-82388394D01*
X191012367Y-82388400D01*
X190814251Y-82495614D01*
X190745923Y-82510209D01*
X190680550Y-82485546D01*
X190638890Y-82429455D01*
X190631617Y-82396294D01*
X190612947Y-82159058D01*
X190555973Y-81921748D01*
X190520189Y-81835357D01*
X190462578Y-81696270D01*
X190335063Y-81488186D01*
X190335062Y-81488183D01*
X190206179Y-81337281D01*
X190176560Y-81302601D01*
X190053864Y-81197809D01*
X189990977Y-81144098D01*
X189990974Y-81144097D01*
X189782890Y-81016582D01*
X189557419Y-80923190D01*
X189557422Y-80923190D01*
X189451793Y-80897830D01*
X189320103Y-80866214D01*
X189320101Y-80866213D01*
X189320098Y-80866213D01*
X189076801Y-80847066D01*
X188833503Y-80866213D01*
X188596181Y-80923190D01*
X188370711Y-81016582D01*
X188162627Y-81144097D01*
X188162624Y-81144098D01*
X187977042Y-81302601D01*
X187818539Y-81488183D01*
X187818538Y-81488186D01*
X187691023Y-81696270D01*
X187597631Y-81921740D01*
X187540654Y-82159062D01*
X187521507Y-82402360D01*
X187540654Y-82645657D01*
X187540654Y-82645660D01*
X187540655Y-82645662D01*
X187575551Y-82791014D01*
X187597631Y-82882979D01*
X187691023Y-83108449D01*
X187818538Y-83316533D01*
X187818539Y-83316536D01*
X187850660Y-83354145D01*
X187977042Y-83502119D01*
X188120698Y-83624813D01*
X188162624Y-83660621D01*
X188162627Y-83660622D01*
X188370711Y-83788137D01*
X188552148Y-83863290D01*
X188591377Y-83879539D01*
X188596182Y-83881529D01*
X188596179Y-83881529D01*
X188596185Y-83881530D01*
X188596189Y-83881532D01*
X188833499Y-83938506D01*
X189076801Y-83957654D01*
X189320103Y-83938506D01*
X189557413Y-83881532D01*
X189782890Y-83788137D01*
X189990980Y-83660619D01*
X189990990Y-83660609D01*
X189994916Y-83657759D01*
X189995697Y-83658834D01*
X190053915Y-83632732D01*
X190123003Y-83643153D01*
X190175490Y-83689271D01*
X190194290Y-83745349D01*
X190205408Y-83879527D01*
X190205410Y-83879539D01*
X190261369Y-84100515D01*
X190352937Y-84309268D01*
X190477614Y-84500102D01*
X190632008Y-84667818D01*
X190632012Y-84667821D01*
X190684919Y-84709000D01*
X190811894Y-84807829D01*
X190811896Y-84807830D01*
X190811899Y-84807832D01*
X190928446Y-84870903D01*
X191012374Y-84916323D01*
X191094197Y-84944413D01*
X191227973Y-84990339D01*
X191227975Y-84990339D01*
X191227977Y-84990340D01*
X191452823Y-85027860D01*
X191452824Y-85027860D01*
X191493220Y-85027860D01*
X191560259Y-85047545D01*
X191606014Y-85100349D01*
X191617219Y-85151501D01*
X191645305Y-94852501D01*
X191625815Y-94919597D01*
X191573144Y-94965505D01*
X191521306Y-94976860D01*
X191452823Y-94976860D01*
X191407853Y-94984364D01*
X191227973Y-95014380D01*
X191012381Y-95088394D01*
X191012367Y-95088400D01*
X190814251Y-95195614D01*
X190745923Y-95210209D01*
X190680550Y-95185546D01*
X190638890Y-95129455D01*
X190631617Y-95096294D01*
X190612947Y-94859058D01*
X190555973Y-94621748D01*
X190532743Y-94565665D01*
X190462578Y-94396270D01*
X190335063Y-94188186D01*
X190335062Y-94188183D01*
X190280175Y-94123919D01*
X190176560Y-94002601D01*
X190053864Y-93897809D01*
X189990977Y-93844098D01*
X189990974Y-93844097D01*
X189782890Y-93716582D01*
X189557419Y-93623190D01*
X189557422Y-93623190D01*
X189451793Y-93597830D01*
X189320103Y-93566214D01*
X189320101Y-93566213D01*
X189320098Y-93566213D01*
X189076801Y-93547066D01*
X188833503Y-93566213D01*
X188833499Y-93566214D01*
X188618157Y-93617914D01*
X188596181Y-93623190D01*
X188370711Y-93716582D01*
X188162627Y-93844097D01*
X188162624Y-93844098D01*
X187977042Y-94002601D01*
X187818539Y-94188183D01*
X187818538Y-94188186D01*
X187691023Y-94396270D01*
X187597631Y-94621740D01*
X187540654Y-94859062D01*
X187521507Y-95102360D01*
X187540654Y-95345657D01*
X187597631Y-95582979D01*
X187691023Y-95808449D01*
X187818538Y-96016533D01*
X187818539Y-96016536D01*
X187818542Y-96016539D01*
X187977042Y-96202119D01*
X188055392Y-96269036D01*
X188162624Y-96360621D01*
X188162627Y-96360622D01*
X188370711Y-96488137D01*
X188416285Y-96507014D01*
X188591377Y-96579539D01*
X188596182Y-96581529D01*
X188596179Y-96581529D01*
X188596185Y-96581530D01*
X188596189Y-96581532D01*
X188833499Y-96638506D01*
X189076801Y-96657654D01*
X189320103Y-96638506D01*
X189557413Y-96581532D01*
X189782890Y-96488137D01*
X189990980Y-96360619D01*
X189990990Y-96360609D01*
X189994916Y-96357759D01*
X189995697Y-96358834D01*
X190053915Y-96332732D01*
X190123003Y-96343153D01*
X190175490Y-96389271D01*
X190194290Y-96445349D01*
X190205408Y-96579527D01*
X190205410Y-96579539D01*
X190261369Y-96800515D01*
X190352937Y-97009268D01*
X190477614Y-97200102D01*
X190488830Y-97212286D01*
X190615266Y-97349632D01*
X190632008Y-97367818D01*
X190632012Y-97367821D01*
X190709340Y-97428008D01*
X190811894Y-97507829D01*
X190811896Y-97507830D01*
X190811899Y-97507832D01*
X190928446Y-97570903D01*
X191012374Y-97616323D01*
X191056251Y-97631386D01*
X191227973Y-97690339D01*
X191227975Y-97690339D01*
X191227977Y-97690340D01*
X191452823Y-97727860D01*
X191452824Y-97727860D01*
X191529989Y-97727860D01*
X191597028Y-97747545D01*
X191642783Y-97800349D01*
X191653988Y-97851501D01*
X191681795Y-107456130D01*
X191662305Y-107523226D01*
X191609634Y-107569134D01*
X191540504Y-107579277D01*
X191476865Y-107550437D01*
X191461745Y-107534912D01*
X191286685Y-107320503D01*
X191286679Y-107320497D01*
X190951666Y-106971711D01*
X190589679Y-106651019D01*
X190589673Y-106651014D01*
X190589668Y-106651010D01*
X190203039Y-106360476D01*
X189794285Y-106101996D01*
X189366057Y-105877245D01*
X188921134Y-105687681D01*
X188921126Y-105687678D01*
X188921123Y-105687677D01*
X188694443Y-105612000D01*
X188462399Y-105534532D01*
X188462395Y-105534531D01*
X188462388Y-105534529D01*
X187992832Y-105418794D01*
X187992816Y-105418791D01*
X187515472Y-105341215D01*
X187033422Y-105302299D01*
X187033412Y-105302299D01*
X186549788Y-105302299D01*
X186549777Y-105302299D01*
X186067727Y-105341215D01*
X185590383Y-105418791D01*
X185590367Y-105418794D01*
X185120811Y-105534529D01*
X185120804Y-105534531D01*
X184662076Y-105687677D01*
X184662068Y-105687680D01*
X184662066Y-105687681D01*
X184662064Y-105687682D01*
X184217149Y-105877242D01*
X183788918Y-106101994D01*
X183380159Y-106360477D01*
X182993520Y-106651019D01*
X182631533Y-106971711D01*
X182296520Y-107320497D01*
X182296514Y-107320503D01*
X181990658Y-107695107D01*
X181715927Y-108093124D01*
X181715922Y-108093130D01*
X181474112Y-108511957D01*
X181266785Y-108948888D01*
X181095289Y-109401084D01*
X180960736Y-109865613D01*
X180863998Y-110339466D01*
X180805704Y-110819561D01*
X180805702Y-110819587D01*
X180786230Y-111302787D01*
X180786230Y-111302810D01*
X180805702Y-111786010D01*
X180805704Y-111786036D01*
X180863998Y-112266131D01*
X180960736Y-112739984D01*
X181095289Y-113204513D01*
X181266785Y-113656709D01*
X181474112Y-114093640D01*
X181715922Y-114512467D01*
X181715927Y-114512473D01*
X181781856Y-114607988D01*
X181988831Y-114907844D01*
X181990658Y-114910490D01*
X182296514Y-115285094D01*
X182296520Y-115285100D01*
X182631533Y-115633886D01*
X182993520Y-115954578D01*
X182993524Y-115954581D01*
X182993532Y-115954588D01*
X183380161Y-116245122D01*
X183788915Y-116503602D01*
X184217143Y-116728353D01*
X184662066Y-116917917D01*
X185120801Y-117071066D01*
X185406082Y-117141381D01*
X185590367Y-117186803D01*
X185590383Y-117186806D01*
X185973773Y-117249113D01*
X186067733Y-117264383D01*
X186549788Y-117303299D01*
X186549797Y-117303299D01*
X187033403Y-117303299D01*
X187033412Y-117303299D01*
X187515467Y-117264383D01*
X187992828Y-117186804D01*
X188462399Y-117071066D01*
X188921134Y-116917917D01*
X189366057Y-116728353D01*
X189794285Y-116503602D01*
X190203039Y-116245122D01*
X190589668Y-115954588D01*
X190951666Y-115633887D01*
X191286684Y-115285096D01*
X191483938Y-115043503D01*
X191541585Y-115004024D01*
X191611424Y-115001978D01*
X191671284Y-115038015D01*
X191702157Y-115100693D01*
X191703988Y-115121568D01*
X191768403Y-137370496D01*
X191768023Y-137380563D01*
X191753065Y-137571027D01*
X191749865Y-137590903D01*
X191705490Y-137771527D01*
X191699116Y-137790624D01*
X191626095Y-137961690D01*
X191616714Y-137979504D01*
X191516977Y-138136492D01*
X191504837Y-138152552D01*
X191377638Y-138295112D01*
X191370631Y-138302350D01*
X186807902Y-142647807D01*
X186798992Y-142655520D01*
X186623324Y-142793536D01*
X186603515Y-142806257D01*
X186410201Y-142905868D01*
X186388345Y-142914616D01*
X186179689Y-142975896D01*
X186156572Y-142980356D01*
X185934194Y-143001660D01*
X185922424Y-143002225D01*
X136558090Y-143023956D01*
X118403629Y-143031949D01*
X72319770Y-143052236D01*
X72308968Y-143051770D01*
X72104568Y-143033973D01*
X72083274Y-143030227D01*
X71890324Y-142978602D01*
X71870005Y-142971214D01*
X71688958Y-142886860D01*
X71670231Y-142876055D01*
X71552313Y-142793536D01*
X71506583Y-142761534D01*
X71490030Y-142747651D01*
X71348755Y-142606437D01*
X71334858Y-142589881D01*
X71220268Y-142426291D01*
X71209454Y-142407568D01*
X71125018Y-142226552D01*
X71117626Y-142206251D01*
X71065912Y-142013307D01*
X71062159Y-141992026D01*
X71044272Y-141787632D01*
X71043800Y-141776822D01*
X71043800Y-140758671D01*
X107368300Y-140758671D01*
X107369315Y-140789671D01*
X107369383Y-140791739D01*
X107370444Y-140807928D01*
X107373687Y-140840849D01*
X107386820Y-140940605D01*
X107387804Y-140948074D01*
X107400704Y-141012928D01*
X107400704Y-141012930D01*
X107409080Y-141044188D01*
X107409087Y-141044212D01*
X107430330Y-141106793D01*
X107430342Y-141106825D01*
X107468586Y-141199155D01*
X107497833Y-141258463D01*
X107514012Y-141286485D01*
X107514028Y-141286511D01*
X107550749Y-141341469D01*
X107550760Y-141341484D01*
X107611609Y-141420782D01*
X107655222Y-141470511D01*
X107678086Y-141493375D01*
X107678094Y-141493382D01*
X107678099Y-141493387D01*
X107706432Y-141518235D01*
X107727815Y-141536988D01*
X107807113Y-141597837D01*
X107807128Y-141597848D01*
X107862086Y-141634569D01*
X107862088Y-141634570D01*
X107862100Y-141634578D01*
X107862102Y-141634579D01*
X107862112Y-141634585D01*
X107890134Y-141650764D01*
X107949442Y-141680011D01*
X108041772Y-141718255D01*
X108041776Y-141718256D01*
X108041792Y-141718263D01*
X108085767Y-141733190D01*
X108104384Y-141739510D01*
X108104390Y-141739511D01*
X108104400Y-141739515D01*
X108130411Y-141746484D01*
X108135658Y-141747891D01*
X108135660Y-141747891D01*
X108135666Y-141747893D01*
X108200518Y-141760794D01*
X108307756Y-141774913D01*
X108333070Y-141777406D01*
X108340664Y-141778154D01*
X108340669Y-141778154D01*
X108340676Y-141778155D01*
X108356862Y-141779216D01*
X108389927Y-141780299D01*
X108389942Y-141780299D01*
X113707658Y-141780299D01*
X113707673Y-141780299D01*
X113740738Y-141779216D01*
X113756924Y-141778155D01*
X113756932Y-141778154D01*
X113756935Y-141778154D01*
X113760414Y-141777811D01*
X113789844Y-141774913D01*
X113897081Y-141760794D01*
X113961933Y-141747893D01*
X113993199Y-141739515D01*
X114055807Y-141718263D01*
X114148159Y-141680010D01*
X114207464Y-141650764D01*
X114235499Y-141634578D01*
X114264964Y-141614890D01*
X114290470Y-141597848D01*
X114290485Y-141597837D01*
X114369783Y-141536988D01*
X114369790Y-141536983D01*
X114419500Y-141493387D01*
X114442388Y-141470499D01*
X114485984Y-141420789D01*
X114546841Y-141341480D01*
X114546848Y-141341470D01*
X114546849Y-141341469D01*
X114571618Y-141304398D01*
X114583579Y-141286498D01*
X114599765Y-141258463D01*
X114629011Y-141199158D01*
X114667264Y-141106806D01*
X114688516Y-141044198D01*
X114696894Y-141012932D01*
X114709795Y-140948080D01*
X114723914Y-140840842D01*
X114727156Y-140807922D01*
X114728217Y-140791736D01*
X114729300Y-140758671D01*
X116258300Y-140758671D01*
X116259315Y-140789671D01*
X116259383Y-140791739D01*
X116260444Y-140807928D01*
X116263687Y-140840849D01*
X116276820Y-140940605D01*
X116277804Y-140948074D01*
X116290704Y-141012928D01*
X116290704Y-141012930D01*
X116299080Y-141044188D01*
X116299087Y-141044212D01*
X116320330Y-141106793D01*
X116320342Y-141106825D01*
X116358586Y-141199155D01*
X116387833Y-141258463D01*
X116404012Y-141286485D01*
X116404028Y-141286511D01*
X116440749Y-141341469D01*
X116440760Y-141341484D01*
X116501609Y-141420782D01*
X116545222Y-141470511D01*
X116568086Y-141493375D01*
X116568094Y-141493382D01*
X116568099Y-141493387D01*
X116596432Y-141518235D01*
X116617815Y-141536988D01*
X116697113Y-141597837D01*
X116697128Y-141597848D01*
X116752086Y-141634569D01*
X116752088Y-141634570D01*
X116752100Y-141634578D01*
X116752102Y-141634579D01*
X116752112Y-141634585D01*
X116780134Y-141650764D01*
X116839442Y-141680011D01*
X116931772Y-141718255D01*
X116931776Y-141718256D01*
X116931792Y-141718263D01*
X116975767Y-141733190D01*
X116994384Y-141739510D01*
X116994390Y-141739511D01*
X116994400Y-141739515D01*
X117020411Y-141746484D01*
X117025658Y-141747891D01*
X117025660Y-141747891D01*
X117025666Y-141747893D01*
X117090518Y-141760794D01*
X117197756Y-141774913D01*
X117223070Y-141777406D01*
X117230664Y-141778154D01*
X117230669Y-141778154D01*
X117230676Y-141778155D01*
X117246862Y-141779216D01*
X117279927Y-141780299D01*
X117279942Y-141780299D01*
X122597658Y-141780299D01*
X122597673Y-141780299D01*
X122630738Y-141779216D01*
X122646924Y-141778155D01*
X122646932Y-141778154D01*
X122646935Y-141778154D01*
X122650414Y-141777811D01*
X122679844Y-141774913D01*
X122787081Y-141760794D01*
X122851933Y-141747893D01*
X122883199Y-141739515D01*
X122945807Y-141718263D01*
X123038159Y-141680010D01*
X123097464Y-141650764D01*
X123125499Y-141634578D01*
X123154964Y-141614890D01*
X123180470Y-141597848D01*
X123180485Y-141597837D01*
X123259783Y-141536988D01*
X123259790Y-141536983D01*
X123309500Y-141493387D01*
X123332388Y-141470499D01*
X123375984Y-141420789D01*
X123436841Y-141341480D01*
X123436848Y-141341470D01*
X123436849Y-141341469D01*
X123461618Y-141304398D01*
X123473579Y-141286498D01*
X123489765Y-141258463D01*
X123519011Y-141199158D01*
X123557264Y-141106806D01*
X123578516Y-141044198D01*
X123586894Y-141012932D01*
X123599795Y-140948080D01*
X123613914Y-140840842D01*
X123617156Y-140807922D01*
X123618217Y-140791736D01*
X123619300Y-140758672D01*
X125148300Y-140758672D01*
X125149315Y-140789672D01*
X125149383Y-140791740D01*
X125150444Y-140807929D01*
X125153687Y-140840850D01*
X125166820Y-140940606D01*
X125167804Y-140948075D01*
X125180704Y-141012928D01*
X125180704Y-141012929D01*
X125180704Y-141012931D01*
X125189080Y-141044189D01*
X125189087Y-141044213D01*
X125210330Y-141106794D01*
X125210342Y-141106826D01*
X125248586Y-141199156D01*
X125277833Y-141258464D01*
X125294012Y-141286486D01*
X125294028Y-141286512D01*
X125330749Y-141341470D01*
X125330760Y-141341485D01*
X125391609Y-141420783D01*
X125391614Y-141420788D01*
X125391615Y-141420790D01*
X125435210Y-141470499D01*
X125435222Y-141470512D01*
X125458086Y-141493376D01*
X125458094Y-141493383D01*
X125458099Y-141493388D01*
X125486431Y-141518235D01*
X125507815Y-141536989D01*
X125587113Y-141597838D01*
X125587128Y-141597849D01*
X125642086Y-141634570D01*
X125642092Y-141634574D01*
X125642100Y-141634579D01*
X125642110Y-141634584D01*
X125642112Y-141634586D01*
X125670134Y-141650765D01*
X125729442Y-141680012D01*
X125821772Y-141718256D01*
X125821776Y-141718257D01*
X125821792Y-141718264D01*
X125865767Y-141733191D01*
X125884384Y-141739511D01*
X125884390Y-141739512D01*
X125884400Y-141739516D01*
X125910411Y-141746485D01*
X125915658Y-141747892D01*
X125915660Y-141747892D01*
X125915666Y-141747894D01*
X125980518Y-141760795D01*
X126087756Y-141774914D01*
X126113070Y-141777407D01*
X126120664Y-141778155D01*
X126120669Y-141778155D01*
X126120676Y-141778156D01*
X126136862Y-141779217D01*
X126169927Y-141780300D01*
X126169942Y-141780300D01*
X131487658Y-141780300D01*
X131487673Y-141780300D01*
X131520738Y-141779217D01*
X131536924Y-141778156D01*
X131536932Y-141778155D01*
X131536935Y-141778155D01*
X131540414Y-141777812D01*
X131569844Y-141774914D01*
X131677081Y-141760795D01*
X131741933Y-141747894D01*
X131773199Y-141739516D01*
X131835807Y-141718264D01*
X131928159Y-141680011D01*
X131987464Y-141650765D01*
X132015499Y-141634579D01*
X132044966Y-141614890D01*
X132070470Y-141597849D01*
X132070485Y-141597838D01*
X132149783Y-141536989D01*
X132149790Y-141536984D01*
X132199500Y-141493388D01*
X132222388Y-141470500D01*
X132265984Y-141420790D01*
X132326841Y-141341481D01*
X132326841Y-141341479D01*
X132326849Y-141341470D01*
X132363570Y-141286512D01*
X132363571Y-141286511D01*
X132363579Y-141286499D01*
X132379765Y-141258464D01*
X132409011Y-141199159D01*
X132447264Y-141106807D01*
X132468516Y-141044199D01*
X132476894Y-141012933D01*
X132489795Y-140948081D01*
X132503914Y-140840843D01*
X132507156Y-140807923D01*
X132508217Y-140791737D01*
X132509300Y-140758672D01*
X132509300Y-140758671D01*
X134038300Y-140758671D01*
X134039315Y-140789671D01*
X134039383Y-140791739D01*
X134040444Y-140807928D01*
X134043687Y-140840849D01*
X134056820Y-140940605D01*
X134057804Y-140948074D01*
X134070704Y-141012928D01*
X134070704Y-141012930D01*
X134079080Y-141044188D01*
X134079087Y-141044212D01*
X134100330Y-141106793D01*
X134100342Y-141106825D01*
X134138586Y-141199155D01*
X134167833Y-141258463D01*
X134184012Y-141286485D01*
X134184028Y-141286511D01*
X134220749Y-141341469D01*
X134220760Y-141341484D01*
X134281609Y-141420782D01*
X134325222Y-141470511D01*
X134348086Y-141493375D01*
X134348094Y-141493382D01*
X134348099Y-141493387D01*
X134376432Y-141518235D01*
X134397815Y-141536988D01*
X134477113Y-141597837D01*
X134477128Y-141597848D01*
X134532086Y-141634569D01*
X134532088Y-141634570D01*
X134532100Y-141634578D01*
X134532102Y-141634579D01*
X134532112Y-141634585D01*
X134560134Y-141650764D01*
X134619442Y-141680011D01*
X134711772Y-141718255D01*
X134711776Y-141718256D01*
X134711792Y-141718263D01*
X134755767Y-141733190D01*
X134774384Y-141739510D01*
X134774390Y-141739511D01*
X134774400Y-141739515D01*
X134800411Y-141746484D01*
X134805658Y-141747891D01*
X134805660Y-141747891D01*
X134805666Y-141747893D01*
X134870518Y-141760794D01*
X134977756Y-141774913D01*
X135003070Y-141777406D01*
X135010664Y-141778154D01*
X135010669Y-141778154D01*
X135010676Y-141778155D01*
X135026862Y-141779216D01*
X135059927Y-141780299D01*
X135059942Y-141780299D01*
X140377658Y-141780299D01*
X140377673Y-141780299D01*
X140410738Y-141779216D01*
X140426924Y-141778155D01*
X140426932Y-141778154D01*
X140426935Y-141778154D01*
X140430414Y-141777811D01*
X140459844Y-141774913D01*
X140567081Y-141760794D01*
X140631933Y-141747893D01*
X140663199Y-141739515D01*
X140725807Y-141718263D01*
X140818159Y-141680010D01*
X140877464Y-141650764D01*
X140905499Y-141634578D01*
X140934964Y-141614890D01*
X140960470Y-141597848D01*
X140960485Y-141597837D01*
X141039783Y-141536988D01*
X141039790Y-141536983D01*
X141089500Y-141493387D01*
X141112388Y-141470499D01*
X141155984Y-141420789D01*
X141216841Y-141341480D01*
X141216848Y-141341470D01*
X141216849Y-141341469D01*
X141241618Y-141304398D01*
X141253579Y-141286498D01*
X141269765Y-141258463D01*
X141299011Y-141199158D01*
X141337264Y-141106806D01*
X141358516Y-141044198D01*
X141366894Y-141012932D01*
X141379795Y-140948080D01*
X141393914Y-140840842D01*
X141397156Y-140807922D01*
X141398217Y-140791736D01*
X141399300Y-140758671D01*
X142928300Y-140758671D01*
X142929315Y-140789671D01*
X142929383Y-140791739D01*
X142930444Y-140807928D01*
X142933687Y-140840849D01*
X142946820Y-140940605D01*
X142947804Y-140948074D01*
X142960704Y-141012928D01*
X142960704Y-141012930D01*
X142969080Y-141044188D01*
X142969087Y-141044212D01*
X142990330Y-141106793D01*
X142990342Y-141106825D01*
X143028586Y-141199155D01*
X143057833Y-141258463D01*
X143074012Y-141286485D01*
X143074028Y-141286511D01*
X143110749Y-141341469D01*
X143110760Y-141341484D01*
X143171609Y-141420782D01*
X143215222Y-141470511D01*
X143238086Y-141493375D01*
X143238094Y-141493382D01*
X143238099Y-141493387D01*
X143266432Y-141518235D01*
X143287815Y-141536988D01*
X143367113Y-141597837D01*
X143367128Y-141597848D01*
X143422086Y-141634569D01*
X143422088Y-141634570D01*
X143422100Y-141634578D01*
X143422102Y-141634579D01*
X143422112Y-141634585D01*
X143450134Y-141650764D01*
X143509442Y-141680011D01*
X143601772Y-141718255D01*
X143601776Y-141718256D01*
X143601792Y-141718263D01*
X143645767Y-141733190D01*
X143664384Y-141739510D01*
X143664390Y-141739511D01*
X143664400Y-141739515D01*
X143690411Y-141746484D01*
X143695658Y-141747891D01*
X143695660Y-141747891D01*
X143695666Y-141747893D01*
X143760518Y-141760794D01*
X143867756Y-141774913D01*
X143893070Y-141777406D01*
X143900664Y-141778154D01*
X143900669Y-141778154D01*
X143900676Y-141778155D01*
X143916862Y-141779216D01*
X143949927Y-141780299D01*
X143949942Y-141780299D01*
X149267658Y-141780299D01*
X149267673Y-141780299D01*
X149300738Y-141779216D01*
X149316924Y-141778155D01*
X149316932Y-141778154D01*
X149316935Y-141778154D01*
X149320414Y-141777811D01*
X149349844Y-141774913D01*
X149457081Y-141760794D01*
X149521933Y-141747893D01*
X149553199Y-141739515D01*
X149615807Y-141718263D01*
X149708159Y-141680010D01*
X149767464Y-141650764D01*
X149795499Y-141634578D01*
X149824964Y-141614890D01*
X149850470Y-141597848D01*
X149850485Y-141597837D01*
X149929783Y-141536988D01*
X149929790Y-141536983D01*
X149979500Y-141493387D01*
X150002388Y-141470499D01*
X150045984Y-141420789D01*
X150106841Y-141341480D01*
X150106848Y-141341470D01*
X150106849Y-141341469D01*
X150131618Y-141304398D01*
X150143579Y-141286498D01*
X150159765Y-141258463D01*
X150189011Y-141199158D01*
X150227264Y-141106806D01*
X150248516Y-141044198D01*
X150256894Y-141012932D01*
X150269795Y-140948080D01*
X150283914Y-140840842D01*
X150287156Y-140807922D01*
X150288217Y-140791736D01*
X150289300Y-140758671D01*
X150289300Y-126550926D01*
X150288217Y-126517861D01*
X150287156Y-126501675D01*
X150283914Y-126468755D01*
X150269795Y-126361517D01*
X150256894Y-126296665D01*
X150248516Y-126265399D01*
X150227264Y-126202791D01*
X150189018Y-126110457D01*
X150189012Y-126110441D01*
X150159765Y-126051133D01*
X150143586Y-126023111D01*
X150143570Y-126023085D01*
X150106849Y-125968127D01*
X150106838Y-125968112D01*
X150045989Y-125888814D01*
X150045984Y-125888808D01*
X150002388Y-125839098D01*
X150002383Y-125839093D01*
X150002376Y-125839085D01*
X149979512Y-125816221D01*
X149979503Y-125816213D01*
X149979500Y-125816210D01*
X149929790Y-125772614D01*
X149929788Y-125772613D01*
X149929783Y-125772608D01*
X149850486Y-125711760D01*
X149850477Y-125711754D01*
X149795507Y-125675023D01*
X149767473Y-125658837D01*
X149738619Y-125644608D01*
X149708160Y-125629587D01*
X149708141Y-125629579D01*
X149708126Y-125629572D01*
X149615806Y-125591332D01*
X149615796Y-125591328D01*
X149553197Y-125570081D01*
X149553166Y-125570071D01*
X149521925Y-125561701D01*
X149457072Y-125548802D01*
X149349847Y-125534686D01*
X149349841Y-125534685D01*
X149349838Y-125534685D01*
X149343682Y-125534078D01*
X149316930Y-125531443D01*
X149300741Y-125530382D01*
X149298535Y-125530309D01*
X149267673Y-125529299D01*
X143949927Y-125529299D01*
X143920993Y-125530246D01*
X143916858Y-125530382D01*
X143900663Y-125531443D01*
X143867756Y-125534684D01*
X143760527Y-125548801D01*
X143760517Y-125548803D01*
X143695669Y-125561702D01*
X143695642Y-125561709D01*
X143664416Y-125570076D01*
X143664378Y-125570088D01*
X143601806Y-125591328D01*
X143601786Y-125591336D01*
X143509458Y-125629579D01*
X143509433Y-125629590D01*
X143450117Y-125658842D01*
X143450114Y-125658844D01*
X143422100Y-125675018D01*
X143422092Y-125675023D01*
X143367128Y-125711748D01*
X143367113Y-125711759D01*
X143287815Y-125772608D01*
X143238086Y-125816221D01*
X143215222Y-125839085D01*
X143171609Y-125888814D01*
X143110760Y-125968112D01*
X143110749Y-125968127D01*
X143074024Y-126023091D01*
X143074019Y-126023099D01*
X143057845Y-126051113D01*
X143057843Y-126051116D01*
X143028591Y-126110432D01*
X143028580Y-126110457D01*
X142990337Y-126202783D01*
X142990332Y-126202797D01*
X142969085Y-126265390D01*
X142969075Y-126265421D01*
X142960705Y-126296662D01*
X142960701Y-126296678D01*
X142952023Y-126340308D01*
X142947806Y-126361517D01*
X142947803Y-126361530D01*
X142933687Y-126468747D01*
X142930444Y-126501668D01*
X142930444Y-126501674D01*
X142929383Y-126517859D01*
X142928300Y-126550926D01*
X142928300Y-140758671D01*
X141399300Y-140758671D01*
X141399300Y-126550926D01*
X141398217Y-126517861D01*
X141397156Y-126501675D01*
X141393914Y-126468755D01*
X141379795Y-126361517D01*
X141366894Y-126296665D01*
X141358516Y-126265399D01*
X141337264Y-126202791D01*
X141299018Y-126110457D01*
X141299012Y-126110441D01*
X141269765Y-126051133D01*
X141253586Y-126023111D01*
X141253570Y-126023085D01*
X141216849Y-125968127D01*
X141216838Y-125968112D01*
X141155989Y-125888814D01*
X141155984Y-125888808D01*
X141112388Y-125839098D01*
X141112383Y-125839093D01*
X141112376Y-125839085D01*
X141089512Y-125816221D01*
X141089503Y-125816213D01*
X141089500Y-125816210D01*
X141039790Y-125772614D01*
X141039788Y-125772613D01*
X141039783Y-125772608D01*
X140960486Y-125711760D01*
X140960477Y-125711754D01*
X140905507Y-125675023D01*
X140877473Y-125658837D01*
X140848619Y-125644608D01*
X140818160Y-125629587D01*
X140818141Y-125629579D01*
X140818126Y-125629572D01*
X140725806Y-125591332D01*
X140725796Y-125591328D01*
X140663197Y-125570081D01*
X140663166Y-125570071D01*
X140631925Y-125561701D01*
X140567072Y-125548802D01*
X140459847Y-125534686D01*
X140459841Y-125534685D01*
X140459838Y-125534685D01*
X140453682Y-125534078D01*
X140426930Y-125531443D01*
X140410741Y-125530382D01*
X140408535Y-125530309D01*
X140377673Y-125529299D01*
X135059927Y-125529299D01*
X135030993Y-125530246D01*
X135026858Y-125530382D01*
X135010663Y-125531443D01*
X134977756Y-125534684D01*
X134870527Y-125548801D01*
X134870517Y-125548803D01*
X134805669Y-125561702D01*
X134805642Y-125561709D01*
X134774416Y-125570076D01*
X134774378Y-125570088D01*
X134711806Y-125591328D01*
X134711786Y-125591336D01*
X134619458Y-125629579D01*
X134619433Y-125629590D01*
X134560117Y-125658842D01*
X134560114Y-125658844D01*
X134532100Y-125675018D01*
X134532092Y-125675023D01*
X134477128Y-125711748D01*
X134477113Y-125711759D01*
X134397815Y-125772608D01*
X134348086Y-125816221D01*
X134325222Y-125839085D01*
X134281609Y-125888814D01*
X134220760Y-125968112D01*
X134220749Y-125968127D01*
X134184024Y-126023091D01*
X134184019Y-126023099D01*
X134167845Y-126051113D01*
X134167843Y-126051116D01*
X134138591Y-126110432D01*
X134138580Y-126110457D01*
X134100337Y-126202783D01*
X134100332Y-126202797D01*
X134079085Y-126265390D01*
X134079075Y-126265421D01*
X134070705Y-126296662D01*
X134070701Y-126296678D01*
X134062023Y-126340308D01*
X134057806Y-126361517D01*
X134057803Y-126361530D01*
X134043687Y-126468747D01*
X134040444Y-126501668D01*
X134040444Y-126501674D01*
X134039383Y-126517859D01*
X134038300Y-126550926D01*
X134038300Y-140758671D01*
X132509300Y-140758671D01*
X132509300Y-126550926D01*
X132508217Y-126517861D01*
X132507156Y-126501675D01*
X132503914Y-126468755D01*
X132489795Y-126361517D01*
X132476894Y-126296665D01*
X132468516Y-126265399D01*
X132447264Y-126202791D01*
X132409018Y-126110457D01*
X132409012Y-126110441D01*
X132379765Y-126051133D01*
X132363586Y-126023111D01*
X132363570Y-126023085D01*
X132326849Y-125968127D01*
X132326838Y-125968112D01*
X132265989Y-125888814D01*
X132265984Y-125888808D01*
X132222388Y-125839098D01*
X132222383Y-125839093D01*
X132222376Y-125839085D01*
X132199512Y-125816221D01*
X132199503Y-125816213D01*
X132199500Y-125816210D01*
X132149790Y-125772614D01*
X132149788Y-125772613D01*
X132149783Y-125772608D01*
X132070486Y-125711760D01*
X132070477Y-125711754D01*
X132015507Y-125675023D01*
X131987473Y-125658837D01*
X131958619Y-125644608D01*
X131928160Y-125629587D01*
X131928141Y-125629579D01*
X131928126Y-125629572D01*
X131835806Y-125591332D01*
X131835796Y-125591328D01*
X131773197Y-125570081D01*
X131773166Y-125570071D01*
X131741925Y-125561701D01*
X131677072Y-125548802D01*
X131569847Y-125534686D01*
X131569841Y-125534685D01*
X131569838Y-125534685D01*
X131563682Y-125534078D01*
X131536930Y-125531443D01*
X131520741Y-125530382D01*
X131518535Y-125530309D01*
X131487673Y-125529299D01*
X126169927Y-125529299D01*
X126140993Y-125530246D01*
X126136858Y-125530382D01*
X126120663Y-125531443D01*
X126087756Y-125534684D01*
X125980527Y-125548801D01*
X125980517Y-125548803D01*
X125915669Y-125561702D01*
X125915642Y-125561709D01*
X125884416Y-125570076D01*
X125884378Y-125570088D01*
X125821806Y-125591328D01*
X125821786Y-125591336D01*
X125729458Y-125629579D01*
X125729433Y-125629590D01*
X125670117Y-125658842D01*
X125670114Y-125658844D01*
X125642100Y-125675018D01*
X125642092Y-125675023D01*
X125587128Y-125711748D01*
X125587113Y-125711759D01*
X125507815Y-125772608D01*
X125458086Y-125816221D01*
X125435222Y-125839085D01*
X125391609Y-125888814D01*
X125330760Y-125968112D01*
X125330749Y-125968127D01*
X125294024Y-126023091D01*
X125294019Y-126023099D01*
X125277845Y-126051113D01*
X125277843Y-126051116D01*
X125248591Y-126110432D01*
X125248580Y-126110457D01*
X125210337Y-126202783D01*
X125210332Y-126202797D01*
X125189085Y-126265390D01*
X125189075Y-126265421D01*
X125180705Y-126296662D01*
X125180701Y-126296678D01*
X125172023Y-126340308D01*
X125167806Y-126361517D01*
X125167803Y-126361530D01*
X125153687Y-126468747D01*
X125150444Y-126501668D01*
X125150444Y-126501674D01*
X125149383Y-126517859D01*
X125148300Y-126550926D01*
X125148300Y-140758672D01*
X123619300Y-140758672D01*
X123619300Y-140758671D01*
X123619300Y-126550926D01*
X123618217Y-126517861D01*
X123617156Y-126501675D01*
X123613914Y-126468755D01*
X123599795Y-126361517D01*
X123586894Y-126296665D01*
X123578516Y-126265399D01*
X123557264Y-126202791D01*
X123519018Y-126110457D01*
X123519012Y-126110441D01*
X123489765Y-126051133D01*
X123473586Y-126023111D01*
X123473570Y-126023085D01*
X123436849Y-125968127D01*
X123436838Y-125968112D01*
X123375989Y-125888814D01*
X123375984Y-125888808D01*
X123332388Y-125839098D01*
X123332383Y-125839093D01*
X123332376Y-125839085D01*
X123309512Y-125816221D01*
X123309503Y-125816213D01*
X123309500Y-125816210D01*
X123259790Y-125772614D01*
X123259788Y-125772613D01*
X123259783Y-125772608D01*
X123180486Y-125711760D01*
X123180477Y-125711754D01*
X123125507Y-125675023D01*
X123097473Y-125658837D01*
X123068619Y-125644608D01*
X123038160Y-125629587D01*
X123038141Y-125629579D01*
X123038126Y-125629572D01*
X122945806Y-125591332D01*
X122945796Y-125591328D01*
X122883197Y-125570081D01*
X122883166Y-125570071D01*
X122851925Y-125561701D01*
X122787072Y-125548802D01*
X122679847Y-125534686D01*
X122679841Y-125534685D01*
X122679838Y-125534685D01*
X122673682Y-125534078D01*
X122646930Y-125531443D01*
X122630741Y-125530382D01*
X122628535Y-125530309D01*
X122597673Y-125529299D01*
X117279927Y-125529299D01*
X117250993Y-125530246D01*
X117246858Y-125530382D01*
X117230663Y-125531443D01*
X117197756Y-125534684D01*
X117090527Y-125548801D01*
X117090517Y-125548803D01*
X117025669Y-125561702D01*
X117025642Y-125561709D01*
X116994416Y-125570076D01*
X116994378Y-125570088D01*
X116931806Y-125591328D01*
X116931786Y-125591336D01*
X116839458Y-125629579D01*
X116839433Y-125629590D01*
X116780117Y-125658842D01*
X116780114Y-125658844D01*
X116752100Y-125675018D01*
X116752092Y-125675023D01*
X116697128Y-125711748D01*
X116697113Y-125711759D01*
X116617815Y-125772608D01*
X116568086Y-125816221D01*
X116545222Y-125839085D01*
X116501609Y-125888814D01*
X116440760Y-125968112D01*
X116440749Y-125968127D01*
X116404024Y-126023091D01*
X116404019Y-126023099D01*
X116387845Y-126051113D01*
X116387843Y-126051116D01*
X116358591Y-126110432D01*
X116358580Y-126110457D01*
X116320337Y-126202783D01*
X116320332Y-126202797D01*
X116299085Y-126265390D01*
X116299075Y-126265421D01*
X116290705Y-126296662D01*
X116290701Y-126296678D01*
X116282023Y-126340308D01*
X116277806Y-126361517D01*
X116277803Y-126361530D01*
X116263687Y-126468747D01*
X116260444Y-126501668D01*
X116260444Y-126501674D01*
X116259383Y-126517859D01*
X116258300Y-126550926D01*
X116258300Y-140758671D01*
X114729300Y-140758671D01*
X114729300Y-126550926D01*
X114728217Y-126517861D01*
X114727156Y-126501675D01*
X114723914Y-126468755D01*
X114709795Y-126361517D01*
X114696894Y-126296665D01*
X114688516Y-126265399D01*
X114667264Y-126202791D01*
X114629018Y-126110457D01*
X114629012Y-126110441D01*
X114599765Y-126051133D01*
X114583586Y-126023111D01*
X114583570Y-126023085D01*
X114546849Y-125968127D01*
X114546838Y-125968112D01*
X114485989Y-125888814D01*
X114485984Y-125888808D01*
X114442388Y-125839098D01*
X114442383Y-125839093D01*
X114442376Y-125839085D01*
X114419512Y-125816221D01*
X114419503Y-125816213D01*
X114419500Y-125816210D01*
X114369790Y-125772614D01*
X114369788Y-125772613D01*
X114369783Y-125772608D01*
X114290486Y-125711760D01*
X114290477Y-125711754D01*
X114235507Y-125675023D01*
X114207473Y-125658837D01*
X114178619Y-125644608D01*
X114148160Y-125629587D01*
X114148141Y-125629579D01*
X114148126Y-125629572D01*
X114055806Y-125591332D01*
X114055796Y-125591328D01*
X113993197Y-125570081D01*
X113993166Y-125570071D01*
X113961925Y-125561701D01*
X113897072Y-125548802D01*
X113789847Y-125534686D01*
X113789841Y-125534685D01*
X113789838Y-125534685D01*
X113783682Y-125534078D01*
X113756930Y-125531443D01*
X113740741Y-125530382D01*
X113738535Y-125530309D01*
X113707673Y-125529299D01*
X108389927Y-125529299D01*
X108360993Y-125530246D01*
X108356858Y-125530382D01*
X108340663Y-125531443D01*
X108307756Y-125534684D01*
X108200527Y-125548801D01*
X108200517Y-125548803D01*
X108135669Y-125561702D01*
X108135642Y-125561709D01*
X108104416Y-125570076D01*
X108104378Y-125570088D01*
X108041806Y-125591328D01*
X108041786Y-125591336D01*
X107949458Y-125629579D01*
X107949433Y-125629590D01*
X107890117Y-125658842D01*
X107890114Y-125658844D01*
X107862100Y-125675018D01*
X107862092Y-125675023D01*
X107807128Y-125711748D01*
X107807113Y-125711759D01*
X107727815Y-125772608D01*
X107678086Y-125816221D01*
X107655222Y-125839085D01*
X107611609Y-125888814D01*
X107550760Y-125968112D01*
X107550749Y-125968127D01*
X107514024Y-126023091D01*
X107514019Y-126023099D01*
X107497845Y-126051113D01*
X107497843Y-126051116D01*
X107468591Y-126110432D01*
X107468580Y-126110457D01*
X107430337Y-126202783D01*
X107430332Y-126202797D01*
X107409085Y-126265390D01*
X107409075Y-126265421D01*
X107400705Y-126296662D01*
X107400701Y-126296678D01*
X107392023Y-126340308D01*
X107387806Y-126361517D01*
X107387803Y-126361530D01*
X107373687Y-126468747D01*
X107370444Y-126501668D01*
X107370444Y-126501674D01*
X107369383Y-126517859D01*
X107368300Y-126550926D01*
X107368300Y-140758671D01*
X71043800Y-140758671D01*
X71043801Y-139497470D01*
X71043801Y-139496869D01*
X71043800Y-139496105D01*
X71043800Y-139496074D01*
X71039524Y-135450798D01*
X71553189Y-135450798D01*
X71573603Y-135736230D01*
X71634427Y-136015834D01*
X71734434Y-136283963D01*
X71871569Y-136535106D01*
X71871574Y-136535114D01*
X72043053Y-136764184D01*
X72043069Y-136764202D01*
X72245393Y-136966526D01*
X72245411Y-136966542D01*
X72474481Y-137138021D01*
X72474489Y-137138026D01*
X72725632Y-137275161D01*
X72725631Y-137275161D01*
X72725635Y-137275162D01*
X72725638Y-137275164D01*
X72993753Y-137375166D01*
X72993759Y-137375167D01*
X72993761Y-137375168D01*
X73273365Y-137435992D01*
X73273367Y-137435992D01*
X73273371Y-137435993D01*
X73527019Y-137454134D01*
X73558798Y-137456407D01*
X73558799Y-137456407D01*
X73558800Y-137456407D01*
X73587394Y-137454361D01*
X73844227Y-137435993D01*
X74099036Y-137380563D01*
X74123836Y-137375168D01*
X74123836Y-137375167D01*
X74123845Y-137375166D01*
X74391960Y-137275164D01*
X74643114Y-137138023D01*
X74872194Y-136966536D01*
X75074538Y-136764192D01*
X75246025Y-136535112D01*
X75383166Y-136283958D01*
X75483168Y-136015843D01*
X75543995Y-135736225D01*
X75564409Y-135450797D01*
X75543995Y-135165369D01*
X75483168Y-134885751D01*
X75383166Y-134617636D01*
X75246025Y-134366482D01*
X75246023Y-134366479D01*
X75074544Y-134137409D01*
X75074528Y-134137391D01*
X74872204Y-133935067D01*
X74872186Y-133935051D01*
X74643116Y-133763572D01*
X74643108Y-133763567D01*
X74391965Y-133626432D01*
X74391966Y-133626432D01*
X74284188Y-133586233D01*
X74123845Y-133526428D01*
X74123842Y-133526427D01*
X74123836Y-133526425D01*
X73844232Y-133465601D01*
X73558800Y-133445187D01*
X73558798Y-133445187D01*
X73273365Y-133465601D01*
X72993761Y-133526425D01*
X72725632Y-133626432D01*
X72474489Y-133763567D01*
X72474481Y-133763572D01*
X72245411Y-133935051D01*
X72245393Y-133935067D01*
X72043069Y-134137391D01*
X72043053Y-134137409D01*
X71871574Y-134366479D01*
X71871569Y-134366487D01*
X71734434Y-134617630D01*
X71634427Y-134885759D01*
X71573603Y-135165363D01*
X71553189Y-135450795D01*
X71553189Y-135450798D01*
X71039524Y-135450798D01*
X71034661Y-130850796D01*
X79203272Y-130850796D01*
X79223362Y-131182933D01*
X79223362Y-131182938D01*
X79223363Y-131182939D01*
X79283343Y-131510238D01*
X79283344Y-131510242D01*
X79283345Y-131510246D01*
X79382329Y-131827901D01*
X79382333Y-131827913D01*
X79382336Y-131827920D01*
X79518901Y-132131354D01*
X79679186Y-132396498D01*
X79691050Y-132416123D01*
X79896259Y-132678052D01*
X80131543Y-132913336D01*
X80393472Y-133118545D01*
X80393477Y-133118548D01*
X80393481Y-133118551D01*
X80678242Y-133290695D01*
X80981676Y-133427260D01*
X80981689Y-133427264D01*
X80981694Y-133427266D01*
X81104717Y-133465601D01*
X81299358Y-133526253D01*
X81626657Y-133586233D01*
X81958799Y-133606324D01*
X82290941Y-133586233D01*
X82618240Y-133526253D01*
X82935922Y-133427260D01*
X83239356Y-133290695D01*
X83524117Y-133118551D01*
X83786051Y-132913339D01*
X84021341Y-132678049D01*
X84226553Y-132416115D01*
X84398697Y-132131354D01*
X84535262Y-131827920D01*
X84634255Y-131510238D01*
X84694235Y-131182939D01*
X84714326Y-130850797D01*
X84709524Y-130771425D01*
X84709298Y-130763937D01*
X84709298Y-128524000D01*
X93948704Y-128524000D01*
X93967851Y-128767297D01*
X93967851Y-128767300D01*
X93967852Y-128767302D01*
X94010538Y-128945101D01*
X94024828Y-129004619D01*
X94118220Y-129230089D01*
X94245735Y-129438173D01*
X94245736Y-129438176D01*
X94245739Y-129438179D01*
X94404239Y-129623759D01*
X94547895Y-129746453D01*
X94589821Y-129782261D01*
X94589824Y-129782262D01*
X94797908Y-129909777D01*
X95023379Y-130003169D01*
X95023376Y-130003169D01*
X95023382Y-130003170D01*
X95023386Y-130003172D01*
X95260696Y-130060146D01*
X95503998Y-130079294D01*
X95747300Y-130060146D01*
X95984610Y-130003172D01*
X96210087Y-129909777D01*
X96418177Y-129782259D01*
X96603757Y-129623759D01*
X96762257Y-129438179D01*
X96889775Y-129230089D01*
X96983170Y-129004612D01*
X97040144Y-128767302D01*
X97059292Y-128524000D01*
X99028704Y-128524000D01*
X99047851Y-128767297D01*
X99047851Y-128767300D01*
X99047852Y-128767302D01*
X99090538Y-128945101D01*
X99104828Y-129004619D01*
X99198220Y-129230089D01*
X99325735Y-129438173D01*
X99325736Y-129438176D01*
X99325739Y-129438179D01*
X99484239Y-129623759D01*
X99627895Y-129746453D01*
X99669821Y-129782261D01*
X99669824Y-129782262D01*
X99877908Y-129909777D01*
X100103379Y-130003169D01*
X100103376Y-130003169D01*
X100103382Y-130003170D01*
X100103386Y-130003172D01*
X100340696Y-130060146D01*
X100583998Y-130079294D01*
X100827300Y-130060146D01*
X101064610Y-130003172D01*
X101290087Y-129909777D01*
X101498177Y-129782259D01*
X101683757Y-129623759D01*
X101842257Y-129438179D01*
X101969775Y-129230089D01*
X102063170Y-129004612D01*
X102120144Y-128767302D01*
X102139292Y-128524000D01*
X102120144Y-128280698D01*
X102063170Y-128043388D01*
X102043421Y-127995709D01*
X101969775Y-127817910D01*
X101842260Y-127609826D01*
X101842259Y-127609823D01*
X101806451Y-127567897D01*
X101683757Y-127424241D01*
X101557046Y-127316020D01*
X101498174Y-127265738D01*
X101498171Y-127265737D01*
X101290087Y-127138222D01*
X101064616Y-127044830D01*
X101064619Y-127044830D01*
X100908072Y-127007246D01*
X100827300Y-126987854D01*
X100827298Y-126987853D01*
X100827295Y-126987853D01*
X100583998Y-126968706D01*
X100340700Y-126987853D01*
X100103378Y-127044830D01*
X99877908Y-127138222D01*
X99669824Y-127265737D01*
X99669821Y-127265738D01*
X99484239Y-127424241D01*
X99325736Y-127609823D01*
X99325735Y-127609826D01*
X99198220Y-127817910D01*
X99104828Y-128043380D01*
X99047851Y-128280702D01*
X99028704Y-128524000D01*
X97059292Y-128524000D01*
X97040144Y-128280698D01*
X96983170Y-128043388D01*
X96963421Y-127995709D01*
X96889775Y-127817910D01*
X96762260Y-127609826D01*
X96762259Y-127609823D01*
X96726451Y-127567897D01*
X96603757Y-127424241D01*
X96477046Y-127316020D01*
X96418174Y-127265738D01*
X96418171Y-127265737D01*
X96210087Y-127138222D01*
X95984616Y-127044830D01*
X95984619Y-127044830D01*
X95828072Y-127007246D01*
X95747300Y-126987854D01*
X95747298Y-126987853D01*
X95747295Y-126987853D01*
X95503998Y-126968706D01*
X95260700Y-126987853D01*
X95023378Y-127044830D01*
X94797908Y-127138222D01*
X94589824Y-127265737D01*
X94589821Y-127265738D01*
X94404239Y-127424241D01*
X94245736Y-127609823D01*
X94245735Y-127609826D01*
X94118220Y-127817910D01*
X94024828Y-128043380D01*
X93967851Y-128280702D01*
X93948704Y-128524000D01*
X84709298Y-128524000D01*
X84709298Y-123337669D01*
X84709524Y-123330182D01*
X84711574Y-123296286D01*
X84714326Y-123250797D01*
X84694235Y-122918655D01*
X84634255Y-122591356D01*
X84572381Y-122392793D01*
X84535268Y-122273692D01*
X84535266Y-122273687D01*
X84535262Y-122273674D01*
X84398697Y-121970240D01*
X84226553Y-121685479D01*
X84226550Y-121685475D01*
X84226547Y-121685470D01*
X84021338Y-121423541D01*
X83786054Y-121188257D01*
X83524125Y-120983048D01*
X83524117Y-120983043D01*
X83239356Y-120810899D01*
X82935922Y-120674334D01*
X82935915Y-120674331D01*
X82935903Y-120674327D01*
X82618248Y-120575343D01*
X82618244Y-120575342D01*
X82618240Y-120575341D01*
X82290941Y-120515361D01*
X82290940Y-120515360D01*
X82290935Y-120515360D01*
X81958799Y-120495270D01*
X81626662Y-120515360D01*
X81626657Y-120515361D01*
X81299358Y-120575341D01*
X81299355Y-120575341D01*
X81299349Y-120575343D01*
X80981694Y-120674327D01*
X80981678Y-120674333D01*
X80981676Y-120674334D01*
X80913004Y-120705241D01*
X80678246Y-120810897D01*
X80678244Y-120810898D01*
X80393472Y-120983048D01*
X80131543Y-121188257D01*
X79896259Y-121423541D01*
X79691050Y-121685470D01*
X79609973Y-121819588D01*
X79523511Y-121962615D01*
X79518900Y-121970242D01*
X79518899Y-121970244D01*
X79491948Y-122030126D01*
X79396985Y-122241127D01*
X79382335Y-122273677D01*
X79382329Y-122273692D01*
X79283345Y-122591347D01*
X79283343Y-122591353D01*
X79283343Y-122591356D01*
X79255933Y-122740926D01*
X79223362Y-122918660D01*
X79203272Y-123250797D01*
X79208073Y-123330166D01*
X79208299Y-123337653D01*
X79208299Y-130763926D01*
X79208073Y-130771411D01*
X79203272Y-130850796D01*
X71034661Y-130850796D01*
X71026495Y-123126455D01*
X71021764Y-118650798D01*
X71553189Y-118650798D01*
X71573603Y-118936230D01*
X71634427Y-119215834D01*
X71634429Y-119215840D01*
X71634430Y-119215843D01*
X71734432Y-119483958D01*
X71734434Y-119483963D01*
X71871569Y-119735106D01*
X71871574Y-119735114D01*
X72043053Y-119964184D01*
X72043069Y-119964202D01*
X72245393Y-120166526D01*
X72245411Y-120166542D01*
X72474481Y-120338021D01*
X72474489Y-120338026D01*
X72725632Y-120475161D01*
X72725631Y-120475161D01*
X72725635Y-120475162D01*
X72725638Y-120475164D01*
X72993753Y-120575166D01*
X72993759Y-120575167D01*
X72993761Y-120575168D01*
X73273365Y-120635992D01*
X73273367Y-120635992D01*
X73273371Y-120635993D01*
X73527019Y-120654134D01*
X73558798Y-120656407D01*
X73558799Y-120656407D01*
X73558800Y-120656407D01*
X73587394Y-120654361D01*
X73844227Y-120635993D01*
X74065060Y-120587954D01*
X74123836Y-120575168D01*
X74123836Y-120575167D01*
X74123845Y-120575166D01*
X74391960Y-120475164D01*
X74643114Y-120338023D01*
X74872194Y-120166536D01*
X75074538Y-119964192D01*
X75246025Y-119735112D01*
X75383166Y-119483958D01*
X75483168Y-119215843D01*
X75543995Y-118936225D01*
X75564409Y-118650797D01*
X75543995Y-118365369D01*
X75520526Y-118257485D01*
X75483170Y-118085759D01*
X75483169Y-118085757D01*
X75483168Y-118085751D01*
X75383166Y-117817636D01*
X75343193Y-117744432D01*
X75246028Y-117566487D01*
X75246023Y-117566479D01*
X75074544Y-117337409D01*
X75074528Y-117337391D01*
X74872204Y-117135067D01*
X74872186Y-117135051D01*
X74643116Y-116963572D01*
X74643108Y-116963567D01*
X74391965Y-116826432D01*
X74391966Y-116826432D01*
X74129011Y-116728355D01*
X74123845Y-116726428D01*
X74123842Y-116726427D01*
X74123836Y-116726425D01*
X73844232Y-116665601D01*
X73558800Y-116645187D01*
X73558798Y-116645187D01*
X73273365Y-116665601D01*
X72993761Y-116726425D01*
X72725632Y-116826432D01*
X72474489Y-116963567D01*
X72474481Y-116963572D01*
X72245411Y-117135051D01*
X72245393Y-117135067D01*
X72043069Y-117337391D01*
X72043053Y-117337409D01*
X71871574Y-117566479D01*
X71871569Y-117566487D01*
X71734434Y-117817630D01*
X71634427Y-118085759D01*
X71573603Y-118365363D01*
X71553189Y-118650795D01*
X71553189Y-118650798D01*
X71021764Y-118650798D01*
X71008646Y-106240798D01*
X71553189Y-106240798D01*
X71573603Y-106526230D01*
X71634427Y-106805834D01*
X71734434Y-107073963D01*
X71871569Y-107325106D01*
X71871574Y-107325114D01*
X72043053Y-107554184D01*
X72043069Y-107554202D01*
X72245393Y-107756526D01*
X72245411Y-107756542D01*
X72474481Y-107928021D01*
X72474489Y-107928026D01*
X72725632Y-108065161D01*
X72725631Y-108065161D01*
X72725635Y-108065162D01*
X72725638Y-108065164D01*
X72993753Y-108165166D01*
X72993759Y-108165167D01*
X72993761Y-108165168D01*
X73273365Y-108225992D01*
X73273367Y-108225992D01*
X73273371Y-108225993D01*
X73527019Y-108244134D01*
X73558798Y-108246407D01*
X73558799Y-108246407D01*
X73558800Y-108246407D01*
X73587394Y-108244361D01*
X73844227Y-108225993D01*
X74123845Y-108165166D01*
X74391960Y-108065164D01*
X74643114Y-107928023D01*
X74872194Y-107756536D01*
X75074538Y-107554192D01*
X75246025Y-107325112D01*
X75383166Y-107073958D01*
X75483168Y-106805843D01*
X75543995Y-106526225D01*
X75564409Y-106240797D01*
X75543995Y-105955369D01*
X75527000Y-105877246D01*
X75483170Y-105675759D01*
X75483169Y-105675757D01*
X75483168Y-105675751D01*
X75383166Y-105407636D01*
X75346897Y-105341215D01*
X75246028Y-105156487D01*
X75246023Y-105156479D01*
X75074544Y-104927409D01*
X75074528Y-104927391D01*
X74872204Y-104725067D01*
X74872186Y-104725051D01*
X74643116Y-104553572D01*
X74643108Y-104553567D01*
X74391965Y-104416432D01*
X74391966Y-104416432D01*
X74284188Y-104376233D01*
X74123845Y-104316428D01*
X74123842Y-104316427D01*
X74123836Y-104316425D01*
X73844232Y-104255601D01*
X73558800Y-104235187D01*
X73558798Y-104235187D01*
X73273365Y-104255601D01*
X72993761Y-104316425D01*
X72725632Y-104416432D01*
X72474489Y-104553567D01*
X72474481Y-104553572D01*
X72245411Y-104725051D01*
X72245393Y-104725067D01*
X72043069Y-104927391D01*
X72043053Y-104927409D01*
X71871574Y-105156479D01*
X71871569Y-105156487D01*
X71734434Y-105407630D01*
X71634427Y-105675759D01*
X71573603Y-105955363D01*
X71553189Y-106240795D01*
X71553189Y-106240798D01*
X71008646Y-106240798D01*
X71003783Y-101640796D01*
X79203272Y-101640796D01*
X79223362Y-101972933D01*
X79223362Y-101972938D01*
X79223363Y-101972939D01*
X79283343Y-102300238D01*
X79283344Y-102300242D01*
X79283345Y-102300246D01*
X79382329Y-102617901D01*
X79382333Y-102617913D01*
X79382336Y-102617920D01*
X79518901Y-102921354D01*
X79669310Y-103170161D01*
X79691050Y-103206123D01*
X79896259Y-103468052D01*
X80131543Y-103703336D01*
X80393472Y-103908545D01*
X80393477Y-103908548D01*
X80393481Y-103908551D01*
X80678242Y-104080695D01*
X80981676Y-104217260D01*
X80981689Y-104217264D01*
X80981694Y-104217266D01*
X81104717Y-104255601D01*
X81299358Y-104316253D01*
X81626657Y-104376233D01*
X81958799Y-104396324D01*
X82290941Y-104376233D01*
X82618240Y-104316253D01*
X82935922Y-104217260D01*
X83239356Y-104080695D01*
X83524117Y-103908551D01*
X83786051Y-103703339D01*
X84021341Y-103468049D01*
X84226553Y-103206115D01*
X84398697Y-102921354D01*
X84535262Y-102617920D01*
X84634255Y-102300238D01*
X84694235Y-101972939D01*
X84714326Y-101640797D01*
X84709524Y-101561425D01*
X84709298Y-101553937D01*
X84709298Y-94127669D01*
X84709524Y-94120182D01*
X84709525Y-94120166D01*
X84714326Y-94040797D01*
X84694235Y-93708655D01*
X84634255Y-93381356D01*
X84569858Y-93174698D01*
X84535268Y-93063692D01*
X84535266Y-93063687D01*
X84535262Y-93063674D01*
X84398697Y-92760240D01*
X84226553Y-92475479D01*
X84226550Y-92475475D01*
X84226547Y-92475470D01*
X84021338Y-92213541D01*
X83786054Y-91978257D01*
X83524125Y-91773048D01*
X83512655Y-91766114D01*
X83239356Y-91600899D01*
X82935922Y-91464334D01*
X82935915Y-91464331D01*
X82935903Y-91464327D01*
X82618248Y-91365343D01*
X82618244Y-91365342D01*
X82618240Y-91365341D01*
X82290941Y-91305361D01*
X82290940Y-91305360D01*
X82290935Y-91305360D01*
X81958799Y-91285270D01*
X81626662Y-91305360D01*
X81626657Y-91305361D01*
X81299358Y-91365341D01*
X81299355Y-91365341D01*
X81299349Y-91365343D01*
X80981694Y-91464327D01*
X80981678Y-91464333D01*
X80981676Y-91464334D01*
X80788455Y-91551295D01*
X80678246Y-91600897D01*
X80678244Y-91600898D01*
X80393472Y-91773048D01*
X80131543Y-91978257D01*
X79896259Y-92213541D01*
X79691050Y-92475470D01*
X79574286Y-92668620D01*
X79518901Y-92760240D01*
X79395426Y-93034591D01*
X79382335Y-93063677D01*
X79382329Y-93063692D01*
X79283345Y-93381347D01*
X79283343Y-93381353D01*
X79283343Y-93381356D01*
X79249467Y-93566213D01*
X79223362Y-93708660D01*
X79203272Y-94040797D01*
X79208073Y-94120166D01*
X79208299Y-94127653D01*
X79208299Y-101553926D01*
X79208073Y-101561411D01*
X79203272Y-101640796D01*
X71003783Y-101640796D01*
X70993000Y-91440000D01*
X69724342Y-91440000D01*
X69724337Y-91440000D01*
X46741412Y-91440000D01*
X46730605Y-91439528D01*
X46699897Y-91436841D01*
X46526274Y-91421651D01*
X46504988Y-91417898D01*
X46312112Y-91366217D01*
X46291801Y-91358824D01*
X46110834Y-91274437D01*
X46092116Y-91263630D01*
X45928543Y-91149095D01*
X45911985Y-91135201D01*
X45770798Y-90994014D01*
X45756904Y-90977456D01*
X45642369Y-90813883D01*
X45631562Y-90795165D01*
X45547175Y-90614198D01*
X45539782Y-90593887D01*
X45534637Y-90574686D01*
X45488099Y-90401004D01*
X45484348Y-90379724D01*
X45475095Y-90273963D01*
X45466472Y-90175395D01*
X45466000Y-90164588D01*
X45466000Y-89440798D01*
X71553189Y-89440798D01*
X71573603Y-89726230D01*
X71634427Y-90005834D01*
X71634429Y-90005840D01*
X71634430Y-90005843D01*
X71676430Y-90118449D01*
X71734434Y-90273963D01*
X71871569Y-90525106D01*
X71871574Y-90525114D01*
X72043053Y-90754184D01*
X72043069Y-90754202D01*
X72245393Y-90956526D01*
X72245411Y-90956542D01*
X72474481Y-91128021D01*
X72474489Y-91128026D01*
X72725632Y-91265161D01*
X72725631Y-91265161D01*
X72725635Y-91265162D01*
X72725638Y-91265164D01*
X72993753Y-91365166D01*
X72993759Y-91365167D01*
X72993761Y-91365168D01*
X73273365Y-91425992D01*
X73273367Y-91425992D01*
X73273371Y-91425993D01*
X73527019Y-91444134D01*
X73558798Y-91446407D01*
X73558799Y-91446407D01*
X73558800Y-91446407D01*
X73587394Y-91444361D01*
X73844227Y-91425993D01*
X73881440Y-91417898D01*
X74123836Y-91365168D01*
X74123836Y-91365167D01*
X74123845Y-91365166D01*
X74391960Y-91265164D01*
X74643114Y-91128023D01*
X74872194Y-90956536D01*
X75074538Y-90754192D01*
X75246025Y-90525112D01*
X75383166Y-90273958D01*
X75483168Y-90005843D01*
X75543995Y-89726225D01*
X75564409Y-89440797D01*
X75561134Y-89395013D01*
X75544974Y-89169058D01*
X75543995Y-89155369D01*
X75542477Y-89148393D01*
X75483170Y-88875759D01*
X75483169Y-88875757D01*
X75483168Y-88875751D01*
X75383166Y-88607636D01*
X75246025Y-88356482D01*
X75094525Y-88154101D01*
X75074544Y-88127409D01*
X75074528Y-88127391D01*
X74872204Y-87925067D01*
X74872186Y-87925051D01*
X74643116Y-87753572D01*
X74643108Y-87753567D01*
X74391965Y-87616432D01*
X74391966Y-87616432D01*
X74284714Y-87576429D01*
X74123845Y-87516428D01*
X74123842Y-87516427D01*
X74123836Y-87516425D01*
X73844232Y-87455601D01*
X73558800Y-87435187D01*
X73558798Y-87435187D01*
X73273365Y-87455601D01*
X72993761Y-87516425D01*
X72725632Y-87616432D01*
X72474489Y-87753567D01*
X72474481Y-87753572D01*
X72245411Y-87925051D01*
X72245393Y-87925067D01*
X72043069Y-88127391D01*
X72043053Y-88127409D01*
X71871574Y-88356479D01*
X71871569Y-88356487D01*
X71734434Y-88607630D01*
X71634427Y-88875759D01*
X71573603Y-89155363D01*
X71553189Y-89440795D01*
X71553189Y-89440798D01*
X45466000Y-89440798D01*
X45466000Y-59187411D01*
X45466472Y-59176604D01*
X45484348Y-58972270D01*
X45488099Y-58950996D01*
X45539783Y-58758107D01*
X45547175Y-58737801D01*
X45567370Y-58694493D01*
X45631563Y-58556831D01*
X45642369Y-58538116D01*
X45756904Y-58374543D01*
X45770792Y-58357991D01*
X45911991Y-58216792D01*
X45928543Y-58202904D01*
X46092116Y-58088369D01*
X46110831Y-58077563D01*
X46291803Y-57993174D01*
X46312107Y-57985783D01*
X46504996Y-57934099D01*
X46526270Y-57930348D01*
X46730605Y-57912472D01*
X46741412Y-57912000D01*
X90815500Y-57912000D01*
X90882539Y-57931685D01*
X90928294Y-57984489D01*
X90939500Y-58036000D01*
X90939500Y-112837807D01*
X90963612Y-112959027D01*
X90963614Y-112959035D01*
X90984481Y-113009411D01*
X91010917Y-113073233D01*
X91010918Y-113073235D01*
X91010920Y-113073238D01*
X91014157Y-113078083D01*
X91014160Y-113078086D01*
X91057483Y-113142924D01*
X91079590Y-113176010D01*
X91079591Y-113176011D01*
X100350589Y-122447008D01*
X100398373Y-122494792D01*
X100437994Y-122534413D01*
X100437997Y-122534414D01*
X100540767Y-122603083D01*
X100574215Y-122616937D01*
X100654965Y-122650386D01*
X100761542Y-122671585D01*
X100776192Y-122674499D01*
X100776196Y-122674500D01*
X100776197Y-122674500D01*
X101661804Y-122674500D01*
X101661805Y-122674499D01*
X101783035Y-122650386D01*
X101863784Y-122616937D01*
X101897233Y-122603083D01*
X102000008Y-122534411D01*
X102087411Y-122447008D01*
X102849411Y-121685008D01*
X102874812Y-121646992D01*
X102918083Y-121582233D01*
X102964861Y-121469302D01*
X102964869Y-121469283D01*
X102965384Y-121468039D01*
X102965384Y-121468038D01*
X102965386Y-121468034D01*
X102989500Y-121346803D01*
X102989500Y-121223197D01*
X102989500Y-121223196D01*
X102989500Y-119990800D01*
X107539460Y-119990800D01*
X107558773Y-120199229D01*
X107616058Y-120400569D01*
X107709361Y-120587947D01*
X107709366Y-120587955D01*
X107835513Y-120755001D01*
X107896829Y-120810897D01*
X107990207Y-120896022D01*
X108168181Y-121006219D01*
X108168182Y-121006219D01*
X108168183Y-121006220D01*
X108209533Y-121022239D01*
X108363372Y-121081836D01*
X108569135Y-121120300D01*
X108569137Y-121120300D01*
X108778461Y-121120300D01*
X108778463Y-121120300D01*
X108984226Y-121081836D01*
X109179417Y-121006219D01*
X109357391Y-120896022D01*
X109512086Y-120754999D01*
X109638233Y-120587953D01*
X109731539Y-120400571D01*
X109788824Y-120199234D01*
X109808138Y-119990800D01*
X112289462Y-119990800D01*
X112308775Y-120199229D01*
X112366060Y-120400569D01*
X112459363Y-120587947D01*
X112459368Y-120587955D01*
X112585515Y-120755001D01*
X112646831Y-120810897D01*
X112740209Y-120896022D01*
X112918183Y-121006219D01*
X112918184Y-121006219D01*
X112918185Y-121006220D01*
X112959535Y-121022239D01*
X113113374Y-121081836D01*
X113319137Y-121120300D01*
X113319139Y-121120300D01*
X113528463Y-121120300D01*
X113528465Y-121120300D01*
X113734228Y-121081836D01*
X113929419Y-121006219D01*
X114107393Y-120896022D01*
X114262088Y-120754999D01*
X114388235Y-120587953D01*
X114481541Y-120400571D01*
X114538826Y-120199234D01*
X114558140Y-119990800D01*
X114558140Y-119990799D01*
X116429460Y-119990799D01*
X116448773Y-120199228D01*
X116448773Y-120199230D01*
X116448774Y-120199233D01*
X116477135Y-120298914D01*
X116506058Y-120400568D01*
X116599361Y-120587946D01*
X116599366Y-120587954D01*
X116725513Y-120755000D01*
X116804583Y-120827081D01*
X116880207Y-120896021D01*
X117058181Y-121006218D01*
X117058182Y-121006218D01*
X117058183Y-121006219D01*
X117058186Y-121006220D01*
X117253372Y-121081835D01*
X117459135Y-121120299D01*
X117459137Y-121120299D01*
X117668461Y-121120299D01*
X117668463Y-121120299D01*
X117874226Y-121081835D01*
X118069417Y-121006218D01*
X118247391Y-120896021D01*
X118402086Y-120754998D01*
X118528233Y-120587952D01*
X118621539Y-120400570D01*
X118678824Y-120199233D01*
X118698138Y-119990799D01*
X121179462Y-119990799D01*
X121198775Y-120199228D01*
X121198775Y-120199230D01*
X121198776Y-120199233D01*
X121227137Y-120298914D01*
X121256060Y-120400568D01*
X121349363Y-120587946D01*
X121349368Y-120587954D01*
X121475515Y-120755000D01*
X121554585Y-120827081D01*
X121630209Y-120896021D01*
X121808183Y-121006218D01*
X121808184Y-121006218D01*
X121808185Y-121006219D01*
X121808188Y-121006220D01*
X122003374Y-121081835D01*
X122209137Y-121120299D01*
X122209139Y-121120299D01*
X122418463Y-121120299D01*
X122418465Y-121120299D01*
X122624228Y-121081835D01*
X122819419Y-121006218D01*
X122997393Y-120896021D01*
X123152088Y-120754998D01*
X123278235Y-120587952D01*
X123371541Y-120400570D01*
X123428826Y-120199233D01*
X123448140Y-119990799D01*
X125319460Y-119990799D01*
X125338773Y-120199228D01*
X125338773Y-120199230D01*
X125338774Y-120199233D01*
X125367135Y-120298914D01*
X125396058Y-120400568D01*
X125489361Y-120587946D01*
X125489366Y-120587954D01*
X125615513Y-120755000D01*
X125694583Y-120827081D01*
X125770207Y-120896021D01*
X125948181Y-121006218D01*
X125948182Y-121006218D01*
X125948183Y-121006219D01*
X125948186Y-121006220D01*
X126143372Y-121081835D01*
X126349135Y-121120299D01*
X126349137Y-121120299D01*
X126558461Y-121120299D01*
X126558463Y-121120299D01*
X126764226Y-121081835D01*
X126959417Y-121006218D01*
X127137391Y-120896021D01*
X127292086Y-120754998D01*
X127418233Y-120587952D01*
X127511539Y-120400570D01*
X127568824Y-120199233D01*
X127588138Y-119990799D01*
X130069462Y-119990799D01*
X130088775Y-120199228D01*
X130088775Y-120199230D01*
X130088776Y-120199233D01*
X130117137Y-120298914D01*
X130146060Y-120400568D01*
X130239363Y-120587946D01*
X130239368Y-120587954D01*
X130365515Y-120755000D01*
X130444585Y-120827081D01*
X130520209Y-120896021D01*
X130698183Y-121006218D01*
X130698184Y-121006218D01*
X130698185Y-121006219D01*
X130698188Y-121006220D01*
X130893374Y-121081835D01*
X131099137Y-121120299D01*
X131099139Y-121120299D01*
X131308463Y-121120299D01*
X131308465Y-121120299D01*
X131514228Y-121081835D01*
X131709419Y-121006218D01*
X131887393Y-120896021D01*
X132042088Y-120754998D01*
X132168235Y-120587952D01*
X132261541Y-120400570D01*
X132318826Y-120199233D01*
X132338140Y-119990799D01*
X134209460Y-119990799D01*
X134228773Y-120199228D01*
X134228773Y-120199230D01*
X134228774Y-120199233D01*
X134257135Y-120298914D01*
X134286058Y-120400568D01*
X134379361Y-120587946D01*
X134379366Y-120587954D01*
X134505513Y-120755000D01*
X134584583Y-120827081D01*
X134660207Y-120896021D01*
X134838181Y-121006218D01*
X134838182Y-121006218D01*
X134838183Y-121006219D01*
X134838186Y-121006220D01*
X135033372Y-121081835D01*
X135239135Y-121120299D01*
X135239137Y-121120299D01*
X135448461Y-121120299D01*
X135448463Y-121120299D01*
X135654226Y-121081835D01*
X135849417Y-121006218D01*
X136027391Y-120896021D01*
X136182086Y-120754998D01*
X136308233Y-120587952D01*
X136401539Y-120400570D01*
X136458824Y-120199233D01*
X136478138Y-119990799D01*
X138959462Y-119990799D01*
X138978775Y-120199228D01*
X138978775Y-120199230D01*
X138978776Y-120199233D01*
X139007137Y-120298914D01*
X139036060Y-120400568D01*
X139129363Y-120587946D01*
X139129368Y-120587954D01*
X139255515Y-120755000D01*
X139334585Y-120827081D01*
X139410209Y-120896021D01*
X139588183Y-121006218D01*
X139588184Y-121006218D01*
X139588185Y-121006219D01*
X139588188Y-121006220D01*
X139783374Y-121081835D01*
X139989137Y-121120299D01*
X139989139Y-121120299D01*
X140198463Y-121120299D01*
X140198465Y-121120299D01*
X140404228Y-121081835D01*
X140599419Y-121006218D01*
X140777393Y-120896021D01*
X140932088Y-120754998D01*
X141058235Y-120587952D01*
X141151541Y-120400570D01*
X141208826Y-120199233D01*
X141228140Y-119990799D01*
X141228140Y-119990797D01*
X143099460Y-119990797D01*
X143118773Y-120199226D01*
X143176058Y-120400566D01*
X143269361Y-120587944D01*
X143269366Y-120587952D01*
X143395513Y-120754998D01*
X143528592Y-120876314D01*
X143550207Y-120896019D01*
X143728181Y-121006216D01*
X143728182Y-121006216D01*
X143728183Y-121006217D01*
X143728191Y-121006220D01*
X143923372Y-121081833D01*
X144129135Y-121120297D01*
X144129137Y-121120297D01*
X144338461Y-121120297D01*
X144338463Y-121120297D01*
X144544226Y-121081833D01*
X144739417Y-121006216D01*
X144917391Y-120896019D01*
X145072086Y-120754996D01*
X145198233Y-120587950D01*
X145291539Y-120400568D01*
X145348824Y-120199231D01*
X145368138Y-119990797D01*
X147849462Y-119990797D01*
X147868775Y-120199226D01*
X147926060Y-120400566D01*
X148019363Y-120587944D01*
X148019368Y-120587952D01*
X148145515Y-120754998D01*
X148278594Y-120876314D01*
X148300209Y-120896019D01*
X148478183Y-121006216D01*
X148478184Y-121006216D01*
X148478185Y-121006217D01*
X148478193Y-121006220D01*
X148673374Y-121081833D01*
X148879137Y-121120297D01*
X148879139Y-121120297D01*
X149088463Y-121120297D01*
X149088465Y-121120297D01*
X149294228Y-121081833D01*
X149489419Y-121006216D01*
X149667393Y-120896019D01*
X149822088Y-120754996D01*
X149948235Y-120587950D01*
X150041541Y-120400568D01*
X150098826Y-120199231D01*
X150118140Y-119990797D01*
X150098826Y-119782363D01*
X150041541Y-119581026D01*
X149976647Y-119450703D01*
X149948238Y-119393649D01*
X149948233Y-119393641D01*
X149822086Y-119226595D01*
X149667394Y-119085576D01*
X149667393Y-119085575D01*
X149489419Y-118975378D01*
X149489417Y-118975377D01*
X149489416Y-118975376D01*
X149294238Y-118899765D01*
X149294228Y-118899761D01*
X149088465Y-118861297D01*
X148879137Y-118861297D01*
X148673374Y-118899761D01*
X148673371Y-118899761D01*
X148673371Y-118899762D01*
X148478185Y-118975376D01*
X148478184Y-118975377D01*
X148300207Y-119085576D01*
X148145515Y-119226595D01*
X148019368Y-119393641D01*
X148019363Y-119393649D01*
X147926060Y-119581027D01*
X147883504Y-119730600D01*
X147872104Y-119770668D01*
X147868775Y-119782367D01*
X147849462Y-119990796D01*
X147849462Y-119990797D01*
X145368138Y-119990797D01*
X145348824Y-119782363D01*
X145291539Y-119581026D01*
X145226645Y-119450703D01*
X145198236Y-119393649D01*
X145198231Y-119393641D01*
X145072084Y-119226595D01*
X144917392Y-119085576D01*
X144917391Y-119085575D01*
X144739417Y-118975378D01*
X144739415Y-118975377D01*
X144739414Y-118975376D01*
X144544236Y-118899765D01*
X144544226Y-118899761D01*
X144338463Y-118861297D01*
X144129135Y-118861297D01*
X143923372Y-118899761D01*
X143923369Y-118899761D01*
X143923369Y-118899762D01*
X143728183Y-118975376D01*
X143728182Y-118975377D01*
X143550205Y-119085576D01*
X143395513Y-119226595D01*
X143269366Y-119393641D01*
X143269361Y-119393649D01*
X143176058Y-119581027D01*
X143133502Y-119730600D01*
X143122102Y-119770668D01*
X143118773Y-119782367D01*
X143099460Y-119990796D01*
X143099460Y-119990797D01*
X141228140Y-119990797D01*
X141208826Y-119782365D01*
X141151541Y-119581028D01*
X141086646Y-119450703D01*
X141058238Y-119393651D01*
X141058233Y-119393643D01*
X140932086Y-119226597D01*
X140777394Y-119085578D01*
X140777393Y-119085577D01*
X140599419Y-118975380D01*
X140599417Y-118975379D01*
X140599416Y-118975378D01*
X140404233Y-118899765D01*
X140404228Y-118899763D01*
X140198465Y-118861299D01*
X139989137Y-118861299D01*
X139783374Y-118899763D01*
X139783371Y-118899763D01*
X139783371Y-118899764D01*
X139588185Y-118975378D01*
X139588184Y-118975379D01*
X139410207Y-119085578D01*
X139255515Y-119226597D01*
X139129368Y-119393643D01*
X139129363Y-119393651D01*
X139036060Y-119581029D01*
X139024590Y-119621344D01*
X138982106Y-119770663D01*
X138978775Y-119782369D01*
X138959462Y-119990798D01*
X138959462Y-119990799D01*
X136478138Y-119990799D01*
X136458824Y-119782365D01*
X136401539Y-119581028D01*
X136336644Y-119450703D01*
X136308236Y-119393651D01*
X136308231Y-119393643D01*
X136182084Y-119226597D01*
X136027392Y-119085578D01*
X136027391Y-119085577D01*
X135849417Y-118975380D01*
X135849415Y-118975379D01*
X135849414Y-118975378D01*
X135654231Y-118899765D01*
X135654226Y-118899763D01*
X135448463Y-118861299D01*
X135239135Y-118861299D01*
X135033372Y-118899763D01*
X135033369Y-118899763D01*
X135033369Y-118899764D01*
X134838183Y-118975378D01*
X134838182Y-118975379D01*
X134660205Y-119085578D01*
X134505513Y-119226597D01*
X134379366Y-119393643D01*
X134379361Y-119393651D01*
X134286058Y-119581029D01*
X134274588Y-119621344D01*
X134232104Y-119770663D01*
X134228773Y-119782369D01*
X134209460Y-119990798D01*
X134209460Y-119990799D01*
X132338140Y-119990799D01*
X132318826Y-119782365D01*
X132261541Y-119581028D01*
X132196646Y-119450703D01*
X132168238Y-119393651D01*
X132168233Y-119393643D01*
X132042086Y-119226597D01*
X131887394Y-119085578D01*
X131887393Y-119085577D01*
X131709419Y-118975380D01*
X131709417Y-118975379D01*
X131709416Y-118975378D01*
X131514233Y-118899765D01*
X131514228Y-118899763D01*
X131308465Y-118861299D01*
X131099137Y-118861299D01*
X130893374Y-118899763D01*
X130893371Y-118899763D01*
X130893371Y-118899764D01*
X130698185Y-118975378D01*
X130698184Y-118975379D01*
X130520207Y-119085578D01*
X130365515Y-119226597D01*
X130239368Y-119393643D01*
X130239363Y-119393651D01*
X130146060Y-119581029D01*
X130134590Y-119621344D01*
X130092106Y-119770663D01*
X130088775Y-119782369D01*
X130069462Y-119990798D01*
X130069462Y-119990799D01*
X127588138Y-119990799D01*
X127568824Y-119782365D01*
X127511539Y-119581028D01*
X127446644Y-119450703D01*
X127418236Y-119393651D01*
X127418231Y-119393643D01*
X127292084Y-119226597D01*
X127137392Y-119085578D01*
X127137391Y-119085577D01*
X126959417Y-118975380D01*
X126959415Y-118975379D01*
X126959414Y-118975378D01*
X126764231Y-118899765D01*
X126764226Y-118899763D01*
X126558463Y-118861299D01*
X126349135Y-118861299D01*
X126143372Y-118899763D01*
X126143369Y-118899763D01*
X126143369Y-118899764D01*
X125948183Y-118975378D01*
X125948182Y-118975379D01*
X125770205Y-119085578D01*
X125615513Y-119226597D01*
X125489366Y-119393643D01*
X125489361Y-119393651D01*
X125396058Y-119581029D01*
X125384588Y-119621344D01*
X125342104Y-119770663D01*
X125338773Y-119782369D01*
X125319460Y-119990798D01*
X125319460Y-119990799D01*
X123448140Y-119990799D01*
X123428826Y-119782365D01*
X123371541Y-119581028D01*
X123306646Y-119450703D01*
X123278238Y-119393651D01*
X123278233Y-119393643D01*
X123152086Y-119226597D01*
X122997394Y-119085578D01*
X122997393Y-119085577D01*
X122819419Y-118975380D01*
X122819417Y-118975379D01*
X122819416Y-118975378D01*
X122624233Y-118899765D01*
X122624228Y-118899763D01*
X122418465Y-118861299D01*
X122209137Y-118861299D01*
X122003374Y-118899763D01*
X122003371Y-118899763D01*
X122003371Y-118899764D01*
X121808185Y-118975378D01*
X121808184Y-118975379D01*
X121630207Y-119085578D01*
X121475515Y-119226597D01*
X121349368Y-119393643D01*
X121349363Y-119393651D01*
X121256060Y-119581029D01*
X121244590Y-119621344D01*
X121202106Y-119770663D01*
X121198775Y-119782369D01*
X121179462Y-119990798D01*
X121179462Y-119990799D01*
X118698138Y-119990799D01*
X118678824Y-119782365D01*
X118621539Y-119581028D01*
X118556644Y-119450703D01*
X118528236Y-119393651D01*
X118528231Y-119393643D01*
X118402084Y-119226597D01*
X118247392Y-119085578D01*
X118247391Y-119085577D01*
X118069417Y-118975380D01*
X118069415Y-118975379D01*
X118069414Y-118975378D01*
X117874231Y-118899765D01*
X117874226Y-118899763D01*
X117668463Y-118861299D01*
X117459135Y-118861299D01*
X117253372Y-118899763D01*
X117253369Y-118899763D01*
X117253369Y-118899764D01*
X117058183Y-118975378D01*
X117058182Y-118975379D01*
X116880205Y-119085578D01*
X116725513Y-119226597D01*
X116599366Y-119393643D01*
X116599361Y-119393651D01*
X116506058Y-119581029D01*
X116494588Y-119621344D01*
X116452104Y-119770663D01*
X116448773Y-119782369D01*
X116429460Y-119990798D01*
X116429460Y-119990799D01*
X114558140Y-119990799D01*
X114538826Y-119782366D01*
X114481541Y-119581029D01*
X114428764Y-119475039D01*
X114388238Y-119393652D01*
X114388233Y-119393644D01*
X114262086Y-119226598D01*
X114107394Y-119085579D01*
X114107393Y-119085578D01*
X113929419Y-118975381D01*
X113929417Y-118975380D01*
X113929416Y-118975379D01*
X113775580Y-118915784D01*
X113734228Y-118899764D01*
X113528465Y-118861300D01*
X113319137Y-118861300D01*
X113113374Y-118899764D01*
X113113371Y-118899764D01*
X113113371Y-118899765D01*
X112918185Y-118975379D01*
X112918184Y-118975380D01*
X112740207Y-119085579D01*
X112585515Y-119226598D01*
X112459368Y-119393644D01*
X112459363Y-119393652D01*
X112366060Y-119581030D01*
X112308775Y-119782370D01*
X112289462Y-119990799D01*
X112289462Y-119990800D01*
X109808138Y-119990800D01*
X109788824Y-119782366D01*
X109731539Y-119581029D01*
X109678762Y-119475039D01*
X109638236Y-119393652D01*
X109638231Y-119393644D01*
X109512084Y-119226598D01*
X109357392Y-119085579D01*
X109357391Y-119085578D01*
X109179417Y-118975381D01*
X109179415Y-118975380D01*
X109179414Y-118975379D01*
X109025578Y-118915784D01*
X108984226Y-118899764D01*
X108778463Y-118861300D01*
X108569135Y-118861300D01*
X108363372Y-118899764D01*
X108363369Y-118899764D01*
X108363369Y-118899765D01*
X108168183Y-118975379D01*
X108168182Y-118975380D01*
X107990205Y-119085579D01*
X107835513Y-119226598D01*
X107709366Y-119393644D01*
X107709361Y-119393652D01*
X107616058Y-119581030D01*
X107558773Y-119782370D01*
X107539460Y-119990799D01*
X107539460Y-119990800D01*
X102989500Y-119990800D01*
X102989500Y-119818281D01*
X103009185Y-119751242D01*
X103025819Y-119730600D01*
X104119408Y-118637011D01*
X104119411Y-118637008D01*
X104166246Y-118566913D01*
X104196460Y-118535489D01*
X104225088Y-118514691D01*
X104349077Y-118376987D01*
X104441726Y-118216513D01*
X104498987Y-118040284D01*
X104518356Y-117856000D01*
X104498987Y-117671716D01*
X104441726Y-117495487D01*
X104349077Y-117335013D01*
X104300514Y-117281078D01*
X104225093Y-117197313D01*
X104225090Y-117197311D01*
X104225089Y-117197310D01*
X104225088Y-117197309D01*
X104075178Y-117088393D01*
X104075177Y-117088392D01*
X103905904Y-117013026D01*
X103905896Y-117013024D01*
X103724649Y-116974500D01*
X103539351Y-116974500D01*
X103358103Y-117013024D01*
X103358095Y-117013026D01*
X103188822Y-117088392D01*
X103038909Y-117197311D01*
X103038906Y-117197313D01*
X102914922Y-117335014D01*
X102822274Y-117495485D01*
X102765014Y-117671711D01*
X102765013Y-117671713D01*
X102745644Y-117855999D01*
X102765013Y-118040285D01*
X102784763Y-118101070D01*
X102786757Y-118170911D01*
X102754512Y-118227067D01*
X102313742Y-118667837D01*
X102252419Y-118701322D01*
X102182727Y-118696338D01*
X102126794Y-118654466D01*
X102102740Y-118593119D01*
X102085987Y-118433716D01*
X102028726Y-118257487D01*
X101936077Y-118097013D01*
X101884998Y-118040284D01*
X101812093Y-117959313D01*
X101812090Y-117959311D01*
X101812089Y-117959310D01*
X101812088Y-117959309D01*
X101712148Y-117886698D01*
X101662177Y-117850392D01*
X101492904Y-117775026D01*
X101492896Y-117775024D01*
X101311649Y-117736500D01*
X101126351Y-117736500D01*
X101126347Y-117736500D01*
X101064020Y-117749748D01*
X100994353Y-117744432D01*
X100950558Y-117716139D01*
X99295219Y-116060800D01*
X111793274Y-116060800D01*
X111813347Y-116315864D01*
X111873079Y-116564664D01*
X111970988Y-116801039D01*
X111970990Y-116801042D01*
X112104675Y-117019196D01*
X112104678Y-117019201D01*
X112148976Y-117071067D01*
X112270844Y-117213756D01*
X112375686Y-117303299D01*
X112465398Y-117379921D01*
X112465403Y-117379924D01*
X112683557Y-117513609D01*
X112683560Y-117513611D01*
X112919928Y-117611517D01*
X112919940Y-117611522D01*
X113168730Y-117671252D01*
X113423800Y-117691326D01*
X113678870Y-117671252D01*
X113927660Y-117611522D01*
X114045851Y-117562565D01*
X114164039Y-117513611D01*
X114164040Y-117513610D01*
X114164043Y-117513609D01*
X114382199Y-117379923D01*
X114576756Y-117213756D01*
X114742923Y-117019199D01*
X114876609Y-116801043D01*
X114974522Y-116564660D01*
X115034252Y-116315870D01*
X115054326Y-116060800D01*
X115054326Y-116060799D01*
X120683274Y-116060799D01*
X120703347Y-116315863D01*
X120703347Y-116315866D01*
X120703348Y-116315869D01*
X120748419Y-116503602D01*
X120763079Y-116564663D01*
X120860988Y-116801038D01*
X120860990Y-116801041D01*
X120994675Y-117019195D01*
X120994678Y-117019200D01*
X121038976Y-117071066D01*
X121160844Y-117213755D01*
X121282650Y-117317787D01*
X121355398Y-117379920D01*
X121355400Y-117379921D01*
X121355401Y-117379922D01*
X121543983Y-117495485D01*
X121573557Y-117513608D01*
X121573560Y-117513610D01*
X121809930Y-117611517D01*
X121809940Y-117611521D01*
X122058730Y-117671251D01*
X122313800Y-117691325D01*
X122568870Y-117671251D01*
X122817660Y-117611521D01*
X122935851Y-117562564D01*
X123054039Y-117513610D01*
X123054040Y-117513609D01*
X123054043Y-117513608D01*
X123272199Y-117379922D01*
X123466756Y-117213755D01*
X123632923Y-117019198D01*
X123766609Y-116801042D01*
X123766612Y-116801036D01*
X123864520Y-116564663D01*
X123864522Y-116564659D01*
X123924252Y-116315869D01*
X123944326Y-116060799D01*
X129573274Y-116060799D01*
X129593347Y-116315863D01*
X129593347Y-116315866D01*
X129593348Y-116315869D01*
X129638419Y-116503602D01*
X129653079Y-116564663D01*
X129750988Y-116801038D01*
X129750990Y-116801041D01*
X129884675Y-117019195D01*
X129884678Y-117019200D01*
X129928976Y-117071066D01*
X130050844Y-117213755D01*
X130172650Y-117317787D01*
X130245398Y-117379920D01*
X130245400Y-117379921D01*
X130245401Y-117379922D01*
X130433983Y-117495485D01*
X130463557Y-117513608D01*
X130463560Y-117513610D01*
X130699930Y-117611517D01*
X130699940Y-117611521D01*
X130948730Y-117671251D01*
X131203800Y-117691325D01*
X131458870Y-117671251D01*
X131707660Y-117611521D01*
X131825851Y-117562564D01*
X131944039Y-117513610D01*
X131944040Y-117513609D01*
X131944043Y-117513608D01*
X132162199Y-117379922D01*
X132356756Y-117213755D01*
X132522923Y-117019198D01*
X132656609Y-116801042D01*
X132656612Y-116801036D01*
X132754520Y-116564663D01*
X132754522Y-116564659D01*
X132814252Y-116315869D01*
X132834326Y-116060799D01*
X138463274Y-116060799D01*
X138483347Y-116315863D01*
X138483347Y-116315866D01*
X138483348Y-116315869D01*
X138528419Y-116503602D01*
X138543079Y-116564663D01*
X138640988Y-116801038D01*
X138640990Y-116801041D01*
X138774675Y-117019195D01*
X138774678Y-117019200D01*
X138818976Y-117071066D01*
X138940844Y-117213755D01*
X139062650Y-117317787D01*
X139135398Y-117379920D01*
X139135400Y-117379921D01*
X139135401Y-117379922D01*
X139323983Y-117495485D01*
X139353557Y-117513608D01*
X139353560Y-117513610D01*
X139589930Y-117611517D01*
X139589940Y-117611521D01*
X139838730Y-117671251D01*
X140093800Y-117691325D01*
X140348870Y-117671251D01*
X140597660Y-117611521D01*
X140715851Y-117562564D01*
X140834039Y-117513610D01*
X140834040Y-117513609D01*
X140834043Y-117513608D01*
X141052199Y-117379922D01*
X141246756Y-117213755D01*
X141412923Y-117019198D01*
X141546609Y-116801042D01*
X141546612Y-116801036D01*
X141644520Y-116564663D01*
X141644522Y-116564659D01*
X141704252Y-116315869D01*
X141724326Y-116060799D01*
X141724326Y-116060797D01*
X147353274Y-116060797D01*
X147373347Y-116315861D01*
X147373347Y-116315864D01*
X147373348Y-116315867D01*
X147373349Y-116315870D01*
X147433079Y-116564661D01*
X147530988Y-116801036D01*
X147530990Y-116801039D01*
X147664675Y-117019193D01*
X147664678Y-117019198D01*
X147723776Y-117088392D01*
X147830844Y-117213753D01*
X147935688Y-117303298D01*
X148025398Y-117379918D01*
X148025400Y-117379919D01*
X148025401Y-117379920D01*
X148025406Y-117379923D01*
X148243557Y-117513606D01*
X148243560Y-117513608D01*
X148479935Y-117611517D01*
X148479940Y-117611519D01*
X148728730Y-117671249D01*
X148983800Y-117691323D01*
X149238870Y-117671249D01*
X149487660Y-117611519D01*
X149605851Y-117562562D01*
X149724039Y-117513608D01*
X149724040Y-117513607D01*
X149724043Y-117513606D01*
X149942199Y-117379920D01*
X150136756Y-117213753D01*
X150302923Y-117019196D01*
X150436609Y-116801040D01*
X150534522Y-116564657D01*
X150594252Y-116315867D01*
X150614326Y-116060797D01*
X150594252Y-115805727D01*
X150534522Y-115556937D01*
X150534520Y-115556932D01*
X150436611Y-115320557D01*
X150436609Y-115320554D01*
X150302924Y-115102400D01*
X150302921Y-115102395D01*
X150217156Y-115001978D01*
X150136756Y-114907841D01*
X150030391Y-114816997D01*
X149942201Y-114741675D01*
X149942196Y-114741672D01*
X149724042Y-114607987D01*
X149724039Y-114607985D01*
X149487664Y-114510076D01*
X149487660Y-114510075D01*
X149238870Y-114450345D01*
X149238867Y-114450344D01*
X149238864Y-114450344D01*
X148983800Y-114430271D01*
X148728735Y-114450344D01*
X148728731Y-114450344D01*
X148728730Y-114450345D01*
X148728718Y-114450348D01*
X148479935Y-114510076D01*
X148243560Y-114607985D01*
X148243557Y-114607987D01*
X148025403Y-114741672D01*
X148025398Y-114741675D01*
X147830844Y-114907841D01*
X147664678Y-115102395D01*
X147664675Y-115102400D01*
X147530990Y-115320554D01*
X147530988Y-115320557D01*
X147433079Y-115556932D01*
X147433077Y-115556940D01*
X147374527Y-115800819D01*
X147373347Y-115805732D01*
X147353274Y-116060797D01*
X141724326Y-116060797D01*
X141704252Y-115805729D01*
X141644522Y-115556939D01*
X141546611Y-115320560D01*
X141546611Y-115320559D01*
X141546609Y-115320556D01*
X141412924Y-115102402D01*
X141412923Y-115102401D01*
X141412923Y-115102400D01*
X141412922Y-115102399D01*
X141412921Y-115102397D01*
X141328902Y-115004024D01*
X141246756Y-114907843D01*
X141140391Y-114816999D01*
X141052201Y-114741677D01*
X141052196Y-114741674D01*
X140834042Y-114607989D01*
X140834039Y-114607987D01*
X140597664Y-114510078D01*
X140597652Y-114510075D01*
X140348870Y-114450347D01*
X140348867Y-114450346D01*
X140348864Y-114450346D01*
X140093800Y-114430273D01*
X139838735Y-114450346D01*
X139838731Y-114450346D01*
X139838730Y-114450347D01*
X139714335Y-114480212D01*
X139589935Y-114510078D01*
X139353560Y-114607987D01*
X139353557Y-114607989D01*
X139135403Y-114741674D01*
X139135398Y-114741677D01*
X138940844Y-114907843D01*
X138774678Y-115102397D01*
X138774675Y-115102402D01*
X138640990Y-115320556D01*
X138640988Y-115320559D01*
X138543079Y-115556934D01*
X138543078Y-115556939D01*
X138483349Y-115805727D01*
X138483347Y-115805734D01*
X138463274Y-116060799D01*
X132834326Y-116060799D01*
X132814252Y-115805729D01*
X132754522Y-115556939D01*
X132656611Y-115320560D01*
X132656611Y-115320559D01*
X132656609Y-115320556D01*
X132522924Y-115102402D01*
X132522923Y-115102401D01*
X132522923Y-115102400D01*
X132522922Y-115102399D01*
X132522921Y-115102397D01*
X132438902Y-115004024D01*
X132356756Y-114907843D01*
X132250391Y-114816999D01*
X132162201Y-114741677D01*
X132162196Y-114741674D01*
X131944042Y-114607989D01*
X131944039Y-114607987D01*
X131707664Y-114510078D01*
X131707652Y-114510075D01*
X131458870Y-114450347D01*
X131458867Y-114450346D01*
X131458864Y-114450346D01*
X131203800Y-114430273D01*
X130948735Y-114450346D01*
X130948731Y-114450346D01*
X130948730Y-114450347D01*
X130824335Y-114480212D01*
X130699935Y-114510078D01*
X130463560Y-114607987D01*
X130463557Y-114607989D01*
X130245403Y-114741674D01*
X130245398Y-114741677D01*
X130050844Y-114907843D01*
X129884678Y-115102397D01*
X129884675Y-115102402D01*
X129750990Y-115320556D01*
X129750988Y-115320559D01*
X129653079Y-115556934D01*
X129653078Y-115556939D01*
X129593349Y-115805727D01*
X129593347Y-115805734D01*
X129573274Y-116060799D01*
X123944326Y-116060799D01*
X123924252Y-115805729D01*
X123864522Y-115556939D01*
X123766611Y-115320560D01*
X123766611Y-115320559D01*
X123766609Y-115320556D01*
X123632924Y-115102402D01*
X123632923Y-115102401D01*
X123632923Y-115102400D01*
X123632922Y-115102399D01*
X123632921Y-115102397D01*
X123548902Y-115004024D01*
X123466756Y-114907843D01*
X123360391Y-114816999D01*
X123272201Y-114741677D01*
X123272196Y-114741674D01*
X123054042Y-114607989D01*
X123054039Y-114607987D01*
X122817664Y-114510078D01*
X122817652Y-114510075D01*
X122568870Y-114450347D01*
X122568867Y-114450346D01*
X122568864Y-114450346D01*
X122313800Y-114430273D01*
X122058735Y-114450346D01*
X122058731Y-114450346D01*
X122058730Y-114450347D01*
X121934335Y-114480212D01*
X121809935Y-114510078D01*
X121573560Y-114607987D01*
X121573557Y-114607989D01*
X121355403Y-114741674D01*
X121355398Y-114741677D01*
X121160844Y-114907843D01*
X120994678Y-115102397D01*
X120994675Y-115102402D01*
X120860990Y-115320556D01*
X120860988Y-115320559D01*
X120763079Y-115556934D01*
X120763078Y-115556939D01*
X120703349Y-115805727D01*
X120703347Y-115805734D01*
X120683274Y-116060799D01*
X115054326Y-116060799D01*
X115034252Y-115805730D01*
X114974522Y-115556940D01*
X114974519Y-115556932D01*
X114876611Y-115320560D01*
X114876609Y-115320557D01*
X114854877Y-115285094D01*
X114742923Y-115102401D01*
X114742922Y-115102400D01*
X114742921Y-115102398D01*
X114657154Y-115001978D01*
X114576756Y-114907844D01*
X114470391Y-114817000D01*
X114382201Y-114741678D01*
X114382196Y-114741675D01*
X114164042Y-114607990D01*
X114164039Y-114607988D01*
X113927664Y-114510079D01*
X113927652Y-114510076D01*
X113678870Y-114450348D01*
X113678867Y-114450347D01*
X113678864Y-114450347D01*
X113423800Y-114430274D01*
X113168735Y-114450347D01*
X113168731Y-114450347D01*
X113168730Y-114450348D01*
X113044335Y-114480213D01*
X112919935Y-114510079D01*
X112683560Y-114607988D01*
X112683557Y-114607990D01*
X112465403Y-114741675D01*
X112465398Y-114741678D01*
X112270844Y-114907844D01*
X112104678Y-115102398D01*
X112104675Y-115102403D01*
X111970990Y-115320557D01*
X111970988Y-115320560D01*
X111873079Y-115556935D01*
X111813347Y-115805735D01*
X111793274Y-116060800D01*
X99295219Y-116060800D01*
X94897819Y-111663400D01*
X94864334Y-111602077D01*
X94861500Y-111575719D01*
X94861500Y-100203000D01*
X118967706Y-100203000D01*
X118986853Y-100446297D01*
X118986853Y-100446300D01*
X118986854Y-100446302D01*
X119018043Y-100576213D01*
X119043830Y-100683619D01*
X119137222Y-100909089D01*
X119264737Y-101117173D01*
X119264738Y-101117176D01*
X119264741Y-101117179D01*
X119423241Y-101302759D01*
X119490879Y-101360527D01*
X119608823Y-101461261D01*
X119608826Y-101461262D01*
X119816910Y-101588777D01*
X120042381Y-101682169D01*
X120042378Y-101682169D01*
X120042384Y-101682170D01*
X120042388Y-101682172D01*
X120279698Y-101739146D01*
X120523000Y-101758294D01*
X120766302Y-101739146D01*
X121003612Y-101682172D01*
X121229089Y-101588777D01*
X121437179Y-101461259D01*
X121622759Y-101302759D01*
X121781259Y-101117179D01*
X121908777Y-100909089D01*
X122002172Y-100683612D01*
X122059146Y-100446302D01*
X122078294Y-100203000D01*
X124047706Y-100203000D01*
X124066853Y-100446297D01*
X124066853Y-100446300D01*
X124066854Y-100446302D01*
X124098043Y-100576213D01*
X124123830Y-100683619D01*
X124217222Y-100909089D01*
X124344737Y-101117173D01*
X124344738Y-101117176D01*
X124344741Y-101117179D01*
X124503241Y-101302759D01*
X124570879Y-101360527D01*
X124688823Y-101461261D01*
X124688826Y-101461262D01*
X124896910Y-101588777D01*
X125122381Y-101682169D01*
X125122378Y-101682169D01*
X125122384Y-101682170D01*
X125122388Y-101682172D01*
X125359698Y-101739146D01*
X125603000Y-101758294D01*
X125846302Y-101739146D01*
X126083612Y-101682172D01*
X126309089Y-101588777D01*
X126517179Y-101461259D01*
X126702759Y-101302759D01*
X126861259Y-101117179D01*
X126988777Y-100909089D01*
X127082172Y-100683612D01*
X127139146Y-100446302D01*
X127158294Y-100203000D01*
X127139146Y-99959698D01*
X127082172Y-99722388D01*
X126988777Y-99496911D01*
X126988777Y-99496910D01*
X126861262Y-99288826D01*
X126861261Y-99288823D01*
X126825453Y-99246897D01*
X126702759Y-99103241D01*
X126580063Y-98998449D01*
X126517176Y-98944738D01*
X126517173Y-98944737D01*
X126309089Y-98817222D01*
X126083618Y-98723830D01*
X126083621Y-98723830D01*
X125977992Y-98698470D01*
X125846302Y-98666854D01*
X125846300Y-98666853D01*
X125846297Y-98666853D01*
X125603000Y-98647706D01*
X125359702Y-98666853D01*
X125122380Y-98723830D01*
X124896910Y-98817222D01*
X124688826Y-98944737D01*
X124688823Y-98944738D01*
X124503241Y-99103241D01*
X124344738Y-99288823D01*
X124344737Y-99288826D01*
X124217222Y-99496910D01*
X124123830Y-99722380D01*
X124066853Y-99959702D01*
X124047706Y-100203000D01*
X122078294Y-100203000D01*
X122059146Y-99959698D01*
X122002172Y-99722388D01*
X121908777Y-99496911D01*
X121908777Y-99496910D01*
X121781262Y-99288826D01*
X121781261Y-99288823D01*
X121745453Y-99246897D01*
X121622759Y-99103241D01*
X121500063Y-98998449D01*
X121437176Y-98944738D01*
X121437173Y-98944737D01*
X121229089Y-98817222D01*
X121003618Y-98723830D01*
X121003621Y-98723830D01*
X120897992Y-98698470D01*
X120766302Y-98666854D01*
X120766300Y-98666853D01*
X120766297Y-98666853D01*
X120523000Y-98647706D01*
X120279702Y-98666853D01*
X120042380Y-98723830D01*
X119816910Y-98817222D01*
X119608826Y-98944737D01*
X119608823Y-98944738D01*
X119423241Y-99103241D01*
X119264738Y-99288823D01*
X119264737Y-99288826D01*
X119137222Y-99496910D01*
X119043830Y-99722380D01*
X118986853Y-99959702D01*
X118967706Y-100203000D01*
X94861500Y-100203000D01*
X94861500Y-97064281D01*
X94881185Y-96997242D01*
X94933989Y-96951487D01*
X95003147Y-96941543D01*
X95066703Y-96970568D01*
X95073181Y-96976600D01*
X95524589Y-97428008D01*
X95604407Y-97507826D01*
X95611994Y-97515413D01*
X95611996Y-97515414D01*
X95714756Y-97584076D01*
X95714758Y-97584077D01*
X95714767Y-97584083D01*
X95739772Y-97594440D01*
X95762071Y-97603677D01*
X95804254Y-97621149D01*
X95828966Y-97631386D01*
X95950192Y-97655499D01*
X95950196Y-97655500D01*
X95950197Y-97655500D01*
X105496672Y-97655500D01*
X105563711Y-97675185D01*
X105576183Y-97684708D01*
X105578911Y-97686690D01*
X105578912Y-97686691D01*
X105635576Y-97727860D01*
X105728822Y-97795607D01*
X105898095Y-97870973D01*
X105898098Y-97870973D01*
X105898101Y-97870975D01*
X106079351Y-97909500D01*
X106264649Y-97909500D01*
X106445899Y-97870975D01*
X106445902Y-97870973D01*
X106445904Y-97870973D01*
X106520247Y-97837873D01*
X106615178Y-97795607D01*
X106765088Y-97686691D01*
X106766874Y-97684708D01*
X106793173Y-97655499D01*
X106889077Y-97548987D01*
X106981726Y-97388513D01*
X107038987Y-97212284D01*
X107058356Y-97028000D01*
X107038987Y-96843716D01*
X106981726Y-96667487D01*
X106889077Y-96507013D01*
X106833555Y-96445349D01*
X106765093Y-96369313D01*
X106765090Y-96369311D01*
X106765089Y-96369310D01*
X106765088Y-96369309D01*
X106615178Y-96260393D01*
X106615177Y-96260392D01*
X106445904Y-96185026D01*
X106445896Y-96185024D01*
X106264649Y-96146500D01*
X106079351Y-96146500D01*
X105898103Y-96185024D01*
X105898095Y-96185026D01*
X105728822Y-96260392D01*
X105629711Y-96332401D01*
X105578912Y-96369309D01*
X105578910Y-96369310D01*
X105573655Y-96373129D01*
X105572790Y-96371938D01*
X105516653Y-96398880D01*
X105496672Y-96400500D01*
X96323281Y-96400500D01*
X96256242Y-96380815D01*
X96235600Y-96364181D01*
X95786819Y-95915400D01*
X95753334Y-95854077D01*
X95750500Y-95827719D01*
X95750500Y-94525861D01*
X95770185Y-94458822D01*
X95822989Y-94413067D01*
X95892147Y-94403123D01*
X95899132Y-94404676D01*
X95899189Y-94404395D01*
X96026392Y-94429698D01*
X96026395Y-94429698D01*
X96150001Y-94429698D01*
X107239674Y-94429698D01*
X107306713Y-94449383D01*
X107319185Y-94458906D01*
X107471824Y-94569805D01*
X107641097Y-94645171D01*
X107641100Y-94645171D01*
X107641103Y-94645173D01*
X107822353Y-94683698D01*
X108007651Y-94683698D01*
X108188901Y-94645173D01*
X108188904Y-94645171D01*
X108188906Y-94645171D01*
X108245924Y-94619784D01*
X108358180Y-94569805D01*
X108508090Y-94460889D01*
X108509876Y-94458906D01*
X108537736Y-94427964D01*
X108632079Y-94323185D01*
X108724728Y-94162711D01*
X108781989Y-93986482D01*
X108801358Y-93802198D01*
X108799064Y-93780372D01*
X131925502Y-93780372D01*
X131953460Y-93956895D01*
X131980722Y-94040798D01*
X132008691Y-94126880D01*
X132089835Y-94286134D01*
X132192875Y-94427956D01*
X132194893Y-94430733D01*
X153564980Y-115800819D01*
X153598465Y-115862142D01*
X153601299Y-115888500D01*
X153601299Y-127598139D01*
X153581614Y-127665178D01*
X153571590Y-127678670D01*
X153478540Y-127787617D01*
X153478538Y-127787621D01*
X153351021Y-127995708D01*
X153257629Y-128221178D01*
X153200652Y-128458500D01*
X153181505Y-128701798D01*
X153200652Y-128945095D01*
X153200652Y-128945098D01*
X153200653Y-128945100D01*
X153214942Y-129004619D01*
X153257629Y-129182417D01*
X153351021Y-129407887D01*
X153478536Y-129615971D01*
X153478537Y-129615974D01*
X153485186Y-129623759D01*
X153637040Y-129801557D01*
X153763750Y-129909777D01*
X153822622Y-129960059D01*
X153822625Y-129960060D01*
X154030709Y-130087575D01*
X154256180Y-130180967D01*
X154256177Y-130180967D01*
X154256183Y-130180968D01*
X154256187Y-130180970D01*
X154493497Y-130237944D01*
X154736799Y-130257092D01*
X154980101Y-130237944D01*
X155217411Y-130180970D01*
X155442888Y-130087575D01*
X155650978Y-129960057D01*
X155836558Y-129801557D01*
X155995058Y-129615977D01*
X156122576Y-129407887D01*
X156215971Y-129182410D01*
X156272945Y-128945100D01*
X156292093Y-128701798D01*
X156272945Y-128458496D01*
X156215971Y-128221186D01*
X156215968Y-128221178D01*
X156122576Y-127995708D01*
X155995059Y-127787621D01*
X155995057Y-127787617D01*
X155902008Y-127678670D01*
X155873438Y-127614909D01*
X155872299Y-127598139D01*
X155872299Y-126662499D01*
X155891984Y-126595460D01*
X155944788Y-126549705D01*
X156013946Y-126539761D01*
X156077502Y-126568786D01*
X156083980Y-126574818D01*
X158233474Y-128724312D01*
X158266959Y-128785635D01*
X158269411Y-128802263D01*
X158280653Y-128945101D01*
X158337629Y-129182417D01*
X158431021Y-129407887D01*
X158558536Y-129615971D01*
X158558537Y-129615974D01*
X158565186Y-129623759D01*
X158717040Y-129801557D01*
X158843750Y-129909777D01*
X158902622Y-129960059D01*
X158902625Y-129960060D01*
X159110709Y-130087575D01*
X159336180Y-130180967D01*
X159336177Y-130180967D01*
X159336183Y-130180968D01*
X159336187Y-130180970D01*
X159573497Y-130237944D01*
X159816799Y-130257092D01*
X160060101Y-130237944D01*
X160297411Y-130180970D01*
X160522888Y-130087575D01*
X160730978Y-129960057D01*
X160916558Y-129801557D01*
X161075058Y-129615977D01*
X161202576Y-129407887D01*
X161295971Y-129182410D01*
X161352945Y-128945100D01*
X161372093Y-128701798D01*
X161352945Y-128458496D01*
X161295971Y-128221186D01*
X161295968Y-128221178D01*
X161202576Y-127995708D01*
X161075061Y-127787624D01*
X161075060Y-127787621D01*
X161039252Y-127745695D01*
X160916558Y-127602039D01*
X160793862Y-127497247D01*
X160730975Y-127443536D01*
X160730972Y-127443535D01*
X160522888Y-127316020D01*
X160297417Y-127222628D01*
X160297420Y-127222628D01*
X160060102Y-127165652D01*
X159917264Y-127154410D01*
X159851976Y-127129525D01*
X159839313Y-127118473D01*
X155908618Y-123187778D01*
X155875133Y-123126455D01*
X155872299Y-123100097D01*
X155872299Y-116165080D01*
X155891984Y-116098041D01*
X155944788Y-116052286D01*
X156013946Y-116042342D01*
X156077502Y-116071367D01*
X156083980Y-116077399D01*
X163596589Y-123590008D01*
X163683992Y-123677411D01*
X163683994Y-123677413D01*
X163683996Y-123677414D01*
X163786756Y-123746076D01*
X163786758Y-123746077D01*
X163786767Y-123746083D01*
X163798243Y-123750836D01*
X163805658Y-123753908D01*
X163805661Y-123753909D01*
X163805666Y-123753911D01*
X163900965Y-123793385D01*
X163900969Y-123793385D01*
X163900970Y-123793386D01*
X164022194Y-123817500D01*
X164022197Y-123817500D01*
X164145803Y-123817500D01*
X166370039Y-123817500D01*
X166437078Y-123837185D01*
X166480525Y-123885208D01*
X166486949Y-123897818D01*
X166611890Y-124069786D01*
X166762209Y-124220105D01*
X166762214Y-124220109D01*
X166926793Y-124339682D01*
X166969459Y-124395011D01*
X166975438Y-124464625D01*
X166942833Y-124526420D01*
X166926793Y-124540318D01*
X166762214Y-124659890D01*
X166762209Y-124659894D01*
X166611890Y-124810213D01*
X166486951Y-124982179D01*
X166390444Y-125171585D01*
X166324753Y-125373760D01*
X166291500Y-125583713D01*
X166291500Y-125796286D01*
X166318714Y-125968112D01*
X166324754Y-126006243D01*
X166358615Y-126110457D01*
X166390444Y-126208414D01*
X166486951Y-126397820D01*
X166611890Y-126569786D01*
X166762213Y-126720109D01*
X166934179Y-126845048D01*
X166934181Y-126845049D01*
X166934184Y-126845051D01*
X167123588Y-126941557D01*
X167325757Y-127007246D01*
X167535713Y-127040500D01*
X167535714Y-127040500D01*
X167998286Y-127040500D01*
X167998287Y-127040500D01*
X168208243Y-127007246D01*
X168410412Y-126941557D01*
X168599816Y-126845051D01*
X168621789Y-126829086D01*
X168771786Y-126720109D01*
X168771788Y-126720106D01*
X168771792Y-126720104D01*
X168922104Y-126569792D01*
X168922106Y-126569788D01*
X168922109Y-126569786D01*
X169047048Y-126397820D01*
X169047047Y-126397820D01*
X169047051Y-126397816D01*
X169143557Y-126208412D01*
X169209246Y-126006243D01*
X169242500Y-125796287D01*
X169242500Y-125583713D01*
X169209246Y-125373757D01*
X169143557Y-125171588D01*
X169047051Y-124982184D01*
X169047049Y-124982181D01*
X169047048Y-124982179D01*
X168922109Y-124810213D01*
X168771792Y-124659896D01*
X168771784Y-124659890D01*
X168607204Y-124540316D01*
X168564540Y-124484989D01*
X168558561Y-124415376D01*
X168591166Y-124353580D01*
X168607199Y-124339686D01*
X168771792Y-124220104D01*
X168922104Y-124069792D01*
X168922106Y-124069788D01*
X168922109Y-124069786D01*
X169047048Y-123897820D01*
X169047047Y-123897820D01*
X169047051Y-123897816D01*
X169143557Y-123708412D01*
X169209246Y-123506243D01*
X169242500Y-123296287D01*
X169242500Y-123083713D01*
X169209246Y-122873757D01*
X169143557Y-122671588D01*
X169047051Y-122482184D01*
X169047049Y-122482181D01*
X169047048Y-122482179D01*
X168922109Y-122310213D01*
X168783294Y-122171398D01*
X168749809Y-122110075D01*
X168754793Y-122040383D01*
X168796665Y-121984450D01*
X168805879Y-121978178D01*
X168811331Y-121974814D01*
X168811334Y-121974814D01*
X168960656Y-121882712D01*
X169084712Y-121758656D01*
X169176814Y-121609334D01*
X169231999Y-121442797D01*
X169242500Y-121340009D01*
X169242499Y-120772278D01*
X169262183Y-120705241D01*
X169314987Y-120659486D01*
X169384146Y-120649542D01*
X169447702Y-120678567D01*
X169454180Y-120684599D01*
X171409531Y-122639950D01*
X171443016Y-122701273D01*
X171439782Y-122765948D01*
X171404753Y-122873759D01*
X171371500Y-123083713D01*
X171371500Y-123296287D01*
X171377458Y-123333903D01*
X171404753Y-123506239D01*
X171470444Y-123708414D01*
X171566951Y-123897820D01*
X171691890Y-124069786D01*
X171842209Y-124220105D01*
X171842214Y-124220109D01*
X172006793Y-124339682D01*
X172049459Y-124395011D01*
X172055438Y-124464625D01*
X172022833Y-124526420D01*
X172006793Y-124540318D01*
X171842214Y-124659890D01*
X171842209Y-124659894D01*
X171691890Y-124810213D01*
X171566951Y-124982179D01*
X171470444Y-125171585D01*
X171404753Y-125373760D01*
X171371500Y-125583713D01*
X171371500Y-125796286D01*
X171398714Y-125968112D01*
X171404754Y-126006243D01*
X171438615Y-126110457D01*
X171470444Y-126208414D01*
X171566951Y-126397820D01*
X171691890Y-126569786D01*
X171842213Y-126720109D01*
X172014179Y-126845048D01*
X172014181Y-126845049D01*
X172014184Y-126845051D01*
X172203588Y-126941557D01*
X172405757Y-127007246D01*
X172615713Y-127040500D01*
X172615714Y-127040500D01*
X173078286Y-127040500D01*
X173078287Y-127040500D01*
X173288243Y-127007246D01*
X173490412Y-126941557D01*
X173679816Y-126845051D01*
X173701789Y-126829086D01*
X173851786Y-126720109D01*
X173851788Y-126720106D01*
X173851792Y-126720104D01*
X174002104Y-126569792D01*
X174002106Y-126569788D01*
X174002109Y-126569786D01*
X174127048Y-126397820D01*
X174127047Y-126397820D01*
X174127051Y-126397816D01*
X174223557Y-126208412D01*
X174289246Y-126006243D01*
X174322500Y-125796287D01*
X174322500Y-125583713D01*
X174289246Y-125373757D01*
X174223557Y-125171588D01*
X174127051Y-124982184D01*
X174127049Y-124982181D01*
X174127048Y-124982179D01*
X174002109Y-124810213D01*
X173851792Y-124659896D01*
X173851784Y-124659890D01*
X173687204Y-124540316D01*
X173644540Y-124484989D01*
X173638561Y-124415376D01*
X173671166Y-124353580D01*
X173687199Y-124339686D01*
X173851792Y-124220104D01*
X174002104Y-124069792D01*
X174002106Y-124069788D01*
X174002109Y-124069786D01*
X174127048Y-123897820D01*
X174127047Y-123897820D01*
X174127051Y-123897816D01*
X174223557Y-123708412D01*
X174289246Y-123506243D01*
X174322500Y-123296287D01*
X174322500Y-123083713D01*
X174289246Y-122873757D01*
X174223557Y-122671588D01*
X174127051Y-122482184D01*
X174127049Y-122482181D01*
X174127048Y-122482179D01*
X174002109Y-122310213D01*
X173863294Y-122171398D01*
X173829809Y-122110075D01*
X173834793Y-122040383D01*
X173876665Y-121984450D01*
X173885879Y-121978178D01*
X173891331Y-121974814D01*
X173891334Y-121974814D01*
X174040656Y-121882712D01*
X174164712Y-121758656D01*
X174256814Y-121609334D01*
X174311999Y-121442797D01*
X174322500Y-121340009D01*
X174322499Y-120772278D01*
X174342183Y-120705241D01*
X174394987Y-120659486D01*
X174464146Y-120649542D01*
X174527702Y-120678567D01*
X174534180Y-120684599D01*
X176489531Y-122639950D01*
X176523016Y-122701273D01*
X176519782Y-122765948D01*
X176484753Y-122873759D01*
X176451500Y-123083713D01*
X176451500Y-123296287D01*
X176457458Y-123333903D01*
X176484753Y-123506239D01*
X176550444Y-123708414D01*
X176646951Y-123897820D01*
X176771890Y-124069786D01*
X176922209Y-124220105D01*
X176922214Y-124220109D01*
X177086793Y-124339682D01*
X177129459Y-124395011D01*
X177135438Y-124464625D01*
X177102833Y-124526420D01*
X177086793Y-124540318D01*
X176922214Y-124659890D01*
X176922209Y-124659894D01*
X176771890Y-124810213D01*
X176646951Y-124982179D01*
X176550444Y-125171585D01*
X176484753Y-125373760D01*
X176451500Y-125583713D01*
X176451500Y-125796286D01*
X176478714Y-125968112D01*
X176484754Y-126006243D01*
X176518615Y-126110457D01*
X176550444Y-126208414D01*
X176646951Y-126397820D01*
X176771890Y-126569786D01*
X176922213Y-126720109D01*
X177094179Y-126845048D01*
X177094181Y-126845049D01*
X177094184Y-126845051D01*
X177283588Y-126941557D01*
X177485757Y-127007246D01*
X177695713Y-127040500D01*
X177695714Y-127040500D01*
X178158286Y-127040500D01*
X178158287Y-127040500D01*
X178368243Y-127007246D01*
X178570412Y-126941557D01*
X178759816Y-126845051D01*
X178781789Y-126829086D01*
X178931786Y-126720109D01*
X178931788Y-126720106D01*
X178931792Y-126720104D01*
X179082104Y-126569792D01*
X179082106Y-126569788D01*
X179082109Y-126569786D01*
X179207048Y-126397820D01*
X179207047Y-126397820D01*
X179207051Y-126397816D01*
X179303557Y-126208412D01*
X179369246Y-126006243D01*
X179402500Y-125796287D01*
X179402500Y-125583713D01*
X179369246Y-125373757D01*
X179303557Y-125171588D01*
X179207051Y-124982184D01*
X179207049Y-124982181D01*
X179207048Y-124982179D01*
X179082109Y-124810213D01*
X178931792Y-124659896D01*
X178931784Y-124659890D01*
X178767204Y-124540316D01*
X178724540Y-124484989D01*
X178718561Y-124415376D01*
X178751166Y-124353580D01*
X178767199Y-124339686D01*
X178931792Y-124220104D01*
X179082104Y-124069792D01*
X179082106Y-124069788D01*
X179082109Y-124069786D01*
X179207048Y-123897820D01*
X179207047Y-123897820D01*
X179207051Y-123897816D01*
X179303557Y-123708412D01*
X179369246Y-123506243D01*
X179402500Y-123296287D01*
X179402500Y-123083713D01*
X179369246Y-122873757D01*
X179303557Y-122671588D01*
X179207051Y-122482184D01*
X179207049Y-122482181D01*
X179207048Y-122482179D01*
X179082109Y-122310213D01*
X178943294Y-122171398D01*
X178909809Y-122110075D01*
X178914793Y-122040383D01*
X178956665Y-121984450D01*
X178965879Y-121978178D01*
X178971331Y-121974814D01*
X178971334Y-121974814D01*
X179120656Y-121882712D01*
X179244712Y-121758656D01*
X179336814Y-121609334D01*
X179391999Y-121442797D01*
X179402500Y-121340009D01*
X179402499Y-120772278D01*
X179422183Y-120705241D01*
X179474987Y-120659486D01*
X179544146Y-120649542D01*
X179607702Y-120678567D01*
X179614180Y-120684599D01*
X181569531Y-122639950D01*
X181603016Y-122701273D01*
X181599782Y-122765948D01*
X181564753Y-122873759D01*
X181531500Y-123083713D01*
X181531500Y-123296287D01*
X181537458Y-123333903D01*
X181564753Y-123506239D01*
X181630444Y-123708414D01*
X181726951Y-123897820D01*
X181851890Y-124069786D01*
X182002209Y-124220105D01*
X182002214Y-124220109D01*
X182166793Y-124339682D01*
X182209459Y-124395011D01*
X182215438Y-124464625D01*
X182182833Y-124526420D01*
X182166793Y-124540318D01*
X182002214Y-124659890D01*
X182002209Y-124659894D01*
X181851890Y-124810213D01*
X181726951Y-124982179D01*
X181630444Y-125171585D01*
X181564753Y-125373760D01*
X181531500Y-125583713D01*
X181531500Y-125796286D01*
X181558714Y-125968112D01*
X181564754Y-126006243D01*
X181598615Y-126110457D01*
X181630444Y-126208414D01*
X181726951Y-126397820D01*
X181851890Y-126569786D01*
X182002213Y-126720109D01*
X182174179Y-126845048D01*
X182174181Y-126845049D01*
X182174184Y-126845051D01*
X182363588Y-126941557D01*
X182565757Y-127007246D01*
X182775713Y-127040500D01*
X182775714Y-127040500D01*
X183238286Y-127040500D01*
X183238287Y-127040500D01*
X183448243Y-127007246D01*
X183650412Y-126941557D01*
X183839816Y-126845051D01*
X183861789Y-126829086D01*
X184011786Y-126720109D01*
X184011788Y-126720106D01*
X184011792Y-126720104D01*
X184162104Y-126569792D01*
X184162106Y-126569788D01*
X184162109Y-126569786D01*
X184287048Y-126397820D01*
X184287047Y-126397820D01*
X184287051Y-126397816D01*
X184383557Y-126208412D01*
X184449246Y-126006243D01*
X184482500Y-125796287D01*
X184482500Y-125583713D01*
X184449246Y-125373757D01*
X184383557Y-125171588D01*
X184287051Y-124982184D01*
X184287049Y-124982181D01*
X184287048Y-124982179D01*
X184162109Y-124810213D01*
X184011792Y-124659896D01*
X184011784Y-124659890D01*
X183847204Y-124540316D01*
X183804540Y-124484989D01*
X183798561Y-124415376D01*
X183831166Y-124353580D01*
X183847199Y-124339686D01*
X184011792Y-124220104D01*
X184162104Y-124069792D01*
X184162106Y-124069788D01*
X184162109Y-124069786D01*
X184287048Y-123897820D01*
X184287047Y-123897820D01*
X184287051Y-123897816D01*
X184383557Y-123708412D01*
X184449246Y-123506243D01*
X184482500Y-123296287D01*
X184482500Y-123083713D01*
X184449246Y-122873757D01*
X184383557Y-122671588D01*
X184287051Y-122482184D01*
X184287049Y-122482181D01*
X184287048Y-122482179D01*
X184162109Y-122310213D01*
X184023294Y-122171398D01*
X183989809Y-122110075D01*
X183994793Y-122040383D01*
X184036665Y-121984450D01*
X184045879Y-121978178D01*
X184051331Y-121974814D01*
X184051334Y-121974814D01*
X184200656Y-121882712D01*
X184324712Y-121758656D01*
X184416814Y-121609334D01*
X184471999Y-121442797D01*
X184482500Y-121340009D01*
X184482499Y-120039992D01*
X184471999Y-119937203D01*
X184416814Y-119770666D01*
X184324712Y-119621344D01*
X184200656Y-119497288D01*
X184051334Y-119405186D01*
X183884797Y-119350001D01*
X183884795Y-119350000D01*
X183782010Y-119339500D01*
X182231998Y-119339500D01*
X182231981Y-119339501D01*
X182129203Y-119350000D01*
X182129200Y-119350001D01*
X181962668Y-119405185D01*
X181962663Y-119405187D01*
X181813342Y-119497289D01*
X181689289Y-119621342D01*
X181597187Y-119770663D01*
X181597185Y-119770668D01*
X181581408Y-119818281D01*
X181542001Y-119937203D01*
X181542001Y-119937204D01*
X181542000Y-119937204D01*
X181531500Y-120039983D01*
X181531500Y-120527719D01*
X181511815Y-120594758D01*
X181459011Y-120640513D01*
X181389853Y-120650457D01*
X181326297Y-120621432D01*
X181319819Y-120615400D01*
X178022210Y-117317791D01*
X178022205Y-117317787D01*
X178017627Y-117314728D01*
X177919439Y-117249120D01*
X177919426Y-117249113D01*
X177869660Y-117228500D01*
X177805235Y-117201814D01*
X177805227Y-117201812D01*
X177684007Y-117177700D01*
X177684003Y-117177700D01*
X160734689Y-117177700D01*
X160667650Y-117158015D01*
X160647008Y-117141381D01*
X145486627Y-101981000D01*
X166499644Y-101981000D01*
X166519013Y-102165286D01*
X166519014Y-102165288D01*
X166576274Y-102341514D01*
X166612880Y-102404917D01*
X166668923Y-102501987D01*
X166712112Y-102549954D01*
X166792906Y-102639686D01*
X166792909Y-102639688D01*
X166792912Y-102639691D01*
X166923765Y-102734761D01*
X166942822Y-102748607D01*
X167112095Y-102823973D01*
X167112098Y-102823973D01*
X167112101Y-102823975D01*
X167293351Y-102862500D01*
X167478649Y-102862500D01*
X167659899Y-102823975D01*
X167659902Y-102823973D01*
X167659904Y-102823973D01*
X167716922Y-102798586D01*
X167829178Y-102748607D01*
X167979088Y-102639691D01*
X168103077Y-102501987D01*
X168195726Y-102341513D01*
X168252987Y-102165284D01*
X168258550Y-102112360D01*
X187521506Y-102112360D01*
X187540653Y-102355657D01*
X187540653Y-102355660D01*
X187540654Y-102355662D01*
X187575468Y-102500672D01*
X187597630Y-102592979D01*
X187691022Y-102818449D01*
X187818537Y-103026533D01*
X187818538Y-103026536D01*
X187857377Y-103072010D01*
X187977041Y-103212119D01*
X188120697Y-103334813D01*
X188162623Y-103370621D01*
X188162626Y-103370622D01*
X188370710Y-103498137D01*
X188596181Y-103591529D01*
X188596178Y-103591529D01*
X188596184Y-103591530D01*
X188596188Y-103591532D01*
X188833498Y-103648506D01*
X189076800Y-103667654D01*
X189320102Y-103648506D01*
X189557412Y-103591532D01*
X189782889Y-103498137D01*
X189990979Y-103370619D01*
X190176559Y-103212119D01*
X190335059Y-103026539D01*
X190462577Y-102818449D01*
X190555972Y-102592972D01*
X190612946Y-102355662D01*
X190632094Y-102112360D01*
X190612946Y-101869058D01*
X190555972Y-101631748D01*
X190538173Y-101588777D01*
X190462577Y-101406270D01*
X190335062Y-101198186D01*
X190335061Y-101198183D01*
X190265874Y-101117176D01*
X190176559Y-101012601D01*
X190053863Y-100907809D01*
X189990976Y-100854098D01*
X189990973Y-100854097D01*
X189782889Y-100726582D01*
X189557418Y-100633190D01*
X189557421Y-100633190D01*
X189451792Y-100607830D01*
X189320102Y-100576214D01*
X189320100Y-100576213D01*
X189320097Y-100576213D01*
X189076800Y-100557066D01*
X188833502Y-100576213D01*
X188596180Y-100633190D01*
X188370710Y-100726582D01*
X188162626Y-100854097D01*
X188162623Y-100854098D01*
X187977041Y-101012601D01*
X187818538Y-101198183D01*
X187818537Y-101198186D01*
X187691022Y-101406270D01*
X187597630Y-101631740D01*
X187597628Y-101631747D01*
X187597628Y-101631748D01*
X187585523Y-101682169D01*
X187540653Y-101869062D01*
X187521506Y-102112360D01*
X168258550Y-102112360D01*
X168272356Y-101981000D01*
X168252987Y-101796716D01*
X168195726Y-101620487D01*
X168195725Y-101620485D01*
X168103078Y-101460014D01*
X168103073Y-101460007D01*
X168045350Y-101395899D01*
X168015120Y-101332907D01*
X168013500Y-101312927D01*
X168013500Y-97416671D01*
X168033185Y-97349632D01*
X168045350Y-97333699D01*
X168103077Y-97269587D01*
X168195726Y-97109113D01*
X168252987Y-96932884D01*
X168272356Y-96748600D01*
X168252987Y-96564316D01*
X168195726Y-96388087D01*
X168186402Y-96371938D01*
X168175099Y-96352360D01*
X168103077Y-96227613D01*
X168029861Y-96146298D01*
X167979093Y-96089913D01*
X167979090Y-96089911D01*
X167979089Y-96089910D01*
X167979088Y-96089909D01*
X167829178Y-95980993D01*
X167829177Y-95980992D01*
X167659904Y-95905626D01*
X167659896Y-95905624D01*
X167478649Y-95867100D01*
X167293351Y-95867100D01*
X167112103Y-95905624D01*
X167112095Y-95905626D01*
X166942822Y-95980992D01*
X166792909Y-96089911D01*
X166792906Y-96089913D01*
X166668922Y-96227614D01*
X166576274Y-96388085D01*
X166519014Y-96564311D01*
X166519013Y-96564313D01*
X166499644Y-96748600D01*
X166519013Y-96932886D01*
X166519014Y-96932888D01*
X166576274Y-97109114D01*
X166668921Y-97269585D01*
X166726650Y-97333699D01*
X166756880Y-97396690D01*
X166758500Y-97416671D01*
X166758500Y-101312927D01*
X166738815Y-101379966D01*
X166726650Y-101395899D01*
X166668926Y-101460007D01*
X166668921Y-101460014D01*
X166576274Y-101620485D01*
X166519014Y-101796711D01*
X166519013Y-101796713D01*
X166499644Y-101981000D01*
X145486627Y-101981000D01*
X141379819Y-97874192D01*
X141346334Y-97812869D01*
X141343500Y-97786511D01*
X141343500Y-89412360D01*
X187521506Y-89412360D01*
X187540653Y-89655657D01*
X187597630Y-89892979D01*
X187691022Y-90118449D01*
X187818537Y-90326533D01*
X187818538Y-90326536D01*
X187818541Y-90326539D01*
X187977041Y-90512119D01*
X188120697Y-90634813D01*
X188162623Y-90670621D01*
X188162626Y-90670622D01*
X188370710Y-90798137D01*
X188596181Y-90891529D01*
X188596178Y-90891529D01*
X188596184Y-90891530D01*
X188596188Y-90891532D01*
X188833498Y-90948506D01*
X189076800Y-90967654D01*
X189320102Y-90948506D01*
X189557412Y-90891532D01*
X189782889Y-90798137D01*
X189990979Y-90670619D01*
X190176559Y-90512119D01*
X190335059Y-90326539D01*
X190462577Y-90118449D01*
X190555972Y-89892972D01*
X190612946Y-89655662D01*
X190632094Y-89412360D01*
X190612946Y-89169058D01*
X190555972Y-88931748D01*
X190532781Y-88875759D01*
X190462577Y-88706270D01*
X190335062Y-88498186D01*
X190335061Y-88498183D01*
X190299253Y-88456257D01*
X190176559Y-88312601D01*
X190053863Y-88207809D01*
X189990976Y-88154098D01*
X189990973Y-88154097D01*
X189782889Y-88026582D01*
X189557418Y-87933190D01*
X189557421Y-87933190D01*
X189451792Y-87907830D01*
X189320102Y-87876214D01*
X189320100Y-87876213D01*
X189320097Y-87876213D01*
X189076800Y-87857066D01*
X188833502Y-87876213D01*
X188833498Y-87876214D01*
X188630052Y-87925058D01*
X188596180Y-87933190D01*
X188370710Y-88026582D01*
X188162626Y-88154097D01*
X188162623Y-88154098D01*
X187977041Y-88312601D01*
X187818538Y-88498183D01*
X187818537Y-88498186D01*
X187691022Y-88706270D01*
X187597630Y-88931740D01*
X187540653Y-89169062D01*
X187521506Y-89412360D01*
X141343500Y-89412360D01*
X141343500Y-84709000D01*
X159807341Y-84709000D01*
X159827936Y-84944403D01*
X159827938Y-84944413D01*
X159889094Y-85172655D01*
X159889096Y-85172659D01*
X159889097Y-85172663D01*
X159979852Y-85367287D01*
X159988965Y-85386830D01*
X159988967Y-85386834D01*
X160097281Y-85541521D01*
X160124505Y-85580401D01*
X160291599Y-85747495D01*
X160337184Y-85779414D01*
X160485165Y-85883032D01*
X160485167Y-85883033D01*
X160485170Y-85883035D01*
X160699337Y-85982903D01*
X160927592Y-86044063D01*
X161115918Y-86060539D01*
X161162999Y-86064659D01*
X161163000Y-86064659D01*
X161163001Y-86064659D01*
X161202234Y-86061226D01*
X161398408Y-86044063D01*
X161626663Y-85982903D01*
X161840830Y-85883035D01*
X162034401Y-85747495D01*
X162201495Y-85580401D01*
X162337035Y-85386830D01*
X162346148Y-85367287D01*
X168361500Y-85367287D01*
X168394754Y-85577243D01*
X168450073Y-85747498D01*
X168460444Y-85779414D01*
X168556951Y-85968820D01*
X168681890Y-86140786D01*
X168832213Y-86291109D01*
X169004179Y-86416048D01*
X169004181Y-86416049D01*
X169004184Y-86416051D01*
X169193588Y-86512557D01*
X169395757Y-86578246D01*
X169605713Y-86611500D01*
X169605714Y-86611500D01*
X169818286Y-86611500D01*
X169818287Y-86611500D01*
X170028243Y-86578246D01*
X170230412Y-86512557D01*
X170419816Y-86416051D01*
X170441789Y-86400086D01*
X170591786Y-86291109D01*
X170591788Y-86291106D01*
X170591792Y-86291104D01*
X170742104Y-86140792D01*
X170861683Y-85976204D01*
X170917011Y-85933540D01*
X170986624Y-85927561D01*
X171048420Y-85960166D01*
X171062313Y-85976199D01*
X171111619Y-86044063D01*
X171181896Y-86140792D01*
X171332213Y-86291109D01*
X171504179Y-86416048D01*
X171504181Y-86416049D01*
X171504184Y-86416051D01*
X171693588Y-86512557D01*
X171895757Y-86578246D01*
X172105713Y-86611500D01*
X172105714Y-86611500D01*
X172318286Y-86611500D01*
X172318287Y-86611500D01*
X172528243Y-86578246D01*
X172730412Y-86512557D01*
X172919816Y-86416051D01*
X172941789Y-86400086D01*
X173091786Y-86291109D01*
X173091788Y-86291106D01*
X173091792Y-86291104D01*
X173242104Y-86140792D01*
X173242106Y-86140788D01*
X173242109Y-86140786D01*
X173367048Y-85968820D01*
X173367047Y-85968820D01*
X173367051Y-85968816D01*
X173463557Y-85779412D01*
X173529246Y-85577243D01*
X173562500Y-85367287D01*
X173562500Y-84904713D01*
X173529246Y-84694757D01*
X173463557Y-84492588D01*
X173367051Y-84303184D01*
X173367049Y-84303181D01*
X173367048Y-84303179D01*
X173242109Y-84131213D01*
X173091786Y-83980890D01*
X172919820Y-83855951D01*
X172730414Y-83759444D01*
X172730413Y-83759443D01*
X172730412Y-83759443D01*
X172528243Y-83693754D01*
X172528241Y-83693753D01*
X172528240Y-83693753D01*
X172366957Y-83668208D01*
X172318287Y-83660500D01*
X172105713Y-83660500D01*
X172057042Y-83668208D01*
X171895760Y-83693753D01*
X171693585Y-83759444D01*
X171504179Y-83855951D01*
X171332213Y-83980890D01*
X171181894Y-84131209D01*
X171181890Y-84131214D01*
X171062318Y-84295793D01*
X171006989Y-84338459D01*
X170937375Y-84344438D01*
X170875580Y-84311833D01*
X170861682Y-84295793D01*
X170742109Y-84131214D01*
X170742105Y-84131209D01*
X170591786Y-83980890D01*
X170419820Y-83855951D01*
X170230414Y-83759444D01*
X170230413Y-83759443D01*
X170230412Y-83759443D01*
X170028243Y-83693754D01*
X170028241Y-83693753D01*
X170028240Y-83693753D01*
X169866957Y-83668208D01*
X169818287Y-83660500D01*
X169605713Y-83660500D01*
X169557042Y-83668208D01*
X169395760Y-83693753D01*
X169193585Y-83759444D01*
X169004179Y-83855951D01*
X168832213Y-83980890D01*
X168681890Y-84131213D01*
X168556951Y-84303179D01*
X168460444Y-84492585D01*
X168394753Y-84694760D01*
X168361500Y-84904713D01*
X168361500Y-85367287D01*
X162346148Y-85367287D01*
X162436903Y-85172663D01*
X162498063Y-84944408D01*
X162518659Y-84709000D01*
X162498063Y-84473592D01*
X162436903Y-84245337D01*
X162337035Y-84031171D01*
X162301833Y-83980896D01*
X162201494Y-83837597D01*
X162034402Y-83670506D01*
X162034401Y-83670505D01*
X161848842Y-83540575D01*
X161805218Y-83485998D01*
X161798025Y-83416499D01*
X161829547Y-83354145D01*
X161848843Y-83337425D01*
X162034401Y-83207496D01*
X162201495Y-83040402D01*
X162337035Y-82846831D01*
X162436903Y-82632664D01*
X162498063Y-82404409D01*
X162518659Y-82169001D01*
X162498063Y-81933593D01*
X162471741Y-81835357D01*
X162473404Y-81765507D01*
X162503833Y-81715585D01*
X169746619Y-74472802D01*
X183187477Y-74472802D01*
X183206729Y-74692862D01*
X183206730Y-74692870D01*
X183263904Y-74906245D01*
X183263905Y-74906247D01*
X183263906Y-74906250D01*
X183357264Y-75106458D01*
X183357266Y-75106462D01*
X183357268Y-75106466D01*
X183483970Y-75287415D01*
X183483975Y-75287421D01*
X183640178Y-75443624D01*
X183640184Y-75443629D01*
X183821133Y-75570331D01*
X183821135Y-75570332D01*
X183821138Y-75570334D01*
X184021350Y-75663694D01*
X184234732Y-75720870D01*
X184386470Y-75734145D01*
X184454798Y-75740123D01*
X184454800Y-75740123D01*
X184454802Y-75740123D01*
X184523130Y-75734145D01*
X184674868Y-75720870D01*
X184888250Y-75663694D01*
X185088462Y-75570334D01*
X185269420Y-75443626D01*
X185425626Y-75287420D01*
X185552334Y-75106462D01*
X185612418Y-74977611D01*
X185658590Y-74925171D01*
X185725783Y-74906019D01*
X185792665Y-74926235D01*
X185837182Y-74977611D01*
X185897264Y-75106458D01*
X185897268Y-75106466D01*
X186023970Y-75287415D01*
X186023975Y-75287421D01*
X186180178Y-75443624D01*
X186180184Y-75443629D01*
X186361133Y-75570331D01*
X186361135Y-75570332D01*
X186361138Y-75570334D01*
X186561350Y-75663694D01*
X186774732Y-75720870D01*
X186926470Y-75734145D01*
X186994798Y-75740123D01*
X186994800Y-75740123D01*
X186994802Y-75740123D01*
X187063130Y-75734145D01*
X187214868Y-75720870D01*
X187428250Y-75663694D01*
X187628462Y-75570334D01*
X187809420Y-75443626D01*
X187965626Y-75287420D01*
X188092334Y-75106462D01*
X188152418Y-74977611D01*
X188198590Y-74925171D01*
X188265783Y-74906019D01*
X188332665Y-74926235D01*
X188377182Y-74977611D01*
X188437264Y-75106458D01*
X188437268Y-75106466D01*
X188563970Y-75287415D01*
X188563975Y-75287421D01*
X188720178Y-75443624D01*
X188720184Y-75443629D01*
X188901133Y-75570331D01*
X188901135Y-75570332D01*
X188901138Y-75570334D01*
X189101350Y-75663694D01*
X189314732Y-75720870D01*
X189466470Y-75734145D01*
X189534798Y-75740123D01*
X189534800Y-75740123D01*
X189534802Y-75740123D01*
X189603130Y-75734145D01*
X189754868Y-75720870D01*
X189968250Y-75663694D01*
X190168462Y-75570334D01*
X190349420Y-75443626D01*
X190505626Y-75287420D01*
X190632334Y-75106462D01*
X190725694Y-74906250D01*
X190782870Y-74692868D01*
X190802123Y-74472800D01*
X190782870Y-74252732D01*
X190725694Y-74039350D01*
X190632334Y-73839139D01*
X190505626Y-73658180D01*
X190349420Y-73501974D01*
X190349416Y-73501971D01*
X190349415Y-73501970D01*
X190168466Y-73375268D01*
X190168462Y-73375266D01*
X190168460Y-73375265D01*
X189968250Y-73281906D01*
X189968247Y-73281905D01*
X189968245Y-73281904D01*
X189754870Y-73224730D01*
X189754862Y-73224729D01*
X189534802Y-73205477D01*
X189534798Y-73205477D01*
X189314737Y-73224729D01*
X189314729Y-73224730D01*
X189101354Y-73281904D01*
X189101348Y-73281907D01*
X188901140Y-73375265D01*
X188901138Y-73375266D01*
X188720177Y-73501975D01*
X188563975Y-73658177D01*
X188437266Y-73839138D01*
X188437265Y-73839140D01*
X188377182Y-73967989D01*
X188331009Y-74020428D01*
X188263816Y-74039580D01*
X188196935Y-74019364D01*
X188152418Y-73967989D01*
X188133859Y-73928190D01*
X188092334Y-73839139D01*
X187965626Y-73658180D01*
X187809420Y-73501974D01*
X187809416Y-73501971D01*
X187809415Y-73501970D01*
X187628466Y-73375268D01*
X187628462Y-73375266D01*
X187628460Y-73375265D01*
X187428250Y-73281906D01*
X187428247Y-73281905D01*
X187428245Y-73281904D01*
X187214870Y-73224730D01*
X187214862Y-73224729D01*
X186994802Y-73205477D01*
X186994798Y-73205477D01*
X186774737Y-73224729D01*
X186774729Y-73224730D01*
X186561354Y-73281904D01*
X186561348Y-73281907D01*
X186361140Y-73375265D01*
X186361138Y-73375266D01*
X186180177Y-73501975D01*
X186023975Y-73658177D01*
X185897266Y-73839138D01*
X185897265Y-73839140D01*
X185837182Y-73967989D01*
X185791009Y-74020428D01*
X185723816Y-74039580D01*
X185656935Y-74019364D01*
X185612418Y-73967989D01*
X185593859Y-73928190D01*
X185552334Y-73839139D01*
X185425626Y-73658180D01*
X185269420Y-73501974D01*
X185269416Y-73501971D01*
X185269415Y-73501970D01*
X185088466Y-73375268D01*
X185088462Y-73375266D01*
X185088460Y-73375265D01*
X184888250Y-73281906D01*
X184888247Y-73281905D01*
X184888245Y-73281904D01*
X184674870Y-73224730D01*
X184674862Y-73224729D01*
X184454802Y-73205477D01*
X184454798Y-73205477D01*
X184234737Y-73224729D01*
X184234729Y-73224730D01*
X184021354Y-73281904D01*
X184021348Y-73281907D01*
X183821140Y-73375265D01*
X183821138Y-73375266D01*
X183640177Y-73501975D01*
X183483975Y-73658177D01*
X183357266Y-73839138D01*
X183357265Y-73839140D01*
X183263907Y-74039348D01*
X183263904Y-74039354D01*
X183206730Y-74252729D01*
X183206729Y-74252737D01*
X183187477Y-74472797D01*
X183187477Y-74472802D01*
X169746619Y-74472802D01*
X170413411Y-73806010D01*
X170482083Y-73703234D01*
X170529385Y-73589036D01*
X170553500Y-73467805D01*
X170553500Y-73344198D01*
X170553500Y-57412499D01*
X170573185Y-57345460D01*
X170625989Y-57299705D01*
X170677500Y-57288499D01*
X171929871Y-57288499D01*
X171929872Y-57288499D01*
X171989483Y-57282091D01*
X172124331Y-57231796D01*
X172239546Y-57145546D01*
X172325796Y-57030331D01*
X172376091Y-56895483D01*
X172382500Y-56835873D01*
X172382499Y-55432128D01*
X172376091Y-55372517D01*
X172368769Y-55352887D01*
X172325797Y-55237671D01*
X172325793Y-55237664D01*
X172239547Y-55122455D01*
X172239544Y-55122452D01*
X172124335Y-55036206D01*
X172124328Y-55036202D01*
X171989482Y-54985908D01*
X171989483Y-54985908D01*
X171929883Y-54979501D01*
X171929881Y-54979500D01*
X171929873Y-54979500D01*
X171929865Y-54979500D01*
X170677500Y-54979500D01*
X170610461Y-54959815D01*
X170564706Y-54907011D01*
X170553500Y-54855500D01*
X170553500Y-53405194D01*
X170529386Y-53283970D01*
X170529385Y-53283969D01*
X170529385Y-53283965D01*
X170517926Y-53256300D01*
X170482086Y-53169773D01*
X170482079Y-53169760D01*
X170413412Y-53066993D01*
X170373452Y-53027033D01*
X170326008Y-52979589D01*
X167668280Y-50321861D01*
X167634795Y-50260538D01*
X167632642Y-50247159D01*
X167617987Y-50107716D01*
X167604372Y-50065816D01*
X167602377Y-49995978D01*
X167638457Y-49936145D01*
X167701158Y-49905316D01*
X167722304Y-49903500D01*
X172058719Y-49903500D01*
X172125758Y-49923185D01*
X172146400Y-49939819D01*
X177009491Y-54802910D01*
X177042976Y-54864233D01*
X177037992Y-54933925D01*
X176996120Y-54989858D01*
X176944596Y-55012479D01*
X176910703Y-55018815D01*
X176865812Y-55036206D01*
X176711192Y-55096106D01*
X176711186Y-55096108D01*
X176529286Y-55208736D01*
X176529283Y-55208738D01*
X176529279Y-55208740D01*
X176529278Y-55208742D01*
X176465396Y-55266977D01*
X176371157Y-55352887D01*
X176326954Y-55411422D01*
X176270844Y-55453058D01*
X176201132Y-55457749D01*
X176139951Y-55424007D01*
X176129046Y-55411422D01*
X176084842Y-55352887D01*
X176084841Y-55352886D01*
X175926722Y-55208742D01*
X175926716Y-55208738D01*
X175926713Y-55208736D01*
X175744813Y-55096108D01*
X175744807Y-55096106D01*
X175545297Y-55018815D01*
X175334980Y-54979500D01*
X175121020Y-54979500D01*
X174910703Y-55018815D01*
X174865812Y-55036206D01*
X174711192Y-55096106D01*
X174711186Y-55096108D01*
X174529286Y-55208736D01*
X174529283Y-55208738D01*
X174529279Y-55208740D01*
X174529278Y-55208742D01*
X174371159Y-55352886D01*
X174371158Y-55352887D01*
X174242219Y-55523629D01*
X174146849Y-55715158D01*
X174146846Y-55715164D01*
X174088296Y-55920949D01*
X174088295Y-55920952D01*
X174068554Y-56133999D01*
X174068554Y-56134000D01*
X174088295Y-56347047D01*
X174088296Y-56347050D01*
X174146846Y-56552835D01*
X174146849Y-56552841D01*
X174154531Y-56568268D01*
X174242219Y-56744370D01*
X174371159Y-56915114D01*
X174529278Y-57059258D01*
X174529283Y-57059261D01*
X174529286Y-57059263D01*
X174711186Y-57171891D01*
X174711187Y-57171891D01*
X174711190Y-57171893D01*
X174910703Y-57249185D01*
X175121020Y-57288500D01*
X175121022Y-57288500D01*
X175334978Y-57288500D01*
X175334980Y-57288500D01*
X175545297Y-57249185D01*
X175744810Y-57171893D01*
X175926722Y-57059258D01*
X176084841Y-56915114D01*
X176129046Y-56856576D01*
X176185155Y-56814941D01*
X176254867Y-56810250D01*
X176316049Y-56843992D01*
X176326952Y-56856575D01*
X176371159Y-56915114D01*
X176529278Y-57059258D01*
X176529283Y-57059261D01*
X176529286Y-57059263D01*
X176711186Y-57171891D01*
X176711187Y-57171891D01*
X176711190Y-57171893D01*
X176910703Y-57249185D01*
X177121020Y-57288500D01*
X177121022Y-57288500D01*
X177334978Y-57288500D01*
X177334980Y-57288500D01*
X177545297Y-57249185D01*
X177744810Y-57171893D01*
X177926722Y-57059258D01*
X178084841Y-56915114D01*
X178129046Y-56856576D01*
X178185155Y-56814941D01*
X178254867Y-56810250D01*
X178316049Y-56843992D01*
X178326952Y-56856575D01*
X178371159Y-56915114D01*
X178529278Y-57059258D01*
X178529283Y-57059261D01*
X178529286Y-57059263D01*
X178711186Y-57171891D01*
X178711187Y-57171891D01*
X178711190Y-57171893D01*
X178910703Y-57249185D01*
X179121020Y-57288500D01*
X179121022Y-57288500D01*
X179334978Y-57288500D01*
X179334980Y-57288500D01*
X179545297Y-57249185D01*
X179744810Y-57171893D01*
X179926722Y-57059258D01*
X180084841Y-56915114D01*
X180213781Y-56744370D01*
X180309151Y-56552840D01*
X180309151Y-56552837D01*
X180309153Y-56552835D01*
X180367703Y-56347050D01*
X180367704Y-56347047D01*
X180387446Y-56134000D01*
X180387446Y-56133999D01*
X180367704Y-55920952D01*
X180367703Y-55920949D01*
X180309153Y-55715164D01*
X180309150Y-55715158D01*
X180213781Y-55523630D01*
X180084841Y-55352886D01*
X179926722Y-55208742D01*
X179926716Y-55208738D01*
X179926713Y-55208736D01*
X179744813Y-55096108D01*
X179744807Y-55096106D01*
X179545297Y-55018815D01*
X179334980Y-54979500D01*
X179121020Y-54979500D01*
X179121018Y-54979500D01*
X179050379Y-54992704D01*
X178980864Y-54985672D01*
X178939915Y-54958496D01*
X172770011Y-48788591D01*
X172770007Y-48788588D01*
X172667239Y-48719920D01*
X172667226Y-48719913D01*
X172633785Y-48706062D01*
X172553035Y-48672614D01*
X172553027Y-48672612D01*
X172431807Y-48648500D01*
X172431803Y-48648500D01*
X165288803Y-48648500D01*
X165165197Y-48648500D01*
X165165195Y-48648500D01*
X165043970Y-48672613D01*
X165043960Y-48672616D01*
X164929773Y-48719913D01*
X164929760Y-48719920D01*
X164826992Y-48788588D01*
X164826988Y-48788591D01*
X161828400Y-51787181D01*
X161767077Y-51820666D01*
X161740719Y-51823500D01*
X161705351Y-51823500D01*
X161524103Y-51862024D01*
X161524095Y-51862026D01*
X161354822Y-51937392D01*
X161204909Y-52046311D01*
X161204906Y-52046313D01*
X161080922Y-52184014D01*
X160988274Y-52344485D01*
X160931014Y-52520711D01*
X160931013Y-52520713D01*
X160911644Y-52705000D01*
X160931013Y-52889286D01*
X160931014Y-52889288D01*
X160988274Y-53065514D01*
X161048465Y-53169767D01*
X161080923Y-53225987D01*
X161100207Y-53247404D01*
X161204906Y-53363686D01*
X161204909Y-53363688D01*
X161204912Y-53363691D01*
X161354822Y-53472607D01*
X161524095Y-53547973D01*
X161524098Y-53547973D01*
X161524101Y-53547975D01*
X161705351Y-53586500D01*
X161890649Y-53586500D01*
X162071899Y-53547975D01*
X162071902Y-53547973D01*
X162071904Y-53547973D01*
X162128922Y-53522586D01*
X162241178Y-53472607D01*
X162391088Y-53363691D01*
X162515077Y-53225987D01*
X162607726Y-53065513D01*
X162664987Y-52889284D01*
X162679641Y-52749853D01*
X162706224Y-52685242D01*
X162715271Y-52675146D01*
X165450600Y-49939819D01*
X165511923Y-49906334D01*
X165538281Y-49903500D01*
X165779696Y-49903500D01*
X165846735Y-49923185D01*
X165892490Y-49975989D01*
X165902434Y-50045147D01*
X165897628Y-50065811D01*
X165890732Y-50087034D01*
X165884013Y-50107714D01*
X165884013Y-50107716D01*
X165864644Y-50292000D01*
X165877733Y-50416539D01*
X165865165Y-50485268D01*
X165817433Y-50536292D01*
X165754413Y-50553500D01*
X165642351Y-50553500D01*
X165461103Y-50592024D01*
X165461095Y-50592026D01*
X165291822Y-50667392D01*
X165141909Y-50776311D01*
X165141906Y-50776313D01*
X165017922Y-50914014D01*
X164925274Y-51074485D01*
X164868014Y-51250711D01*
X164868013Y-51250713D01*
X164848644Y-51435000D01*
X164868013Y-51619286D01*
X164868014Y-51619288D01*
X164925273Y-51795512D01*
X164937058Y-51815924D01*
X165017923Y-51955987D01*
X165061112Y-52003954D01*
X165141906Y-52093686D01*
X165141909Y-52093688D01*
X165141912Y-52093691D01*
X165266230Y-52184013D01*
X165291822Y-52202607D01*
X165461095Y-52277973D01*
X165461098Y-52277973D01*
X165461101Y-52277975D01*
X165642351Y-52316500D01*
X165677719Y-52316500D01*
X165744758Y-52336185D01*
X165765400Y-52352819D01*
X168246181Y-54833600D01*
X168279666Y-54894923D01*
X168282500Y-54921281D01*
X168282500Y-66490719D01*
X168262815Y-66557758D01*
X168246181Y-66578400D01*
X163479400Y-71345181D01*
X163418077Y-71378666D01*
X163391719Y-71381500D01*
X162436826Y-71381500D01*
X162369787Y-71361815D01*
X162335251Y-71328623D01*
X162201494Y-71137597D01*
X162034402Y-70970506D01*
X162034395Y-70970501D01*
X161840834Y-70834967D01*
X161840830Y-70834965D01*
X161840828Y-70834964D01*
X161626663Y-70735097D01*
X161626659Y-70735096D01*
X161626655Y-70735094D01*
X161398413Y-70673938D01*
X161398403Y-70673936D01*
X161163001Y-70653341D01*
X161162999Y-70653341D01*
X160927596Y-70673936D01*
X160927586Y-70673938D01*
X160699344Y-70735094D01*
X160699335Y-70735098D01*
X160485171Y-70834964D01*
X160485169Y-70834965D01*
X160291597Y-70970505D01*
X160124505Y-71137597D01*
X159988965Y-71331169D01*
X159988964Y-71331171D01*
X159889098Y-71545335D01*
X159889094Y-71545344D01*
X159827938Y-71773586D01*
X159827936Y-71773596D01*
X159807341Y-72008999D01*
X159807341Y-72009000D01*
X159827936Y-72244403D01*
X159827938Y-72244413D01*
X159889094Y-72472655D01*
X159889096Y-72472659D01*
X159889097Y-72472663D01*
X159932194Y-72565084D01*
X159988965Y-72686830D01*
X159988967Y-72686834D01*
X160124501Y-72880395D01*
X160124506Y-72880402D01*
X160291597Y-73047493D01*
X160291603Y-73047498D01*
X160477158Y-73177425D01*
X160520783Y-73232002D01*
X160527977Y-73301500D01*
X160496454Y-73363855D01*
X160477158Y-73380575D01*
X160291597Y-73510505D01*
X160124505Y-73677597D01*
X159988965Y-73871169D01*
X159988964Y-73871171D01*
X159889098Y-74085335D01*
X159889094Y-74085344D01*
X159827938Y-74313586D01*
X159827936Y-74313596D01*
X159807341Y-74548999D01*
X159807341Y-74549000D01*
X159827936Y-74784403D01*
X159827938Y-74784413D01*
X159889094Y-75012655D01*
X159889096Y-75012659D01*
X159889097Y-75012663D01*
X159932838Y-75106466D01*
X159988965Y-75226830D01*
X159988967Y-75226834D01*
X160124501Y-75420395D01*
X160124506Y-75420402D01*
X160291597Y-75587493D01*
X160291603Y-75587498D01*
X160477158Y-75717425D01*
X160520783Y-75772002D01*
X160527977Y-75841500D01*
X160496454Y-75903855D01*
X160477158Y-75920575D01*
X160291597Y-76050505D01*
X160124505Y-76217597D01*
X159988965Y-76411169D01*
X159988964Y-76411171D01*
X159889098Y-76625335D01*
X159889094Y-76625344D01*
X159827938Y-76853586D01*
X159827936Y-76853596D01*
X159807341Y-77088999D01*
X159807341Y-77089000D01*
X159827936Y-77324403D01*
X159827938Y-77324413D01*
X159889094Y-77552655D01*
X159889096Y-77552659D01*
X159889097Y-77552663D01*
X159988965Y-77766830D01*
X159988967Y-77766834D01*
X160124501Y-77960395D01*
X160124506Y-77960402D01*
X160291597Y-78127493D01*
X160291603Y-78127498D01*
X160477158Y-78257425D01*
X160520783Y-78312002D01*
X160527977Y-78381500D01*
X160496454Y-78443855D01*
X160477158Y-78460575D01*
X160291597Y-78590505D01*
X160124505Y-78757597D01*
X159988965Y-78951169D01*
X159988964Y-78951171D01*
X159889098Y-79165335D01*
X159889094Y-79165344D01*
X159827938Y-79393586D01*
X159827936Y-79393596D01*
X159807341Y-79628999D01*
X159807341Y-79629000D01*
X159827936Y-79864403D01*
X159827938Y-79864413D01*
X159889094Y-80092655D01*
X159889096Y-80092659D01*
X159889097Y-80092663D01*
X159988965Y-80306830D01*
X159988967Y-80306834D01*
X160124501Y-80500395D01*
X160124506Y-80500402D01*
X160291597Y-80667493D01*
X160291603Y-80667498D01*
X160477158Y-80797425D01*
X160520783Y-80852002D01*
X160527977Y-80921500D01*
X160496454Y-80983855D01*
X160477159Y-81000575D01*
X160291594Y-81130509D01*
X160124505Y-81297598D01*
X159988965Y-81491170D01*
X159988964Y-81491172D01*
X159889098Y-81705336D01*
X159889094Y-81705345D01*
X159827938Y-81933587D01*
X159827936Y-81933597D01*
X159807341Y-82169000D01*
X159807341Y-82169001D01*
X159827936Y-82404404D01*
X159827938Y-82404414D01*
X159889094Y-82632656D01*
X159889096Y-82632660D01*
X159889097Y-82632664D01*
X159898724Y-82653309D01*
X159988965Y-82846831D01*
X159988967Y-82846835D01*
X160062246Y-82951487D01*
X160124505Y-83040402D01*
X160291599Y-83207496D01*
X160447328Y-83316539D01*
X160477157Y-83337425D01*
X160520782Y-83392002D01*
X160527976Y-83461500D01*
X160496453Y-83523855D01*
X160477158Y-83540575D01*
X160291594Y-83670508D01*
X160124505Y-83837597D01*
X159988965Y-84031169D01*
X159988964Y-84031171D01*
X159889098Y-84245335D01*
X159889094Y-84245344D01*
X159827938Y-84473586D01*
X159827936Y-84473596D01*
X159807341Y-84708999D01*
X159807341Y-84709000D01*
X141343500Y-84709000D01*
X141343500Y-80964196D01*
X141343499Y-80964195D01*
X141331308Y-80902903D01*
X141319386Y-80842966D01*
X141274407Y-80734379D01*
X141272763Y-80729784D01*
X141203414Y-80625996D01*
X141203413Y-80625994D01*
X141203411Y-80625992D01*
X141116008Y-80538589D01*
X138839280Y-78261861D01*
X138805795Y-78200538D01*
X138803642Y-78187159D01*
X138788987Y-78047716D01*
X138731726Y-77871487D01*
X138639077Y-77711013D01*
X138590514Y-77657078D01*
X138515093Y-77573313D01*
X138515090Y-77573311D01*
X138515089Y-77573310D01*
X138515088Y-77573309D01*
X138365178Y-77464393D01*
X138365177Y-77464392D01*
X138195904Y-77389026D01*
X138195896Y-77389024D01*
X138014649Y-77350500D01*
X137829351Y-77350500D01*
X137648103Y-77389024D01*
X137648095Y-77389026D01*
X137478822Y-77464392D01*
X137328909Y-77573311D01*
X137328906Y-77573313D01*
X137204922Y-77711014D01*
X137112274Y-77871485D01*
X137055014Y-78047711D01*
X137055013Y-78047713D01*
X137035644Y-78232000D01*
X137055013Y-78416286D01*
X137055014Y-78416288D01*
X137112274Y-78592514D01*
X137185343Y-78719074D01*
X137204923Y-78752987D01*
X137209076Y-78757599D01*
X137328906Y-78890686D01*
X137328909Y-78890688D01*
X137328912Y-78890691D01*
X137412153Y-78951169D01*
X137478822Y-78999607D01*
X137648095Y-79074973D01*
X137648098Y-79074973D01*
X137648101Y-79074975D01*
X137829351Y-79113500D01*
X137864719Y-79113500D01*
X137931758Y-79133185D01*
X137952400Y-79149819D01*
X140052181Y-81249600D01*
X140085666Y-81310923D01*
X140088500Y-81337281D01*
X140088500Y-84291719D01*
X140068815Y-84358758D01*
X140016011Y-84404513D01*
X139946853Y-84414457D01*
X139883297Y-84385432D01*
X139876819Y-84379400D01*
X138839280Y-83341861D01*
X138805795Y-83280538D01*
X138803642Y-83267159D01*
X138788987Y-83127716D01*
X138731726Y-82951487D01*
X138639077Y-82791013D01*
X138590514Y-82737078D01*
X138515093Y-82653313D01*
X138515090Y-82653311D01*
X138515089Y-82653310D01*
X138515088Y-82653309D01*
X138365178Y-82544393D01*
X138365177Y-82544392D01*
X138195904Y-82469026D01*
X138195896Y-82469024D01*
X138014649Y-82430500D01*
X137829351Y-82430500D01*
X137648103Y-82469024D01*
X137648095Y-82469026D01*
X137478822Y-82544392D01*
X137328909Y-82653311D01*
X137328906Y-82653313D01*
X137204922Y-82791014D01*
X137112274Y-82951485D01*
X137055014Y-83127711D01*
X137055013Y-83127713D01*
X137035644Y-83312000D01*
X137055013Y-83496286D01*
X137055014Y-83496288D01*
X137112274Y-83672514D01*
X137162463Y-83759444D01*
X137204923Y-83832987D01*
X137209076Y-83837599D01*
X137328906Y-83970686D01*
X137328909Y-83970688D01*
X137328912Y-83970691D01*
X137412153Y-84031169D01*
X137478822Y-84079607D01*
X137648095Y-84154973D01*
X137648098Y-84154973D01*
X137648101Y-84154975D01*
X137829351Y-84193500D01*
X137864719Y-84193500D01*
X137931758Y-84213185D01*
X137952400Y-84229819D01*
X139544181Y-85821600D01*
X139577666Y-85882923D01*
X139580500Y-85909281D01*
X139580500Y-90387719D01*
X139560815Y-90454758D01*
X139508011Y-90500513D01*
X139438853Y-90510457D01*
X139375297Y-90481432D01*
X139368819Y-90475400D01*
X138839280Y-89945861D01*
X138805795Y-89884538D01*
X138803642Y-89871159D01*
X138788987Y-89731716D01*
X138731726Y-89555487D01*
X138639077Y-89395013D01*
X138590514Y-89341078D01*
X138515093Y-89257313D01*
X138515090Y-89257311D01*
X138515089Y-89257310D01*
X138515088Y-89257309D01*
X138415148Y-89184698D01*
X138365177Y-89148392D01*
X138195904Y-89073026D01*
X138195896Y-89073024D01*
X138014649Y-89034500D01*
X137829351Y-89034500D01*
X137648103Y-89073024D01*
X137648095Y-89073026D01*
X137478822Y-89148392D01*
X137328909Y-89257311D01*
X137328906Y-89257313D01*
X137204922Y-89395014D01*
X137112274Y-89555485D01*
X137055014Y-89731711D01*
X137055013Y-89731713D01*
X137035644Y-89916000D01*
X137055013Y-90100286D01*
X137055014Y-90100288D01*
X137112274Y-90276514D01*
X137141156Y-90326539D01*
X137204923Y-90436987D01*
X137239510Y-90475400D01*
X137328906Y-90574686D01*
X137328909Y-90574688D01*
X137328912Y-90574691D01*
X137383289Y-90614198D01*
X137478822Y-90683607D01*
X137648095Y-90758973D01*
X137648098Y-90758973D01*
X137648101Y-90758975D01*
X137829351Y-90797500D01*
X137864719Y-90797500D01*
X137931758Y-90817185D01*
X137952400Y-90833819D01*
X139036181Y-91917600D01*
X139069666Y-91978923D01*
X139072500Y-92005281D01*
X139072500Y-96991719D01*
X139052815Y-97058758D01*
X139000011Y-97104513D01*
X138930853Y-97114457D01*
X138867297Y-97085432D01*
X138860819Y-97079400D01*
X138712819Y-96931400D01*
X138679334Y-96870077D01*
X138676500Y-96843719D01*
X138676500Y-95588038D01*
X138693113Y-95526038D01*
X138738651Y-95447164D01*
X138795912Y-95270935D01*
X138815281Y-95086651D01*
X138795912Y-94902367D01*
X138738651Y-94726138D01*
X138646002Y-94565664D01*
X138597439Y-94511729D01*
X138522018Y-94427964D01*
X138522015Y-94427962D01*
X138522014Y-94427961D01*
X138522013Y-94427960D01*
X138422073Y-94355349D01*
X138372102Y-94319043D01*
X138202829Y-94243677D01*
X138202821Y-94243675D01*
X138021574Y-94205151D01*
X137836276Y-94205151D01*
X137655028Y-94243675D01*
X137655020Y-94243677D01*
X137485747Y-94319043D01*
X137335834Y-94427962D01*
X137335831Y-94427964D01*
X137211847Y-94565665D01*
X137119199Y-94726136D01*
X137061939Y-94902362D01*
X137061938Y-94902364D01*
X137042569Y-95086651D01*
X137061938Y-95270937D01*
X137061939Y-95270939D01*
X137119199Y-95447165D01*
X137181350Y-95554813D01*
X137211848Y-95607638D01*
X137261491Y-95662773D01*
X137335834Y-95745340D01*
X137335837Y-95745342D01*
X137370384Y-95770442D01*
X137413050Y-95825770D01*
X137421500Y-95870760D01*
X137421500Y-96146298D01*
X137401815Y-96213337D01*
X137349011Y-96259092D01*
X137279853Y-96269036D01*
X137216297Y-96240011D01*
X137209819Y-96233979D01*
X134232821Y-93256981D01*
X134199336Y-93195658D01*
X134196502Y-93169300D01*
X134196502Y-92509199D01*
X134202570Y-92470884D01*
X134203541Y-92467897D01*
X134228375Y-92311098D01*
X134231500Y-92291370D01*
X134231500Y-92112627D01*
X134209084Y-91971101D01*
X134203541Y-91936103D01*
X134148309Y-91766119D01*
X134148307Y-91766116D01*
X134148307Y-91766114D01*
X134067166Y-91606867D01*
X134062830Y-91600899D01*
X133962111Y-91462271D01*
X133835729Y-91335889D01*
X133691132Y-91230833D01*
X133531885Y-91149692D01*
X133487286Y-91135201D01*
X133361897Y-91094459D01*
X133361891Y-91094458D01*
X133185372Y-91066500D01*
X133185367Y-91066500D01*
X133006634Y-91066500D01*
X133006630Y-91066500D01*
X132830108Y-91094458D01*
X132830106Y-91094458D01*
X132830103Y-91094459D01*
X132745111Y-91122075D01*
X132660115Y-91149692D01*
X132500868Y-91230833D01*
X132453616Y-91265164D01*
X132356272Y-91335889D01*
X132356270Y-91335891D01*
X132356269Y-91335891D01*
X132194892Y-91497268D01*
X132089835Y-91641865D01*
X132008245Y-91801995D01*
X132007186Y-91805752D01*
X131953461Y-91971099D01*
X131953459Y-91971108D01*
X131932745Y-92101902D01*
X131932745Y-92101903D01*
X131925502Y-92147632D01*
X131925502Y-93780372D01*
X108799064Y-93780372D01*
X108781989Y-93617914D01*
X108724728Y-93441685D01*
X108632079Y-93281211D01*
X108555047Y-93195658D01*
X108508095Y-93143511D01*
X108508092Y-93143509D01*
X108508091Y-93143508D01*
X108508090Y-93143507D01*
X108398234Y-93063692D01*
X108358179Y-93034590D01*
X108188906Y-92959224D01*
X108188898Y-92959222D01*
X108007651Y-92920698D01*
X107822353Y-92920698D01*
X107641105Y-92959222D01*
X107641097Y-92959224D01*
X107471824Y-93034590D01*
X107378756Y-93102209D01*
X107321914Y-93143507D01*
X107321912Y-93143508D01*
X107316657Y-93147327D01*
X107315792Y-93146136D01*
X107259655Y-93173078D01*
X107239674Y-93174698D01*
X96763500Y-93174698D01*
X96696461Y-93155013D01*
X96650706Y-93102209D01*
X96639500Y-93050698D01*
X96639500Y-58858281D01*
X96659185Y-58791242D01*
X96675819Y-58770600D01*
X101569600Y-53876819D01*
X101630923Y-53843334D01*
X101657281Y-53840500D01*
X138880719Y-53840500D01*
X138947758Y-53860185D01*
X138968400Y-53876819D01*
X144116718Y-59025137D01*
X144150203Y-59086460D01*
X144152357Y-59099852D01*
X144167013Y-59239284D01*
X144167014Y-59239286D01*
X144167014Y-59239288D01*
X144224274Y-59415514D01*
X144297343Y-59542074D01*
X144316923Y-59575987D01*
X144346637Y-59608988D01*
X144440906Y-59713686D01*
X144440909Y-59713688D01*
X144440912Y-59713691D01*
X144590822Y-59822607D01*
X144760095Y-59897973D01*
X144760098Y-59897973D01*
X144760101Y-59897975D01*
X144892408Y-59926097D01*
X144933386Y-59934807D01*
X144994868Y-59967999D01*
X145028645Y-60029162D01*
X145023993Y-60098876D01*
X144982389Y-60155009D01*
X144917041Y-60179737D01*
X144907606Y-60180097D01*
X137572879Y-60180097D01*
X137505840Y-60160412D01*
X137485198Y-60143778D01*
X136426280Y-59084860D01*
X136392795Y-59023537D01*
X136390642Y-59010158D01*
X136375987Y-58870716D01*
X136318726Y-58694487D01*
X136318449Y-58694008D01*
X136280526Y-58628323D01*
X136226077Y-58534013D01*
X136177514Y-58480078D01*
X136102093Y-58396313D01*
X136102090Y-58396311D01*
X136102089Y-58396310D01*
X136102088Y-58396309D01*
X135952178Y-58287393D01*
X135952177Y-58287392D01*
X135782904Y-58212026D01*
X135782896Y-58212024D01*
X135601649Y-58173500D01*
X135416351Y-58173500D01*
X135235103Y-58212024D01*
X135235095Y-58212026D01*
X135065822Y-58287392D01*
X134915909Y-58396311D01*
X134915906Y-58396313D01*
X134791922Y-58534014D01*
X134727387Y-58645792D01*
X134676820Y-58694008D01*
X134608213Y-58707231D01*
X134543348Y-58681263D01*
X134512613Y-58645792D01*
X134467999Y-58568519D01*
X134448077Y-58534013D01*
X134399514Y-58480078D01*
X134324093Y-58396313D01*
X134324090Y-58396311D01*
X134324089Y-58396310D01*
X134324088Y-58396309D01*
X134174178Y-58287393D01*
X134174177Y-58287392D01*
X134004904Y-58212026D01*
X134004896Y-58212024D01*
X133823649Y-58173500D01*
X133638351Y-58173500D01*
X133457103Y-58212024D01*
X133457095Y-58212026D01*
X133287822Y-58287392D01*
X133137909Y-58396311D01*
X133137906Y-58396313D01*
X133124650Y-58411037D01*
X133065164Y-58447686D01*
X132995307Y-58446356D01*
X132940350Y-58411037D01*
X132927093Y-58396313D01*
X132927090Y-58396311D01*
X132927089Y-58396310D01*
X132927088Y-58396309D01*
X132777178Y-58287393D01*
X132777177Y-58287392D01*
X132607904Y-58212026D01*
X132607896Y-58212024D01*
X132426649Y-58173500D01*
X132241351Y-58173500D01*
X132060103Y-58212024D01*
X132060095Y-58212026D01*
X131890822Y-58287392D01*
X131740909Y-58396311D01*
X131740906Y-58396313D01*
X131649293Y-58498061D01*
X131589806Y-58534710D01*
X131519949Y-58533379D01*
X131464993Y-58498061D01*
X131403093Y-58429314D01*
X131403090Y-58429312D01*
X131403089Y-58429311D01*
X131403088Y-58429310D01*
X131253178Y-58320394D01*
X131253177Y-58320393D01*
X131083904Y-58245027D01*
X131083896Y-58245025D01*
X130902649Y-58206501D01*
X130717351Y-58206501D01*
X130536103Y-58245025D01*
X130536095Y-58245027D01*
X130366822Y-58320393D01*
X130216909Y-58429312D01*
X130216906Y-58429314D01*
X130092922Y-58567015D01*
X130000274Y-58727486D01*
X129943014Y-58903712D01*
X129943013Y-58903714D01*
X129923644Y-59088001D01*
X129943013Y-59272287D01*
X129943014Y-59272289D01*
X130000274Y-59448515D01*
X130073343Y-59575075D01*
X130092923Y-59608988D01*
X130136112Y-59656955D01*
X130216906Y-59746687D01*
X130216909Y-59746689D01*
X130216912Y-59746692D01*
X130321400Y-59822607D01*
X130366822Y-59855608D01*
X130536095Y-59930974D01*
X130536098Y-59930974D01*
X130536101Y-59930976D01*
X130717351Y-59969501D01*
X130785720Y-59969501D01*
X130852759Y-59989186D01*
X130873401Y-60005820D01*
X134905794Y-64038214D01*
X134905798Y-64038217D01*
X135008566Y-64106885D01*
X135008579Y-64106892D01*
X135122766Y-64154189D01*
X135122771Y-64154191D01*
X135122775Y-64154191D01*
X135122776Y-64154192D01*
X135243999Y-64178306D01*
X135244002Y-64178306D01*
X135244003Y-64178306D01*
X157219525Y-64178306D01*
X157286564Y-64197991D01*
X157307206Y-64214625D01*
X158975718Y-65883137D01*
X159009203Y-65944460D01*
X159011357Y-65957852D01*
X159026013Y-66097284D01*
X159026014Y-66097286D01*
X159026014Y-66097288D01*
X159083274Y-66273514D01*
X159156343Y-66400074D01*
X159175923Y-66433987D01*
X159219112Y-66481954D01*
X159299906Y-66571686D01*
X159299909Y-66571688D01*
X159299912Y-66571691D01*
X159449822Y-66680607D01*
X159619095Y-66755973D01*
X159619098Y-66755973D01*
X159619101Y-66755975D01*
X159800351Y-66794500D01*
X159985649Y-66794500D01*
X160166899Y-66755975D01*
X160166902Y-66755973D01*
X160166904Y-66755973D01*
X160223922Y-66730586D01*
X160336178Y-66680607D01*
X160486088Y-66571691D01*
X160498634Y-66557758D01*
X160558995Y-66490719D01*
X160610077Y-66433987D01*
X160702726Y-66273513D01*
X160759987Y-66097284D01*
X160779356Y-65913000D01*
X160759987Y-65728716D01*
X160702726Y-65552487D01*
X160610077Y-65392013D01*
X160561514Y-65338078D01*
X160486093Y-65254313D01*
X160486090Y-65254311D01*
X160486089Y-65254310D01*
X160486088Y-65254309D01*
X160336178Y-65145393D01*
X160336177Y-65145392D01*
X160166904Y-65070026D01*
X160166896Y-65070024D01*
X159985649Y-65031500D01*
X159950281Y-65031500D01*
X159883242Y-65011815D01*
X159862600Y-64995181D01*
X158343003Y-63475584D01*
X158309518Y-63414261D01*
X158314502Y-63344569D01*
X158356374Y-63288636D01*
X158421838Y-63264219D01*
X158430684Y-63263903D01*
X163417122Y-63263903D01*
X163484161Y-63283588D01*
X163504803Y-63300222D01*
X164007370Y-63802789D01*
X164040855Y-63864112D01*
X164042429Y-63892804D01*
X164043444Y-63892804D01*
X164043444Y-63899299D01*
X164062813Y-64083588D01*
X164062814Y-64083590D01*
X164120074Y-64259816D01*
X164193143Y-64386376D01*
X164212723Y-64420289D01*
X164255912Y-64468256D01*
X164336706Y-64557988D01*
X164336709Y-64557990D01*
X164336712Y-64557993D01*
X164486622Y-64666909D01*
X164655895Y-64742275D01*
X164655898Y-64742275D01*
X164655901Y-64742277D01*
X164837151Y-64780802D01*
X165022449Y-64780802D01*
X165203699Y-64742277D01*
X165203702Y-64742275D01*
X165203704Y-64742275D01*
X165260722Y-64716888D01*
X165372978Y-64666909D01*
X165522888Y-64557993D01*
X165646877Y-64420289D01*
X165739526Y-64259815D01*
X165796787Y-64083586D01*
X165816156Y-63899302D01*
X165796787Y-63715018D01*
X165739526Y-63538789D01*
X165646877Y-63378315D01*
X165561585Y-63283588D01*
X165522893Y-63240615D01*
X165522890Y-63240613D01*
X165522889Y-63240612D01*
X165522888Y-63240611D01*
X165372978Y-63131695D01*
X165372977Y-63131694D01*
X165203704Y-63056328D01*
X165203696Y-63056326D01*
X165026340Y-63018629D01*
X164964858Y-62985437D01*
X164964439Y-62985020D01*
X164128414Y-62148994D01*
X164128410Y-62148991D01*
X164025642Y-62080323D01*
X164025629Y-62080316D01*
X163992188Y-62066465D01*
X163911438Y-62033017D01*
X163911430Y-62033015D01*
X163790210Y-62008903D01*
X163790206Y-62008903D01*
X163280272Y-62008903D01*
X163213233Y-61989218D01*
X163167478Y-61936414D01*
X163157534Y-61867256D01*
X163186559Y-61803700D01*
X163192591Y-61797222D01*
X163967802Y-61022011D01*
X166316668Y-58673143D01*
X166331451Y-58660517D01*
X166455088Y-58570691D01*
X166579077Y-58432987D01*
X166671726Y-58272513D01*
X166728987Y-58096284D01*
X166748356Y-57912000D01*
X166728987Y-57727716D01*
X166671726Y-57551487D01*
X166579077Y-57391013D01*
X166530514Y-57337078D01*
X166455093Y-57253313D01*
X166455090Y-57253311D01*
X166455089Y-57253310D01*
X166455088Y-57253309D01*
X166355148Y-57180698D01*
X166305177Y-57144392D01*
X166135904Y-57069026D01*
X166135896Y-57069024D01*
X165954649Y-57030500D01*
X165769351Y-57030500D01*
X165588103Y-57069024D01*
X165588095Y-57069026D01*
X165418822Y-57144392D01*
X165268909Y-57253311D01*
X165268906Y-57253313D01*
X165144922Y-57391014D01*
X165052274Y-57551485D01*
X164995014Y-57727711D01*
X164995013Y-57727713D01*
X164995013Y-57727716D01*
X164975644Y-57912000D01*
X164977713Y-57931685D01*
X164995013Y-58096285D01*
X164995014Y-58096287D01*
X165001862Y-58117362D01*
X165003857Y-58187203D01*
X164971612Y-58243361D01*
X162156794Y-61058181D01*
X162095471Y-61091666D01*
X162069113Y-61094500D01*
X153673320Y-61094500D01*
X153606281Y-61074815D01*
X153560526Y-61022011D01*
X153549999Y-60957540D01*
X153565759Y-60807597D01*
X153546390Y-60623313D01*
X153489129Y-60447084D01*
X153396480Y-60286610D01*
X153347917Y-60232675D01*
X153272496Y-60148910D01*
X153272493Y-60148908D01*
X153272492Y-60148907D01*
X153272491Y-60148906D01*
X153122581Y-60039990D01*
X153122580Y-60039989D01*
X152953307Y-59964623D01*
X152953299Y-59964621D01*
X152772052Y-59926097D01*
X152586754Y-59926097D01*
X152405506Y-59964621D01*
X152405498Y-59964623D01*
X152236225Y-60039989D01*
X152155175Y-60098876D01*
X152086315Y-60148906D01*
X152086313Y-60148907D01*
X152081058Y-60152726D01*
X152080193Y-60151535D01*
X152024056Y-60178477D01*
X152004075Y-60180097D01*
X145160394Y-60180097D01*
X145093355Y-60160412D01*
X145047600Y-60107608D01*
X145037656Y-60038450D01*
X145066681Y-59974894D01*
X145125459Y-59937120D01*
X145134614Y-59934807D01*
X145175592Y-59926097D01*
X145307899Y-59897975D01*
X145307902Y-59897973D01*
X145307904Y-59897973D01*
X145364922Y-59872586D01*
X145477178Y-59822607D01*
X145627088Y-59713691D01*
X145751077Y-59575987D01*
X145843726Y-59415513D01*
X145900987Y-59239284D01*
X145920356Y-59055000D01*
X145900987Y-58870716D01*
X145843726Y-58694487D01*
X145810199Y-58636417D01*
X145793727Y-58568519D01*
X145816579Y-58502492D01*
X145825426Y-58491460D01*
X145878077Y-58432987D01*
X145970726Y-58272513D01*
X146027987Y-58096284D01*
X146047356Y-57912000D01*
X146027987Y-57727716D01*
X145970726Y-57551487D01*
X145878077Y-57391013D01*
X145878073Y-57391007D01*
X145820350Y-57326899D01*
X145790120Y-57263907D01*
X145788500Y-57243927D01*
X145788500Y-51815924D01*
X145784440Y-51795513D01*
X145764386Y-51694693D01*
X145719407Y-51586106D01*
X145717763Y-51581511D01*
X145648414Y-51477723D01*
X145648413Y-51477721D01*
X145605692Y-51435000D01*
X145561008Y-51390316D01*
X144278406Y-50107714D01*
X142959284Y-48788591D01*
X142959280Y-48788588D01*
X142856512Y-48719920D01*
X142856499Y-48719913D01*
X142823058Y-48706062D01*
X142742308Y-48672614D01*
X142742300Y-48672612D01*
X142621080Y-48648500D01*
X142621076Y-48648500D01*
X108007281Y-48648500D01*
X107940242Y-48628815D01*
X107919600Y-48612181D01*
X106797191Y-47489772D01*
X106763706Y-47428449D01*
X106768690Y-47358757D01*
X106798992Y-47312647D01*
X108085151Y-46077935D01*
X108094051Y-46070172D01*
X108270279Y-45930735D01*
X108290159Y-45917889D01*
X108484369Y-45817244D01*
X108506321Y-45808413D01*
X108716123Y-45746519D01*
X108739361Y-45742019D01*
X108963033Y-45720565D01*
X108974872Y-45720000D01*
X183191950Y-45720000D01*
X183258989Y-45739685D01*
G37*
%TD.AperFunction*%
%TD*%
M02*
